<svg width="312" height="312" viewBox="0 0 312 312" fill="none" xmlns="http://www.w3.org/2000/svg">
<path d="M16.7618 219.072L299.197 219.072C299.197 219.072 323.5 185.585 303.5 169.085C303.5 169.085 294.8 163.668 287.705 164.726C287.705 164.726 308.281 105.312 253.38 86.2319C253.38 86.2319 181.5 67.5849 172.656 138.087C172.656 138.087 141.5 132.085 144.5 164.726C144.5 164.726 133.5 130.085 101.344 142.752C101.344 142.752 77.5 154.585 87.2808 179.512C87.2808 179.512 23.1475 159.715 2 219.085L16.7618 219.072Z" fill="url(#paint0_linear_583_703)" fill-opacity="0.25"/>
<path d="M249.587 132.173C248.688 131.684 248.775 130.365 249.732 129.999C255.821 127.665 261.196 126.453 264.255 126.049C265.663 125.863 266.88 127.034 266.75 128.453C266.618 129.903 266.416 131.741 266.134 133.452C266.134 133.452 282.683 125.317 295.687 127.025C296.717 127.162 297.496 128.026 297.575 129.061C297.834 132.509 297.785 141.111 293.438 155.425L297.641 155.776C298.857 155.88 299.765 156.942 299.665 158.161C299.445 160.883 298.616 166.43 296.429 172.987C296.098 173.978 294.746 174.112 294.244 173.195C290.007 165.459 277.791 147.477 249.587 132.173Z" fill="#FF4747"/>
<path d="M235.45 135.733C269.346 149.692 286.375 176.959 291.889 187.454C292.455 188.526 292.41 189.811 291.783 190.851C287.484 197.949 281.505 204.858 273.233 210.065C258.738 217.797 246.602 215.384 238.653 213.35C222.707 209.269 207.236 190.091 210.574 167.672C212.759 152.994 221.948 142.854 232.256 136.056C233.204 135.431 234.402 135.299 235.45 135.733Z" fill="#FF4747"/>
<path d="M237.786 132.989C239.354 132.044 239.948 131.782 241.676 131.057C242.523 130.702 243.485 130.734 244.304 131.156C278.944 149.039 292.25 171.673 296.104 179.365C296.489 180.131 296.533 181.015 296.241 181.822C295.638 183.49 295.461 184.065 294.651 185.592C294.237 186.366 293.13 186.365 292.721 185.589C287.22 175.251 270.815 149.918 237.89 134.925C237.092 134.563 237.034 133.444 237.786 132.989Z" fill="#575FF1"/>
<path fill-rule="evenodd" clip-rule="evenodd" d="M250.435 179.568C249.755 179.414 249.078 179.84 248.921 180.52L248.919 180.527C248.917 180.535 248.914 180.551 248.908 180.573C248.896 180.616 248.877 180.686 248.85 180.778C248.795 180.961 248.706 181.23 248.576 181.554C248.315 182.205 247.897 183.051 247.273 183.856C246.059 185.42 244.063 186.863 240.668 186.398C239.976 186.303 239.337 186.788 239.242 187.482C239.147 188.175 239.632 188.814 240.324 188.909C244.789 189.521 247.621 187.538 249.272 185.409C250.08 184.367 250.604 183.299 250.925 182.498C251.087 182.095 251.2 181.753 251.274 181.507C251.311 181.384 251.339 181.285 251.357 181.213C251.367 181.177 251.374 181.148 251.379 181.126L251.386 181.1L251.388 181.091L251.389 181.087L251.389 181.086C251.389 181.086 251.389 181.084 250.155 180.804L251.389 181.084C251.544 180.402 251.117 179.723 250.435 179.568Z" fill="#27292D"/>
<path d="M267.421 175.759L267.575 175.462C268.965 172.827 271.595 171.081 274.555 170.825L274.195 170.628C271.879 169.367 270.253 167.124 269.781 164.525L269.629 163.684L269.604 163.74C268.315 166.373 265.793 168.184 262.89 168.566L262.495 168.619L262.669 168.706C265.265 170.029 267.039 172.555 267.387 175.452L267.426 175.76L267.421 175.759Z" fill="#F7FF8A"/>
<path d="M220.327 152.788C221.392 151.748 222.166 150.523 222.656 149.214L232.545 156.374C233.267 156.896 233.37 157.939 232.759 158.589C228.309 163.344 220.914 164.155 215.501 160.239C213.698 158.935 212.324 157.253 211.411 155.381C214.517 156.029 217.879 155.167 220.322 152.787L220.327 152.788Z" fill="white"/>
<path d="M213.85 142.84L222.659 149.218C222.164 150.524 221.395 151.751 220.33 152.792C217.887 155.172 214.525 156.033 211.419 155.386C209.591 151.64 209.604 147.128 211.691 143.319C212.116 142.542 213.136 142.326 213.855 142.842L213.85 142.84Z" fill="#27292D"/>
<path d="M245.621 162.594C246.135 160.929 246.241 159.237 246.018 157.62L260.474 159.479C261.349 159.589 261.93 160.443 261.727 161.302C259.927 168.845 252.689 173.966 244.833 172.957C242.249 172.626 239.899 171.666 237.91 170.251C241.465 169.18 244.443 166.415 245.621 162.594Z" fill="white"/>
<path d="M233.112 155.957L246.018 157.619C246.241 159.236 246.135 160.928 245.621 162.593C244.44 166.408 241.467 169.174 237.91 170.25C233.859 167.374 231.33 162.608 231.44 157.409C231.46 156.523 232.232 155.845 233.112 155.957Z" fill="#27292D"/>
<path fill-rule="evenodd" clip-rule="evenodd" d="M265.89 159.123C265.953 158.445 265.454 157.844 264.776 157.782L232.577 154.815L212.61 139.982C212.064 139.576 211.291 139.69 210.885 140.237C210.479 140.784 210.593 141.556 211.14 141.962L231.384 157.002C231.566 157.137 231.781 157.219 232.006 157.24L264.549 160.238C265.227 160.301 265.827 159.802 265.89 159.123Z" fill="#27292D"/>
<path d="M156.312 152.871C156.001 152.728 155.695 152.6 155.383 152.467C153.443 150.283 152.28 148.788 151.086 144.789C150.429 142.586 150.423 140.247 150.003 137.989C149.583 135.73 148.771 133.438 147.041 131.845C145.31 130.252 142.483 129.576 140.408 130.764C139.386 131.352 138.651 132.31 138.136 133.337C137.634 134.329 137.315 135.407 137.186 136.497C136.884 139.076 137.629 141.643 138.369 144.135C137.563 143.01 137.019 142.599 136.135 141.525C135.745 141.048 135.329 140.565 134.784 140.263C133.848 139.739 132.358 139.127 131.304 139.404C129.638 139.839 128.044 140.816 127.288 142.297C126.888 143.081 126.746 143.965 126.769 144.834C126.805 146.417 127.361 147.895 128.145 149.298C118.425 151.335 110.296 157.001 106.304 165.639C98.7941 181.882 108.784 202.482 128.616 211.644C148.448 220.806 170.609 215.068 178.114 198.825C185.623 182.583 176.139 162.038 156.312 152.876L156.312 152.871Z" fill="#575FF1"/>
<path d="M121.756 156.534C118.445 156.375 115.592 159.752 115.385 164.077C115.383 164.132 115.385 164.187 115.382 164.241C115.889 162.517 117.163 161.292 118.663 161.294C120.596 161.297 122.163 163.35 122.162 165.876C122.155 168.402 120.587 170.45 118.649 170.447C118.076 170.444 117.541 170.264 117.063 169.942C118.071 171.266 119.446 172.119 121.007 172.194C124.319 172.352 127.171 168.976 127.378 164.656C127.584 160.335 125.067 156.697 121.756 156.539L121.756 156.534Z" fill="white"/>
<path d="M122.162 165.872C122.168 163.346 120.602 161.292 118.664 161.289C117.164 161.287 115.889 162.512 115.383 164.237C115.312 166.461 115.957 168.485 117.064 169.938C117.542 170.255 118.076 170.44 118.649 170.442C120.583 170.445 122.156 168.397 122.162 165.872Z" fill="#27292D"/>
<path d="M123.366 192.897C126.037 194.694 133.384 197.687 140.198 192.831C145.349 189.157 145.307 186.018 144.419 184.073C143.658 182.414 142.086 181.244 140.284 180.936C138.834 180.692 137.781 181.17 137.105 181.687C136.625 182.053 136.261 182.54 135.966 183.067C133.893 186.742 130.417 186.692 128.403 186.283C127.632 186.123 126.911 185.807 126.228 185.432C126.204 185.422 126.187 185.408 126.164 185.398C123.7 184.088 120.747 185.997 120.79 188.704C120.798 189.122 120.894 189.53 121.034 189.921C121.32 190.73 121.96 191.951 123.366 192.897Z" fill="white"/>
<path d="M133.035 160.386C128.978 160.192 125.486 164.325 125.233 169.625C125.23 169.69 125.232 169.755 125.233 169.824C125.853 167.711 127.414 166.211 129.248 166.214C131.62 166.218 133.538 168.732 133.535 171.826C133.531 174.92 131.602 177.429 129.235 177.425C128.533 177.426 127.876 177.201 127.291 176.809C128.524 178.433 130.214 179.475 132.123 179.566C136.18 179.76 139.672 175.627 139.925 170.328C140.179 165.028 137.097 160.581 133.04 160.387L133.035 160.386Z" fill="white"/>
<path d="M133.53 171.821C133.534 168.727 131.615 166.213 129.244 166.209C127.41 166.206 125.843 167.711 125.229 169.819C125.143 172.541 125.937 175.02 127.287 176.799C127.871 177.191 128.528 177.411 129.231 177.415C131.603 177.419 133.527 174.91 133.53 171.816L133.53 171.821Z" fill="#27292D"/>
<path d="M140.826 161.232C141.546 160.685 142.468 160.593 143.18 160.105C144.103 159.467 143.922 158.605 143.679 157.558C143.542 156.968 143.384 156.411 143.239 155.858L133.382 151.778L132.319 151.339L127.684 149.42C128.263 151.291 128.342 153.183 126.871 154.626C125.83 155.642 123.817 155.595 123.337 156.936C123.136 157.503 123.325 158.556 123.47 159.405C126.415 159.133 129.255 157.625 131.308 155.187C130.598 160.932 133.417 166.496 138.593 168.639C138.877 168.757 139.161 168.858 139.444 168.949C138.82 166.16 138.081 163.322 140.835 161.237L140.826 161.232Z" fill="#27292D"/>
<path d="M120.749 153.835C121.677 152.874 123.335 152.981 124.165 152.136C124.9 151.387 123.744 149.011 122.956 147.462L114.048 143.773C113.498 143.545 112.852 143.887 112.657 144.509C110.842 150.334 113.357 156.508 118.619 158.686C119.018 158.853 119.425 158.979 119.832 159.091C119.792 158.564 119.757 158.037 119.735 157.509C119.669 156.154 119.754 154.864 120.749 153.835Z" fill="#27292D"/>
<path d="M154.282 160.429L148.369 157.979C148.379 158.056 148.394 158.129 148.4 158.206C148.547 159.847 148.198 161.449 147.157 162.739C146.715 163.288 146.166 163.701 145.542 164.024C144.933 164.343 143.774 164.479 143.388 165.099C142.845 165.963 143.617 167.963 144.077 169.448C148.408 169.042 152.527 166.272 154.755 161.915C155.047 161.341 154.827 160.653 154.287 160.429L154.282 160.429Z" fill="#27292D"/>
<path d="M143.383 165.098C143.774 164.478 144.928 164.337 145.538 164.023C146.161 163.7 146.71 163.287 147.152 162.738C148.198 161.453 148.542 159.846 148.395 158.205C148.389 158.128 148.37 158.055 148.364 157.978L143.23 155.853C143.374 156.406 143.533 156.963 143.669 157.553C143.917 158.6 144.094 159.467 143.171 160.1C142.463 160.588 141.541 160.684 140.816 161.227C138.067 163.312 138.801 166.15 139.426 168.94C140.949 169.435 142.517 169.589 144.063 169.448C143.603 167.962 142.836 165.957 143.374 165.098L143.383 165.098Z" fill="#F5F9AA"/>
<path d="M126.864 154.62C128.34 153.182 128.257 151.29 127.678 149.415L122.956 147.461C123.739 149.01 124.899 151.386 124.164 152.135C123.335 152.975 121.677 152.873 120.749 153.834C119.754 154.863 119.669 156.153 119.735 157.508C119.761 158.035 119.796 158.563 119.831 159.09C121.029 159.418 122.255 159.513 123.459 159.404C123.314 158.555 123.126 157.502 123.326 156.935C123.807 155.594 125.819 155.637 126.86 154.624L126.864 154.62Z" fill="#F5F9AA"/>
<path d="M125.78 195.397C125.78 195.397 125.732 195.387 125.712 195.383C125.253 195.244 124.99 194.76 125.13 194.296L127.563 186.189C127.701 185.73 128.185 185.467 128.649 185.607C129.108 185.746 129.371 186.229 129.231 186.693L126.798 194.8C126.67 195.236 126.222 195.497 125.784 195.403L125.78 195.397Z" fill="#27292D"/>
<path d="M135.668 195.857C135.386 195.797 135.138 195.597 135.033 195.304L131.728 186.324C131.56 185.871 131.794 185.371 132.246 185.208C132.699 185.04 133.199 185.274 133.362 185.726L136.667 194.707C136.835 195.16 136.601 195.66 136.149 195.823C135.989 195.88 135.824 195.891 135.668 195.857Z" fill="#27292D"/>
<path d="M143.546 190.334C143.424 190.308 143.313 190.259 143.207 190.181L135.474 184.392C135.087 184.106 135.011 183.56 135.297 183.174C135.583 182.787 136.129 182.71 136.515 182.996L144.248 188.784C144.635 189.071 144.712 189.616 144.426 190.003C144.218 190.284 143.867 190.403 143.546 190.334Z" fill="#27292D"/>
<path d="M174.636 169.672C178.375 166.576 179.247 161.172 176.505 157.166C176.479 157.13 176.454 157.093 176.428 157.057C175.791 156.142 176.428 154.881 177.542 154.865C193.533 154.639 203.903 159.661 211.045 165.861C221.189 174.664 225.387 188.653 221.132 201.407C221.043 201.678 220.948 201.945 220.853 202.215C215.299 217.577 198.263 225.468 182.952 219.689C168.216 214.123 160.489 197.657 165.616 182.738C167.439 177.432 170.622 172.994 174.636 169.672Z" fill="#FFF06C"/>
<path d="M204.208 200.12C198.788 198.597 195.631 192.962 197.157 187.535C198.682 182.107 204.313 178.942 209.732 180.465C215.152 181.989 218.309 187.624 216.784 193.051C215.258 198.479 209.628 201.644 204.208 200.12Z" fill="#FFEF9F"/>
<path d="M204.86 189.437C205.336 188.613 205.637 187.736 205.789 186.85L212.338 190.643C212.929 190.985 213.101 191.772 212.685 192.314C209.83 196.013 204.614 197.118 200.462 194.713C199.771 194.313 199.151 193.836 198.604 193.304C201.116 193.15 203.506 191.779 204.864 189.435L204.86 189.437Z" fill="white"/>
<path d="M204.865 189.438C203.509 191.784 201.118 193.151 198.605 193.308C197.918 192.639 197.347 191.88 196.902 191.057C196.775 189.992 196.811 188.891 197.041 187.783C197.411 185.991 198.231 184.407 199.356 183.124L205.79 186.851C205.639 187.737 205.34 188.614 204.862 189.437L204.865 189.438Z" fill="#575FF1"/>
<path d="M213.26 192.035C213.594 192.129 213.962 191.991 214.148 191.675C214.367 191.301 214.241 190.822 213.87 190.604L200.468 182.732C200.094 182.513 199.616 182.639 199.397 183.011C199.178 183.386 199.304 183.864 199.675 184.083L213.077 191.954C213.136 191.99 213.2 192.015 213.264 192.033L213.26 192.035Z" fill="#575FF1"/>
<path d="M184.483 192.694C179.063 191.171 175.906 185.536 177.431 180.109C178.957 174.681 184.587 171.516 190.007 173.04C195.427 174.563 198.584 180.198 197.058 185.625C195.533 191.053 189.902 194.218 184.483 192.694Z" fill="#FFEF9F"/>
<path d="M185.142 182.013C185.618 181.189 185.92 180.313 186.071 179.427L192.62 183.219C193.211 183.561 193.383 184.349 192.967 184.89C190.112 188.589 184.896 189.694 180.745 187.289C180.053 186.889 179.433 186.412 178.886 185.88C181.399 185.727 183.788 184.356 185.146 182.011L185.142 182.013Z" fill="white"/>
<path d="M185.141 182.012C183.786 184.358 181.394 185.725 178.881 185.882C178.194 185.214 177.624 184.454 177.178 183.631C177.051 182.566 177.087 181.466 177.317 180.358C177.688 178.566 178.507 176.981 179.632 175.698L186.067 179.425C185.915 180.311 185.617 181.188 185.138 182.012L185.141 182.012Z" fill="#575FF1"/>
<path d="M193.532 184.608C193.867 184.702 194.234 184.564 194.42 184.249C194.64 183.874 194.514 183.395 194.143 183.177L180.74 175.305C180.366 175.086 179.888 175.213 179.67 175.584C179.451 175.959 179.576 176.438 179.948 176.656L193.35 184.528C193.408 184.564 193.473 184.588 193.536 184.606L193.532 184.608Z" fill="#575FF1"/>
<path d="M214.448 175.98C212.067 179.014 208.181 180.86 204.335 179.718C200.867 178.688 198.273 175.013 198.698 171.357C198.894 169.679 199.744 168.019 201.446 167.474C203.548 166.801 205.016 168.892 205.115 170.763C205.206 172.509 204.254 174.232 202.866 175.246C201.364 176.342 199.397 176.545 197.613 176.193C193.914 175.463 190.54 171.762 191.531 167.831C191.791 166.8 193.377 167.246 193.117 168.277C192.491 170.759 194.45 173.268 196.675 174.193C199.067 175.185 202.434 174.779 203.309 171.966C203.485 171.4 203.535 170.814 203.377 170.232C203.241 169.732 202.891 169.057 202.309 168.997C201.794 168.944 201.257 169.373 201.004 169.693C200.635 170.162 200.464 170.678 200.363 171.268C199.912 173.904 201.689 176.909 204.161 177.916C207.384 179.226 210.966 177.767 213.035 175.13C213.309 174.78 213.753 174.599 214.168 174.849C214.513 175.056 214.722 175.63 214.448 175.983L214.448 175.98Z" fill="#575FF1"/>
<path d="M204.192 201.047C210.108 202.709 216.274 199.243 217.939 193.319C219.604 187.396 216.146 181.225 210.231 179.562C204.316 177.9 198.15 181.366 196.485 187.289C194.82 193.213 198.277 199.384 204.192 201.047ZM209.716 181.395C214.624 182.774 217.492 187.894 216.111 192.809C214.729 197.724 209.614 200.6 204.706 199.22C199.798 197.84 196.93 192.721 198.311 187.806C199.693 182.891 204.808 180.015 209.716 181.395Z" fill="#27292D"/>
<path d="M184.245 193.582C190.16 195.244 196.326 191.778 197.991 185.855C199.656 179.931 196.199 173.76 190.284 172.097C184.369 170.435 178.203 173.901 176.538 179.825C174.873 185.748 178.33 191.919 184.245 193.582ZM189.769 173.93C194.677 175.309 197.545 180.429 196.164 185.344C194.782 190.259 189.667 193.135 184.759 191.755C179.85 190.376 176.982 185.256 178.364 180.341C179.745 175.426 184.861 172.55 189.769 173.93Z" fill="#27292D"/>
<path d="M177.272 178.918C177.733 179.047 178.241 178.861 178.504 178.433C178.822 177.917 178.657 177.242 178.141 176.924L169.618 171.704C169.102 171.387 168.428 171.552 168.11 172.069C167.793 172.585 167.958 173.26 168.473 173.578L176.996 178.798C177.085 178.852 177.178 178.891 177.272 178.918Z" fill="#27292D"/>
<defs>
<linearGradient id="paint0_linear_583_703" x1="159.377" y1="165.653" x2="159.377" y2="222.055" gradientUnits="userSpaceOnUse">
<stop stop-color="white"/>
<stop offset="0.86" stop-color="white" stop-opacity="0"/>
</linearGradient>
</defs>
</svg>
