<svg width="390" height="812" viewBox="0 0 390 812" fill="none" xmlns="http://www.w3.org/2000/svg">
<g clip-path="url(#clip0_907_664)">
<rect width="390" height="812" fill="#797FF4"/>
<path d="M74.7618 245.987L357.197 245.987C357.197 245.987 381.5 212.5 361.5 196C361.5 196 352.8 190.583 345.705 191.641C345.705 191.641 366.281 132.227 311.38 113.147C311.38 113.147 239.5 94.4999 230.656 165.002C230.656 165.002 199.5 159 202.5 191.641C202.5 191.641 191.5 157 159.344 169.667C159.344 169.667 135.5 181.5 145.281 206.427C145.281 206.427 81.1475 186.63 60 246L74.7618 245.987Z" fill="url(#paint0_linear_907_664)" fill-opacity="0.25"/>
<path d="M307.587 159.088C306.688 158.599 306.775 157.28 307.732 156.914C313.821 154.58 319.196 153.368 322.255 152.964C323.663 152.778 324.88 153.949 324.75 155.368C324.618 156.818 324.416 158.656 324.134 160.367C324.134 160.367 340.683 152.232 353.687 153.94C354.717 154.077 355.496 154.941 355.575 155.976C355.834 159.424 355.785 168.026 351.438 182.34L355.641 182.691C356.857 182.795 357.765 183.857 357.665 185.076C357.445 187.798 356.616 193.345 354.429 199.902C354.098 200.893 352.746 201.027 352.244 200.11C348.007 192.374 335.791 174.392 307.587 159.088Z" fill="#FF4747"/>
<path d="M293.45 162.648C327.346 176.607 344.375 203.874 349.889 214.369C350.455 215.441 350.41 216.727 349.783 217.766C345.484 224.864 339.505 231.773 331.233 236.98C316.738 244.712 304.602 242.299 296.653 240.265C280.707 236.184 265.236 217.006 268.574 194.587C270.759 179.909 279.948 169.769 290.256 162.971C291.204 162.346 292.402 162.214 293.45 162.648Z" fill="#FF4747"/>
<path d="M295.786 159.904C297.354 158.96 297.948 158.697 299.676 157.972C300.523 157.617 301.485 157.649 302.304 158.071C336.944 175.954 350.25 198.588 354.104 206.28C354.489 207.046 354.533 207.93 354.241 208.737C353.638 210.405 353.461 210.98 352.651 212.507C352.237 213.282 351.13 213.28 350.721 212.505C345.22 202.166 328.815 176.833 295.89 161.84C295.092 161.478 295.034 160.359 295.786 159.904Z" fill="#575FF1"/>
<path fill-rule="evenodd" clip-rule="evenodd" d="M308.435 206.483C307.755 206.329 307.078 206.755 306.921 207.435L306.919 207.442C306.917 207.45 306.914 207.466 306.908 207.488C306.896 207.531 306.877 207.601 306.85 207.693C306.795 207.876 306.706 208.145 306.576 208.469C306.315 209.12 305.897 209.966 305.273 210.771C304.059 212.336 302.063 213.778 298.668 213.313C297.976 213.218 297.337 213.703 297.242 214.397C297.147 215.09 297.632 215.729 298.324 215.824C302.789 216.436 305.621 214.453 307.272 212.324C308.08 211.283 308.604 210.214 308.925 209.413C309.087 209.01 309.2 208.668 309.274 208.422C309.311 208.299 309.339 208.2 309.357 208.128C309.367 208.092 309.374 208.063 309.379 208.041L309.386 208.015L309.388 208.006L309.389 208.002L309.389 208.001C309.389 208.001 309.389 207.999 308.155 207.719L309.389 207.999C309.544 207.317 309.117 206.638 308.435 206.483Z" fill="#27292D"/>
<path d="M325.421 202.674L325.575 202.377C326.965 199.742 329.595 197.996 332.555 197.74L332.195 197.543C329.879 196.282 328.253 194.039 327.781 191.44L327.629 190.599L327.604 190.655C326.315 193.288 323.793 195.099 320.89 195.481L320.495 195.534L320.669 195.621C323.265 196.944 325.039 199.47 325.387 202.367L325.426 202.675L325.421 202.674Z" fill="#F7FF8A"/>
<path d="M278.327 179.703C279.392 178.663 280.166 177.438 280.656 176.13L290.545 183.289C291.267 183.811 291.37 184.854 290.759 185.504C286.309 190.259 278.914 191.071 273.501 187.154C271.698 185.85 270.324 184.168 269.411 182.296C272.517 182.944 275.879 182.082 278.322 179.702L278.327 179.703Z" fill="white"/>
<path d="M271.85 169.755L280.659 176.133C280.164 177.439 279.395 178.666 278.33 179.707C275.887 182.087 272.525 182.949 269.419 182.301C267.591 178.555 267.604 174.043 269.691 170.234C270.116 169.457 271.136 169.241 271.855 169.757L271.85 169.755Z" fill="#27292D"/>
<path d="M303.621 189.509C304.135 187.844 304.241 186.152 304.018 184.535L318.474 186.394C319.349 186.504 319.93 187.358 319.727 188.217C317.927 195.76 310.689 200.881 302.833 199.872C300.249 199.541 297.899 198.581 295.91 197.166C299.465 196.095 302.443 193.33 303.621 189.509Z" fill="white"/>
<path d="M291.112 182.872L304.018 184.534C304.241 186.152 304.135 187.843 303.621 189.508C302.44 193.323 299.467 196.089 295.91 197.165C291.859 194.289 289.33 189.523 289.44 184.324C289.46 183.438 290.232 182.76 291.112 182.872Z" fill="#27292D"/>
<path fill-rule="evenodd" clip-rule="evenodd" d="M323.89 186.038C323.953 185.36 323.454 184.759 322.776 184.697L290.577 181.73L270.61 166.897C270.064 166.491 269.291 166.605 268.885 167.152C268.479 167.699 268.593 168.471 269.14 168.877L289.384 183.917C289.566 184.052 289.781 184.134 290.006 184.155L322.549 187.153C323.227 187.216 323.827 186.717 323.89 186.038Z" fill="#27292D"/>
<path d="M214.312 179.786C214.001 179.643 213.695 179.515 213.383 179.382C211.443 177.198 210.28 175.703 209.086 171.704C208.429 169.501 208.423 167.162 208.003 164.904C207.583 162.645 206.771 160.353 205.041 158.76C203.31 157.167 200.483 156.491 198.408 157.679C197.386 158.267 196.651 159.225 196.136 160.252C195.634 161.244 195.315 162.322 195.186 163.412C194.884 165.991 195.629 168.558 196.369 171.05C195.563 169.925 195.019 169.514 194.135 168.44C193.745 167.963 193.329 167.48 192.784 167.178C191.848 166.654 190.358 166.042 189.304 166.319C187.638 166.754 186.044 167.731 185.288 169.212C184.888 169.996 184.746 170.88 184.769 171.749C184.805 173.332 185.361 174.81 186.145 176.213C176.425 178.25 168.296 183.916 164.304 192.554C156.794 208.797 166.784 229.397 186.616 238.559C206.448 247.721 228.609 241.983 236.114 225.74C243.623 209.498 234.139 188.953 214.312 179.791L214.312 179.786Z" fill="#575FF1"/>
<path d="M179.756 183.449C176.445 183.291 173.592 186.667 173.385 190.992C173.383 191.047 173.385 191.102 173.382 191.156C173.889 189.432 175.163 188.207 176.663 188.209C178.596 188.212 180.163 190.265 180.162 192.791C180.155 195.317 178.587 197.365 176.649 197.362C176.076 197.359 175.541 197.179 175.063 196.857C176.071 198.181 177.446 199.034 179.007 199.109C182.319 199.267 185.171 195.891 185.378 191.571C185.584 187.25 183.067 183.612 179.756 183.454L179.756 183.449Z" fill="white"/>
<path d="M180.162 192.787C180.168 190.261 178.602 188.208 176.664 188.204C175.164 188.203 173.889 189.427 173.383 191.152C173.312 193.376 173.957 195.4 175.064 196.853C175.542 197.17 176.076 197.355 176.649 197.357C178.583 197.36 180.156 195.313 180.162 192.787Z" fill="#27292D"/>
<path d="M181.366 219.812C184.037 221.609 191.384 224.602 198.198 219.746C203.349 216.072 203.307 212.933 202.419 210.988C201.658 209.33 200.086 208.159 198.284 207.851C196.834 207.608 195.781 208.085 195.105 208.602C194.625 208.968 194.261 209.455 193.966 209.983C191.893 213.657 188.417 213.607 186.403 213.198C185.632 213.038 184.911 212.722 184.228 212.347C184.204 212.337 184.187 212.323 184.164 212.313C181.7 211.003 178.747 212.912 178.79 215.619C178.798 216.038 178.894 216.445 179.034 216.836C179.32 217.645 179.96 218.866 181.366 219.812Z" fill="white"/>
<path d="M191.035 187.301C186.978 187.107 183.486 191.241 183.233 196.54C183.23 196.605 183.232 196.67 183.233 196.739C183.853 194.626 185.414 193.127 187.248 193.13C189.62 193.133 191.538 195.647 191.535 198.741C191.531 201.835 189.602 204.344 187.235 204.34C186.533 204.341 185.876 204.116 185.291 203.724C186.524 205.348 188.214 206.39 190.123 206.481C194.18 206.675 197.672 202.542 197.925 197.243C198.179 191.943 195.097 187.496 191.04 187.302L191.035 187.301Z" fill="white"/>
<path d="M191.53 198.736C191.534 195.642 189.615 193.128 187.244 193.124C185.41 193.121 183.843 194.626 183.229 196.734C183.143 199.456 183.937 201.935 185.287 203.714C185.871 204.106 186.528 204.326 187.231 204.33C189.603 204.334 191.527 201.825 191.53 198.731L191.53 198.736Z" fill="#27292D"/>
<path d="M198.826 188.147C199.546 187.6 200.468 187.508 201.18 187.02C202.103 186.382 201.922 185.52 201.679 184.473C201.542 183.883 201.384 183.326 201.239 182.773L191.382 178.693L190.319 178.254L185.684 176.336C186.263 178.206 186.342 180.098 184.871 181.541C183.83 182.557 181.817 182.51 181.337 183.851C181.136 184.419 181.325 185.472 181.47 186.32C184.415 186.048 187.255 184.54 189.308 182.102C188.598 187.847 191.417 193.411 196.593 195.554C196.877 195.672 197.161 195.773 197.444 195.864C196.82 193.075 196.081 190.237 198.835 188.152L198.826 188.147Z" fill="#27292D"/>
<path d="M178.749 180.75C179.677 179.789 181.335 179.896 182.165 179.051C182.9 178.302 181.744 175.926 180.956 174.377L172.048 170.688C171.498 170.46 170.852 170.802 170.657 171.424C168.842 177.249 171.357 183.423 176.619 185.601C177.018 185.768 177.425 185.894 177.832 186.006C177.792 185.479 177.757 184.952 177.735 184.424C177.669 183.069 177.754 181.78 178.749 180.75Z" fill="#27292D"/>
<path d="M212.282 187.344L206.369 184.894C206.379 184.971 206.394 185.044 206.4 185.121C206.547 186.762 206.198 188.364 205.157 189.654C204.715 190.203 204.166 190.616 203.542 190.939C202.933 191.258 201.774 191.394 201.388 192.014C200.845 192.878 201.617 194.878 202.077 196.364C206.408 195.957 210.527 193.187 212.755 188.83C213.047 188.256 212.827 187.568 212.287 187.344L212.282 187.344Z" fill="#27292D"/>
<path d="M201.383 192.013C201.774 191.393 202.928 191.252 203.538 190.938C204.161 190.615 204.71 190.202 205.152 189.653C206.198 188.368 206.542 186.761 206.395 185.12C206.389 185.043 206.37 184.97 206.364 184.893L201.23 182.768C201.374 183.321 201.533 183.878 201.669 184.468C201.917 185.515 202.094 186.382 201.171 187.015C200.463 187.503 199.541 187.599 198.816 188.142C196.067 190.227 196.801 193.065 197.426 195.855C198.949 196.35 200.517 196.504 202.063 196.363C201.603 194.877 200.836 192.872 201.374 192.013L201.383 192.013Z" fill="#F5F9AA"/>
<path d="M184.864 181.535C186.34 180.097 186.257 178.205 185.678 176.33L180.956 174.376C181.739 175.925 182.899 178.301 182.164 179.05C181.335 179.89 179.677 179.788 178.749 180.749C177.754 181.779 177.669 183.068 177.735 184.423C177.761 184.95 177.796 185.478 177.831 186.005C179.029 186.333 180.255 186.428 181.459 186.319C181.314 185.47 181.126 184.417 181.326 183.85C181.807 182.509 183.819 182.552 184.86 181.539L184.864 181.535Z" fill="#F5F9AA"/>
<path d="M183.78 222.312C183.78 222.312 183.732 222.302 183.712 222.298C183.253 222.159 182.99 221.675 183.13 221.211L185.563 213.104C185.701 212.646 186.185 212.382 186.649 212.522C187.108 212.661 187.371 213.145 187.231 213.608L184.798 221.715C184.67 222.151 184.222 222.412 183.784 222.318L183.78 222.312Z" fill="#27292D"/>
<path d="M193.668 222.772C193.386 222.712 193.138 222.512 193.033 222.219L189.728 213.239C189.56 212.786 189.794 212.286 190.246 212.123C190.699 211.955 191.199 212.189 191.362 212.641L194.667 221.622C194.835 222.075 194.601 222.575 194.149 222.738C193.989 222.795 193.824 222.806 193.668 222.772Z" fill="#27292D"/>
<path d="M201.546 217.249C201.424 217.223 201.313 217.174 201.207 217.096L193.474 211.307C193.087 211.021 193.011 210.475 193.297 210.089C193.583 209.702 194.129 209.625 194.515 209.911L202.248 215.699C202.635 215.986 202.712 216.531 202.426 216.918C202.218 217.199 201.867 217.318 201.546 217.249Z" fill="#27292D"/>
<path d="M232.636 196.587C236.375 193.491 237.247 188.087 234.505 184.081C234.479 184.045 234.454 184.008 234.428 183.972C233.791 183.057 234.428 181.796 235.542 181.78C251.533 181.554 261.903 186.576 269.045 192.776C279.189 201.579 283.387 215.568 279.132 228.322C279.043 228.593 278.948 228.86 278.853 229.13C273.299 244.492 256.263 252.383 240.952 246.604C226.216 241.038 218.489 224.572 223.616 209.653C225.439 204.347 228.622 199.909 232.636 196.587Z" fill="#FFF06C"/>
<path d="M262.208 227.035C256.788 225.512 253.631 219.877 255.157 214.45C256.682 209.022 262.313 205.857 267.732 207.38C273.152 208.904 276.309 214.539 274.784 219.966C273.258 225.394 267.628 228.559 262.208 227.035Z" fill="#FFEF9F"/>
<path d="M262.86 216.352C263.336 215.528 263.637 214.651 263.789 213.765L270.338 217.558C270.929 217.9 271.101 218.687 270.685 219.229C267.83 222.928 262.614 224.033 258.462 221.628C257.771 221.228 257.151 220.751 256.604 220.219C259.116 220.065 261.506 218.694 262.864 216.35L262.86 216.352Z" fill="white"/>
<path d="M262.865 216.353C261.509 218.699 259.118 220.066 256.605 220.223C255.918 219.554 255.347 218.795 254.902 217.972C254.775 216.907 254.811 215.806 255.041 214.698C255.411 212.906 256.231 211.322 257.356 210.039L263.79 213.766C263.639 214.652 263.34 215.529 262.862 216.352L262.865 216.353Z" fill="#575FF1"/>
<path d="M271.26 218.95C271.594 219.044 271.962 218.906 272.148 218.591C272.367 218.216 272.241 217.737 271.87 217.519L258.468 209.647C258.094 209.428 257.616 209.554 257.397 209.926C257.178 210.301 257.304 210.779 257.675 210.998L271.077 218.869C271.136 218.905 271.2 218.93 271.264 218.948L271.26 218.95Z" fill="#575FF1"/>
<path d="M242.483 219.609C237.063 218.086 233.906 212.451 235.431 207.024C236.957 201.596 242.587 198.431 248.007 199.955C253.427 201.478 256.584 207.113 255.058 212.54C253.533 217.968 247.902 221.133 242.483 219.609Z" fill="#FFEF9F"/>
<path d="M243.142 208.928C243.618 208.104 243.92 207.228 244.071 206.342L250.62 210.134C251.211 210.476 251.383 211.264 250.967 211.805C248.112 215.504 242.896 216.609 238.745 214.204C238.053 213.804 237.433 213.327 236.886 212.796C239.399 212.642 241.788 211.271 243.146 208.926L243.142 208.928Z" fill="white"/>
<path d="M243.141 208.928C241.786 211.273 239.394 212.64 236.881 212.797C236.194 212.129 235.624 211.369 235.178 210.546C235.051 209.481 235.087 208.381 235.317 207.273C235.688 205.481 236.507 203.896 237.632 202.613L244.067 206.34C243.915 207.226 243.617 208.103 243.138 208.927L243.141 208.928Z" fill="#575FF1"/>
<path d="M251.532 211.523C251.867 211.617 252.234 211.48 252.42 211.164C252.64 210.789 252.514 210.31 252.143 210.092L238.74 202.22C238.366 202.001 237.888 202.128 237.67 202.499C237.451 202.874 237.576 203.353 237.948 203.571L251.35 211.443C251.408 211.479 251.473 211.503 251.536 211.521L251.532 211.523Z" fill="#575FF1"/>
<path d="M272.448 202.895C270.067 205.929 266.181 207.776 262.335 206.633C258.867 205.603 256.273 201.928 256.698 198.272C256.894 196.594 257.744 194.934 259.446 194.389C261.548 193.716 263.016 195.807 263.115 197.678C263.206 199.424 262.254 201.147 260.866 202.161C259.364 203.257 257.397 203.46 255.613 203.108C251.914 202.378 248.54 198.677 249.531 194.746C249.791 193.715 251.377 194.161 251.117 195.192C250.491 197.674 252.45 200.183 254.675 201.108C257.067 202.1 260.434 201.694 261.309 198.881C261.485 198.315 261.535 197.729 261.377 197.147C261.241 196.647 260.891 195.972 260.309 195.912C259.794 195.859 259.257 196.288 259.004 196.608C258.635 197.077 258.464 197.593 258.363 198.183C257.912 200.819 259.689 203.824 262.161 204.831C265.384 206.141 268.966 204.682 271.035 202.045C271.309 201.695 271.753 201.514 272.168 201.764C272.513 201.971 272.722 202.545 272.448 202.898L272.448 202.895Z" fill="#575FF1"/>
<path d="M262.192 227.962C268.108 229.624 274.274 226.158 275.939 220.234C277.604 214.311 274.146 208.14 268.231 206.477C262.316 204.815 256.15 208.281 254.485 214.204C252.82 220.128 256.277 226.299 262.192 227.962ZM267.716 208.31C272.624 209.689 275.492 214.809 274.111 219.724C272.729 224.639 267.614 227.515 262.706 226.135C257.798 224.755 254.93 219.636 256.311 214.721C257.693 209.806 262.808 206.93 267.716 208.31Z" fill="#27292D"/>
<path d="M242.245 220.497C248.16 222.159 254.326 218.693 255.991 212.77C257.656 206.846 254.199 200.675 248.284 199.012C242.369 197.35 236.203 200.816 234.538 206.74C232.873 212.663 236.33 218.834 242.245 220.497ZM247.769 200.845C252.677 202.225 255.545 207.344 254.164 212.259C252.782 217.174 247.667 220.05 242.759 218.67C237.85 217.291 234.982 212.171 236.364 207.256C237.745 202.341 242.861 199.465 247.769 200.845Z" fill="#27292D"/>
<path d="M235.272 205.833C235.733 205.962 236.241 205.776 236.504 205.348C236.822 204.832 236.657 204.157 236.141 203.839L227.618 198.619C227.102 198.302 226.428 198.467 226.11 198.984C225.793 199.5 225.958 200.175 226.473 200.493L234.996 205.713C235.085 205.767 235.178 205.807 235.272 205.833Z" fill="#27292D"/>
</g>
<defs>
<linearGradient id="paint0_linear_907_664" x1="217.377" y1="192.568" x2="217.377" y2="248.97" gradientUnits="userSpaceOnUse">
<stop stop-color="white"/>
<stop offset="0.86" stop-color="white" stop-opacity="0"/>
</linearGradient>
<clipPath id="clip0_907_664">
<rect width="390" height="812" fill="white"/>
</clipPath>
</defs>
</svg>
