<svg width="350" height="479" viewBox="0 0 350 479" fill="none" xmlns="http://www.w3.org/2000/svg">
<path d="M337.852 65.1906C337.852 58.6193 343.182 53.2913 349.757 53.2913C349.838 53.2913 349.92 53.3029 349.995 53.3029V20C349.995 8.95428 341.041 0 329.995 0H20.0012C8.95553 0 0.00122296 8.95431 0.00122296 20V53.2913C0.00122296 53.2913 0.0128493 53.2913 0.0244757 53.2913C6.59918 53.2913 11.9299 58.6193 11.9299 65.1906C11.9299 71.762 6.57593 77.0899 0.00122296 77.0899C0.0128493 77.0899 -0.00459022 77.0899 0.00122296 77.0899V459C0.00122296 470.046 8.95553 479 20.0012 479H330.001C341.047 479 350.001 470.046 350.001 459V77.0783C349.92 77.0783 349.844 77.0899 349.763 77.0899C343.188 77.0899 337.857 71.762 337.857 65.1906H337.852Z" fill="white"/>
</svg>
