<svg width="90" height="81" viewBox="0 0 90 81" fill="none" xmlns="http://www.w3.org/2000/svg">
<path d="M10.7635 21.2672C3.04883 28.4145 0.0194269 36.9897 0.688758 47.1403C2.01968 67.2551 22.943 82.2365 47.422 80.6107C71.9009 78.981 90.6654 61.3573 89.3344 41.2424C88.0035 21.1275 67.0802 6.14616 42.6012 7.77196C42.1563 7.803 41.7152 7.84956 41.2742 7.88836C40.2992 7.62451 39.3358 7.31409 38.3957 6.95324C37.2195 6.50314 36.0665 5.97155 35.0065 5.29252C34.2404 4.80362 33.5285 4.23711 32.805 3.68612C30.7235 2.09913 28.4679 0.593619 25.895 0.127998C23.3222 -0.341504 20.3586 0.473334 18.9619 2.6928C17.9908 4.23711 17.9211 6.21212 18.3622 7.98536C18.8032 9.75473 19.7086 11.3689 20.6023 12.9598C18.1842 11.3534 15.4063 9.681 12.5703 10.2941C10.3844 10.7675 8.60465 12.6765 8.17906 14.8804C8.17906 14.8804 7.27373 18.9197 10.7674 21.2711L10.7635 21.2672Z" fill="#DEE2E8"/>
<path d="M20.1468 20.9291C18.4677 20.77 16.8659 21.4879 15.6046 22.7761C15.7014 22.7761 15.7981 22.7761 15.8948 22.7838C18.34 23.0166 20.0772 25.7987 19.7792 28.9999C19.4775 32.201 17.2528 34.6106 14.8076 34.3778C14.5639 34.3545 14.3279 34.3002 14.0996 34.2265C15.0978 36.0696 16.6918 37.3306 18.5915 37.513C22.089 37.8428 25.2732 34.4011 25.7026 29.8186C26.1321 25.24 23.6482 21.2589 20.1507 20.9291H20.1468Z" fill="white"/>
<path d="M19.7753 28.9972C20.0771 25.7961 18.3361 23.014 15.8909 22.7812C15.7941 22.7734 15.6974 22.7734 15.6007 22.7734C14.2311 24.1703 13.2561 26.2384 13.0317 28.6209C12.8344 30.7123 13.2522 32.6757 14.0918 34.2277C14.3201 34.3015 14.5561 34.3558 14.7998 34.3791C17.245 34.6119 19.4697 32.2023 19.7714 29.0011L19.7753 28.9972Z" fill="#C3CAD5"/>
<path d="M29.9082 23.6964C28.1091 23.5257 26.3913 24.2939 25.0372 25.6753C25.1416 25.6753 25.2422 25.6753 25.3467 25.683C27.966 25.9314 29.8308 28.9152 29.5097 32.3453C29.1886 35.7754 26.8014 38.3596 24.1782 38.1113C23.9152 38.088 23.6637 38.0259 23.4199 37.9483C24.4878 39.9233 26.2017 41.2775 28.2368 41.4676C31.9858 41.8207 35.3982 38.1307 35.8586 33.2222C36.3191 28.3138 33.6533 24.0495 29.9043 23.6925L29.9082 23.6964Z" fill="white"/>
<path d="M29.5096 32.3455C29.8307 28.9154 27.9698 25.9315 25.3466 25.6832C25.2422 25.6715 25.1377 25.6754 25.0371 25.6754C23.5669 27.1732 22.5261 29.3888 22.2863 31.9419C22.0773 34.1847 22.5223 36.2877 23.4237 37.9484C23.6675 38.026 23.9228 38.0842 24.1821 38.1114C26.8013 38.3597 29.1885 35.7794 29.5135 32.3455H29.5096Z" fill="#C3CAD5"/>
<path d="M41.8793 45.275C46.3727 42.47 48.3275 37.4765 46.2453 34.1217C44.1631 30.7668 38.8326 30.3211 34.3392 33.1261C29.8458 35.9312 27.891 40.9247 29.9732 44.2795C32.0554 47.6343 37.3859 48.08 41.8793 45.275Z" fill="#DEE2E8"/>
<path d="M41.193 52.7924C46.1396 52.7924 50.1496 48.7707 50.1496 43.8098C50.1496 38.8488 46.1396 34.8271 41.193 34.8271C36.2463 34.8271 32.2363 38.8488 32.2363 43.8098C32.2363 48.7707 36.2463 52.7924 41.193 52.7924Z" fill="#C3CAD5"/>
<path d="M29.1912 51.2838C25.357 51.2838 22.494 49.3437 21.136 47.714C20.78 47.2833 20.8342 46.6431 21.2637 46.2861C21.6931 45.9291 22.3276 45.9834 22.6836 46.4141C22.908 46.6819 28.1388 52.6651 36.6931 46.4723C37.1458 46.1464 37.7764 46.2473 38.1053 46.7013C38.4303 47.1552 38.3297 47.7877 37.877 48.1175C34.6619 50.4456 31.7137 51.2876 29.1912 51.2876V51.2838Z" fill="#C3CAD5"/>
</svg>
