<svg width="200" height="200" viewBox="0 0 200 200" fill="none" xmlns="http://www.w3.org/2000/svg">
<path d="M189.12 105.52C190.02 105.52 190.717 106.306 190.609 107.199L186.891 137.979C186.8 138.733 186.161 139.3 185.402 139.3H178C177.138 139.3 176.453 138.575 176.502 137.714L178.252 106.934C178.297 106.14 178.954 105.52 179.749 105.52H189.12ZM185.507 143.98C186.39 143.98 187.082 144.738 187.001 145.618L186.258 153.658C186.186 154.429 185.539 155.02 184.764 155.02H175.897C175.014 155.02 174.322 154.261 174.403 153.382L175.146 145.342C175.217 144.57 175.865 143.98 176.64 143.98H185.507Z" fill="#444951"/>
<path d="M143.815 152.8C142.935 152.8 142.244 152.045 142.321 151.168L145.297 117.328C145.365 116.554 146.014 115.96 146.791 115.96H155.837C156.718 115.96 157.41 116.715 157.331 117.593L157.177 119.32C159.251 116.481 165.696 114.636 170.32 115.049C171.077 115.116 171.588 115.81 171.523 116.566L170.922 123.513C170.853 124.319 170.155 124.919 169.346 124.942C163.068 125.12 156.423 128.541 155.977 133.72L154.418 151.431C154.35 152.206 153.701 152.8 152.924 152.8H143.815Z" fill="#444951"/>
<path d="M106.107 140.74L107.247 128.2C107.907 120.34 116.067 114.82 124.827 114.82C133.587 114.82 140.787 120.34 140.127 128.2L138.987 140.74C138.327 148.66 130.167 154.12 121.407 154.12C112.647 154.12 105.447 148.66 106.107 140.74ZM118.887 127.84L117.747 141.1C117.567 143.32 119.367 145.3 122.247 145.3C125.007 145.3 127.167 143.32 127.347 141.1L128.487 127.84C128.667 125.68 126.867 123.64 124.107 123.64C121.227 123.64 119.067 125.68 118.887 127.84Z" fill="#444951"/>
<path d="M79.8423 152.8C78.962 152.8 78.2709 152.045 78.3481 151.168L81.3242 117.328C81.3923 116.554 82.041 115.96 82.8185 115.96H91.8647C92.7458 115.96 93.4371 116.715 93.3587 117.593L93.2046 119.32C95.2788 116.481 101.723 114.636 106.348 115.049C107.105 115.116 107.615 115.81 107.55 116.566L106.95 123.513C106.88 124.319 106.182 124.919 105.373 124.942C99.0958 125.12 92.45 128.541 92.0046 133.72L90.4451 151.431C90.3769 152.206 89.7283 152.8 88.9509 152.8H79.8423Z" fill="#444951"/>
<path d="M50.8736 152.8C49.9933 152.8 49.3022 152.045 49.3793 151.168L52.3555 117.328C52.4236 116.554 53.0722 115.96 53.8497 115.96H62.8959C63.777 115.96 64.4684 116.715 64.39 117.593L64.2358 119.32C66.31 116.481 72.7541 114.636 77.379 115.049C78.1358 115.116 78.6466 115.81 78.5812 116.566L77.9809 123.513C77.9112 124.319 77.2135 124.919 76.4042 124.942C70.127 125.12 63.4813 128.541 63.0358 133.72L61.4763 151.431C61.4081 152.206 60.7596 152.8 59.9821 152.8H50.8736Z" fill="#444951"/>
<path d="M10.6364 152.8C9.75656 152.8 9.06567 152.046 9.14203 151.17L12.9007 108.03C12.9682 107.255 13.617 106.66 14.395 106.66H45.5212C46.4019 106.66 47.0931 107.415 47.0154 108.293L46.4412 114.773C46.3726 115.547 45.7242 116.14 44.947 116.14H24.3L23.58 124.3H43.4915C44.3685 124.3 45.0584 125.049 44.9865 125.923L44.4533 132.403C44.3893 133.181 43.7391 133.78 42.9584 133.78H22.8L21.96 143.32H43.4812C44.3619 143.32 45.0531 144.075 44.9754 144.953L44.4012 151.433C44.3326 152.207 43.6842 152.8 42.907 152.8H10.6364Z" fill="#444951"/>
<path d="M119.07 76.1804C119.092 75.8803 119.205 75.5939 119.392 75.3584L142.114 46.8253C142.399 46.468 142.831 46.2598 143.287 46.2598H152.089C152.968 46.2598 153.659 47.013 153.583 47.8893L151.264 74.6398H154.911C155.789 74.6398 156.48 75.3919 156.405 76.2676L155.882 82.3876C155.815 83.1636 155.166 83.7598 154.387 83.7598H150.484L149.942 90.0682C149.876 90.844 149.226 91.4398 148.448 91.4398H140.478C139.599 91.4398 138.909 90.6879 138.983 89.8123L139.504 83.6998H120.121C119.249 83.6998 118.56 82.9576 118.626 82.0873L119.07 76.1804ZM131.584 74.9398H140.284L141.424 61.9198L131.584 74.9398Z" fill="#444951"/>
<path d="M84.1801 78.84L85.9201 58.68C86.7001 49.92 94.8001 45 103.44 45C112.02 45 119.28 49.92 118.5 58.68L116.76 78.84C115.98 87.66 107.88 92.52 99.3001 92.52C90.6601 92.52 83.4001 87.66 84.1801 78.84ZM97.6201 58.92L95.8801 78.6C95.6401 81.66 97.0201 83.58 100.14 83.58C103.08 83.58 104.88 81.66 105.12 78.6L106.86 58.92C107.1 55.86 105.66 53.94 102.72 53.94C99.6001 53.94 97.8601 55.86 97.6201 58.92Z" fill="#444951"/>
<path d="M44.7846 76.1804C44.8072 75.8803 44.9195 75.5939 45.107 75.3584L67.8288 46.8253C68.1134 46.468 68.5454 46.2598 69.0022 46.2598H77.8036C78.6831 46.2598 79.3739 47.013 79.298 47.8893L76.9792 74.6398H80.6255C81.5043 74.6398 82.1949 75.3919 82.12 76.2676L81.5966 82.3876C81.5302 83.1636 80.8809 83.7598 80.1021 83.7598H76.1992L75.6571 90.0682C75.5904 90.844 74.9413 91.4398 74.1626 91.4398H66.1926C65.3139 91.4398 64.6234 90.6879 64.698 89.8123L65.2192 83.6998H45.8363C44.9635 83.6998 44.275 82.9576 44.3405 82.0873L44.7846 76.1804ZM57.2992 74.9398H65.9992L67.1392 61.9198L57.2992 74.9398Z" fill="#444951"/>
</svg>
