<svg width="58" height="48" viewBox="0 0 58 48" fill="none" xmlns="http://www.w3.org/2000/svg">
<path d="M16.055 21.5404L4.35335 21.5041C3.90515 21.5026 3.58548 21.0658 3.71869 20.635L7.43406 8.58685C7.52101 8.30576 7.77984 8.11402 8.07285 8.11478L19.3273 8.14899C19.7755 8.15055 20.0949 8.58809 19.9617 9.01896L19.2108 11.4409C19.1238 11.722 18.8645 11.9127 18.5723 11.9122L12.2752 11.8932L11.9786 12.8615L17.2659 12.8781C17.7141 12.8797 18.0335 13.3172 17.9002 13.7481L17.1493 16.17C17.0624 16.4511 16.803 16.6418 16.5111 16.6405L10.8125 16.623L10.4487 17.7577L16.7897 17.7771C17.2364 17.7781 17.555 18.2128 17.4258 18.6424L16.6943 21.0641C16.6084 21.3474 16.349 21.5407 16.0545 21.5394L16.055 21.5404ZM3.40548 30.3361L5.62774 23.1448C5.71469 22.8637 5.97324 22.6727 6.26625 22.6735L11.1486 22.6887C11.5978 22.6898 11.9175 23.1292 11.7824 23.5603L10.7214 26.9511L21.004 26.6906C21.4595 26.6788 21.7917 27.12 21.6579 27.5578L20.7632 30.4886C20.6782 30.7668 20.4249 30.9578 20.1363 30.9622L4.05146 31.2057C3.59758 31.2128 3.27061 30.7717 3.40469 30.3358L3.40548 30.3361ZM19.3196 12.1921L21.2186 12.1978L22.3522 8.52166C22.4392 8.24057 22.698 8.04883 22.991 8.0496L27.0396 8.06174C27.4878 8.0633 27.8075 8.50005 27.6743 8.93092L23.2747 23.1927C23.1878 23.4738 22.929 23.6655 22.6359 23.6648L18.5884 23.6521C18.1402 23.6506 17.8208 23.213 17.954 22.7822L19.7384 17.0103L18.2473 17.0052C17.7991 17.0036 17.4802 16.5672 17.6126 16.136L18.6814 12.6626C18.7675 12.3813 19.0272 12.1898 19.3202 12.1906L19.3196 12.1921ZM30.8351 17.0863L26.6339 17.0734C26.1876 17.0716 25.8684 16.6386 25.9979 16.2082L28.3045 8.54379C28.3897 8.26028 28.6501 8.06645 28.9447 8.06777L33.1272 8.08115C33.5825 8.08256 33.9089 8.52525 33.7763 8.96435L31.475 16.6111C31.3899 16.8946 31.1294 17.0884 30.8348 17.0871L30.8351 17.0863Z" fill="#575FF1"/>
<path d="M34.0678 30.9846L22.3271 30.9487C21.9079 30.9477 21.6102 30.5391 21.7345 30.1362L25.4772 18C25.5585 17.7374 25.8005 17.5583 26.074 17.5593L37.4202 17.594C37.8394 17.5951 38.1377 18.0047 38.0126 18.4073L37.2344 20.9174C37.153 21.18 36.9113 21.3582 36.6378 21.3573L30.3257 21.3383C30.3159 21.3384 30.3066 21.3448 30.3041 21.3546L30.0208 22.277C30.0158 22.2913 30.0272 22.3068 30.043 22.3071L35.3588 22.3231C35.778 22.3242 36.0762 22.7338 35.9511 23.1364L35.1729 25.6465C35.0915 25.9091 34.8498 26.0873 34.5763 26.0864L28.8626 26.0688C28.8529 26.0689 28.8436 26.0754 28.841 26.0852L28.4925 27.1738C28.4873 27.1888 28.4989 27.2035 28.5147 27.2038L34.8831 27.2232C35.3005 27.2245 35.5983 27.6304 35.4772 28.0318L34.7343 30.4913C34.6453 30.7859 34.3752 30.9869 34.0691 30.986L34.0678 30.9846ZM21.4335 39.7972L23.6547 32.6091C23.745 32.3158 24.0153 32.1166 24.3207 32.1173L29.1819 32.1322C29.6312 32.1333 29.9508 32.5726 29.8158 33.0037L28.7642 36.365C28.7589 36.3801 28.7705 36.3948 28.7863 36.3951L45.6201 36.4472C46.0675 36.4485 46.3866 36.8842 46.2553 37.3148L45.3617 40.2425C45.2719 40.5368 45.0011 40.7376 44.6949 40.7366L22.0671 40.6669C21.6189 40.6654 21.2995 40.2278 21.4328 39.797L21.4335 39.7972ZM37.319 21.6369L39.2338 21.6428C39.2435 21.6427 39.2529 21.6363 39.2554 21.6265L40.3932 17.9359C40.4745 17.6732 40.7166 17.4942 40.9901 17.4951L45.1296 17.5075C45.5488 17.5086 45.8466 17.9171 45.7223 18.32L41.2954 32.6699C41.214 32.9325 40.972 33.1116 40.6985 33.1106L36.559 33.0982C36.1398 33.0972 35.8412 32.6884 35.9663 32.2857L37.7586 26.4864C37.7638 26.4714 37.7522 26.4566 37.7364 26.4563L36.2176 26.4521C35.7984 26.4511 35.5006 26.0425 35.6247 25.6404L36.7207 22.0789C36.8013 21.816 37.0441 21.6372 37.3179 21.6374L37.319 21.6369ZM46.8006 33.1289L42.5111 33.1158C42.0919 33.1148 41.7941 32.7062 41.9185 32.3033L46.3453 17.9535C46.4267 17.6908 46.6687 17.5118 46.9422 17.5128L51.2317 17.5258C51.6509 17.5269 51.9486 17.9354 51.8243 18.3384L47.3975 32.6882C47.3161 32.9509 47.0741 33.1299 46.8006 33.1289Z" fill="#575FF1"/>
</svg>
