<svg width="160" height="160" viewBox="0 0 160 160" fill="none" xmlns="http://www.w3.org/2000/svg">
<g style="mix-blend-mode:luminosity" opacity="0.4">
<path d="M40.5837 58.2357C31.7922 66.3806 28.3399 76.1528 29.1027 87.7201C30.6194 110.643 54.4632 127.715 82.3589 125.862C110.255 124.005 131.638 103.922 130.122 80.999C128.605 58.0765 104.761 41.004 76.8653 42.8568C76.3583 42.8921 75.8557 42.9452 75.3531 42.9894C74.242 42.6887 73.1441 42.335 72.0728 41.9238C70.7324 41.4108 69.4185 40.8051 68.2105 40.0313C67.3375 39.4741 66.5262 38.8285 65.7018 38.2006C63.3297 36.3921 60.7593 34.6765 57.8273 34.1459C54.8953 33.6108 51.518 34.5394 49.9264 37.0687C48.8197 38.8285 48.7404 41.0792 49.243 43.1C49.7456 45.1163 50.7773 46.9558 51.7958 48.7687C49.0402 46.9381 45.8745 45.0323 42.6427 45.7309C40.1516 46.2704 38.1235 48.4459 37.6385 50.9575C37.6385 50.9575 36.6068 55.5605 40.5881 58.2401L40.5837 58.2357Z" fill="#C3CAD5"/>
<path d="M51.2765 57.8501C49.363 57.6688 47.5377 58.4869 46.1003 59.9549C46.2106 59.9549 46.3208 59.9549 46.431 59.9637C49.2175 60.229 51.1971 63.3995 50.8577 67.0474C50.5138 70.6954 47.9786 73.4413 45.1921 73.176C44.9143 73.1495 44.6454 73.0876 44.3853 73.0036C45.5228 75.1039 47.3393 76.541 49.5041 76.7488C53.4898 77.1247 57.1184 73.2025 57.6078 67.9804C58.0972 62.7627 55.2666 58.226 51.2809 57.8501H51.2765Z" fill="white"/>
<path d="M50.8537 67.0437C51.1976 63.3957 49.2135 60.2253 46.4271 59.96C46.3168 59.9512 46.2066 59.9512 46.0964 59.9512C44.5356 61.543 43.4245 63.8998 43.1688 66.6148C42.944 68.9981 43.4201 71.2355 44.3769 73.0043C44.637 73.0883 44.906 73.1502 45.1837 73.1767C47.9702 73.442 50.5054 70.6961 50.8493 67.0481L50.8537 67.0437Z" fill="#5B626D"/>
<path d="M62.4012 61.0034C60.351 60.8088 58.3935 61.6843 56.8503 63.2585C56.9694 63.2585 57.084 63.2585 57.203 63.2673C60.1879 63.5503 62.3131 66.9507 61.9471 70.8595C61.5812 74.7684 58.8608 77.7133 55.8715 77.4303C55.5717 77.4038 55.2851 77.333 55.0073 77.2446C56.2242 79.4953 58.1774 81.0385 60.4965 81.2551C64.7688 81.6575 68.6576 77.4524 69.1823 71.8588C69.7069 66.2653 66.6691 61.4058 62.3968 60.999L62.4012 61.0034Z" fill="white"/>
<path d="M61.9459 70.8596C62.3118 66.9507 60.1911 63.5504 57.2018 63.2674C57.0827 63.2541 56.9637 63.2585 56.8491 63.2585C55.1737 64.9653 53.9876 67.4902 53.7143 70.3997C53.4762 72.9555 53.9832 75.3521 55.0105 77.2446C55.2883 77.333 55.5793 77.3994 55.8747 77.4303C58.8596 77.7133 61.5799 74.7728 61.9503 70.8596H61.9459Z" fill="#5B626D"/>
<path d="M76.0425 85.5949C81.1631 82.3983 83.3907 76.7078 81.0179 72.8847C78.6451 69.0616 72.5705 68.5537 67.4499 71.7502C62.3293 74.9468 60.1017 80.6373 62.4745 84.4604C64.8473 88.2835 70.9219 88.7914 76.0425 85.5949Z" fill="#C3CAD5"/>
<path d="M75.2605 94.1613C80.8976 94.1613 85.4674 89.5783 85.4674 83.9249C85.4674 78.2715 80.8976 73.6885 75.2605 73.6885C69.6234 73.6885 65.0537 78.2715 65.0537 83.9249C65.0537 89.5783 69.6234 94.1613 75.2605 94.1613Z" fill="#95A0B1"/>
<path d="M61.5836 92.4419C57.2143 92.4419 53.9516 90.231 52.4041 88.3739C51.9985 87.8831 52.0602 87.1535 52.5496 86.7467C53.039 86.3399 53.7621 86.4018 54.1677 86.8926C54.4234 87.1977 60.3844 94.0161 70.1327 86.9589C70.6485 86.5875 71.3672 86.7024 71.7419 87.2198C72.1123 87.7371 71.9977 88.4579 71.4818 88.8337C67.8179 91.4868 64.4583 92.4463 61.5836 92.4463V92.4419Z" fill="#5B626D"/>
</g>
</svg>
