<svg width="16" height="16" viewBox="0 0 16 16" fill="none" xmlns="http://www.w3.org/2000/svg">
<rect width="16" height="16" rx="8" fill="#575FF1"/>
<path d="M9.929 11.8646H6.10075C5.9297 11.8646 5.73829 11.7312 5.68127 11.5694L3.99521 7.39534C3.75493 6.72412 4.03594 6.51791 4.61425 6.93034L6.20256 8.05847C6.46728 8.24042 6.76866 8.14742 6.88269 7.85225L7.59947 5.95587C7.82753 5.34935 8.20628 5.34935 8.43435 5.95587L9.15113 7.85225C9.26516 8.14742 9.56653 8.24042 9.82718 8.05847L11.3178 7.00312C11.9531 6.55025 12.2585 6.78073 11.9979 7.5126L10.3525 11.5775C10.2915 11.7312 10.1 11.8646 9.929 11.8646Z" fill="white"/>
<circle cx="12.5454" cy="6.2729" r="0.454545" fill="white"/>
<circle cx="3.45455" cy="6.2729" r="0.454545" fill="white"/>
<circle cx="8.00044" cy="4.45455" r="0.454545" fill="white"/>
</svg>
