<svg width="217" height="182" viewBox="0 0 217 182" fill="none" xmlns="http://www.w3.org/2000/svg">
<path d="M114.544 12.8529C109.859 17.1724 108.019 22.3549 108.426 28.4894C109.234 40.6459 121.94 49.6999 136.806 48.7174C151.672 47.7325 163.067 37.0815 162.259 24.925C161.451 12.7685 148.744 3.71445 133.879 4.69701C133.608 4.71577 133.341 4.74391 133.073 4.76736C132.481 4.6079 131.896 4.4203 131.325 4.20221C130.61 3.93019 129.91 3.60893 129.266 3.19855C128.801 2.90308 128.369 2.56071 127.93 2.22772C126.665 1.26862 125.296 0.358756 123.733 0.0773559C122.171 -0.206389 120.371 0.286061 119.523 1.6274C118.933 2.56071 118.891 3.75432 119.159 4.82599C119.426 5.89531 119.976 6.87083 120.519 7.83228C119.051 6.86145 117.364 5.85075 115.641 6.22126C114.314 6.50735 113.233 7.66109 112.975 8.99305C112.975 8.99305 112.425 11.4342 114.546 12.8553L114.544 12.8529Z" fill="#575FF1"/>
<path d="M120.242 12.6465C119.222 12.5504 118.249 12.9842 117.483 13.7627C117.542 13.7627 117.601 13.7627 117.66 13.7674C119.144 13.9081 120.199 15.5895 120.018 17.5241C119.835 19.4588 118.484 20.915 116.999 20.7743C116.851 20.7602 116.708 20.7274 116.569 20.6828C117.176 21.7967 118.144 22.5588 119.297 22.6691C121.421 22.8684 123.355 20.7884 123.616 18.0189C123.876 15.2518 122.368 12.8458 120.244 12.6465H120.242Z" fill="white"/>
<path d="M120.016 17.5216C120.199 15.587 119.142 13.9056 117.657 13.7649C117.599 13.7603 117.54 13.7603 117.481 13.7603C116.649 14.6045 116.057 15.8543 115.921 17.2942C115.801 18.5581 116.055 19.7447 116.565 20.6827C116.703 20.7273 116.847 20.7601 116.995 20.7742C118.48 20.9149 119.831 19.4586 120.014 17.524L120.016 17.5216Z" fill="#27292D"/>
<path d="M126.17 14.3184C125.077 14.2152 124.034 14.6796 123.212 15.5144C123.275 15.5144 123.336 15.5144 123.4 15.5191C124.99 15.6691 126.123 17.4724 125.928 19.5454C125.733 21.6184 124.283 23.1802 122.69 23.0301C122.53 23.016 122.378 22.9785 122.229 22.9316C122.878 24.1252 123.919 24.9436 125.155 25.0585C127.431 25.2719 129.504 23.0418 129.783 20.0754C130.063 17.109 128.444 14.5318 126.167 14.3161L126.17 14.3184Z" fill="white"/>
<path d="M125.928 19.5456C126.123 17.4726 124.993 15.6693 123.4 15.5192C123.336 15.5122 123.273 15.5145 123.212 15.5145C122.319 16.4197 121.687 17.7587 121.541 19.3017C121.414 20.6571 121.684 21.9281 122.232 22.9318C122.38 22.9787 122.535 23.0139 122.692 23.0303C124.283 23.1803 125.733 21.6209 125.93 19.5456H125.928Z" fill="#27292D"/>
<path d="M133.44 27.3631C136.169 25.6679 137.356 22.65 136.092 20.6225C134.827 18.595 131.59 18.3256 128.861 20.0209C126.133 21.7161 124.945 24.7339 126.21 26.7614C127.474 28.7889 130.712 29.0583 133.44 27.3631Z" fill="#575FF1"/>
<path d="M133.023 31.9062C136.027 31.9062 138.462 29.4757 138.462 26.4775C138.462 23.4793 136.027 21.0488 133.023 21.0488C130.019 21.0488 127.584 23.4793 127.584 26.4775C127.584 29.4757 130.019 31.9062 133.023 31.9062Z" fill="#F55563"/>
<path d="M125.735 30.9936C123.407 30.9936 121.668 29.8211 120.843 28.8362C120.627 28.5759 120.66 28.189 120.921 27.9733C121.182 27.7575 121.567 27.7904 121.783 28.0506C121.919 28.2125 125.096 31.8284 130.291 28.0858C130.566 27.8888 130.949 27.9498 131.148 28.2242C131.346 28.4985 131.285 28.8808 131.01 29.0801C129.057 30.4871 127.267 30.996 125.735 30.996V30.9936Z" fill="#27292D"/>
<path d="M207.883 108.344L66.3008 159.39C64.0288 160.208 61.6252 158.557 61.5805 156.146L61.1952 135.665L6.83817 155.101C4.57554 155.91 2.18369 154.27 2.1273 151.872L0.000949121 62.5809C-0.0342943 61.0566 0.914928 59.6848 2.35521 59.1783L87.078 29.4648C89.2936 28.6886 91.6361 30.2503 91.7653 32.5907L92.7404 50.2345L182.362 16.9847C185.231 15.92 188.001 18.7598 186.859 21.5949L169.357 65.008C168.796 66.4009 169.183 67.9978 170.32 68.9804L208.987 102.376C211.024 104.134 210.411 107.431 207.878 108.344H207.883Z" fill="#575FF1"/>
<path d="M44.8867 96.3703L13.7292 107.218C12.5357 107.633 11.2787 106.78 11.2317 105.518L9.89241 70.2494C9.86187 69.4263 10.3717 68.6782 11.1518 68.4062L41.118 57.9709C42.3116 57.5559 43.5686 58.4118 43.6156 59.6734L43.8741 66.767C43.9046 67.5901 43.3924 68.3358 42.6147 68.6079L25.8483 74.4469L25.961 77.2797L40.0396 72.3786C41.2332 71.9636 42.4902 72.8195 42.5372 74.0811L42.7956 81.1747C42.8262 81.9978 42.314 82.7435 41.5363 83.0132L26.3628 88.2965L26.4521 91.6311L43.336 85.7522C44.5249 85.3371 45.7772 86.186 45.8336 87.4406L46.1437 94.5154C46.179 95.3432 45.6691 96.096 44.8844 96.368L44.8867 96.3703ZM19.434 131.412L18.6469 110.356C18.6163 109.533 19.1262 108.787 19.9062 108.515L32.9063 103.989C34.1023 103.572 35.3616 104.432 35.4039 105.696L35.7399 115.637L62.8468 105.333C64.0474 104.876 65.342 105.729 65.3937 107.01L65.7438 115.581C65.7767 116.394 65.2809 117.135 64.5173 117.417L21.9621 133.102C20.7615 133.546 19.481 132.687 19.4316 131.412H19.434ZM44.8609 68.6501L49.9171 66.889L49.5083 56.1278C49.4778 55.3047 49.9876 54.5566 50.7677 54.2846L61.5475 50.5302C62.741 50.1152 63.998 50.9687 64.045 52.2304L65.6263 93.9808C65.6568 94.8039 65.147 95.5519 64.3669 95.824L53.5895 99.576C52.3959 99.991 51.1389 99.1351 51.0919 97.8735L50.4622 80.9731L46.4915 82.3543C45.2979 82.7693 44.0432 81.9157 43.9939 80.6541L43.6015 70.4885C43.5686 69.6655 44.0808 68.9174 44.8609 68.6454V68.6501ZM80.0479 70.7957L68.8616 74.6908C67.6727 75.1035 66.4204 74.2593 66.3641 73.0024L65.3608 50.6193C65.3232 49.7916 65.8354 49.0365 66.6202 48.7644L77.8064 44.8694C78.9953 44.4567 80.2476 45.3009 80.304 46.5578L81.3072 68.9408C81.3448 69.7686 80.8326 70.5237 80.0479 70.7957Z" fill="white"/>
<path d="M101.647 104.43L70.49 115.278C69.2964 115.693 68.0394 114.839 67.9924 113.578L66.6532 78.309C66.6226 77.4859 67.1325 76.7378 67.9125 76.4658L97.8788 66.0305C99.0724 65.6155 100.329 66.4714 100.376 67.733L100.635 74.8266C100.665 75.6497 100.153 76.3954 99.3755 76.6675L82.609 82.5065L82.7218 85.3393L96.8003 80.4382C97.9939 80.0232 99.2509 80.8791 99.2979 82.1407L99.5564 89.2343C99.5869 90.0574 99.0747 90.8031 98.297 91.0728L83.1236 96.3561L83.2129 99.6907L100.097 93.8118C101.286 93.3967 102.538 94.2456 102.594 95.5002L102.905 102.575C102.94 103.403 102.43 104.156 101.645 104.428L101.647 104.43ZM76.1971 139.521L75.4076 118.416C75.3771 117.592 75.8869 116.847 76.667 116.575L89.6671 112.049C90.863 111.631 92.1224 112.492 92.1647 113.756L92.5007 123.696L137.405 108.06C138.597 107.645 139.851 108.496 139.903 109.755L140.255 118.376C140.288 119.201 139.778 119.952 138.996 120.224L78.6899 141.221C77.4964 141.636 76.2394 140.78 76.1924 139.518L76.1971 139.521ZM101.622 76.7097L106.678 74.9486L106.269 64.1874C106.239 63.3643 106.748 62.6162 107.528 62.3442L118.308 58.5898C119.502 58.1748 120.759 59.0284 120.806 60.29L122.387 102.04C122.418 102.863 121.908 103.612 121.128 103.884L110.35 107.636C109.157 108.051 107.9 107.195 107.853 105.933L107.223 89.0327L103.252 90.4139C102.059 90.8289 100.804 89.9754 100.755 88.7137L100.362 78.5482C100.329 77.7251 100.842 76.977 101.622 76.705V76.7097ZM137.373 98.2298L126.196 102.122C125.002 102.538 123.745 101.684 123.698 100.422L122.117 58.6719C122.086 57.8488 122.596 57.1008 123.376 56.8287L134.553 52.936C135.747 52.521 137.004 53.3746 137.051 54.6362L138.632 96.3866C138.662 97.2097 138.153 97.9577 137.373 98.2298Z" fill="white"/>
<path d="M140.168 50.8416L144.428 49.3643V50.4547L142.887 50.9893L142.875 55.5691L141.693 55.9795L141.705 51.3997L140.166 51.9344V50.844L140.168 50.8416Z" fill="white"/>
<path d="M146.493 48.6469L147.793 51.7634L147.849 51.7446L149.165 47.7182L150.64 47.207L150.626 52.8772L149.466 53.2806L149.475 49.756L149.433 49.7701L148.192 53.6886L147.436 53.9513L146.214 50.8699L146.172 50.884L146.162 54.4249L145.001 54.8283L145.016 49.1581L146.491 48.6469H146.493Z" fill="white"/>
<path d="M76.723 163.655L78.1147 167.55L79.5935 167.022L79.9602 168.048L78.4814 168.577L80.2792 173.609L79.0543 174.047L75.498 164.093L76.723 163.655ZM71.437 173.694C73.4312 171.613 74.1412 169.455 73.5718 167.095L70.1287 168.325L69.7659 167.31L74.4561 165.635C75.4973 168.566 75.204 171.577 72.4713 174.395L71.437 173.694ZM86.8085 160.487L87.1554 161.458L84.2696 162.489C84.7277 163.284 86.2271 163.632 88.1922 163.141L88.0828 164.263C86.215 164.713 84.6214 164.467 83.7179 163.645C83.5379 164.848 82.4739 166.049 80.7441 166.885L79.9707 166.079C81.7742 165.223 82.7062 164 82.5646 163.099L79.7064 164.12L79.3594 163.149L86.8085 160.487ZM80.4991 168.951L80.1482 167.969L84.0769 166.565L83.5841 165.186L84.798 164.752L85.2908 166.132L89.2416 164.72L89.5925 165.702L80.4991 168.951ZM82.1421 170.38L81.7912 169.398L88.7657 166.906L89.9367 170.184L88.7117 170.621L87.8916 168.326L82.1421 170.38ZM90.8638 159.424C91.7632 159.103 92.6875 159.339 93.4479 160.057L95.7819 159.223L95.0289 157.115L96.2428 156.681L99.8108 166.668L98.5969 167.102L97.2486 163.328L95.0028 164.13C94.9217 165.279 94.3432 166.133 93.3831 166.476C91.8823 167.012 90.3304 166.03 89.5612 163.859C88.7869 161.709 89.3629 159.96 90.8638 159.424ZM90.742 163.437C91.2845 164.973 92.1647 165.661 92.9889 165.372C93.8146 165.071 94.0545 163.984 93.512 162.448C92.9624 160.927 92.0857 160.232 91.258 160.528C90.4359 160.821 90.1924 161.916 90.742 163.437ZM94.1543 160.937C94.3502 161.259 94.5248 161.625 94.6707 162.034C94.7929 162.376 94.8817 162.711 94.9349 163.035L96.8937 162.335L96.1407 160.227L94.1543 160.937ZM105.892 153.234L108.132 159.502L106.962 159.92L105.992 157.205L105.021 157.552L105.873 159.936L104.725 160.346L102.675 154.607L103.822 154.197L104.666 156.559L105.637 156.212L104.723 153.652L105.892 153.234ZM98.036 158.343L97.693 157.383L99.5801 156.708L99.2252 155.715L100.439 155.282L100.794 156.275L102.659 155.608L103.002 156.569L98.036 158.343ZM99.1501 160.346C98.7684 159.313 99.4269 158.3 100.676 157.86C101.943 157.401 103.083 157.771 103.465 158.805C103.825 159.846 103.175 160.85 101.906 161.303C100.659 161.749 99.5096 161.388 99.1501 160.346ZM100.243 159.956C100.426 160.469 100.967 160.643 101.591 160.42C102.22 160.196 102.534 159.716 102.35 159.203C102.167 158.69 101.62 158.518 100.991 158.743C100.368 158.966 100.059 159.443 100.243 159.956ZM102.031 163.847C101.615 162.701 102.676 161.594 104.809 160.826C106.941 160.07 108.457 160.257 108.873 161.402C109.27 162.53 108.217 163.64 106.087 164.401C103.951 165.164 102.427 164.974 102.031 163.847ZM103.256 163.409C103.445 163.957 104.33 163.977 105.752 163.463C107.172 162.962 107.827 162.392 107.637 161.844C107.424 161.267 106.558 161.246 105.144 161.764C103.717 162.261 103.043 162.832 103.256 163.409ZM117.779 148.999L120.441 156.448L119.271 156.866L116.61 149.417L117.779 148.999ZM111.801 157.867L109.944 152.67L113.74 151.313L114.095 152.307L111.48 153.241L111.878 154.356L114.118 153.555L114.453 154.493L112.213 155.294L112.623 156.441C113.815 156.016 114.629 155.681 115.535 155.152L116.014 156.076C114.936 156.698 114.001 157.075 112.463 157.631L111.801 157.867ZM114.647 161.131L113.528 157.997L114.764 157.556L115.528 159.697L121.19 157.674L121.545 158.667L114.647 161.131ZM114.852 154.251L114.501 153.269L115.627 152.867L114.712 150.307L115.882 149.889L118.39 156.907L117.22 157.325L115.978 153.849L114.852 154.251ZM122.99 149.116C123.488 150.525 124.766 151.612 126.507 151.643L126.161 152.837C124.947 152.798 123.887 152.237 123.105 151.353C123.071 152.615 122.579 153.781 121.589 154.632L120.58 153.897C121.964 152.756 122.283 151.055 121.754 149.558L121.329 148.366L122.565 147.924L122.99 149.116ZM123.999 157.79L122.895 154.7L124.142 154.255L124.891 156.352L130.442 154.369L130.797 155.362L123.999 157.79ZM125.583 151.077L125.232 150.095L127.053 149.445L126.702 148.462L124.881 149.113L124.526 148.12L126.347 147.469L125.862 146.112L127.087 145.674L129.732 153.079L128.507 153.517L127.403 150.427L125.583 151.077ZM136.422 143.459L137.868 142.942L139.733 148.162C140.341 149.88 139.469 151.517 137.521 152.213C135.563 152.912 133.863 152.195 133.244 150.48L131.379 145.261L132.814 144.748L134.635 149.847C135.002 150.854 135.959 151.321 137.064 150.933C138.166 150.533 138.605 149.567 138.244 148.557L136.422 143.459ZM141.919 150.505L139.064 142.515L142.066 141.443C143.898 140.788 145.273 141.554 145.826 143.086C146.367 144.616 145.775 146.078 143.933 146.737L142.388 147.288L143.353 149.992L141.919 150.505ZM141.966 146.108L143.312 145.627C144.392 145.235 144.66 144.454 144.359 143.61C144.053 142.755 143.357 142.338 142.275 142.724L140.929 143.205L141.966 146.108ZM149.58 137.8C151.855 136.993 153.389 137.124 153.789 138.225C154.182 139.342 153.078 140.414 150.806 141.232C148.536 142.037 146.992 141.91 146.594 140.796C146.199 139.692 147.314 138.616 149.58 137.8ZM146.811 144.364L146.46 143.382L155.553 140.133L155.904 141.116L146.811 144.364ZM148.445 145.56L148.122 144.655L155.008 142.195L155.879 144.634L150.207 146.66L150.471 147.4L156.419 145.274L156.754 146.213L149.603 148.767L148.693 146.218L154.365 144.192L154.128 143.529L148.445 145.56ZM147.885 140.334C148.076 140.888 148.962 140.858 150.479 140.316C152.019 139.766 152.717 139.23 152.52 138.678C152.336 138.165 151.443 138.155 149.903 138.705C148.386 139.247 147.696 139.823 147.885 140.334ZM160.286 134.299C161.801 133.751 163.203 134.209 163.65 135.461C164.09 136.692 163.299 137.945 161.78 138.481C160.281 139.023 158.881 138.552 158.441 137.322C157.994 136.069 158.783 134.829 160.286 134.299ZM158.78 140.325C160.579 139.682 163.088 138.748 165.121 137.661L165.532 138.534C164.731 139.007 163.874 139.432 163.026 139.809L164.266 143.28L163.03 143.722L161.816 140.323C160.908 140.69 160.046 141.011 159.297 141.285L158.78 140.325ZM159.633 136.896C159.866 137.566 160.606 137.774 161.421 137.477C162.273 137.179 162.719 136.547 162.48 135.879C162.234 135.189 161.486 134.977 160.64 135.292C159.82 135.573 159.381 136.208 159.633 136.896ZM167.562 142.439L164.005 132.484L165.219 132.051L168.776 142.005L167.562 142.439ZM174.229 128.832L175.348 131.966L176.739 131.469L177.102 132.485L175.711 132.981L176.89 136.281L175.665 136.719L173.004 129.27L174.229 128.832ZM167.117 133.725L166.766 132.743L169.116 131.903L168.718 130.788L169.943 130.351L170.341 131.465L172.681 130.629L173.032 131.612L167.117 133.725ZM168.452 135.861C168.042 134.713 168.769 133.595 170.22 133.077C171.66 132.562 172.925 132.969 173.341 134.114C173.743 135.259 173.016 136.358 171.576 136.873C170.125 137.391 168.86 137.003 168.452 135.861ZM171.328 140.881L170.291 137.979L171.516 137.541L172.198 139.45L177.76 137.463L178.115 138.457L171.328 140.881ZM169.644 135.435C169.853 136.039 170.483 136.199 171.237 135.924C171.995 135.659 172.386 135.134 172.171 134.532C171.954 133.925 171.315 133.756 170.559 134.026C169.803 134.296 169.422 134.83 169.644 135.435ZM182.174 127.113L185.028 135.103L183.583 135.62L181.229 129.031L181.185 129.047L179.746 130.905L179.276 129.592L180.794 127.606L182.174 127.113ZM189.674 133.568C187.748 134.256 186.068 133.176 185.14 130.559C184.204 127.956 184.826 126.042 186.741 125.357C188.655 124.673 190.345 125.762 191.275 128.367C192.212 130.988 191.594 132.882 189.674 133.568ZM186.585 130.042C187.271 131.962 188.238 132.718 189.244 132.365C190.241 132.003 190.516 130.803 189.83 128.883C189.144 126.981 188.167 126.198 187.167 126.549C186.17 126.912 185.911 128.137 186.585 130.042ZM198.686 120.082L202.251 130.058L201.081 130.476L197.517 120.5L198.686 120.082ZM192.479 130.189C194.107 128.232 194.498 126.332 193.968 124.256L191.298 125.21L190.943 124.217L194.827 122.829C195.007 123.331 195.149 123.834 195.247 124.335L196.411 123.919L195.54 121.48L196.709 121.062L200.017 130.321L198.848 130.739L197.657 127.406L196.101 127.962L195.742 126.958L197.298 126.402L196.77 124.923L195.396 125.414C195.513 127.239 194.984 129.033 193.508 130.805L192.479 130.189ZM207.917 116.784L210.014 122.655L208.789 123.093L208.296 121.713L206.288 122.431L206.564 123.203L201.874 124.879L200.261 120.365L204.951 118.69L205.227 119.462L207.236 118.745L206.692 117.222L207.917 116.784ZM204.03 127.257C203.585 126.047 204.628 124.872 206.732 124.126C208.843 123.366 210.389 123.616 210.828 124.828C211.256 126.044 210.213 127.201 208.1 127.956C205.998 128.707 204.453 128.475 204.03 127.257ZM202.748 123.459L204.999 122.655L204.084 120.095L201.833 120.899L202.748 123.459ZM205.244 126.823C205.459 127.443 206.376 127.501 207.761 127.007C209.157 126.508 209.824 125.884 209.603 125.266C209.372 124.62 208.465 124.571 207.067 125.064C205.684 125.565 205.008 126.18 205.244 126.823ZM205.933 121.438L207.941 120.72L207.583 119.716L205.574 120.433L205.933 121.438Z" fill="#575FF1"/>
</svg>
