<svg width="26" height="26" viewBox="0 0 26 26" fill="none" xmlns="http://www.w3.org/2000/svg">
<path d="M20.8914 8.42635C19.9757 7.10476 20.1823 5.30457 21.4167 4.27367C21.4281 4.26433 21.4395 4.25498 21.4509 4.24564C21.7364 4.01101 21.6461 3.55214 21.2921 3.44729C16.2092 1.94298 12.449 2.61467 9.61372 3.9508C5.58666 5.84753 2.99228 9.92962 3.20614 14.3751C3.21029 14.4695 3.21652 14.563 3.22275 14.6574C3.61725 20.0507 8.34612 24.0913 13.7508 23.621C18.9531 23.1673 22.8961 18.6118 22.5981 13.3981C22.4922 11.544 21.8745 9.84449 20.8914 8.42635Z" fill="#FFF06C"/>
<path d="M8.6976 16.737C10.5639 16.737 12.0768 15.2241 12.0768 13.3578C12.0768 11.4915 10.5639 9.97852 8.6976 9.97852C6.8313 9.97852 5.31836 11.4915 5.31836 13.3578C5.31836 15.2241 6.8313 16.737 8.6976 16.737Z" fill="#FFEF9F"/>
<path d="M9.44617 13.2745C9.36831 12.9693 9.35066 12.6631 9.3818 12.3672L6.95145 12.9891C6.73239 13.0451 6.60677 13.2808 6.69087 13.4905C7.27016 14.9252 8.83572 15.7444 10.3764 15.3498C10.6328 15.2844 10.8737 15.1879 11.0958 15.0675C10.3078 14.7934 9.66834 14.1425 9.44513 13.2735L9.44617 13.2745Z" fill="white"/>
<path d="M9.44626 13.2747C9.66843 14.1436 10.309 14.7935 11.0969 15.0687C11.3762 14.9171 11.6264 14.7261 11.8424 14.5039C11.9784 14.1758 12.0656 13.8218 12.0915 13.4481C12.1341 12.8439 12.0147 12.2656 11.7707 11.7559L9.38293 12.3673C9.35178 12.6632 9.36839 12.9695 9.44729 13.2747H9.44626Z" fill="#575FF1"/>
<path d="M6.53516 13.3489C6.41993 13.3489 6.31507 13.2721 6.28393 13.1548C6.24759 13.0156 6.33064 12.8745 6.46872 12.8381L11.4519 11.53C11.591 11.4937 11.7322 11.5767 11.7686 11.7148C11.8049 11.8539 11.7219 11.9951 11.5838 12.0315L6.60057 13.3396C6.57877 13.3458 6.55593 13.3479 6.53413 13.3479L6.53516 13.3489Z" fill="#575FF1"/>
<path d="M15.661 16.1374C17.5273 16.1374 19.0402 14.6245 19.0402 12.7581C19.0402 10.8918 17.5273 9.37891 15.661 9.37891C13.7947 9.37891 12.2817 10.8918 12.2817 12.7581C12.2817 14.6245 13.7947 16.1374 15.661 16.1374Z" fill="#FFEF9F"/>
<path d="M16.41 12.6749C16.3322 12.3697 16.3145 12.0635 16.3457 11.7676L13.9153 12.3894C13.6963 12.4455 13.5706 12.6812 13.6547 12.8909C14.234 14.3256 15.7996 15.1447 17.3402 14.7502C17.5967 14.6848 17.8375 14.5883 18.0597 14.4679C17.2717 14.1938 16.6322 13.5428 16.409 12.6739L16.41 12.6749Z" fill="white"/>
<path d="M16.4101 12.6751C16.6323 13.544 17.2728 14.1939 18.0608 14.469C18.3401 14.3175 18.5903 14.1265 18.8062 13.9043C18.9422 13.5762 19.0294 13.2222 19.0554 12.8485C19.0979 12.2443 18.9786 11.666 18.7346 11.1562L16.3468 11.7677C16.3157 12.0636 16.3323 12.3699 16.4112 12.6751H16.4101Z" fill="#575FF1"/>
<path d="M13.4985 12.7493C13.3833 12.7493 13.2785 12.6725 13.2473 12.5551C13.211 12.416 13.294 12.2748 13.4321 12.2385L18.4153 10.9304C18.5544 10.8941 18.6956 10.9771 18.732 11.1152C18.7683 11.2543 18.6852 11.3955 18.5472 11.4318L13.5639 12.7399C13.5421 12.7462 13.5193 12.7482 13.4975 12.7482L13.4985 12.7493Z" fill="#575FF1"/>
<path d="M7.6096 8.12362C8.09546 9.29883 9.16477 10.2301 10.4884 10.2103C11.6813 10.1927 12.8326 9.25834 13.0247 8.0603C13.1119 7.51422 12.9915 6.91416 12.5025 6.59232C11.8993 6.19471 11.2536 6.72417 11.0563 7.30347C10.8715 7.84747 11.0189 8.4766 11.3688 8.9199C11.7477 9.40057 12.353 9.64143 12.951 9.68815C14.1885 9.78677 15.5921 8.91679 15.6284 7.5817C15.6378 7.24741 15.1187 7.24741 15.1093 7.5817C15.0855 8.44234 14.2259 9.06732 13.4296 9.16179C12.571 9.26353 11.5266 8.82958 11.4986 7.84436C11.4934 7.64607 11.5318 7.45089 11.6346 7.27855C11.7259 7.12594 11.9045 6.93907 12.1007 6.97437C12.2699 7.00448 12.4049 7.18304 12.4641 7.32216C12.5388 7.50072 12.5482 7.69382 12.5284 7.88588C12.4329 8.78286 11.5899 9.58018 10.7054 9.67776C9.55201 9.80442 8.53772 9.01853 8.10999 7.98451C8.05601 7.85474 7.93766 7.76234 7.79024 7.80283C7.66773 7.83605 7.55457 7.99178 7.60856 8.12259L7.6096 8.12362Z" fill="#575FF1"/>
<path d="M8.62154 17.0331C6.58465 17.0331 4.92773 15.3762 4.92773 13.3393C4.92773 11.3024 6.58465 9.64551 8.62154 9.64551C10.6584 9.64551 12.3154 11.3024 12.3154 13.3393C12.3154 15.3762 10.6584 17.0331 8.62154 17.0331ZM8.62154 10.2757C6.9314 10.2757 5.55687 11.6502 5.55687 13.3404C5.55687 15.0305 6.9314 16.405 8.62154 16.405C10.3117 16.405 11.6862 15.0305 11.6862 13.3404C11.6862 11.6502 10.3117 10.2757 8.62154 10.2757Z" fill="#27292D"/>
<path d="M15.6557 16.4413C13.6188 16.4413 11.9619 14.7844 11.9619 12.7475C11.9619 10.7106 13.6188 9.05371 15.6557 9.05371C17.6926 9.05371 19.3495 10.7106 19.3495 12.7475C19.3495 14.7844 17.6926 16.4413 15.6557 16.4413ZM15.6557 9.68388C13.9656 9.68388 12.591 11.0584 12.591 12.7486C12.591 14.4387 13.9656 15.8132 15.6557 15.8132C17.3459 15.8132 18.7204 14.4387 18.7204 12.7486C18.7204 11.0584 17.3459 9.68388 15.6557 9.68388Z" fill="#27292D"/>
<path d="M19.1983 12.3935C19.0394 12.3935 18.8941 12.2886 18.8484 12.1287C18.7934 11.9356 18.9065 11.7353 19.0996 11.6802L22.2878 10.7802C22.4809 10.7262 22.6813 10.8383 22.7363 11.0314C22.7914 11.2245 22.6782 11.4249 22.4851 11.4799L19.2969 12.38C19.2637 12.3893 19.2304 12.3935 19.1983 12.3935Z" fill="#27292D"/>
<path d="M14.2709 18.4418L14.2699 18.4426C14.1009 18.566 14.0639 18.803 14.1873 18.972L14.2969 19.1221C14.4203 19.2911 14.6573 19.3281 14.8264 19.2047L14.8273 19.2039C14.9964 19.0805 15.0333 18.8435 14.9099 18.6745L14.8004 18.5244C14.6769 18.3554 14.4399 18.3184 14.2709 18.4418Z" fill="white"/>
<path d="M14.8949 18.405C13.3974 19.4985 11.9915 18.6074 11.9747 18.597C11.8652 18.5256 11.8348 18.3783 11.9061 18.2687C11.9774 18.1591 12.123 18.1285 12.2326 18.1998C12.2986 18.2424 13.88 19.2247 15.3761 17.2545C15.4544 17.1504 15.6036 17.1308 15.7077 17.2091C15.8118 17.2875 15.8314 17.4366 15.7531 17.5408C15.4691 17.9146 15.1804 18.195 14.8942 18.404L14.8949 18.405Z" fill="#27292D"/>
</svg>
