<svg width="26" height="26" viewBox="0 0 26 26" fill="none" xmlns="http://www.w3.org/2000/svg">
<path d="M7.17394 6.43221C4.86474 7.43975 3.50424 9.13943 2.85967 11.4849C1.58178 16.1346 5.14635 21.1686 10.8224 22.7281C16.4971 24.2876 22.1344 21.7831 23.4122 17.1334C24.6901 12.4837 21.1256 7.44976 15.4495 5.89027C15.3457 5.86148 15.243 5.8377 15.1391 5.81141C14.9389 5.67499 14.7449 5.5298 14.5597 5.37335C14.3281 5.1781 14.1091 4.96783 13.9213 4.73128C13.7862 4.55981 13.6685 4.37583 13.5484 4.19434C13.2017 3.67242 12.8074 3.15426 12.2617 2.84512C11.7148 2.53722 10.9788 2.48716 10.4894 2.87891C10.149 3.15176 9.97628 3.59232 9.93748 4.02788C9.89868 4.46219 9.97628 4.899 10.0539 5.3283C9.63209 4.77509 9.13395 4.17807 8.44307 4.09296C7.90989 4.02788 7.35793 4.31825 7.08758 4.7826C7.08758 4.7826 6.56566 5.62367 7.17269 6.43096L7.17394 6.43221Z" fill="#575FF1"/>
<path d="M9.32673 7.09391C8.95875 6.92619 8.53947 6.96124 8.15272 7.15273C8.174 7.16024 8.19653 7.16775 8.21781 7.17776C8.75349 7.42308 8.92872 8.18781 8.60956 8.8887C8.2904 9.58835 7.59576 9.95757 7.06007 9.71226C7.00625 9.68723 6.95744 9.65719 6.91113 9.62214C6.99249 10.1178 7.25532 10.5283 7.67211 10.7185C8.43934 11.069 9.43061 10.5408 9.88744 9.54079C10.3443 8.53951 10.094 7.44435 9.32673 7.09391Z" fill="white"/>
<path d="M8.60937 8.88929C8.92852 8.18965 8.7533 7.42367 8.21761 7.17835C8.19634 7.16834 8.17381 7.16208 8.15253 7.15332C7.73199 7.36109 7.349 7.75159 7.1112 8.27225C6.90218 8.72909 6.84335 9.20595 6.91094 9.62273C6.95725 9.65653 7.00606 9.68782 7.05988 9.71285C7.59557 9.95816 8.29021 9.58894 8.60937 8.88929Z" fill="#27292D"/>
<path d="M11.3217 8.48824C10.9275 8.30801 10.4781 8.34681 10.0626 8.55207C10.0864 8.56083 10.1089 8.56834 10.1327 8.57835C10.7072 8.84119 10.8949 9.66099 10.5532 10.412C10.2103 11.1617 9.46684 11.5572 8.89235 11.2956C8.83478 11.2693 8.78221 11.2355 8.7334 11.1992C8.82101 11.7299 9.10262 12.1705 9.54819 12.3745C10.3705 12.7499 11.4331 12.1842 11.9237 11.1116C12.4131 10.039 12.1453 8.86497 11.323 8.48949L11.3217 8.48824Z" fill="white"/>
<path d="M10.552 10.4116C10.895 9.66193 10.7072 8.84088 10.1315 8.57804C10.109 8.56803 10.0852 8.56052 10.0614 8.55176C9.61082 8.77454 9.2003 9.19258 8.94497 9.75079C8.72093 10.2414 8.6571 10.7508 8.73095 11.1976C8.78101 11.2339 8.83358 11.2677 8.8899 11.294C9.46438 11.5569 10.2078 11.1613 10.5508 10.4104L10.552 10.4116Z" fill="#27292D"/>
<path d="M12.2994 16.0714C13.4863 16.0714 14.4484 15.1093 14.4484 13.9224C14.4484 12.7356 13.4863 11.7734 12.2994 11.7734C11.1125 11.7734 10.1504 12.7356 10.1504 13.9224C10.1504 15.1093 11.1125 16.0714 12.2994 16.0714Z" fill="#FF4747"/>
<path d="M9.44052 14.4834H9.43927C9.22498 14.4834 9.05127 14.6571 9.05127 14.8714V15.0616C9.05127 15.2759 9.22498 15.4496 9.43927 15.4496H9.44052C9.6548 15.4496 9.82851 15.2759 9.82851 15.0616V14.8714C9.82851 14.6571 9.6548 14.4834 9.44052 14.4834Z" fill="white"/>
<path d="M9.97863 14.8299C8.07994 14.8299 7.45539 13.2441 7.44789 13.2253C7.40032 13.1001 7.46416 12.96 7.58932 12.9124C7.71448 12.8648 7.8534 12.9274 7.90096 13.0526C7.92975 13.1277 8.64442 14.8949 11.0713 14.169C11.1989 14.1302 11.3341 14.2041 11.3729 14.3317C11.4117 14.4594 11.3379 14.5946 11.2102 14.6334C10.7496 14.771 10.3416 14.8286 9.97863 14.8286V14.8299Z" fill="#27292D"/>
</svg>
