<svg width="26" height="26" viewBox="0 0 26 26" fill="none" xmlns="http://www.w3.org/2000/svg">
<path d="M7.69585 5.95725C7.50663 5.22833 7.92485 4.29084 8.43445 3.7662C8.94404 3.24047 9.63211 2.95665 10.3223 2.79C11.3716 2.53843 12.4134 2.85344 13.2165 3.61676C14.0895 2.68572 15.4602 2.40512 16.6557 2.72872C17.8512 3.05233 19.108 4.01884 19.0607 5.48313C19.0607 5.48313 21.7517 4.82194 23.3106 7.95156C23.9105 9.1546 23.8159 10.6812 23.2246 11.8853C24.2793 12.6723 24.6513 14.2699 24.2406 15.5719C23.8299 16.8738 22.7483 17.8575 21.5302 18.3026C21.8764 19.5035 21.3034 20.8571 20.3605 21.6107C19.4187 22.3633 18.1867 22.5933 17.0116 22.5342C16.0827 22.488 15.1044 22.2429 14.4518 21.5354C13.7895 22.2407 12.4069 23.1277 11.4716 23.1556C10.2277 23.1922 8.93114 23.0191 7.88077 22.3084C6.82932 21.5978 6.13803 19.9335 6.381 18.6305C5.01778 18.9488 3.37287 18.1467 2.85038 16.7652C2.32788 15.3837 2.62245 13.5528 3.74378 12.5992C3.74378 12.5992 1.95804 9.97705 3.73626 7.46024C5.44137 5.04771 7.69478 5.96047 7.69478 5.96047L7.69585 5.95725Z" fill="#9A9FF7"/>
<path d="M14.2336 14.3748L14.2326 14.3745C14.0127 14.3057 13.7787 14.4283 13.71 14.6481L13.5631 15.1181C13.4944 15.338 13.6169 15.572 13.8368 15.6407L13.8378 15.641C14.0577 15.7098 14.2917 15.5872 14.3604 15.3674L14.5073 14.8974C14.576 14.6775 14.4535 14.4435 14.2336 14.3748Z" fill="white"/>
<path d="M13.592 14.0753L13.591 14.0748C13.38 13.9823 13.1339 14.0782 13.0414 14.2892L12.8094 14.8179C12.7169 15.0289 12.8128 15.2749 13.0238 15.3675L13.0248 15.3679C13.2358 15.4605 13.4818 15.3645 13.5744 15.1535L13.8063 14.6248C13.8989 14.4139 13.8029 14.1678 13.592 14.0753Z" fill="white"/>
<path d="M15.6275 14.9771C13.4708 14.9771 12.6903 13.8536 12.6548 13.8009C12.5882 13.702 12.6151 13.5687 12.714 13.5021C12.8129 13.4365 12.9451 13.4623 13.0118 13.5601C13.0472 13.6117 13.8794 14.7728 16.322 14.5084C16.4403 14.4965 16.5456 14.5815 16.5585 14.6987C16.5714 14.8169 16.4854 14.9223 16.3682 14.9352C16.1048 14.9631 15.8586 14.976 15.6286 14.976L15.6275 14.9771Z" fill="#27292D"/>
<path opacity="0.5" d="M10.2848 14.6898C11.3186 14.6898 12.1566 13.8518 12.1566 12.818C12.1566 11.7843 11.3186 10.9463 10.2848 10.9463C9.2511 10.9463 8.41309 11.7843 8.41309 12.818C8.41309 13.8518 9.2511 14.6898 10.2848 14.6898Z" fill="#BCBFF9"/>
<path d="M15.2935 9.30387C15.2827 9.30387 15.273 9.30387 15.2623 9.30172C15.1537 9.28452 15.0795 9.18239 15.0967 9.0738C15.2709 7.95677 16.1299 7.04616 17.2351 6.80642C17.3426 6.78276 17.449 6.85157 17.4716 6.95908C17.4953 7.06659 17.4265 7.17302 17.3189 7.1956C16.3739 7.40095 15.6396 8.17932 15.4902 9.13508C15.4752 9.23399 15.3902 9.30387 15.2935 9.30387Z" fill="#FF4747"/>
<path d="M17.8955 8.53192C18.1019 8.87058 18.2202 9.26729 18.2202 9.69303C18.2202 10.6305 17.6429 11.4315 16.8247 11.7637C17.0838 11.8518 17.3612 11.9002 17.6493 11.9002C19.062 11.9002 20.208 10.7552 20.208 9.34147C20.208 8.97486 20.1306 8.62653 19.992 8.31152C19.2878 8.38571 18.5771 8.46096 17.8955 8.53192Z" fill="white"/>
<path d="M18.2204 9.69236C18.2204 9.26769 18.1011 8.86991 17.8958 8.53125C16.8615 8.63984 15.9004 8.74089 15.1446 8.81938C15.1102 8.98817 15.0908 9.16233 15.0908 9.3408C15.0908 10.4654 15.8165 11.419 16.8239 11.763C17.642 11.4319 18.2194 10.6298 18.2194 9.69236H18.2204Z" fill="#FF4747"/>
<path d="M10.3096 9.99518C10.2988 9.99518 10.2891 9.99518 10.2784 9.99303C10.1698 9.97583 10.0956 9.87369 10.1128 9.76511C10.287 8.64808 11.146 7.73747 12.2512 7.4988C12.3587 7.47515 12.4651 7.54395 12.4877 7.65146C12.5114 7.75897 12.4426 7.86541 12.3351 7.88798C11.39 8.09225 10.6558 8.8717 10.5063 9.82639C10.4913 9.9253 10.4063 9.99518 10.3096 9.99518Z" fill="#FF4747"/>
<path d="M12.9116 9.22333C13.118 9.56198 13.2363 9.95869 13.2363 10.3844C13.2363 11.3219 12.659 12.1229 11.8408 12.4551C12.0999 12.5432 12.3773 12.5916 12.6654 12.5916C14.0781 12.5916 15.2242 11.4466 15.2242 10.0329C15.2242 9.66627 15.1468 9.31793 15.0081 9.00293C14.3039 9.07711 13.5932 9.15237 12.9116 9.22333Z" fill="white"/>
<path d="M13.237 10.3838C13.237 9.9591 13.1177 9.56131 12.9124 9.22266C11.8781 9.33124 10.917 9.4323 10.1612 9.51078C10.1268 9.67957 10.1074 9.85374 10.1074 10.0322C10.1074 11.1568 10.8331 12.1104 11.8405 12.4544C12.6586 12.1233 13.236 11.3213 13.236 10.3838H13.237Z" fill="#FF4747"/>
<path d="M8.89909 9.89112C8.78943 9.89112 8.7002 9.80189 8.7002 9.69223C8.7002 9.58257 8.7862 9.49549 8.89371 9.49334C9.14529 9.47828 16.213 8.66443 19.9221 8.23654C20.0307 8.22472 20.1307 8.30213 20.1425 8.41179C20.1554 8.52145 20.0769 8.62035 19.9672 8.63218C18.1471 8.8429 9.05928 9.8922 8.89801 9.8922L8.89909 9.89112Z" fill="#FF4747"/>
</svg>
