<svg width="26" height="26" viewBox="0 0 26 26" fill="none" xmlns="http://www.w3.org/2000/svg">
<path d="M15.7894 4.69611C16.0205 4.62027 16.0566 4.30848 15.8484 4.18208C14.5242 3.37672 13.3192 2.8639 12.6209 2.63878C12.2995 2.53525 11.9649 2.75676 11.9348 3.09383C11.9035 3.43812 11.8722 3.87631 11.8649 4.28802C11.8649 4.28802 8.34256 1.68054 5.22827 1.52404C4.98149 1.51201 4.76239 1.68054 4.69979 1.9189C4.49153 2.71342 4.1352 4.725 4.53968 8.25461L3.54172 8.1571C3.2528 8.12941 2.99518 8.33887 2.96629 8.62779C2.90128 9.27304 2.85795 10.6045 3.08908 12.2296C3.12399 12.4752 3.43458 12.5643 3.59107 12.3717C4.91287 10.7453 8.53878 7.06644 15.7894 4.69611Z" fill="#FF4747"/>
<path d="M18.9422 6.13092C10.4179 7.94388 5.26919 13.5862 3.53087 15.8024C3.3527 16.0287 3.30816 16.3309 3.41049 16.6006C4.11232 18.4424 5.21502 20.3119 6.92685 21.8817C9.38394 23.8534 12.4015 24.4133 15.1173 24.1551C19.0791 23.7785 23.2157 20.0351 23.3939 14.6552C23.5107 11.1328 21.7952 8.37123 19.6753 6.3428C19.4803 6.1562 19.2058 6.07434 18.9422 6.13092Z" fill="#FF4747"/>
<path d="M18.5153 5.39073C18.1891 5.10302 18.0615 5.01634 17.6883 4.77317C17.5053 4.65399 17.279 4.62029 17.0695 4.68409C8.20337 7.38185 4.12362 12.1008 2.89331 13.7332C2.77052 13.8957 2.72237 14.1004 2.75608 14.3014C2.8259 14.7167 2.84275 14.8588 2.96675 15.25C3.03055 15.4487 3.28937 15.4956 3.41818 15.3319C5.14687 13.1518 10.0669 7.93441 18.4082 5.83855C18.6104 5.78799 18.6718 5.52917 18.5153 5.39073Z" fill="#575FF1"/>
<path d="M14.9302 13.5313C14.9134 13.1449 14.8099 12.7838 14.6413 12.4611L17.7424 11.7834C17.9687 11.734 18.1878 11.8941 18.2082 12.1253C18.3587 13.8106 17.2356 15.3852 15.5394 15.756C14.9736 15.88 14.4102 15.8547 13.8901 15.7078C14.5534 15.2179 14.9688 14.4173 14.9302 13.5313Z" fill="white"/>
<path d="M11.8807 13.0641L14.6422 12.4609C14.8096 12.7824 14.9143 13.1447 14.9311 13.5311C14.9697 14.4171 14.5543 15.2177 13.891 15.7076C12.8485 15.4139 11.9758 14.6314 11.599 13.566C11.5219 13.3494 11.6567 13.1134 11.8807 13.0641Z" fill="#27292D"/>
<path d="M20.5456 10.8656C20.3758 10.5839 20.1519 10.3576 19.8955 10.1855L21.9733 8.38576C22.0997 8.27621 22.2911 8.30149 22.3862 8.43873C23.2205 9.63893 23.0315 11.299 21.9023 12.2765C21.5303 12.5979 21.1005 12.8086 20.6527 12.9109C20.9489 12.2765 20.9332 11.5109 20.5456 10.8656Z" fill="white"/>
<path d="M18.0413 11.7905L19.8952 10.1846C20.1504 10.3567 20.3755 10.5842 20.5453 10.8647C20.9341 11.51 20.9486 12.2756 20.6524 12.91C19.7387 13.1183 18.7516 12.8763 18.0353 12.2082C17.9137 12.0938 17.9149 11.9 18.0413 11.7905Z" fill="#27292D"/>
<path d="M10.3673 13.5828C10.2252 13.5828 10.1 13.4829 10.0723 13.3384C10.041 13.1747 10.1482 13.017 10.3119 12.9869L17.6805 11.5784L22.1262 7.58776C22.2502 7.47701 22.4404 7.48664 22.5511 7.61063C22.6619 7.73462 22.6523 7.92483 22.5283 8.03558L18.02 12.0816C17.979 12.1177 17.9297 12.143 17.8755 12.1539L10.425 13.578C10.4058 13.5816 10.3865 13.5828 10.3685 13.5828H10.3673Z" fill="#27292D"/>
<path d="M14.3767 19.3982C14.3767 19.3982 14.3671 19.3982 14.3635 19.3982C12.6553 19.3223 12.1436 17.8609 12.1111 17.0977C12.1039 16.9315 12.2327 16.7907 12.3988 16.7847C12.5626 16.775 12.7046 16.9063 12.7118 17.0724C12.7154 17.1434 12.813 18.7276 14.39 18.7975C14.5561 18.8047 14.6849 18.9455 14.6777 19.1117C14.6705 19.273 14.5368 19.3994 14.3767 19.3994V19.3982Z" fill="#27292D"/>
</svg>
