<svg width="26" height="26" viewBox="0 0 26 26" fill="none" xmlns="http://www.w3.org/2000/svg">
<path d="M10.8532 4.13994L2.90377 11.8636C1.67775 13.0989 1.62773 15.0752 2.78978 16.371L9.49592 23.0773C10.8069 24.5406 13.0565 24.6616 14.5187 23.3495L22.284 16.8945C23.4739 15.8267 23.6205 14.0156 22.6201 12.7686L15.3362 4.3749C14.2114 2.9744 12.1188 2.86506 10.8532 4.13994Z" fill="#27292D"/>
<path d="M11.5261 14.9339C9.43346 14.9339 9.11126 13.5578 9.09846 13.4985C9.07171 13.3729 9.1508 13.2496 9.27643 13.2217C9.40206 13.1961 9.52419 13.274 9.55211 13.3985C9.56374 13.4496 9.84524 14.5268 11.6819 14.4663C11.8099 14.4628 11.9181 14.5628 11.9227 14.6908C11.9274 14.8187 11.8262 14.9269 11.6982 14.9316C11.6401 14.9339 11.5819 14.9351 11.5261 14.9351V14.9339Z" fill="#737C89"/>
<path d="M11.7013 10.4223C11.6792 10.5398 11.6454 10.6561 11.5931 10.7689C11.2488 11.5285 10.3543 11.8658 9.59352 11.5215C8.83394 11.1772 8.49661 10.2827 8.84092 9.52196C8.89094 9.41145 8.95375 9.31025 9.02587 9.21836C7.94409 8.77517 6.98444 8.40527 6.98444 8.40527C6.35514 9.79415 6.97164 11.4308 8.36052 12.0601C9.74939 12.6894 11.386 12.0729 12.0153 10.684C12.0374 10.6363 11.9165 10.5433 11.7013 10.4211V10.4223Z" fill="white"/>
<path d="M9.59507 11.5217C10.3546 11.866 11.2503 11.5287 11.5946 10.7691C11.6458 10.6563 11.6807 10.5388 11.7028 10.4225C11.1677 10.1201 10.0441 9.63732 9.02742 9.21973C8.95646 9.31162 8.89249 9.41282 8.84247 9.52332C8.49816 10.2829 8.83549 11.1786 9.59507 11.5229V11.5217Z" fill="#FF4747"/>
<path d="M11.9337 10.3015C10.3017 10.3015 8.64066 9.69661 7.06916 8.52177C5.61515 7.43533 4.75786 6.25932 4.7218 6.20931C4.62758 6.07903 4.65666 5.89757 4.78694 5.80335C4.91722 5.70913 5.09868 5.73821 5.1929 5.86849C5.22547 5.91385 8.5476 10.4166 12.9806 9.62682C13.1388 9.59774 13.29 9.70359 13.3179 9.86179C13.3458 10.02 13.2412 10.1712 13.083 10.1991C12.7026 10.2666 12.3187 10.3003 11.9337 10.3003V10.3015Z" fill="#FF4747"/>
<path d="M16.4627 14.1753C18.8467 14.1753 20.7793 12.2427 20.7793 9.85867C20.7793 7.47463 18.8467 5.54199 16.4627 5.54199C14.0786 5.54199 12.146 7.47463 12.146 9.85867C12.146 12.2427 14.0786 14.1753 16.4627 14.1753Z" fill="white"/>
<path d="M16.4428 14.8866C13.6779 14.8866 11.4282 12.637 11.4282 9.87202C11.4282 7.10707 13.6779 4.85742 16.4428 4.85742C19.2078 4.85742 21.4574 7.10707 21.4574 9.87202C21.4574 12.637 19.2078 14.8866 16.4428 14.8866ZM16.4428 5.70308C14.1443 5.70308 12.275 7.57352 12.275 9.87086C12.275 12.1682 14.1455 14.0386 16.4428 14.0386C18.7402 14.0386 20.6106 12.1682 20.6106 9.87086C20.6106 7.57352 18.7402 5.70308 16.4428 5.70308Z" fill="#575FF1"/>
<path d="M24.2177 17.7829C24.1095 17.7829 24.0013 17.741 23.9187 17.6584L19.5799 13.3196C19.4148 13.1544 19.4148 12.8857 19.5799 12.7206C19.7451 12.5554 20.0127 12.5554 20.179 12.7206L24.5178 17.0593C24.6829 17.2245 24.6829 17.4932 24.5178 17.6584C24.4352 17.741 24.327 17.7829 24.2188 17.7829H24.2177Z" fill="#575FF1"/>
<path d="M16.5003 12.1471C17.7081 12.1471 18.6871 11.168 18.6871 9.96027C18.6871 8.75252 17.7081 7.77344 16.5003 7.77344C15.2926 7.77344 14.3135 8.75252 14.3135 9.96027C14.3135 11.168 15.2926 12.1471 16.5003 12.1471Z" fill="#FF4747"/>
<path d="M16.4877 14.8407C13.7228 14.8407 11.4731 12.5911 11.4731 9.82612C11.4731 7.06117 13.7228 4.81152 16.4877 4.81152C19.2527 4.81152 21.5023 7.06117 21.5023 9.82612C21.5023 12.5911 19.2527 14.8407 16.4877 14.8407ZM16.4877 5.65718C14.1892 5.65718 12.32 7.52762 12.32 9.82496C12.32 12.1223 14.1904 13.9927 16.4877 13.9927C18.7851 13.9927 20.6555 12.1223 20.6555 9.82496C20.6555 7.52762 18.7851 5.65718 16.4877 5.65718Z" fill="#575FF1"/>
<path opacity="0.45" d="M16.8164 7.38972C16.3813 8.37264 16.0068 9.37532 15.702 10.4059C15.6066 10.7281 15.9719 10.9794 16.251 10.8282C16.8164 10.5211 17.3933 10.2408 17.9877 9.99415L17.5271 9.53352C17.0897 10.6956 16.6524 11.8588 16.2138 13.0208C16.044 13.4722 16.7663 13.6664 16.935 13.2197C17.3724 12.0577 17.8097 10.8945 18.2483 9.73243C18.3425 9.48234 18.0447 9.16595 17.7876 9.2718C17.1328 9.54399 16.4953 9.84293 15.8718 10.1814L16.4209 10.6037C16.7082 9.63588 17.0513 8.68903 17.4596 7.76544C17.6527 7.32924 17.0083 6.9477 16.814 7.3874L16.8164 7.38972Z" fill="white"/>
</svg>
