<svg width="40" height="40" viewBox="0 0 40 40" fill="none" xmlns="http://www.w3.org/2000/svg">
<path d="M24.7585 10.2441C24.6229 10.1911 24.4893 10.1444 24.3536 10.0957C23.4739 9.21594 22.9418 8.60965 22.3334 6.9392C21.9985 6.01918 21.937 5.02497 21.7017 4.07527C21.4664 3.12557 21.0636 2.17163 20.2877 1.53779C19.5119 0.903952 18.2929 0.687726 17.4408 1.24525C17.021 1.52083 16.7327 1.94693 16.5398 2.39634C16.3512 2.83091 16.243 3.29728 16.2155 3.76365C16.1519 4.8681 16.5335 5.94075 16.9108 6.9816C16.5398 6.52371 16.2982 6.3626 15.8954 5.92803C15.7173 5.73512 15.5286 5.54009 15.2891 5.42562C14.8779 5.22635 14.2292 5.00377 13.7882 5.14792C13.0908 5.37474 12.4379 5.83051 12.1538 6.47919C12.0033 6.82261 11.9652 7.20207 11.997 7.57092C12.0521 8.24292 12.3255 8.85768 12.6944 9.43428C8.61366 10.5451 5.30031 13.1589 3.82065 16.9322C1.03727 24.0274 5.80272 32.5344 14.4645 35.9305C23.1262 39.3265 32.4028 36.329 35.184 29.2338C37.9674 22.1386 33.4182 13.6422 24.7585 10.2462V10.2441Z" fill="#DEE2E8"/>
<path d="M9.11124 13.6094C7.69941 13.6094 6.55469 15.1039 6.55469 16.9482C6.55469 16.9715 6.55681 16.9948 6.55681 17.0181C6.73699 16.274 7.25424 15.7271 7.89232 15.6974C8.71483 15.6593 9.42286 16.5009 9.47374 17.5756C9.52249 18.6504 8.89713 19.5535 8.07251 19.5916C7.82872 19.6022 7.59766 19.5365 7.38779 19.4093C7.84356 19.952 8.4456 20.2869 9.11124 20.2869C10.5231 20.2869 11.6678 18.7924 11.6678 16.9503C11.6678 15.1081 10.5231 13.6115 9.11124 13.6115V13.6094Z" fill="#F6F6F7"/>
<path d="M9.47357 17.5738C9.42481 16.499 8.71678 15.6574 7.89216 15.6956C7.25408 15.7253 6.73683 16.2722 6.55664 17.0163C6.57148 17.9638 6.88734 18.8118 7.38763 19.4075C7.59749 19.5325 7.82856 19.6004 8.07234 19.5898C8.89485 19.5516 9.52233 18.6486 9.47357 17.5738Z" fill="#C3CAD5"/>
<path d="M13.1989 29.1577C14.4708 29.6686 17.7969 30.2622 20.2029 27.6336C22.0218 25.6451 21.725 24.3414 21.1823 23.6101C20.7181 22.9868 19.9592 22.6392 19.1812 22.671C18.5558 22.6985 18.1594 22.9911 17.9241 23.2666C17.7566 23.4617 17.6485 23.697 17.5722 23.9429C17.0359 25.6578 15.5838 25.9461 14.7083 25.9546C14.3733 25.9567 14.0447 25.8889 13.7268 25.7935C13.7162 25.7914 13.7077 25.7871 13.6971 25.785C12.5545 25.4586 11.4945 26.5164 11.7532 27.6399C11.7934 27.8137 11.8698 27.9748 11.963 28.1254C12.1538 28.437 12.529 28.8885 13.1989 29.1577Z" fill="#F6F6F7"/>
<path d="M13.9855 15.0186C12.2557 15.0186 10.8545 16.848 10.8545 19.1078C10.8545 19.1353 10.8566 19.1629 10.8587 19.1926C11.0792 18.281 11.713 17.6111 12.4931 17.5751C13.5022 17.5285 14.3692 18.5587 14.4307 19.8752C14.4922 21.1916 13.7227 22.2982 12.7157 22.3448C12.4168 22.3596 12.1328 22.277 11.8763 22.1222C12.4338 22.7879 13.1736 23.197 13.9876 23.197C15.7175 23.197 17.1187 21.3675 17.1187 19.1078C17.1187 16.848 15.7175 15.0186 13.9876 15.0186H13.9855Z" fill="#F6F6F7"/>
<path d="M14.4284 19.8729C14.3669 18.5564 13.4999 17.5262 12.4909 17.5728C11.7108 17.6088 11.0748 18.2808 10.8564 19.1903C10.8755 20.3498 11.2635 21.3886 11.874 22.1178C12.1305 22.2725 12.4145 22.3531 12.7134 22.3404C13.7225 22.2937 14.4899 21.1872 14.4284 19.8707V19.8729Z" fill="#C3CAD5"/>
<path d="M17.2335 15.1978C17.5727 14.9477 18.0031 14.9117 18.338 14.6891C18.7726 14.3986 18.6941 13.9959 18.5881 13.5062C18.5288 13.2306 18.4588 12.9699 18.3952 12.7112L13.8333 10.7419L13.3415 10.5299L11.1962 9.60352C11.4527 10.479 11.476 11.3609 10.7807 12.0223C10.2889 12.4886 9.35189 12.4526 9.1187 13.0737C9.02119 13.3366 9.10175 13.8284 9.16322 14.2248C10.5369 14.1188 11.8703 13.4362 12.8433 12.3148C12.4723 14.9858 13.7464 17.5975 16.1418 18.632C16.2732 18.6892 16.4047 18.738 16.5361 18.7825C16.2648 17.4788 15.9404 16.1518 17.2378 15.2L17.2335 15.1978Z" fill="#C3CAD5"/>
<path d="M7.93544 11.6111C8.37425 11.1702 9.14588 11.2317 9.53806 10.8437C9.88572 10.5003 9.36423 9.38527 9.00809 8.65816L4.88496 6.87747C4.63058 6.76724 4.32744 6.92199 4.23204 7.21029C3.34594 9.911 4.47371 12.8046 6.90943 13.8561C7.09386 13.9366 7.28252 13.9981 7.47119 14.0532C7.45635 13.8073 7.44364 13.5614 7.43728 13.3155C7.41608 12.6838 7.46483 12.0839 7.93544 11.6111Z" fill="#C3CAD5"/>
<path d="M23.5048 14.9182L20.768 13.7354C20.7723 13.7714 20.7786 13.8053 20.7808 13.8413C20.838 14.6066 20.6642 15.3507 20.1702 15.9442C19.9604 16.1965 19.7017 16.3852 19.4092 16.5315C19.123 16.6756 18.5825 16.7307 18.398 17.0169C18.1394 17.4154 18.4849 18.3524 18.6885 19.0477C20.7087 18.8887 22.6462 17.6274 23.7146 15.6136C23.8546 15.3486 23.757 15.0263 23.5069 14.9182H23.5048Z" fill="#C3CAD5"/>
<path d="M18.3996 17.0175C18.5861 16.7313 19.1246 16.6741 19.4107 16.5321C19.7033 16.3858 19.9619 16.1971 20.1718 15.9449C20.6678 15.3534 20.8395 14.6072 20.7823 13.842C20.7802 13.8059 20.7717 13.772 20.7696 13.736L18.3932 12.71C18.4568 12.9686 18.5267 13.2293 18.5861 13.5049C18.6942 13.9946 18.7705 14.3995 18.336 14.6878C18.0031 14.9104 17.5728 14.9485 17.2315 15.1966C15.9363 16.1484 16.2585 17.4754 16.5298 18.7791C17.2358 19.0208 17.965 19.1035 18.6857 19.0484C18.4822 18.353 18.1388 17.4139 18.3953 17.0175H18.3996Z" fill="#F6F6F7"/>
<path d="M10.7785 12.0203C11.4759 11.361 11.4505 10.4792 11.194 9.60154L9.00841 8.6582C9.36243 9.38532 9.88604 10.5004 9.53838 10.8438C9.14621 11.2296 8.37458 11.1702 7.93576 11.6112C7.46515 12.0839 7.4164 12.6838 7.4376 13.3155C7.44608 13.5614 7.45879 13.8074 7.47151 14.0533C8.02692 14.2144 8.59716 14.2674 9.15893 14.225C9.09745 13.8285 9.01689 13.3367 9.11441 13.0739C9.34759 12.4528 10.2846 12.4867 10.7764 12.0224L10.7785 12.0203Z" fill="#F6F6F7"/>
<path d="M14.4268 29.984C14.4268 29.984 14.4056 29.984 14.3971 29.984C14.1936 29.967 14.041 29.789 14.0579 29.5834L14.3505 25.9902C14.3674 25.7867 14.5434 25.6319 14.7511 25.651C14.9546 25.668 15.1073 25.846 15.0903 26.0517L14.7978 29.6448C14.7829 29.8377 14.6197 29.9861 14.4289 29.9861L14.4268 29.984Z" fill="#C3CAD5"/>
<path d="M18.5873 29.2976C18.4644 29.2976 18.3435 29.2361 18.2736 29.1238L16.0986 25.6769C15.9884 25.503 16.0414 25.2741 16.2152 25.166C16.389 25.0557 16.618 25.1087 16.7261 25.2826L18.9011 28.7295C19.0113 28.9033 18.9583 29.1322 18.7845 29.2404C18.723 29.2785 18.6552 29.2976 18.5873 29.2976Z" fill="#C3CAD5"/>
<path d="M21.3745 26.2962C21.3215 26.2962 21.2706 26.2856 21.2198 26.2623L17.4846 24.5389C17.298 24.4541 17.2175 24.2336 17.3022 24.0471C17.387 23.8605 17.6075 23.78 17.7941 23.8647L21.5293 25.5882C21.7158 25.673 21.7964 25.8935 21.7116 26.08C21.6501 26.2157 21.5144 26.2962 21.3745 26.2962Z" fill="#C3CAD5"/>
</svg>
