<svg width="26" height="26" viewBox="0 0 26 26" fill="none" xmlns="http://www.w3.org/2000/svg">
<path d="M16.0932 6.65908C16.005 6.62464 15.9182 6.59432 15.83 6.56263C15.2582 5.9908 14.9123 5.59672 14.5169 4.51092C14.2992 3.91291 14.2592 3.26667 14.1062 2.64936C13.9533 2.03206 13.6915 1.412 13.1872 1C12.6829 0.588008 11.8906 0.447461 11.3366 0.809852C11.0638 0.988981 10.8764 1.26594 10.751 1.55806C10.6284 1.84053 10.5581 2.14367 10.5402 2.44681C10.4989 3.1647 10.7469 3.86193 10.9922 4.53848C10.751 4.24085 10.594 4.13613 10.3321 3.85366C10.2164 3.72827 10.0938 3.6015 9.93806 3.52709C9.67075 3.39757 9.24911 3.25289 8.9625 3.34659C8.50917 3.49402 8.08478 3.79027 7.90014 4.21191C7.8023 4.43514 7.7775 4.68178 7.79817 4.92154C7.83399 5.35834 8.01174 5.75793 8.2515 6.13272C5.59902 6.85475 3.44535 8.55371 2.48357 11.0064C0.67437 15.6183 3.77191 21.1478 9.40206 23.3552C15.0322 25.5626 21.0619 23.6143 22.8698 19.0024C24.679 14.3905 21.722 8.86788 16.0932 6.66046V6.65908Z" fill="#575FF1"/>
<path d="M5.92201 8.84668C5.00433 8.84668 4.26025 9.81811 4.26025 11.0169C4.26025 11.032 4.26163 11.0472 4.26163 11.0624C4.37875 10.5787 4.71496 10.2232 5.12972 10.2039C5.66435 10.1791 6.12457 10.7262 6.15764 11.4248C6.18933 12.1234 5.78284 12.7103 5.24684 12.7351C5.08838 12.742 4.93819 12.6993 4.80177 12.6166C5.09802 12.9694 5.48935 13.1871 5.92201 13.1871C6.8397 13.1871 7.58377 12.2157 7.58377 11.0183C7.58377 9.82086 6.8397 8.84806 5.92201 8.84806V8.84668Z" fill="white"/>
<path d="M6.15772 11.4238C6.12603 10.7252 5.66581 10.1782 5.1298 10.203C4.71505 10.2223 4.37884 10.5778 4.26172 11.0614C4.27136 11.6773 4.47667 12.2285 4.80186 12.6157C4.93827 12.697 5.08846 12.7411 5.24692 12.7342C5.78155 12.7094 6.18942 12.1224 6.15772 11.4238Z" fill="#27292D"/>
<path d="M8.57954 18.9531C9.40628 19.2851 11.5682 19.671 13.1322 17.9623C14.3144 16.6699 14.1215 15.8224 13.7688 15.3471C13.467 14.942 12.9737 14.716 12.468 14.7367C12.0615 14.7546 11.8039 14.9447 11.6509 15.1238C11.542 15.2506 11.4718 15.4036 11.4222 15.5634C11.0736 16.6781 10.1297 16.8655 9.56061 16.871C9.3429 16.8724 9.12932 16.8283 8.92264 16.7663C8.91575 16.7649 8.91024 16.7622 8.90335 16.7608C8.16065 16.5486 7.4717 17.2362 7.6398 17.9665C7.66598 18.0795 7.71559 18.1842 7.77621 18.282C7.90023 18.4846 8.14412 18.7781 8.57954 18.9531Z" fill="white"/>
<path d="M9.09035 9.7627C7.96598 9.7627 7.05518 10.9518 7.05518 12.4207C7.05518 12.4386 7.05655 12.4565 7.05793 12.4758C7.20123 11.8833 7.61323 11.4479 8.1203 11.4245C8.77619 11.3941 9.33975 12.0638 9.37971 12.9195C9.41967 13.7752 8.91949 14.4944 8.26498 14.5248C8.0707 14.5344 7.88606 14.4807 7.71933 14.3801C8.08172 14.8127 8.56261 15.0787 9.09173 15.0787C10.2161 15.0787 11.1269 13.8895 11.1269 12.4207C11.1269 10.9518 10.2161 9.7627 9.09173 9.7627H9.09035Z" fill="white"/>
<path d="M9.37842 12.9179C9.33846 12.0622 8.7749 11.3926 8.11901 11.4229C7.61194 11.4463 7.19857 11.8831 7.05664 12.4742C7.06904 13.2279 7.3212 13.9031 7.71804 14.3771C7.88477 14.4777 8.06941 14.5301 8.26369 14.5218C8.91958 14.4915 9.41838 13.7722 9.37842 12.9165V12.9179Z" fill="#27292D"/>
<path d="M11.2017 9.8785C11.4221 9.7159 11.7018 9.69248 11.9195 9.5478C12.202 9.35902 12.151 9.09722 12.0821 8.77892C12.0436 8.59979 11.9981 8.43031 11.9567 8.26221L8.99149 6.98213L8.67181 6.84434L7.27736 6.24219C7.44409 6.81126 7.45925 7.38448 7.00729 7.81438C6.68762 8.11752 6.07858 8.0941 5.92701 8.49783C5.86363 8.66869 5.91599 8.98836 5.95595 9.24603C6.84883 9.17714 7.71554 8.73345 8.348 8.00454C8.10687 9.7407 8.93499 11.4383 10.492 12.1107C10.5775 12.1479 10.6629 12.1796 10.7483 12.2085C10.5719 11.3611 10.3611 10.4986 11.2044 9.87987L11.2017 9.8785Z" fill="#27292D"/>
<path d="M5.15814 7.54733C5.44336 7.26073 5.94492 7.30069 6.19984 7.04853C6.42581 6.82531 6.08685 6.10052 5.85536 5.6279L3.17532 4.47046C3.00997 4.3988 2.81293 4.49939 2.75093 4.68679C2.17496 6.44225 2.90801 8.3231 4.49123 9.00654C4.61111 9.0589 4.73374 9.09886 4.85637 9.13469C4.84673 8.97485 4.83846 8.81501 4.83433 8.65517C4.82055 8.24455 4.85224 7.85461 5.15814 7.54733Z" fill="#27292D"/>
<path d="M15.2783 9.69661L13.4995 8.92773C13.5022 8.95116 13.5064 8.97321 13.5077 8.99663C13.5449 9.49406 13.4319 9.9777 13.1109 10.3635C12.9745 10.5275 12.8064 10.6501 12.6162 10.7452C12.4302 10.8389 12.0788 10.8747 11.959 11.0607C11.7909 11.3198 12.0155 11.9288 12.1477 12.3808C13.4609 12.2774 14.7203 11.4576 15.4148 10.1486C15.5057 9.97632 15.4423 9.76688 15.2797 9.69661H15.2783Z" fill="#27292D"/>
<path d="M11.9595 11.0616C12.0807 10.8756 12.4307 10.8384 12.6167 10.7461C12.8069 10.651 12.975 10.5284 13.1114 10.3644C13.4338 9.97997 13.5454 9.49495 13.5082 8.99752C13.5069 8.9741 13.5014 8.95205 13.5 8.92863L11.9553 8.26172C11.9967 8.42982 12.0421 8.59931 12.0807 8.77844C12.151 9.09673 12.2006 9.35991 11.9181 9.54731C11.7018 9.69199 11.4221 9.71679 11.2002 9.87801C10.3583 10.4967 10.5678 11.3593 10.7442 12.2067C11.203 12.3638 11.677 12.4175 12.1455 12.3817C12.0132 11.9297 11.79 11.3193 11.9567 11.0616H11.9595Z" fill="#F5F9AA"/>
<path d="M7.00573 7.8133C7.45907 7.38477 7.44253 6.81156 7.2758 6.2411L5.85518 5.62793C6.08529 6.10055 6.42563 6.82533 6.19965 7.04856C5.94474 7.29934 5.44318 7.26075 5.15795 7.54736C4.85206 7.85463 4.82037 8.24458 4.83415 8.6552C4.83966 8.81504 4.84792 8.97488 4.85619 9.13471C5.2172 9.23943 5.58786 9.27388 5.95301 9.24632C5.91305 8.98866 5.86069 8.66898 5.92407 8.49812C6.07564 8.09439 6.68468 8.11644 7.00436 7.81467L7.00573 7.8133Z" fill="#F5F9AA"/>
<path d="M9.3778 19.4903C9.3778 19.4903 9.36402 19.4903 9.35851 19.4903C9.22623 19.4793 9.12702 19.3636 9.13804 19.2299L9.3282 16.8944C9.33922 16.7621 9.45359 16.6615 9.58862 16.6739C9.7209 16.6849 9.82011 16.8007 9.80909 16.9343L9.61894 19.2699C9.60929 19.3953 9.50319 19.4917 9.37918 19.4917L9.3778 19.4903Z" fill="#27292D"/>
<path d="M12.0819 19.0443C12.0019 19.0443 11.9234 19.0043 11.8779 18.9313L10.4642 16.6908C10.3925 16.5778 10.427 16.429 10.54 16.3587C10.653 16.2871 10.8018 16.3215 10.872 16.4345L12.2858 18.675C12.3574 18.788 12.323 18.9368 12.21 19.0071C12.17 19.0319 12.1259 19.0443 12.0819 19.0443Z" fill="#27292D"/>
<path d="M13.894 17.0936C13.8595 17.0936 13.8264 17.0867 13.7934 17.0715L11.3655 15.9513C11.2442 15.8962 11.1919 15.7529 11.247 15.6316C11.3021 15.5104 11.4454 15.458 11.5667 15.5131L13.9946 16.6334C14.1158 16.6885 14.1682 16.8318 14.1131 16.953C14.0731 17.0412 13.9849 17.0936 13.894 17.0936Z" fill="#27292D"/>
</svg>
