<svg width="26" height="26" viewBox="0 0 26 26" fill="none" xmlns="http://www.w3.org/2000/svg">
<path d="M5.02209 8.06078C5.96479 6.67625 5.74686 4.78946 4.47284 3.70484C4.461 3.69457 4.44917 3.68429 4.43734 3.67505C4.1425 3.42752 4.2342 2.94683 4.60004 2.83796C9.83912 1.27163 13.7174 1.98238 16.6451 3.38952C20.8005 5.38621 23.4826 9.67231 23.2716 14.3333C23.2667 14.4319 23.2617 14.5305 23.2548 14.6291C22.8574 20.2843 17.9881 24.5119 12.4138 24.0086C7.04751 23.5228 2.973 18.7375 3.27178 13.2713C3.37828 11.327 4.01233 9.54598 5.02307 8.06078H5.02209Z" fill="#FFF06C"/>
<path d="M14.2966 14.6972C16.0693 14.6972 17.5063 13.2004 17.5063 11.354C17.5063 9.50755 16.0693 8.01074 14.2966 8.01074C12.524 8.01074 11.0869 9.50755 11.0869 11.354C11.0869 13.2004 12.524 14.6972 14.2966 14.6972Z" fill="#FFEF9F"/>
<path d="M14.936 11.2168C14.8138 10.9323 14.7477 10.6376 14.729 10.3428L12.5546 11.3586C12.3584 11.45 12.2795 11.7016 12.3919 11.8916C13.166 13.192 14.7645 13.7271 16.142 13.0841C16.3718 12.9773 16.5808 12.8427 16.7702 12.6877C15.9882 12.5531 15.2841 12.0262 14.935 11.2168H14.936Z" fill="white"/>
<path d="M14.9356 11.2171C15.2847 12.0265 15.9887 12.5534 16.7707 12.6879C17.0074 12.4928 17.2105 12.2648 17.3771 12.0121C17.4511 11.6701 17.4748 11.3096 17.4393 10.9408C17.3811 10.3441 17.176 9.80076 16.8654 9.34473L14.7295 10.3431C14.7482 10.6368 14.8133 10.9326 14.9366 11.2171H14.9356Z" fill="#575FF1"/>
<path d="M12.1816 11.7841C12.0879 11.7841 11.9982 11.7286 11.9567 11.6341C11.9005 11.5047 11.9548 11.3527 12.079 11.2942L16.5312 9.17934C16.6545 9.1208 16.8014 9.17729 16.8576 9.3067C16.9138 9.43612 16.8596 9.58813 16.7353 9.64668L12.2831 11.7615C12.2496 11.7769 12.2151 11.7851 12.1806 11.7851L12.1816 11.7841Z" fill="#575FF1"/>
<path d="M11.4914 6.34514C12.1757 7.48112 13.3955 8.21652 14.7001 7.98953C15.8962 7.78103 16.8646 6.605 16.8883 5.33858C16.8981 4.79421 16.7048 4.20055 16.2236 3.9222C15.9229 3.74862 15.5768 3.75273 15.2977 3.96945C15.0492 4.16254 14.8835 4.46246 14.8263 4.77881C14.7218 5.35604 14.9141 5.96306 15.3016 6.38622C15.7276 6.8515 16.3784 7.0446 16.9829 7.00968C18.3013 6.93367 19.6237 5.77715 19.4215 4.30839C19.4028 4.17076 19.2351 4.09578 19.1178 4.12865C18.9758 4.16871 18.9265 4.30634 18.9452 4.445C19.0784 5.4115 18.1978 6.22702 17.3734 6.4345C16.9099 6.55159 16.3883 6.52488 15.9672 6.27735C15.5994 6.06166 15.3362 5.66828 15.2937 5.22662C15.274 5.01915 15.3016 4.80448 15.3983 4.61961C15.4949 4.43473 15.6734 4.24882 15.8913 4.32688C16.2542 4.45732 16.3863 4.88665 16.3952 5.25436C16.4169 6.23319 15.7059 7.18839 14.8056 7.44209C13.6568 7.76562 12.5219 7.09082 11.9174 6.08734C11.7488 5.80796 11.3228 6.06577 11.4914 6.34617V6.34514Z" fill="#575FF1"/>
<path d="M20.1053 12.0686C21.7168 12.0686 23.0232 10.7079 23.0232 9.02943C23.0232 7.35093 21.7168 5.99023 20.1053 5.99023C18.4939 5.99023 17.1875 7.35093 17.1875 9.02943C17.1875 10.7079 18.4939 12.0686 20.1053 12.0686Z" fill="#FFEF9F"/>
<path d="M20.7101 8.6588C20.5829 8.39175 20.5089 8.11238 20.4804 7.83301L18.4421 8.8899C18.2587 8.98542 18.1916 9.22781 18.307 9.40448C19.0939 10.6154 20.6391 11.0632 21.9309 10.3936C22.1459 10.2816 22.3411 10.146 22.5156 9.98993C21.7642 9.89235 21.073 9.41783 20.7101 8.6588Z" fill="white"/>
<path d="M20.7102 8.65861C21.0731 9.41764 21.7643 9.89216 22.5157 9.98973C22.7347 9.79459 22.92 9.5676 23.0699 9.32006C23.1281 8.99036 23.138 8.64526 23.0906 8.29501C23.0137 7.72805 22.6479 7.28742 22.3343 6.86426L20.4814 7.83179C20.51 8.11116 20.583 8.39053 20.7112 8.65758L20.7102 8.65861Z" fill="#575FF1"/>
<path d="M18.0917 9.30838C18.006 9.30838 17.9231 9.25908 17.8817 9.17486C17.8225 9.05469 17.8689 8.90679 17.9843 8.84516L21.9779 6.72214C22.0943 6.66051 22.2353 6.70878 22.2944 6.82895C22.3536 6.94913 22.3073 7.09703 22.1919 7.15865L18.1982 9.28168C18.1637 9.30017 18.1272 9.30838 18.0917 9.30838Z" fill="#575FF1"/>
<path d="M20.0874 12.3732C18.9446 12.3732 17.8382 11.7333 17.2662 10.6107C16.4409 8.99297 17.0325 6.97779 18.5856 6.1181C19.338 5.7011 20.2008 5.61482 21.0153 5.87468C21.8298 6.13454 22.4984 6.70869 22.8988 7.49237C23.2991 8.27605 23.3819 9.17476 23.1325 10.0232C22.883 10.8715 22.3318 11.5679 21.5794 11.9849C21.1041 12.2479 20.5923 12.3732 20.0874 12.3732ZM17.7455 10.3457C18.4308 11.6881 20.0362 12.1986 21.324 11.4857C21.9482 11.1406 22.4057 10.5624 22.6128 9.85779C22.8199 9.15422 22.7509 8.40752 22.4185 7.75839C22.0862 7.10926 21.532 6.63165 20.8556 6.41596C20.1791 6.20027 19.4632 6.27217 18.84 6.6183C17.5522 7.33214 17.0611 9.00426 17.7455 10.3457Z" fill="#27292D"/>
<path d="M14.307 14.9012C13.0024 14.9012 11.7481 14.1412 11.1426 12.8378C10.7344 11.9586 10.6801 10.9674 10.9878 10.0461C11.2954 9.1248 11.9305 8.38323 12.7736 7.95801C13.6177 7.53279 14.5693 7.4763 15.4538 7.79676C16.3383 8.11824 17.0503 8.77867 17.4585 9.65684C18.3006 11.4707 17.5689 13.6605 15.8265 14.5366C15.3354 14.7831 14.8168 14.9002 14.305 14.9002L14.307 14.9012ZM11.681 12.5666C12.3792 14.0713 14.1235 14.704 15.5682 13.9768C17.0128 13.2497 17.6202 11.4327 16.9221 9.928C16.5838 9.19875 15.9932 8.65028 15.2585 8.38426C14.5249 8.11824 13.734 8.16549 13.0349 8.51778C12.3348 8.87008 11.8082 9.48531 11.5528 10.2505C11.2974 11.0157 11.3428 11.8384 11.681 12.5666Z" fill="#27292D"/>
<path d="M11.0021 11.8879H10.9982L5.76601 11.8283C5.5757 11.8263 5.42285 11.663 5.42482 11.4648C5.4268 11.2665 5.58556 11.1104 5.7739 11.1094L11.0061 11.1689C11.1964 11.171 11.3492 11.3343 11.3473 11.5325C11.3453 11.7297 11.1915 11.8879 11.0021 11.8879Z" fill="#27292D"/>
<path d="M25.0679 13.9428L24.019 13.1777L22.7153 12.2395C22.7153 12.2395 22.7127 12.2373 22.7104 12.2359C22.3995 12.0149 22.0514 11.7907 21.6124 11.6761C20.5541 11.3993 19.5095 11.6493 19.1111 12.2948C19.066 12.3677 19.0308 12.4406 19.0013 12.513C18.937 12.4674 18.8678 12.4252 18.7907 12.3895C18.1057 12.0649 17.0926 12.4217 16.3545 13.2292C16.0485 13.5648 15.877 13.9415 15.737 14.2957C15.7367 14.2978 15.736 14.299 15.7348 14.3014L15.1501 15.7973L14.6853 17.0096C14.6278 17.1598 14.7453 17.2593 14.8987 17.1888L16.1771 16.5941L17.6965 15.8244C17.9871 15.682 18.2652 15.4969 18.515 15.2727C18.9894 14.848 19.2946 14.3773 19.4211 13.9342C19.769 14.2372 20.28 14.4668 20.9091 14.5656C21.2406 14.618 21.5755 14.6221 21.896 14.5839L23.5897 14.4046L24.9861 14.2091C25.1525 14.1862 25.1977 14.0376 25.0679 13.9428Z" fill="#27292D"/>
</svg>
