<svg width="26" height="26" viewBox="0 0 26 26" fill="none" xmlns="http://www.w3.org/2000/svg">
<path d="M22.7489 18.1197C25.3823 15.352 25.2644 11.2145 22.9112 9.25728C21.5887 8.15794 19.7812 7.92705 18.0192 8.45741C17.1807 5.48492 14.812 3.42437 12.2133 3.64849C9.17322 3.91029 6.97453 7.19866 7.30105 10.9923C7.30781 11.0705 7.31747 11.1488 7.32616 11.2261C5.00575 11.0869 2.91815 12.1274 2.16465 14.014C1.20827 16.4079 2.96549 19.5272 5.83847 20.8622C5.83847 20.8622 15.4824 25.7581 22.7499 18.1187L22.7489 18.1197Z" fill="#FF7272"/>
<path d="M14.7142 17.7273C13.4845 17.7273 12.7087 17.051 12.6662 17.0124C12.587 16.9409 12.5803 16.8192 12.6508 16.74C12.7223 16.6608 12.844 16.654 12.9232 16.7245C12.9734 16.7689 14.1733 17.8045 15.9556 17.0897C16.0541 17.0501 16.1671 17.0984 16.2068 17.1969C16.2464 17.2964 16.1981 17.4085 16.0995 17.4481C15.5933 17.6509 15.1277 17.7282 14.7142 17.7282V17.7273Z" fill="#27292D"/>
<path d="M10.1852 18.1779C11.1695 18.1779 11.9675 17.38 11.9675 16.3956C11.9675 15.4113 11.1695 14.6133 10.1852 14.6133C9.20081 14.6133 8.40283 15.4113 8.40283 16.3956C8.40283 17.38 9.20081 18.1779 10.1852 18.1779Z" fill="#FF4747"/>
<path d="M19.3614 16.3165C20.2257 16.3165 20.9263 15.6158 20.9263 14.7515C20.9263 13.8872 20.2257 13.1865 19.3614 13.1865C18.497 13.1865 17.7964 13.8872 17.7964 14.7515C17.7964 15.6158 18.497 16.3165 19.3614 16.3165Z" fill="#FF4747"/>
<path d="M9.33968 12.1995C9.90964 13.579 10.8564 15.5729 12.5392 15.7719C13.2144 15.8521 13.967 15.5835 14.222 14.9102C14.534 14.0872 14.0694 13.1491 13.7622 12.3956C13.6356 12.0855 13.1246 12.2208 13.2531 12.5357C13.4801 13.0941 13.8153 13.75 13.795 14.3673C13.766 15.2677 12.7778 15.4019 12.1045 15.1121C11.5026 14.8532 11.1317 14.3335 10.7781 13.8041C10.411 13.2544 10.1009 12.67 9.84878 12.0595C9.72126 11.7503 9.21023 11.8856 9.33968 12.1995Z" fill="#FFF06C"/>
<path d="M14.8642 12.4429C15.096 13.095 15.3481 13.7741 15.8969 14.2301C16.3122 14.5759 17.0232 14.8609 17.5623 14.6967C19.0355 14.2455 18.5419 12.4661 17.884 11.5435C17.6879 11.2692 17.23 11.5329 17.428 11.8102C17.8637 12.4207 18.5505 14.1064 17.2638 14.2088C16.1847 14.2948 15.666 13.1249 15.3742 12.3028C15.2612 11.985 14.7511 12.1222 14.8651 12.4429H14.8642Z" fill="#FFF06C"/>
</svg>
