<svg width="26" height="26" viewBox="0 0 26 26" fill="none" xmlns="http://www.w3.org/2000/svg">
<path d="M17.2474 3.58666C17.8309 3.00965 18.9447 2.89036 19.7201 3.08226C20.4955 3.27546 21.14 3.76819 21.6755 4.32965C22.4885 5.18156 22.7608 6.33688 22.482 7.51295C23.8383 7.82545 24.8549 8.96521 25.205 10.271C25.5551 11.5767 25.3321 13.2922 23.9252 14.0494C23.9252 14.0494 26.0245 16.2265 23.9252 19.4124C23.1187 20.6378 21.6262 21.3859 20.1662 21.4871C20.0015 22.9134 18.6971 24.14 17.2448 24.4655C15.7913 24.791 14.2703 24.3099 13.1824 23.4048C12.2397 24.389 10.6474 24.5913 9.42076 24.1141C8.19412 23.6382 7.30201 22.6009 6.71333 21.4598C6.24783 20.5574 5.94311 19.5006 6.25172 18.497C5.00692 18.9106 2.95301 18.2156 2.26189 16.8567C1.64727 15.6456 1.11694 13.829 1.35423 12.4649C1.66802 10.6664 3.10083 9.38792 4.56865 9.28938C3.52095 8.17814 3.37702 6.18647 4.3936 4.93519C5.41018 3.68521 7.29942 2.95908 8.81522 3.4946C8.81522 3.4946 10.3116 0.372239 13.6595 0.670471C16.8701 0.957033 17.2448 3.58277 17.2448 3.58277L17.2474 3.58666Z" fill="#9A9FF7"/>
<path d="M5.5351 14.1684C5.49101 14.1684 5.44693 14.1567 5.40543 14.1334L3.44099 13.004C3.31651 12.9326 3.27372 12.7745 3.34504 12.65C3.41635 12.5255 3.57455 12.4827 3.69903 12.554L5.66347 13.6834C5.78795 13.7547 5.83074 13.9129 5.75942 14.0374C5.71144 14.1204 5.62457 14.1671 5.5338 14.1671L5.5351 14.1684Z" fill="#FF4747"/>
<path d="M4.06665 15.4656C4.03164 15.4656 3.99663 15.4591 3.96292 15.4436C3.83195 15.3865 3.77101 15.2335 3.82806 15.1026L4.54123 13.4649C4.59828 13.3339 4.75129 13.273 4.88225 13.33C5.01321 13.3871 5.07415 13.5401 5.0171 13.671L4.30394 15.3087C4.26115 15.406 4.16649 15.4643 4.06665 15.4643V15.4656Z" fill="#FF4747"/>
<path d="M15.282 9.25905C15.2755 9.25905 15.269 9.25905 15.2613 9.25905C15.1186 9.24738 15.0123 9.1229 15.0227 8.98027C15.1173 7.75362 15.9731 6.69295 17.1518 6.34026C17.2892 6.29877 17.4332 6.37657 17.4747 6.51401C17.5162 6.65146 17.4383 6.79539 17.3009 6.83689C16.3258 7.12863 15.6178 8.00647 15.54 9.02046C15.5297 9.15661 15.4156 9.26034 15.282 9.26034V9.25905Z" fill="#FF4747"/>
<path d="M18.0157 8.17244C18.2647 8.51735 18.4242 8.93099 18.4592 9.38611C18.537 10.3871 17.9859 11.2922 17.1392 11.7136C17.4231 11.7862 17.724 11.8148 18.0326 11.7914C19.5432 11.6747 20.6726 10.356 20.5546 8.84541C20.5247 8.45382 20.4119 8.08816 20.2382 7.7627C19.4926 7.90014 18.7379 8.03888 18.0157 8.17244Z" fill="white"/>
<path d="M18.459 9.38652C18.424 8.93269 18.2645 8.51776 18.0155 8.17285C16.9198 8.37513 15.9007 8.56185 15.0993 8.70837C15.076 8.8912 15.0708 9.07922 15.0851 9.26983C15.1784 10.4718 16.0329 11.4314 17.1377 11.714C17.9844 11.2926 18.5355 10.3875 18.4577 9.38652H18.459Z" fill="#FF4747"/>
<path d="M10.0139 10.4124C10.0075 10.4124 10.001 10.4124 9.99319 10.4124C9.85056 10.4007 9.74423 10.2762 9.75461 10.1336C9.84926 8.90695 10.7051 7.84627 11.8837 7.49358C12.0212 7.45209 12.1651 7.52989 12.2066 7.66733C12.2481 7.80478 12.1703 7.94871 12.0328 7.99021C11.0577 8.28195 10.3498 9.1585 10.272 10.1738C10.2616 10.3099 10.1475 10.4137 10.0139 10.4137V10.4124Z" fill="#FF4747"/>
<path d="M12.7481 9.32478C12.9971 9.6697 13.1566 10.0833 13.1916 10.5385C13.2694 11.5395 12.7183 12.4446 11.8716 12.866C12.1556 12.9386 12.4564 12.9671 12.765 12.9438C14.2756 12.8271 15.405 11.5084 15.287 9.99775C15.2572 9.60616 15.1444 9.2405 14.9706 8.91504C14.225 9.05249 13.4704 9.19123 12.7481 9.32478Z" fill="white"/>
<path d="M13.1914 10.5379C13.1564 10.0841 12.9969 9.66913 12.7479 9.32422C11.6523 9.5265 10.6331 9.71322 9.83174 9.85974C9.8084 10.0426 9.80322 10.2306 9.81748 10.4212C9.91084 11.6232 10.7653 12.5827 11.8701 12.8654C12.7168 12.444 13.2679 11.5389 13.1901 10.5379H13.1914Z" fill="#FF4747"/>
<path d="M8.49753 10.4183C8.36397 10.4183 8.24987 10.3146 8.23949 10.1785C8.22912 10.0384 8.33156 9.91524 8.4703 9.90097C8.75945 9.85948 16.2308 8.40852 20.1493 7.64478C20.2894 7.61626 20.4255 7.70962 20.454 7.84966C20.4813 7.9897 20.3892 8.12584 20.2492 8.15437C17.5404 8.68211 8.68814 10.4041 8.51957 10.4183C8.51309 10.4183 8.5066 10.4183 8.49882 10.4183H8.49753Z" fill="#FF4747"/>
<path d="M14.1103 16.6087C12.9887 16.6087 12.2716 15.9214 12.0187 15.4806C11.9189 15.3068 11.9798 15.0838 12.1536 14.984C12.3274 14.8841 12.5478 14.9438 12.6489 15.1162C12.6775 15.1642 13.3024 16.1821 14.7314 15.7931C14.9259 15.7399 15.1255 15.854 15.1774 16.0485C15.2293 16.243 15.1165 16.4427 14.922 16.4946C14.6315 16.5737 14.3605 16.6087 14.1103 16.6087Z" fill="#27292D"/>
</svg>
