<svg width="40" height="40" viewBox="0 0 40 40" fill="none" xmlns="http://www.w3.org/2000/svg">
<path d="M26.5342 5.51734C27.4319 4.62963 29.1454 4.4461 30.3384 4.74134C31.5313 5.03858 32.5227 5.79662 33.3466 6.6604C34.5974 7.97102 35.0163 9.74845 34.5874 11.5578C36.6741 12.0385 38.238 13.792 38.7766 15.8009C39.3153 17.8097 38.9721 20.4489 36.8077 21.6139C36.8077 21.6139 40.0374 24.9633 36.8077 29.8647C35.5669 31.7498 33.2708 32.9008 31.0246 33.0564C30.7713 35.2508 28.7644 37.1379 26.5302 37.6386C24.2939 38.1393 21.954 37.3992 20.2803 36.0068C18.83 37.5209 16.3803 37.8321 14.4932 37.098C12.606 36.3659 11.2336 34.77 10.3279 33.0145C9.61174 31.6261 9.14295 30.0003 9.61772 28.4563C7.70266 29.0926 4.54279 28.0234 3.47953 25.9328C2.53396 24.0696 1.71806 21.2748 2.08312 19.1762C2.56588 16.4093 4.77021 14.4424 7.02839 14.2908C5.41654 12.5812 5.19511 9.51705 6.75908 7.592C8.32306 5.66895 11.2296 4.55183 13.5616 5.37571C13.5616 5.37571 15.8636 0.572075 21.0144 1.03089C25.9537 1.47176 26.5302 5.51135 26.5302 5.51135L26.5342 5.51734Z" fill="#DEE2E8"/>
<path fill-rule="evenodd" clip-rule="evenodd" d="M8.31567 21.7436C8.37951 21.7795 8.44734 21.7974 8.51516 21.7974L8.51317 21.7954C8.65281 21.7954 8.78646 21.7236 8.86027 21.5959C8.96999 21.4044 8.90416 21.1611 8.71265 21.0513L5.69043 19.3138C5.49893 19.2041 5.25555 19.2699 5.14584 19.4614C5.03612 19.6529 5.10195 19.8963 5.29346 20.006L6.89405 20.9262L5.88843 23.2355C5.80065 23.437 5.89441 23.6724 6.09589 23.7602C6.14776 23.7841 6.20162 23.7941 6.25548 23.7941V23.7921C6.40909 23.7921 6.55471 23.7023 6.62054 23.5527L7.59004 21.3264L8.31567 21.7436Z" fill="#C3CAD5"/>
<path d="M23.5104 14.2439C23.5004 14.2439 23.4904 14.2439 23.4785 14.2439C23.259 14.226 23.0955 14.0345 23.1114 13.815C23.2571 11.9279 24.5737 10.2961 26.387 9.7535C26.5984 9.68966 26.8199 9.80935 26.8837 10.0208C26.9475 10.2323 26.8279 10.4537 26.6164 10.5175C25.1163 10.9664 24.0271 12.3169 23.9074 13.8769C23.8914 14.0863 23.7159 14.2459 23.5104 14.2459V14.2439Z" fill="#DEE2E8"/>
<path d="M27.7167 12.5728C28.0997 13.1034 28.3451 13.7398 28.3989 14.4399C28.5186 15.98 27.6708 17.3724 26.3682 18.0207C26.805 18.1324 27.2679 18.1763 27.7426 18.1404C30.0666 17.9609 31.8042 15.9321 31.6226 13.6081C31.5768 13.0056 31.4032 12.4431 31.1359 11.9424C29.9888 12.1538 28.8278 12.3673 27.7167 12.5728Z" fill="#F6F6F7"/>
<path d="M28.3981 14.4404C28.3443 13.7422 28.0989 13.1039 27.7159 12.5732C26.0302 12.8844 24.4623 13.1717 23.2294 13.3971C23.1935 13.6784 23.1855 13.9676 23.2075 14.2609C23.3511 16.1101 24.6657 17.5863 26.3654 18.0212C27.668 17.3729 28.5158 15.9805 28.3961 14.4404H28.3981Z" fill="#C3CAD5"/>
<path d="M15.4059 16.0193C15.3959 16.0193 15.386 16.0193 15.374 16.0193C15.1546 16.0014 14.991 15.8099 15.0069 15.5904C15.1526 13.7033 16.4692 12.0715 18.2825 11.5289C18.494 11.4651 18.7154 11.5847 18.7792 11.7962C18.8431 12.0077 18.7234 12.2291 18.5119 12.2929C17.0118 12.7418 15.9226 14.0903 15.8029 15.6523C15.7869 15.8617 15.6114 16.0213 15.4059 16.0213V16.0193Z" fill="#DEE2E8"/>
<path d="M19.6132 14.3462C19.9962 14.8768 20.2416 15.5132 20.2954 16.2134C20.4151 17.7534 19.5673 19.1458 18.2646 19.7942C18.7015 19.9059 19.1643 19.9498 19.6391 19.9139C21.9631 19.7343 23.7007 17.7055 23.5191 15.3815C23.4732 14.7791 23.2997 14.2165 23.0324 13.7158C21.8853 13.9273 20.7243 14.1407 19.6132 14.3462Z" fill="#F6F6F7"/>
<path d="M20.2946 16.2129C20.2407 15.5147 19.9954 14.8763 19.6124 14.3457C17.9267 14.6569 16.3587 14.9442 15.1259 15.1696C15.09 15.4509 15.082 15.7401 15.104 16.0334C15.2476 17.8826 16.5622 19.3588 18.2618 19.7937C19.5645 19.1453 20.4123 17.7529 20.2926 16.2129H20.2946Z" fill="#C3CAD5"/>
<path d="M13.0729 16.0269C12.8674 16.0269 12.6919 15.8673 12.6759 15.6578C12.66 15.4424 12.8176 15.2529 13.031 15.2309C13.4759 15.1671 24.9703 12.9348 30.9987 11.7599C31.2142 11.716 31.4236 11.8596 31.4675 12.075C31.5094 12.2905 31.3678 12.4999 31.1523 12.5438C26.9851 13.3557 13.3661 16.0049 13.1068 16.0269C13.0968 16.0269 13.0869 16.0269 13.0749 16.0269H13.0729Z" fill="#C3CAD5"/>
<path d="M21.7076 25.5516C19.9821 25.5516 18.8789 24.4943 18.4899 23.8161C18.3363 23.5487 18.4301 23.2056 18.6974 23.052C18.9647 22.8984 19.3038 22.9902 19.4594 23.2555C19.5033 23.3293 20.4648 24.8953 22.6632 24.2968C22.9624 24.215 23.2696 24.3906 23.3494 24.6898C23.4292 24.989 23.2557 25.2962 22.9564 25.376C22.5096 25.4977 22.0927 25.5516 21.7076 25.5516Z" fill="#C3CAD5"/>
</svg>
