<svg width="26" height="26" viewBox="0 0 26 26" fill="none" xmlns="http://www.w3.org/2000/svg">
<path d="M22.9756 15.1253C22.5228 20.1556 18.5288 24.1038 13.4824 23.9077C10.8847 23.8069 8.58393 22.6295 6.98702 20.824C2.69381 16.4138 3.1409 10.9708 3.4103 9.27302C3.45731 8.97725 3.73588 8.77664 4.03164 8.82249L5.05422 8.98069C4.84328 5.31915 5.32935 3.26712 5.58958 2.46007C5.66753 2.21703 5.90369 2.05654 6.15704 2.08291C9.35774 2.42567 12.837 5.31915 12.837 5.31915C12.868 4.89498 12.9264 4.4456 12.9792 4.09137C13.0296 3.74631 13.3873 3.53652 13.7128 3.66262C15.985 4.54075 23.6153 8.03149 22.9756 15.1265V15.1253Z" fill="#FF4747"/>
<path d="M9.58951 10.821L9.56658 10.7464C9.35908 10.0861 8.8306 9.57712 8.16455 9.39485L8.25512 9.36504C8.83748 9.1736 9.30291 8.7288 9.51958 8.15446L9.58951 7.96875L9.59294 7.98251C9.77751 8.63824 10.2785 9.15755 10.9262 9.36619L11.0145 9.39485L10.9709 9.40746C10.322 9.6012 9.81076 10.1045 9.61014 10.7522L9.58836 10.821H9.58951Z" fill="#F7FF8A"/>
<path d="M11.3674 17.2357C12.5222 17.2357 13.4584 16.2995 13.4584 15.1447C13.4584 13.9899 12.5222 13.0537 11.3674 13.0537C10.2125 13.0537 9.27637 13.9899 9.27637 15.1447C9.27637 16.2995 10.2125 17.2357 11.3674 17.2357Z" fill="#FF7182"/>
<path d="M14.2415 18.3275C14.2323 18.3275 14.222 18.3275 14.2117 18.3264C12.5918 18.1624 12.1837 16.7443 12.194 16.0187C12.1963 15.8605 12.327 15.7287 12.4841 15.7367C12.6423 15.739 12.7684 15.8685 12.7661 16.0267C12.7661 16.0943 12.773 17.6053 14.269 17.7577C14.426 17.7738 14.5407 17.9148 14.5246 18.0719C14.5097 18.2197 14.3848 18.3298 14.2403 18.3298L14.2415 18.3275Z" fill="#27292D"/>
<path d="M21.5346 13.0077C21.3798 12.6982 21.303 12.3703 21.295 12.0459L18.5781 12.8656C18.3798 12.9252 18.2777 13.1464 18.3626 13.3356C18.9782 14.7181 20.5407 15.4587 22.0275 15.0104C22.5228 14.8614 22.9527 14.5966 23.2955 14.255C22.5641 14.161 21.8911 13.7162 21.5358 13.0077H21.5346Z" fill="white"/>
<path d="M23.714 11.3162L21.2939 12.0464C21.3031 12.3709 21.3788 12.6987 21.5335 13.0083C21.8889 13.7167 22.5618 14.1615 23.2932 14.2555C23.9799 13.5723 24.3204 12.5807 24.1519 11.5856C24.1175 11.3827 23.91 11.2577 23.7128 11.3162H23.714Z" fill="#27292D"/>
<path d="M15.2331 13.2361C15.2469 12.8314 15.3524 12.452 15.5243 12.1138L12.2078 11.4225C12.0072 11.3801 11.8146 11.5234 11.794 11.7274C11.6151 13.5204 12.8154 15.1953 14.6175 15.5713C15.2102 15.6951 15.7994 15.663 16.344 15.5036C15.6447 14.9981 15.201 14.1647 15.2331 13.2361Z" fill="white"/>
<path d="M18.4853 12.73L15.5242 12.1133C15.3522 12.4515 15.2467 12.8309 15.233 13.2356C15.202 14.163 15.6445 14.9964 16.3438 15.5031C17.4524 15.1799 18.3706 14.3258 18.742 13.176C18.8051 12.9799 18.687 12.7725 18.4853 12.73Z" fill="#27292D"/>
<path d="M18.6984 13.1044C18.6755 13.1044 18.6526 13.1021 18.6296 13.0964L11.2538 11.2794C11.1002 11.2415 11.0062 11.0868 11.044 10.932C11.0818 10.7784 11.2366 10.6844 11.3914 10.7222L18.6892 12.5198L24.2033 10.7818C24.3547 10.7337 24.5152 10.8185 24.5633 10.9687C24.6115 11.1189 24.5266 11.2805 24.3764 11.3287L18.7855 13.0907C18.758 13.0998 18.7282 13.1044 18.6996 13.1044H18.6984Z" fill="#27292D"/>
</svg>
