<svg width="26" height="26" viewBox="0 0 26 26" fill="none" xmlns="http://www.w3.org/2000/svg">
<path d="M21.4953 20.6776C24.8093 18.6828 25.6154 14.4819 23.7662 11.9954C22.6923 10.5519 20.8888 9.89971 18.9577 10.0569V10.0548C19.3996 6.74718 17.1935 3.72211 14.0293 3.29937C10.8651 2.87663 7.94196 5.21553 7.50009 8.52313C7.42999 9.04997 7.4268 9.56937 7.48416 10.0728C5.41824 9.81367 3.46278 10.4807 2.3613 12.0315C0.605532 14.5032 1.68364 18.2845 4.76925 20.4758C4.76925 20.4758 12.1694 26.2922 21.4953 20.6786V20.6776Z" fill="#FF7272"/>
<path d="M17.2701 19.1216C17.1352 19.1216 17.0194 19.0186 17.0056 18.8816C16.9918 18.7361 17.098 18.6065 17.2435 18.5916C17.3041 18.5852 18.6743 18.4227 18.6976 16.9166C18.6998 16.77 18.823 16.6574 18.9674 16.6553C19.114 16.6574 19.2309 16.7785 19.2287 16.9251C19.2043 18.5162 17.9541 19.0568 17.2956 19.1206C17.2871 19.1206 17.2786 19.1216 17.2701 19.1216Z" fill="#27292D"/>
<path d="M8.31669 11.9134C8.00866 12.6059 7.81534 13.3346 7.75055 14.0908C7.69425 14.743 7.72187 15.4897 8.20197 15.9911C8.68207 16.4924 9.46277 16.5976 10.098 16.469C10.7809 16.3299 11.1559 15.7361 11.3556 15.1158C11.62 14.2958 11.7231 13.4078 11.7188 12.5496C11.7167 12.2076 11.1856 12.2076 11.1877 12.5496C11.192 13.2422 11.1134 13.9294 10.9477 14.6028C10.8351 15.0574 10.6811 15.6182 10.2392 15.8615C9.98642 16.0006 9.66246 16.0006 9.38311 15.9698C9.13456 15.9422 8.87327 15.8636 8.67464 15.7064C8.25614 15.375 8.2434 14.7706 8.26995 14.2852C8.30925 13.5629 8.48345 12.8438 8.77661 12.1832C8.83503 12.0525 8.81485 11.8974 8.68101 11.8199C8.56736 11.754 8.37617 11.7838 8.31775 11.9155L8.31669 11.9134Z" fill="#FFF06C"/>
<path d="M13.3474 12.3443C13.1095 13.0793 12.9141 13.8802 12.9141 14.6567C12.9141 15.3683 13.1605 16.0821 13.7691 16.4942C14.2959 16.85 15.0905 17.0009 15.6895 16.7598C16.3385 16.4985 16.7867 15.9291 16.9174 15.2472C17.0852 14.3677 17.099 13.4776 16.9716 12.5918C16.9514 12.4495 16.7708 12.3719 16.6444 12.4059C16.4915 12.4473 16.4384 12.5897 16.4585 12.7331C16.5541 13.4001 16.5552 14.0895 16.4628 14.7576C16.4214 15.0518 16.381 15.363 16.2323 15.6243C16.108 15.8431 15.9221 16.0279 15.7086 16.1596C15.2477 16.4432 14.6412 16.3721 14.178 16.1203C13.6565 15.8378 13.4547 15.2748 13.4451 14.7066C13.4335 13.9599 13.631 13.1909 13.8594 12.4856C13.9646 12.1595 13.4526 12.0203 13.3474 12.3443Z" fill="#FFF06C"/>
</svg>
