<svg width="40" height="40" viewBox="0 0 40 40" fill="none" xmlns="http://www.w3.org/2000/svg">
<path d="M36.6885 20.4917L23.5699 5.61133C22.7087 4.63349 21.4962 3.8757 20.2735 3.83052C16.2937 3.56967 14.1369 2.62971 13.1765 1.91855C12.853 1.67956 12.3896 1.87483 12.3342 2.27267C12.0107 4.56791 13.6924 6.23942 15.0754 7.20415L4.20979 18.2869C2.40712 20.1245 2.40712 22.991 4.20687 24.8243L17.0267 36.6662C19.0596 38.7341 22.4565 38.823 24.6119 36.863L36.8167 25.7671C38.5698 24.1729 38.2463 22.2551 36.6885 20.4888V20.4917Z" fill="#DEE2E8"/>
<path d="M19.2393 28.678C19.1417 28.678 19.0498 28.6751 18.9624 28.6693C18.7613 28.6562 18.6097 28.4827 18.6229 28.2816C18.636 28.0805 18.8109 27.9304 19.0105 27.9421C19.0192 27.9421 19.8674 27.9916 20.7505 27.6754C21.8814 27.2717 22.5503 26.4731 22.7383 25.3015C22.7703 25.1033 22.9568 24.9678 23.155 24.9998C23.3532 25.0319 23.4888 25.2184 23.4567 25.4166C23.0399 28.0164 20.6572 28.678 19.2378 28.678H19.2393Z" fill="#C3CAD5"/>
<path d="M22.4212 17.5155C22.3775 18.2412 22.4518 18.9859 22.6602 19.7233C23.6585 23.2558 27.3338 25.3106 30.8662 24.3123C34.3987 23.3141 36.4535 19.6388 35.4552 16.1063C35.2469 15.3675 34.919 14.6942 34.5022 14.0996L22.4212 17.5155Z" fill="#F6F6F7"/>
<path d="M34.501 14.1002L28.6529 15.7542C28.4125 16.5426 28.4212 17.4185 28.752 18.2637C29.4005 19.9235 31.158 20.9233 32.9155 20.6274C35.1947 20.2442 36.5762 17.9897 35.9656 15.8286L35.4585 14.6015C35.3025 14.2255 34.8989 14.0142 34.501 14.1017V14.1002Z" fill="#C3CAD5"/>
<path d="M33.9719 13.4389C32.3295 11.6377 29.7545 10.8085 27.2479 11.5167C24.4528 12.3066 22.5861 14.7709 22.4199 17.5149L28.6528 15.7531L34.5009 14.0991C34.3377 13.8659 34.1599 13.6473 33.9719 13.4389Z" fill="#C3CAD5"/>
<path d="M7.08425 14.2173C6.69063 14.8285 6.39063 15.5142 6.21108 16.2591C5.35092 19.8277 7.54847 23.4195 11.1171 24.2796C14.6857 25.1398 18.2775 22.9422 19.1376 19.3736C19.3179 18.6274 19.3618 17.8798 19.2897 17.1573L7.08425 14.2173Z" fill="#F6F6F7"/>
<path d="M19.2884 17.1566L13.3798 15.7338C12.784 16.3033 12.3625 17.0711 12.2369 17.9701C11.9891 19.7348 13.0316 21.4673 14.7087 22.0703C16.8835 22.8527 19.1922 21.564 19.7186 19.3808L19.8775 18.0626C19.9258 17.6585 19.6774 17.2765 19.2877 17.1578L19.2884 17.1566Z" fill="#C3CAD5"/>
<path d="M19.1504 16.321C18.601 13.9462 16.7622 11.9619 14.2301 11.3514C11.4064 10.6708 8.57179 11.9047 7.08274 14.2156L13.3796 15.7329L19.2882 17.1557C19.2601 16.8724 19.2122 16.5948 19.1504 16.321Z" fill="#C3CAD5"/>
<path d="M29.0282 25.614C24.8064 25.614 21.3701 22.1792 21.3701 17.9559C21.3701 13.7327 24.805 10.2979 29.0282 10.2979C33.2514 10.2979 36.6863 13.7327 36.6863 17.9559C36.6863 22.1792 33.2514 25.614 29.0282 25.614ZM29.0282 11.3588C25.3908 11.3588 22.431 14.3185 22.431 17.9559C22.431 21.5933 25.3908 24.5531 29.0282 24.5531C32.6656 24.5531 35.6253 21.5933 35.6253 17.9559C35.6253 14.3185 32.6656 11.3588 29.0282 11.3588Z" fill="#C3CAD5"/>
<path d="M12.6581 25.614C8.43629 25.614 5 22.1792 5 17.9559C5 13.7327 8.43484 10.2979 12.6581 10.2979C16.8813 10.2979 20.3161 13.7327 20.3161 17.9559C20.3161 22.1792 16.8813 25.614 12.6581 25.614ZM12.6581 11.3588C9.02067 11.3588 6.06091 14.3185 6.06091 17.9559C6.06091 21.5933 9.02067 24.5531 12.6581 24.5531C16.2955 24.5531 19.2552 21.5933 19.2552 17.9559C19.2552 14.3185 16.2955 11.3588 12.6581 11.3588Z" fill="#C3CAD5"/>
<path d="M23.4138 13.4449C23.3147 13.4449 23.2156 13.4172 23.1267 13.3604C20.234 11.4892 18.2346 13.2321 18.1501 13.3079C17.9329 13.5032 17.5978 13.4872 17.4025 13.27C17.2072 13.0543 17.2203 12.7206 17.436 12.5239C17.4622 12.4991 20.1058 10.1412 23.7038 12.47C23.9501 12.6288 24.0201 12.9567 23.8612 13.203C23.7592 13.3604 23.5887 13.4449 23.4153 13.4449H23.4138Z" fill="#C3CAD5"/>
</svg>
