<svg width="26" height="26" viewBox="0 0 26 26" fill="none" xmlns="http://www.w3.org/2000/svg">
<path d="M23.8476 13.3199L15.3205 3.64766C14.7607 3.01206 13.9726 2.5195 13.1779 2.49013C10.591 2.32058 9.18906 1.70961 8.56483 1.24735C8.35454 1.09201 8.05332 1.21894 8.01732 1.47753C7.80704 2.96943 8.90015 4.05592 9.79908 4.68299L2.73646 11.8868C1.56473 13.0812 1.56472 14.9444 2.73457 16.1361L11.0674 23.8333C12.3888 25.1775 14.5969 25.2353 15.9978 23.9612L23.931 16.7489C25.0705 15.7127 24.8602 14.4661 23.8476 13.318V13.3199Z" fill="#27292D"/>
<path d="M12.5052 18.641C12.4417 18.641 12.3821 18.6391 12.3252 18.6353C12.1945 18.6267 12.096 18.514 12.1045 18.3833C12.113 18.2526 12.2267 18.155 12.3565 18.1626C12.3622 18.1626 12.9135 18.1948 13.4875 17.9893C14.2225 17.7269 14.6573 17.2078 14.7795 16.4462C14.8004 16.3174 14.9216 16.2293 15.0504 16.2501C15.1793 16.271 15.2674 16.3922 15.2465 16.521C14.9756 18.2109 13.4269 18.641 12.5043 18.641H12.5052Z" fill="#737C89"/>
<path d="M4.87324 9.43848C4.60707 9.82874 4.40057 10.2692 4.2708 10.7504C3.6513 13.055 5.01722 15.426 7.32186 16.0455C9.62649 16.665 11.9974 15.299 12.6169 12.9944C12.7467 12.5123 12.7884 12.0282 12.7533 11.5575L4.87324 9.43942V9.43848Z" fill="white"/>
<path d="M12.7529 11.5562L8.93839 10.5312C8.54149 10.8903 8.25543 11.3828 8.15786 11.9644C7.96652 13.1068 8.61443 14.2501 9.69428 14.6707C11.0943 15.2154 12.6165 14.4187 12.9954 13.0083L13.1214 12.1539C13.1602 11.8915 13.0049 11.6395 12.7539 11.5562H12.7529Z" fill="#FF4747"/>
<path d="M12.6778 11.0113C12.3614 9.45876 11.2001 8.1383 9.56519 7.69878C7.7427 7.20906 5.87947 7.96212 4.87256 9.43792L8.93811 10.531L12.7526 11.5559C12.7394 11.3722 12.7129 11.1903 12.6769 11.0113H12.6778Z" fill="#27292D"/>
<path d="M14.5737 11.3844C14.5453 11.8561 14.5936 12.3402 14.7291 12.8195C15.378 15.1156 17.7669 16.4512 20.063 15.8023C22.3591 15.1535 23.6947 12.7645 23.0459 10.4684C22.9104 9.98816 22.6973 9.55054 22.4264 9.16406L14.5737 11.3844Z" fill="white"/>
<path d="M22.4252 9.16416L18.6239 10.2393C18.4676 10.7517 18.4733 11.321 18.6883 11.8704C19.1098 12.9493 20.2522 13.5991 21.3946 13.4068C22.8761 13.1577 23.7741 11.6923 23.3772 10.2876L23.0475 9.49001C22.9462 9.24562 22.6838 9.10827 22.4252 9.16511V9.16416Z" fill="#FF4747"/>
<path d="M22.0815 8.73455C21.014 7.56377 19.3402 7.02479 17.711 7.48515C15.8942 7.99855 14.6807 9.60033 14.5728 11.384L18.6241 10.2388L22.4254 9.16365C22.3193 9.0121 22.2037 8.87001 22.0815 8.73455Z" fill="#27292D"/>
<path d="M8.35714 16.9028C5.61299 16.9028 3.37939 14.6701 3.37939 11.925C3.37939 9.17991 5.61204 6.94727 8.35714 6.94727C11.1022 6.94727 13.3349 9.17991 13.3349 11.925C13.3349 14.6701 11.1022 16.9028 8.35714 16.9028ZM8.35714 7.63686C5.99283 7.63686 4.06899 9.5607 4.06899 11.925C4.06899 14.2893 5.99283 16.2132 8.35714 16.2132C10.7215 16.2132 12.6453 14.2893 12.6453 11.925C12.6453 9.5607 10.7215 7.63686 8.35714 7.63686Z" fill="#575FF1"/>
<path d="M18.8679 16.6489C16.1237 16.6489 13.8901 14.4162 13.8901 11.6711C13.8901 8.926 16.1228 6.69336 18.8679 6.69336C21.613 6.69336 23.8456 8.926 23.8456 11.6711C23.8456 14.4162 21.613 16.6489 18.8679 16.6489ZM18.8679 7.38295C16.5036 7.38295 14.5797 9.30679 14.5797 11.6711C14.5797 14.0354 16.5036 15.9593 18.8679 15.9593C21.2322 15.9593 23.156 14.0354 23.156 11.6711C23.156 9.30679 21.2322 7.38295 18.8679 7.38295Z" fill="#575FF1"/>
<path d="M15.2191 8.73947C15.1547 8.73947 15.0903 8.72148 15.0325 8.68453C13.1523 7.46828 11.8526 8.60118 11.7977 8.65043C11.6566 8.77736 11.4387 8.76694 11.3118 8.6258C11.1848 8.48561 11.1934 8.2687 11.3336 8.14082C11.3506 8.12472 13.0689 6.59208 15.4076 8.10577C15.5677 8.20902 15.6132 8.42215 15.5099 8.58223C15.4436 8.68453 15.3328 8.73947 15.2201 8.73947H15.2191Z" fill="#575FF1"/>
</svg>
