<svg width="40" height="21" viewBox="0 0 40 21" fill="none" xmlns="http://www.w3.org/2000/svg">
<path d="M5.56494e-08 16.3333L1.94629e-07 4.67876C2.25337e-07 2.10363 2.35228 0.0120907 5.21828 6.22274e-08L37.2199 4.43843e-07C39.6668 4.73022e-07 40.6943 1.55959 39.5046 3.46978L35.841 9.3696C35.4489 9.98618 35.4489 11.0017 35.841 11.6304L39.5046 17.5302C40.6807 19.4404 39.6533 21 37.2199 21L5.21828 21C2.35228 21 2.50855e-08 18.8964 5.56494e-08 16.3333Z" fill="#F0F1FF"/>
<path d="M13.3285 11.7871H14.8051L15.7621 13.0244C16.4115 12.4023 16.808 11.3975 16.8148 10.0508C16.808 7.64453 15.5434 6.33887 13.848 6.3457C12.1391 6.33887 10.8744 7.64453 10.8676 10.0508C10.8744 12.457 12.1391 13.7627 13.848 13.7559C14.1625 13.7559 14.4564 13.7148 14.7367 13.626L13.3285 11.7871ZM9.37734 10.0508C9.37734 6.88574 11.2709 4.96484 13.848 4.96484C16.4047 4.96484 18.3051 6.88574 18.3051 10.0508C18.3051 11.876 17.6762 13.2842 16.6508 14.1523L17.9906 15.8887H16.4457L15.6117 14.7949C15.0785 15.0205 14.4838 15.1367 13.848 15.1367C11.2709 15.1367 9.37734 13.209 9.37734 10.0508ZM19.5137 15V13.9062L22.9453 10.4473C24.0322 9.31934 24.5723 8.69043 24.5723 7.82227C24.5723 6.84473 23.7793 6.22266 22.7402 6.22266C21.6396 6.22266 20.9424 6.91992 20.9355 7.97266H19.5137C19.5 6.16113 20.8809 4.96484 22.7676 4.96484C24.6748 4.96484 25.9941 6.1748 26.0078 7.78125C25.9941 8.88867 25.4746 9.77051 23.6152 11.5957L21.6055 13.6328V13.7148H26.1719V15H19.5137ZM28.4605 15.0957C27.9273 15.0889 27.483 14.6582 27.4898 14.125C27.483 13.5918 27.9273 13.1543 28.4605 13.1543C28.9869 13.1543 29.4244 13.5918 29.4312 14.125C29.4244 14.6582 28.9869 15.0889 28.4605 15.0957Z" fill="#797FF4"/>
</svg>
