<svg width="40" height="21" viewBox="0 0 40 21" fill="none" xmlns="http://www.w3.org/2000/svg">
<path d="M5.56494e-08 16.3333L1.94629e-07 4.67876C2.25337e-07 2.10363 2.35228 0.0120907 5.21828 6.22274e-08L37.2199 4.43843e-07C39.6668 4.73022e-07 40.6943 1.55959 39.5046 3.46978L35.841 9.3696C35.4489 9.98618 35.4489 11.0017 35.841 11.6304L39.5046 17.5302C40.6807 19.4404 39.6533 21 37.2199 21L5.21828 21C2.35228 21 2.50855e-08 18.8964 5.56494e-08 16.3333Z" fill="#F0F1FF"/>
<path d="M13.2738 11.7871H14.7504L15.7074 13.0244C16.3568 12.4023 16.7533 11.3975 16.7602 10.0508C16.7533 7.64453 15.4887 6.33887 13.7934 6.3457C12.0844 6.33887 10.8197 7.64453 10.8129 10.0508C10.8197 12.457 12.0844 13.7627 13.7934 13.7559C14.1078 13.7559 14.4018 13.7148 14.682 13.626L13.2738 11.7871ZM9.32266 10.0508C9.32266 6.88574 11.2162 4.96484 13.7934 4.96484C16.35 4.96484 18.2504 6.88574 18.2504 10.0508C18.2504 11.876 17.6215 13.2842 16.5961 14.1523L17.9359 15.8887H16.391L15.557 14.7949C15.0238 15.0205 14.4291 15.1367 13.7934 15.1367C11.2162 15.1367 9.32266 13.209 9.32266 10.0508ZM22.9727 15.1367C20.9219 15.1367 19.4658 14.0361 19.4043 12.416H20.9355C20.9902 13.2842 21.8516 13.8379 22.959 13.8379C24.1553 13.8379 25.0234 13.1885 25.0234 12.2246C25.0234 11.2471 24.21 10.5498 22.7949 10.543H21.9473V9.3125H22.7949C23.9229 9.31934 24.709 8.69043 24.709 7.74023C24.709 6.83789 24.0322 6.22266 22.9863 6.22266C21.9951 6.22266 21.1064 6.77637 21.0723 7.67188H19.623C19.6641 6.05859 21.1543 4.96484 23 4.96484C24.9482 4.96484 26.1719 6.19531 26.1582 7.6582C26.1719 8.78613 25.4746 9.59277 24.4082 9.85938V9.92773C25.7617 10.1191 26.5479 11.0283 26.541 12.2793C26.5479 13.9268 25.0234 15.1367 22.9727 15.1367ZM28.5152 15.0957C27.982 15.0889 27.5377 14.6582 27.5445 14.125C27.5377 13.5918 27.982 13.1543 28.5152 13.1543C29.0416 13.1543 29.4791 13.5918 29.4859 14.125C29.4791 14.6582 29.0416 15.0889 28.5152 15.0957Z" fill="#797FF4"/>
</svg>
