<svg width="40" height="21" viewBox="0 0 40 21" fill="none" xmlns="http://www.w3.org/2000/svg">
<path d="M5.56494e-08 16.3333L1.94629e-07 4.67876C2.25337e-07 2.10363 2.35228 0.0120907 5.21828 6.22274e-08L37.2199 4.43843e-07C39.6668 4.73022e-07 40.6943 1.55959 39.5046 3.46978L35.841 9.3696C35.4489 9.98618 35.4489 11.0017 35.841 11.6304L39.5046 17.5302C40.6807 19.4404 39.6533 21 37.2199 21L5.21828 21C2.35228 21 2.50855e-08 18.8964 5.56494e-08 16.3333Z" fill="#F0F1FF"/>
<path d="M13.2328 11.7871H14.7094L15.6664 13.0244C16.3158 12.4023 16.7123 11.3975 16.7191 10.0508C16.7123 7.64453 15.4477 6.33887 13.7523 6.3457C12.0434 6.33887 10.7787 7.64453 10.7719 10.0508C10.7787 12.457 12.0434 13.7627 13.7523 13.7559C14.0668 13.7559 14.3607 13.7148 14.641 13.626L13.2328 11.7871ZM9.28164 10.0508C9.28164 6.88574 11.1752 4.96484 13.7523 4.96484C16.309 4.96484 18.2094 6.88574 18.2094 10.0508C18.2094 11.876 17.5805 13.2842 16.5551 14.1523L17.8949 15.8887H16.35L15.516 14.7949C14.9828 15.0205 14.3881 15.1367 13.7523 15.1367C11.1752 15.1367 9.28164 13.209 9.28164 10.0508ZM19.1992 13.0723V11.8555L23.5742 5.10156H25.4336V11.8008H26.7871V13.0723H25.4336V15H24.0117V13.0723H19.1992ZM20.7852 11.8008H24.0117V6.89258H23.9023L20.7852 11.7188V11.8008ZM28.5562 15.0957C28.023 15.0889 27.5787 14.6582 27.5855 14.125C27.5787 13.5918 28.023 13.1543 28.5562 13.1543C29.0826 13.1543 29.5201 13.5918 29.527 14.125C29.5201 14.6582 29.0826 15.0889 28.5562 15.0957Z" fill="#797FF4"/>
</svg>
