<svg width="40" height="21" viewBox="0 0 40 21" fill="none" xmlns="http://www.w3.org/2000/svg">
<path d="M5.56494e-08 16.3333L1.94629e-07 4.67876C2.25337e-07 2.10363 2.35228 0.0120907 5.21828 6.22274e-08L37.2199 4.43843e-07C39.6668 4.73022e-07 40.6943 1.55959 39.5046 3.46978L35.841 9.3696C35.4489 9.98618 35.4489 11.0017 35.841 11.6304L39.5046 17.5302C40.6807 19.4404 39.6533 21 37.2199 21L5.21828 21C2.35228 21 2.50855e-08 18.8964 5.56494e-08 16.3333Z" fill="#F0F1FF"/>
<path d="M14.6342 11.7871H16.1107L17.0678 13.0244C17.7172 12.4023 18.1137 11.3975 18.1205 10.0508C18.1137 7.64453 16.849 6.33887 15.1537 6.3457C13.4447 6.33887 12.1801 7.64453 12.1732 10.0508C12.1801 12.457 13.4447 13.7627 15.1537 13.7559C15.4682 13.7559 15.7621 13.7148 16.0424 13.626L14.6342 11.7871ZM10.683 10.0508C10.683 6.88574 12.5766 4.96484 15.1537 4.96484C17.7104 4.96484 19.6107 6.88574 19.6107 10.0508C19.6107 11.876 18.9818 13.2842 17.9564 14.1523L19.2963 15.8887H17.7514L16.9174 14.7949C16.3842 15.0205 15.7895 15.1367 15.1537 15.1367C12.5766 15.1367 10.683 13.209 10.683 10.0508ZM24.5791 5.10156V15H23.0615V6.60547H23.0068L20.6416 8.15039V6.71484L23.1025 5.10156H24.5791ZM27.1549 15.0957C26.6217 15.0889 26.1773 14.6582 26.1842 14.125C26.1773 13.5918 26.6217 13.1543 27.1549 13.1543C27.6813 13.1543 28.1188 13.5918 28.1256 14.125C28.1188 14.6582 27.6813 15.0889 27.1549 15.0957Z" fill="#797FF4"/>
</svg>
