<svg width="270" height="270" viewBox="0 0 270 270" fill="none" xmlns="http://www.w3.org/2000/svg">
<g clip-path="url(#clip0_520_2174)">
<path d="M222.036 229.266L253.396 219.109C255.12 218.549 256.205 216.838 255.963 215.037C255.656 212.712 253.311 211.236 251.075 211.959L221.994 221.38C221.62 221.501 221.228 221.561 220.836 221.561H77.5313C77.1395 221.561 76.7477 221.501 76.374 221.38L46.7318 211.778C44.7006 211.122 42.5247 212.284 41.9521 214.344L41.8617 214.67C41.3193 216.609 42.4102 218.634 44.3269 219.254L75.6086 229.386L75.6568 229.236V229.38H221.674H221.686H222.042V229.266H222.036Z" fill="#27292D"/>
<path d="M112.978 257C119.419 257 124.641 251.781 124.641 245.344C124.641 238.906 119.419 233.688 112.978 233.688C106.537 233.688 101.315 238.906 101.315 245.344C101.315 251.781 106.537 257 112.978 257Z" fill="#27292D"/>
<path d="M187.644 257C194.085 257 199.307 251.781 199.307 245.344C199.307 238.906 194.085 233.688 187.644 233.688C181.203 233.688 175.981 238.906 175.981 245.344C175.981 251.781 181.203 257 187.644 257Z" fill="#27292D"/>
<path d="M161.251 127.106C158.87 153.539 137.871 174.286 111.339 173.255C97.6809 172.725 85.5841 166.539 77.188 157.051C54.6158 133.877 56.9665 105.275 58.3829 96.354C58.63 94.7999 60.0946 93.7457 61.6497 93.9866L67.026 94.8179C65.917 75.5775 68.4726 64.7947 69.8408 60.5539C70.2506 59.2768 71.4922 58.4334 72.8243 58.572C89.6525 60.3731 107.945 75.5775 107.945 75.5775C108.108 73.3487 108.415 70.9873 108.693 69.1259C108.958 67.3127 110.838 66.2103 112.55 66.873C124.496 71.4873 164.614 89.8301 161.251 127.112V127.106Z" fill="#FF4747"/>
<path d="M126.648 179.785C130.849 181.882 132.663 186.906 130.777 191.201L127.606 198.405C127.606 198.405 154.452 197.026 153.56 222.634H86.5244L115.57 182.496C118.101 179.002 122.791 177.852 126.648 179.779V179.785Z" fill="#27292D"/>
<path d="M164.765 175.894C161.148 178.882 160.202 184.032 162.529 188.11L182.575 221.748H204.967L229.787 183.002C230.945 181.201 230.083 178.791 228.039 178.135C219.004 175.243 197.33 170.641 194.039 191.658L177.464 176.243C173.914 172.966 168.49 172.815 164.771 175.888L164.765 175.894Z" fill="#27292D"/>
<path d="M36.8169 56.2469C35.6838 55.9939 34.5506 56.6866 34.2854 57.8131C31.3742 70.3248 35.8585 74.9451 35.8585 74.9451C38.4262 79.18 43.9412 80.5293 48.1783 77.9631C52.4155 75.3969 53.7657 69.885 51.198 65.6502C47.9373 59.4335 40.4393 57.0541 36.8169 56.2409V56.2469Z" fill="#FF4747"/>
<path d="M20.3269 49.1384C19.2119 48.7047 18.1993 49.3131 18.0787 50.4998C17.6508 54.566 19.1516 56.1804 19.1516 56.1804C20.2003 57.9092 22.3159 58.5478 23.877 57.6081C25.4381 56.6683 25.8479 54.4937 24.7992 52.7648C23.7504 50.807 21.8036 49.7167 20.3269 49.1384Z" fill="#FF4747"/>
<path d="M59.5342 172.581C59.4016 172.177 46.5333 154.858 63.247 146.455C78.8939 138.588 87.7179 159.762 87.7179 159.762C87.7179 159.762 91.6175 170.376 84.4933 173.069C84.4933 173.069 83.6856 179.785 76.9652 178.58C76.9652 178.58 74.946 187.851 60.8301 184.225C60.8301 184.225 59.5041 183.863 57.9189 183.086C53.0247 180.683 54.1398 173.4 59.5342 172.587V172.581Z" fill="#27292D"/>
<path d="M90.8699 104.487L90.7493 104.095C89.6584 100.625 86.8798 97.9506 83.3779 96.9928L83.8541 96.8362C86.916 95.8302 89.363 93.4929 90.5022 90.4749L90.8699 89.499L90.8879 89.5713C91.8583 93.017 94.4923 95.7458 97.8977 96.8422L98.3618 96.9928L98.1328 97.059C94.7213 98.0771 92.0331 100.722 90.9784 104.125L90.8638 104.487H90.8699Z" fill="#F7FF8A"/>
<path d="M77.7182 180.984C77.6399 180.984 77.5615 180.978 77.4832 180.96C76.8322 180.833 76.4043 180.195 76.5369 179.544C77.5374 174.49 73.1495 170.653 73.1013 170.617C72.595 170.183 72.5347 169.424 72.9687 168.918C73.4027 168.412 74.1561 168.352 74.6624 168.779C74.8854 168.972 80.1774 173.55 78.8996 180.008C78.7851 180.58 78.2848 180.978 77.7182 180.978V180.984Z" fill="white"/>
<path d="M85.548 175.02C85.548 175.02 85.5299 175.02 85.5179 175.02C84.8549 175.002 84.3245 174.454 84.3426 173.785C84.433 170.069 81.7147 167.328 81.6845 167.304C81.2144 166.834 81.2084 166.075 81.6725 165.599C82.1366 165.123 82.896 165.117 83.3722 165.581C83.5168 165.719 86.862 169.057 86.7475 173.84C86.7294 174.496 86.1929 175.014 85.542 175.014L85.548 175.02Z" fill="white"/>
<path d="M111.158 207.321C110.965 207.321 110.772 207.272 110.586 207.176C110.001 206.863 109.778 206.134 110.091 205.55C110.308 205.146 115.528 195.664 128.619 196.008C129.282 196.026 129.813 196.58 129.795 197.243C129.776 197.905 129.24 198.423 128.559 198.417C117.011 198.092 112.412 206.339 112.219 206.688C112.002 207.092 111.586 207.321 111.158 207.321Z" fill="white"/>
<path d="M197.529 207.526C197.233 207.526 196.944 207.417 196.709 207.206C196.45 206.965 190.417 201.231 191.797 190.147C191.881 189.484 192.484 189.02 193.141 189.098C193.804 189.183 194.268 189.785 194.19 190.442C193.677 194.556 194.22 198.327 195.799 201.646C196.98 204.128 198.336 205.423 198.348 205.435C198.831 205.893 198.855 206.652 198.403 207.134C198.168 207.387 197.842 207.52 197.523 207.52L197.529 207.526Z" fill="white"/>
<path d="M100.218 138.196C106.29 138.196 111.212 133.277 111.212 127.208C111.212 121.14 106.29 116.221 100.218 116.221C94.1467 116.221 89.2246 121.14 89.2246 127.208C89.2246 133.277 94.1467 138.196 100.218 138.196Z" fill="#FF7182"/>
<path d="M115.329 143.931C115.281 143.931 115.227 143.931 115.173 143.925C106.656 143.063 104.51 135.612 104.564 131.799C104.577 130.967 105.264 130.275 106.089 130.317C106.921 130.329 107.584 131.01 107.572 131.841C107.572 132.196 107.608 140.136 115.474 140.937C116.3 141.021 116.902 141.762 116.818 142.587C116.74 143.365 116.083 143.943 115.323 143.943L115.329 143.931Z" fill="#27292D"/>
<path d="M153.674 115.98C152.861 114.353 152.457 112.631 152.415 110.926L138.13 115.233C137.087 115.546 136.551 116.709 136.997 117.703C140.233 124.968 148.449 128.859 156.266 126.504C158.87 125.721 161.13 124.329 162.932 122.534C159.087 122.04 155.549 119.703 153.68 115.98H153.674Z" fill="white"/>
<path d="M165.132 107.089L152.408 110.926C152.456 112.631 152.854 114.353 153.668 115.98C155.536 119.703 159.074 122.04 162.92 122.534C166.53 118.944 168.32 113.733 167.434 108.504C167.253 107.438 166.163 106.781 165.126 107.089H165.132Z" fill="#27292D"/>
<path d="M120.543 117.179C120.615 115.052 121.169 113.059 122.074 111.282L104.637 107.649C103.582 107.426 102.569 108.179 102.461 109.251C101.52 118.673 107.831 127.474 117.306 129.45C120.422 130.1 123.52 129.932 126.383 129.094C122.706 126.438 120.374 122.058 120.543 117.179Z" fill="white"/>
<path d="M137.642 114.523L122.073 111.282C121.169 113.059 120.615 115.053 120.542 117.179C120.379 122.053 122.706 126.432 126.383 129.094C132.211 127.396 137.039 122.908 138.992 116.866C139.323 115.836 138.702 114.745 137.642 114.523Z" fill="#27292D"/>
<path d="M138.763 116.486C138.642 116.486 138.522 116.474 138.401 116.444L99.6216 106.896C98.8139 106.697 98.3197 105.884 98.5186 105.071C98.7175 104.263 99.5312 103.77 100.345 103.968L138.715 113.414L167.706 104.282C168.502 104.029 169.345 104.474 169.599 105.263C169.852 106.053 169.406 106.902 168.616 107.155L139.221 116.414C139.076 116.462 138.92 116.486 138.769 116.486H138.763Z" fill="#27292D"/>
<path d="M169.508 93.7218C169.556 93.3061 169.61 92.8965 169.646 92.4748C169.857 90.0773 172.015 77.409 193.822 80.1318L201.862 81.0294C204.526 81.3306 206.431 83.7582 206.075 86.4148C205.738 88.9207 203.514 90.7339 200.988 90.5532L194.009 90.0532L200.633 90.993C203.218 91.3604 205.033 93.7338 204.707 96.3181L204.599 97.2096C204.273 99.806 201.917 101.661 199.313 101.372L192.936 100.655L199.512 101.908C202.001 102.384 203.689 104.715 203.363 107.227L203.273 107.908C202.977 110.155 201.145 111.884 198.885 112.059C190.127 112.733 167.127 113.763 169.508 93.7218Z" fill="#27292D"/>
<path d="M202.417 91.9509C202.381 91.9509 202.344 91.9509 202.302 91.9449L195.353 91.1076C194.834 91.0473 194.467 90.5775 194.533 90.0594C194.593 89.5413 195.064 89.1739 195.582 89.2401L202.531 90.0775C203.05 90.1377 203.417 90.6076 203.351 91.1256C203.291 91.6015 202.887 91.9509 202.417 91.9509Z" fill="white"/>
<path d="M201.169 102.848C201.127 102.848 201.09 102.848 201.048 102.842L194.237 101.962C193.725 101.896 193.357 101.426 193.424 100.908C193.49 100.39 193.96 100.035 194.479 100.095L201.289 100.975C201.802 101.041 202.169 101.511 202.103 102.029C202.043 102.505 201.639 102.848 201.169 102.848Z" fill="white"/>
<path d="M185.252 84.1802L189.193 88.4873C190.706 90.1439 190.586 92.7161 188.922 94.2281C187.265 95.7401 184.691 95.6196 183.178 93.957L179.236 89.6499" fill="#27292D"/>
<path d="M186.186 96.035C184.878 96.035 183.57 95.5049 182.617 94.4628L178.682 90.1557C178.398 89.8485 178.422 89.3726 178.73 89.0894C179.037 88.8123 179.513 88.8304 179.797 89.1376L183.739 93.4447C184.968 94.7941 187.066 94.8965 188.422 93.6676C189.079 93.0713 189.458 92.258 189.501 91.3725C189.543 90.487 189.235 89.6436 188.639 88.987L184.703 84.6799C184.42 84.3727 184.444 83.8968 184.751 83.6137C185.059 83.3366 185.535 83.3547 185.818 83.6619L189.76 87.969C190.628 88.9208 191.074 90.1557 191.013 91.4388C190.953 92.7219 190.399 93.9086 189.446 94.776C188.524 95.6133 187.361 96.029 186.204 96.029L186.186 96.035Z" fill="white"/>
</g>
<defs>
<clipPath id="clip0_520_2174">
<rect width="238" height="208" fill="white" transform="translate(18 49)"/>
</clipPath>
</defs>
</svg>
