<svg width="270" height="270" viewBox="0 0 270 270" fill="none" xmlns="http://www.w3.org/2000/svg">
<g clip-path="url(#clip0_520_2176)">
<path d="M188.122 94.8971C182.269 86.5424 183.589 75.1622 191.479 68.6451C191.552 68.5861 191.625 68.527 191.698 68.4679C193.523 66.9847 192.946 64.0838 190.683 63.421C158.194 53.9112 134.159 58.1575 116.036 66.604C90.2956 78.5946 73.7126 104.4 75.0795 132.503C75.1061 133.1 75.1459 133.691 75.1857 134.288C77.7074 168.383 107.934 193.926 142.48 190.953C175.733 188.085 200.936 159.287 199.031 126.327C198.354 114.606 194.406 103.862 188.122 94.8971Z" fill="#FFF06C"/>
<path d="M110.177 147.434C122.106 147.434 131.777 137.87 131.777 126.072C131.777 114.273 122.106 104.709 110.177 104.709C98.2477 104.709 88.5771 114.273 88.5771 126.072C88.5771 137.87 98.2477 147.434 110.177 147.434Z" fill="#FFEF9F"/>
<path d="M114.961 125.547C114.464 123.617 114.351 121.681 114.55 119.811L99.0154 123.742C97.6153 124.096 96.8123 125.586 97.3498 126.912C101.053 135.982 111.06 141.16 120.907 138.666C122.546 138.253 124.086 137.642 125.506 136.881C120.469 135.148 116.382 131.033 114.955 125.54L114.961 125.547Z" fill="white"/>
<path d="M114.961 125.546C116.381 131.04 120.475 135.148 125.512 136.887C127.297 135.929 128.896 134.722 130.277 133.317C131.146 131.243 131.703 129.005 131.869 126.643C132.141 122.823 131.378 119.167 129.819 115.945L114.556 119.81C114.357 121.681 114.463 123.617 114.968 125.546H114.961Z" fill="#575FF1"/>
<path d="M96.3548 126.019C95.6182 126.019 94.948 125.533 94.7489 124.792C94.5166 123.912 95.0475 123.02 95.9301 122.79L127.782 114.521C128.671 114.291 129.574 114.816 129.806 115.689C130.038 116.568 129.508 117.461 128.625 117.691L96.7728 125.96C96.6335 125.999 96.4875 126.013 96.3481 126.013L96.3548 126.019Z" fill="#575FF1"/>
<path d="M154.684 143.641C166.613 143.641 176.284 134.076 176.284 122.278C176.284 110.48 166.613 100.916 154.684 100.916C142.755 100.916 133.084 110.48 133.084 122.278C133.084 134.076 142.755 143.641 154.684 143.641Z" fill="#FFEF9F"/>
<path d="M159.468 121.753C158.971 119.824 158.858 117.888 159.057 116.017L143.522 119.948C142.122 120.303 141.319 121.793 141.857 123.118C145.559 132.188 155.566 137.367 165.414 134.873C167.053 134.459 168.593 133.849 170.013 133.087C164.976 131.355 160.888 127.24 159.462 121.747L159.468 121.753Z" fill="white"/>
<path d="M159.468 121.753C160.888 127.246 164.982 131.355 170.019 133.094C171.804 132.136 173.403 130.928 174.784 129.524C175.653 127.45 176.21 125.212 176.376 122.849C176.648 119.029 175.885 115.374 174.326 112.151L159.063 116.017C158.864 117.887 158.97 119.824 159.475 121.753H159.468Z" fill="#575FF1"/>
<path d="M140.862 122.226C140.125 122.226 139.455 121.74 139.256 120.998C139.023 120.119 139.554 119.226 140.437 118.997L172.289 110.727C173.178 110.498 174.081 111.023 174.313 111.896C174.545 112.775 174.014 113.668 173.132 113.897L141.28 122.167C141.14 122.206 140.994 122.219 140.855 122.219L140.862 122.226Z" fill="#575FF1"/>
<path d="M80.8061 175.464C80.8061 175.464 72.2724 158.007 99.161 146.423L126.713 136.592C130.058 135.286 133.84 136.959 135.088 140.3C136.262 143.444 134.762 146.955 131.657 148.307L105.611 157.948L114.058 154.942C117.357 153.767 120.993 155.428 122.234 158.663L122.659 159.779C123.906 163.027 122.274 166.663 119.009 167.937L110.999 171.047L119.58 168.435C122.831 167.444 126.295 169.138 127.483 172.288L127.808 173.148C128.87 175.97 127.781 179.127 125.207 180.734C115.107 187.048 90.1893 199.459 80.8128 175.458L80.8061 175.464Z" fill="#27292D"/>
<path d="M109.042 158.703C108.644 158.703 108.266 158.46 108.113 158.073C107.914 157.567 108.173 156.996 108.684 156.799L117.45 153.465C117.961 153.268 118.538 153.524 118.737 154.03C118.936 154.535 118.677 155.106 118.166 155.303L109.4 158.637C109.281 158.683 109.162 158.703 109.042 158.703Z" fill="white"/>
<path d="M113.156 171.756C112.751 171.756 112.373 171.513 112.227 171.119C112.034 170.608 112.293 170.043 112.811 169.853L121.431 166.657C121.948 166.466 122.519 166.722 122.711 167.234C122.904 167.746 122.645 168.31 122.127 168.501L113.507 171.697C113.395 171.736 113.275 171.763 113.156 171.763V171.756Z" fill="white"/>
<path d="M188.181 175.464C188.181 175.464 196.715 158.007 169.827 146.423L142.274 136.592C138.93 135.286 135.148 136.959 133.9 140.3C132.725 143.444 134.225 146.955 137.331 148.307L163.377 157.948L154.929 154.942C151.631 153.767 147.995 155.428 146.754 158.663L146.329 159.779C145.081 163.027 146.714 166.663 149.979 167.937L157.988 171.047L149.408 168.435C146.156 167.444 142.693 169.138 141.505 172.288L141.18 173.148C140.118 175.97 141.206 179.127 143.781 180.734C153.881 187.048 178.798 199.459 188.175 175.458L188.181 175.464Z" fill="#27292D"/>
<path d="M161.425 158.624C161.306 158.624 161.186 158.604 161.067 158.558L152.301 155.224C151.79 155.027 151.531 154.456 151.73 153.951C151.929 153.445 152.5 153.189 153.018 153.386L161.784 156.72C162.295 156.917 162.553 157.488 162.354 157.994C162.202 158.387 161.823 158.624 161.425 158.624Z" fill="white"/>
<path d="M156.768 172.104C156.648 172.104 156.535 172.084 156.416 172.039L147.796 168.842C147.278 168.652 147.02 168.081 147.212 167.576C147.404 167.07 147.982 166.808 148.493 166.998L157.113 170.194C157.63 170.385 157.889 170.956 157.697 171.461C157.544 171.855 157.166 172.098 156.768 172.098V172.104Z" fill="white"/>
<path d="M135.977 205.365V258.066C135.977 259.687 137.305 261 138.944 261H191.4C193.557 261 194.99 258.801 194.101 256.852C189.721 247.25 177.259 225.238 159.442 237.793L155.659 204.282C155.102 199.341 150.875 195.6 145.845 195.6C140.39 195.6 135.971 199.971 135.971 205.365H135.977Z" fill="#27292D"/>
<path d="M150.689 248.845C150.603 248.845 150.516 248.832 150.43 248.813C149.899 248.668 149.587 248.13 149.733 247.605C149.819 247.283 151.969 239.69 158.944 235.785C159.422 235.516 160.032 235.687 160.298 236.159C160.57 236.632 160.397 237.235 159.919 237.498C153.682 240.983 151.671 248.045 151.651 248.117C151.532 248.557 151.127 248.839 150.689 248.839V248.845Z" fill="white"/>
<path d="M133.84 204.873V257.574C133.84 259.195 132.513 260.508 130.874 260.508H78.411C76.2544 260.508 74.821 258.309 75.7102 256.36C80.0899 246.758 92.5521 224.746 110.369 237.301L114.152 203.79C114.709 198.848 118.936 195.107 123.966 195.107C129.421 195.107 133.84 199.478 133.84 204.873Z" fill="#27292D"/>
<path d="M119.129 248.353C118.691 248.353 118.292 248.064 118.166 247.631C118.146 247.559 116.129 240.497 109.898 237.012C109.42 236.743 109.248 236.146 109.52 235.673C109.792 235.201 110.396 235.03 110.874 235.299C117.848 239.198 119.998 246.798 120.084 247.113C120.23 247.638 119.912 248.176 119.387 248.32C119.301 248.346 119.215 248.353 119.129 248.353Z" fill="white"/>
<path d="M103.229 92.981C106.334 100.41 113.169 106.297 121.63 106.173C129.255 106.061 136.614 100.154 137.842 92.5806C138.399 89.1285 137.629 85.3351 134.504 83.3006C130.648 80.7869 126.521 84.1341 125.26 87.7962C124.079 91.2352 125.021 95.2124 127.257 98.0148C129.679 101.053 133.548 102.576 137.37 102.871C145.28 103.495 154.252 97.9951 154.484 89.5551C154.544 87.4418 151.226 87.4418 151.166 89.5551C151.014 94.9958 145.519 98.9467 140.43 99.544C134.942 100.187 128.266 97.4438 128.087 91.2155C128.054 89.962 128.299 88.7282 128.956 87.6387C129.54 86.6739 130.681 85.4926 131.936 85.7157C133.017 85.9061 133.88 87.0349 134.258 87.9143C134.736 89.0432 134.796 90.2639 134.67 91.4781C134.059 97.1485 128.671 102.189 123.017 102.806C115.645 103.606 109.161 98.6383 106.427 92.1015C106.082 91.2812 105.326 90.6971 104.383 90.953C103.6 91.163 102.877 92.1475 103.222 92.9744L103.229 92.981Z" fill="#575FF1"/>
<path d="M109.692 149.311C96.6729 149.311 86.082 138.837 86.082 125.96C86.082 113.083 96.6729 102.609 109.692 102.609C122.712 102.609 133.303 113.083 133.303 125.96C133.303 138.837 122.712 149.311 109.692 149.311ZM109.692 106.593C98.8893 106.593 90.1034 115.282 90.1034 125.967C90.1034 136.651 98.8893 145.341 109.692 145.341C120.496 145.341 129.282 136.651 129.282 125.967C129.282 115.282 120.496 106.593 109.692 106.593Z" fill="#27292D"/>
<path d="M154.657 145.564C141.638 145.564 131.047 135.089 131.047 122.212C131.047 109.336 141.638 98.8613 154.657 98.8613C167.677 98.8613 178.268 109.336 178.268 122.212C178.268 135.089 167.677 145.564 154.657 145.564ZM154.657 102.845C143.854 102.845 135.068 111.534 135.068 122.219C135.068 132.904 143.854 141.593 154.657 141.593C165.461 141.593 174.246 132.904 174.246 122.219C174.246 111.534 165.461 102.845 154.657 102.845Z" fill="#27292D"/>
<path d="M177.299 119.974C176.284 119.974 175.355 119.312 175.063 118.301C174.711 117.08 175.434 115.814 176.668 115.466L197.047 109.776C198.282 109.434 199.562 110.143 199.914 111.364C200.266 112.585 199.542 113.851 198.308 114.199L177.929 119.889C177.717 119.948 177.505 119.974 177.299 119.974Z" fill="#27292D"/>
</g>
<defs>
<clipPath id="clip0_520_2176">
<rect width="125" height="203" fill="white" transform="translate(75 58)"/>
</clipPath>
</defs>
</svg>
