<svg width="270" height="270" viewBox="0 0 270 270" fill="none" xmlns="http://www.w3.org/2000/svg">
<g clip-path="url(#clip0_520_2128)">
<path d="M80.9409 105.215C80.1462 105.298 79.3347 105.403 78.498 105.537C72.4686 106.492 67.1161 109.92 63.6599 114.927C58.0383 123.07 49.5576 137.434 46.854 153.184C46.1224 157.454 46.6942 161.854 48.477 165.806C48.5064 165.873 48.5359 165.936 48.5653 166.003C50.8989 171.115 55.1203 175.151 60.334 177.29C64.0383 178.81 69.2058 180.379 75.1511 180.618C85.8813 181.054 95.388 173.777 97.8645 163.374L105.164 132.699C108.738 117.682 96.3593 103.603 80.9451 105.215H80.9409Z" fill="#27292D"/>
<path d="M212.116 169.591C212.116 142.847 196.53 119.846 174.182 109.661C170.882 108.154 169.242 104.394 170.453 100.986C171.643 97.6412 172.408 94.0868 172.677 90.3859C172.707 89.984 172.732 89.5821 172.749 89.1802C173.653 70.1817 162.212 52.7114 144.494 44.5728C132.014 38.8414 115.473 35.9444 93.1382 42.3288C91.5783 42.7726 91.1873 44.7361 92.4445 45.7408C92.4949 45.7827 92.5454 45.8204 92.5958 45.8622C98.0282 50.279 98.9532 57.9738 94.9378 63.6173C90.6281 69.671 87.9245 76.9304 87.4704 84.8555C86.6967 98.3864 92.8019 110.892 102.838 119.068C104.192 120.169 104.289 122.195 103.078 123.451C91.654 135.295 84.5986 151.593 84.5986 169.591C84.5986 179.936 89.1817 186.906 93.3358 195.606C95.9385 201.057 101.447 204.54 107.505 204.54H193.7C199.759 204.54 203.627 201.057 206.23 195.606C210.384 186.906 212.112 179.936 212.112 169.591H212.116Z" fill="#FFF06C"/>
<path d="M134.108 82.4188C141.667 82.4188 147.794 76.3177 147.794 68.7917C147.794 61.2656 141.667 55.1646 134.108 55.1646C126.549 55.1646 120.422 61.2656 120.422 68.7917C120.422 76.3177 126.549 82.4188 134.108 82.4188Z" fill="#FFEF9F"/>
<path d="M136.833 68.2351C136.311 67.0754 136.03 65.8739 135.95 64.6724L126.678 68.8128C125.842 69.1854 125.505 70.2111 125.985 70.9856C129.285 76.2858 136.101 78.467 141.975 75.8462C142.955 75.4108 143.846 74.8624 144.653 74.2302C141.319 73.6818 138.317 71.5341 136.828 68.2351H136.833Z" fill="white"/>
<path d="M136.833 68.2351C138.321 71.534 141.323 73.6817 144.658 74.2302C145.667 73.4347 146.533 72.5053 147.244 71.4754C147.559 70.0813 147.66 68.6118 147.508 67.1089C147.26 64.6765 146.386 62.4618 145.061 60.603L135.954 64.6723C136.034 65.8697 136.311 67.0754 136.837 68.2351H136.833Z" fill="#575FF1"/>
<path d="M125.089 70.5461C124.69 70.5461 124.307 70.32 124.131 69.9349C123.891 69.4074 124.122 68.7878 124.652 68.5491L143.636 59.9291C144.162 59.6905 144.788 59.9207 145.028 60.4482C145.267 60.9757 145.036 61.5953 144.506 61.834L125.522 70.454C125.379 70.5168 125.232 70.5503 125.085 70.5503L125.089 70.5461Z" fill="#575FF1"/>
<path d="M122.146 48.3784C125.064 53.0087 130.265 56.0062 135.828 55.081C140.928 54.2312 145.057 49.4376 145.158 44.2756C145.2 42.0567 144.376 39.6369 142.324 38.5024C141.041 37.7949 139.566 37.8116 138.376 38.695C137.316 39.482 136.61 40.7045 136.366 41.994C135.92 44.3468 136.74 46.821 138.392 48.5459C140.209 50.4424 142.984 51.2294 145.561 51.0871C151.183 50.7773 156.821 46.0633 155.959 40.0765C155.879 39.5155 155.165 39.2099 154.664 39.3439C154.059 39.5072 153.849 40.0681 153.929 40.6333C154.496 44.5728 150.741 47.897 147.226 48.7426C145.25 49.2199 143.026 49.111 141.231 48.1021C139.662 47.2229 138.54 45.6195 138.359 43.8193C138.275 42.9736 138.392 42.0986 138.804 41.345C139.217 40.5915 139.978 39.8337 140.907 40.1519C142.454 40.6836 143.018 42.4335 143.055 43.9323C143.148 47.9221 140.116 51.8155 136.277 52.8496C131.379 54.1684 126.54 51.4178 123.962 47.3276C123.243 46.1888 121.427 47.2397 122.146 48.3826V48.3784Z" fill="#575FF1"/>
<path d="M158.874 71.7099C165.745 71.7099 171.316 66.1637 171.316 59.322C171.316 52.4803 165.745 46.9341 158.874 46.9341C152.003 46.9341 146.433 52.4803 146.433 59.322C146.433 66.1637 152.003 71.7099 158.874 71.7099Z" fill="#FFEF9F"/>
<path d="M161.451 57.8064C160.908 56.7179 160.593 55.5792 160.471 54.4404L151.78 58.7484C150.998 59.1377 150.712 60.1257 151.204 60.8458C154.559 65.7817 161.148 67.607 166.656 64.8774C167.573 64.4211 168.405 63.8685 169.149 63.2321C165.945 62.8344 162.998 60.9002 161.451 57.8064Z" fill="white"/>
<path d="M161.451 57.8065C162.998 60.9004 165.946 62.8345 169.15 63.2323C170.083 62.4368 170.874 61.5116 171.513 60.5027C171.761 59.1588 171.803 57.7521 171.601 56.3245C171.273 54.0135 169.713 52.2175 168.376 50.4927L160.476 54.4364C160.598 55.5751 160.909 56.7139 161.455 57.8023L161.451 57.8065Z" fill="#575FF1"/>
<path d="M150.288 60.4567C149.922 60.4567 149.569 60.2557 149.392 59.9124C149.14 59.4226 149.337 58.8197 149.829 58.5685L166.858 49.915C167.354 49.6638 167.955 49.8606 168.208 50.3504C168.46 50.8402 168.262 51.4431 167.77 51.6943L150.742 60.3478C150.595 60.4232 150.439 60.4567 150.288 60.4567Z" fill="#575FF1"/>
<path d="M158.798 72.9492C153.925 72.9492 149.207 70.341 146.769 65.7651C143.25 59.1714 145.772 50.9574 152.395 47.4533C155.603 45.7536 159.282 45.4019 162.755 46.4611C166.228 47.5203 169.079 49.8605 170.786 53.0549C172.493 56.2492 172.846 59.9124 171.782 63.3704C170.718 66.8285 168.368 69.667 165.16 71.3667C163.133 72.4385 160.951 72.9492 158.798 72.9492ZM148.812 64.685C151.734 70.1568 158.58 72.2375 164.071 69.3321C166.732 67.9254 168.683 65.5684 169.566 62.6964C170.449 59.8287 170.155 56.785 168.738 54.1392C167.321 51.4933 164.958 49.5465 162.074 48.6674C159.189 47.7882 156.137 48.0813 153.479 49.4921C147.988 52.4018 145.894 59.2174 148.812 64.685Z" fill="#27292D"/>
<path d="M134.15 83.2565C128.587 83.2565 123.239 80.1585 120.657 74.8458C118.917 71.2621 118.685 67.2221 119.997 63.4668C121.309 59.7115 124.017 56.6888 127.612 54.9556C131.211 53.2224 135.268 52.9921 139.04 54.2983C142.812 55.6087 145.847 58.3006 147.588 61.8801C151.179 69.2735 148.059 78.1992 140.629 81.7703C138.535 82.7751 136.324 83.2523 134.142 83.2523L134.15 83.2565ZM122.953 73.7405C125.93 79.8738 133.368 82.4527 139.528 79.4886C145.687 76.5246 148.278 69.1186 145.301 62.9854C143.858 60.0129 141.34 57.7773 138.207 56.693C135.079 55.6087 131.707 55.8013 128.726 57.2373C125.741 58.6732 123.495 61.181 122.406 64.2999C121.317 67.4189 121.511 70.7723 122.953 73.7405Z" fill="#27292D"/>
<path d="M120.061 70.9688H120.044L97.7342 70.726C96.9227 70.7176 96.271 70.0519 96.2794 69.2439C96.2878 68.4359 96.9647 67.7996 97.7678 67.7954L120.078 68.0382C120.889 68.0466 121.541 68.7123 121.532 69.5203C121.524 70.3241 120.868 70.9688 120.061 70.9688Z" fill="#27292D"/>
<path d="M159.281 83.9221L162.002 81.1715C164.062 79.0908 164.049 75.7458 161.972 73.6818C160.055 71.7728 157.002 71.597 154.879 73.2757L152.621 75.0634C150.506 76.7338 147.756 77.3911 145.112 76.8594L122.789 72.3631C120.573 71.9528 118.408 73.2841 117.781 75.4402C117.113 77.7386 118.429 80.1416 120.725 80.8324L128.688 83.2229C128.688 83.2229 123.979 87.242 127.822 92.697C127.822 92.697 124.072 103.511 135.798 103.13C135.798 103.13 139.284 105.474 144.649 105.453C149.678 105.437 154.484 103.138 157.439 99.0899C159.832 95.8118 161.632 90.8131 159.277 83.9221H159.281Z" fill="#27292D"/>
<path d="M126.569 85.1488C126.376 85.1488 126.182 85.0944 126.006 84.9855C125.514 84.6757 125.371 84.0268 125.682 83.5412C127.019 81.4479 129.302 80.3887 132.292 80.485C134.419 80.552 136.168 81.1884 136.244 81.2135C136.786 81.4144 137.068 82.0173 136.866 82.5574C136.664 83.0974 136.063 83.3779 135.517 83.177C135.458 83.156 129.723 81.1172 127.456 84.6632C127.255 84.9772 126.914 85.1488 126.569 85.1488Z" fill="white"/>
<path d="M127.006 93.3667C126.889 93.3667 126.771 93.3416 126.657 93.2913C126.237 93.0987 126.048 92.6005 126.241 92.1819C128.524 87.2083 133.082 87.3674 135.167 88.1503C135.601 88.3135 135.823 88.795 135.659 89.2262C135.495 89.6574 135.012 89.8793 134.579 89.716C134.385 89.6449 129.958 88.1 127.767 92.8769C127.624 93.1867 127.322 93.3667 127.002 93.3667H127.006Z" fill="white"/>
<path d="M136.055 105.102C135.904 105.102 135.748 105.06 135.609 104.972C132.969 103.326 132.792 99.2237 132.784 99.0478C132.767 98.5873 133.129 98.198 133.595 98.1812C134.054 98.1645 134.449 98.5245 134.466 98.9892C134.466 99.0227 134.621 102.38 136.501 103.553C136.896 103.8 137.014 104.314 136.766 104.708C136.606 104.963 136.332 105.102 136.051 105.102H136.055Z" fill="white"/>
<path d="M97.5146 123.418C97.5146 123.418 114.783 133.344 101.253 152.489C101.253 152.489 94.3107 162.064 80.0654 158.693V165.785C80.0654 165.785 97.3338 170.039 107.66 155.503C117.987 140.968 113.358 124.125 100.004 117.565L97.5104 123.414L97.5146 123.418Z" fill="#27292D"/>
<path d="M33.9999 200.178C34.0588 198.394 35.2866 196.862 37.0147 196.397L57.1086 191.043C62.625 189.573 68.5115 190.553 73.2501 193.726L78.2494 197.076C79.4141 197.854 80.091 199.177 80.0448 200.576V200.76C79.9649 202.958 78.1443 204.695 75.9369 204.674L38.028 204.36C35.7407 204.339 33.9158 202.447 33.9915 200.169L33.9999 200.178Z" fill="#27292D"/>
<path d="M122.688 194.392C121.586 187.878 125.85 181.661 132.346 180.313L139.881 178.747C153.138 176.649 165.07 183.913 164.991 197.276L162.535 234.867C182.045 228.24 189.785 245.832 193.469 257.403C194.238 259.823 192.266 262.235 189.731 261.983L133.204 258.408C131.417 258.232 130.046 256.754 130.008 254.971L137.286 204.419L137.093 204.452C130.315 205.687 123.832 201.161 122.688 194.396V194.392Z" fill="#27292D"/>
<path d="M153.172 243.014C153.029 243.014 152.881 242.976 152.747 242.901C152.347 242.666 152.213 242.156 152.444 241.758C152.638 241.427 157.321 233.611 167.913 231.727C168.371 231.648 168.809 231.949 168.888 232.405C168.968 232.862 168.666 233.297 168.207 233.377C158.406 235.118 153.941 242.528 153.895 242.604C153.739 242.867 153.457 243.018 153.167 243.018L153.172 243.014Z" fill="white"/>
<path d="M135.306 188.547C135.306 188.547 134.81 169.465 148.752 165.467C158.528 162.666 164.814 163.177 183.516 179.094C199.422 192.633 200.019 194.852 200.019 194.852C200.019 194.852 210.199 181.711 230.255 193.99C231.802 194.936 232.597 196.678 231.466 198.088L192.64 231.258C191.576 232.585 189.541 232.56 188.507 231.208L150.649 182.238L135.306 188.543V188.547Z" fill="#27292D"/>
<path d="M167.555 206.399C167.265 206.399 166.983 206.248 166.828 205.98C159.302 193.065 146.839 175.046 146.713 174.866C146.448 174.485 146.545 173.966 146.927 173.702C147.31 173.438 147.836 173.535 148.096 173.916C148.222 174.096 160.723 192.169 168.283 205.143C168.514 205.545 168.379 206.056 167.976 206.286C167.841 206.361 167.698 206.399 167.555 206.399Z" fill="white"/>
<path d="M196.475 208.341C196.101 208.341 195.76 208.09 195.659 207.713C193.313 198.641 199.523 192.968 199.788 192.729C200.133 192.42 200.667 192.449 200.974 192.792C201.285 193.135 201.256 193.663 200.911 193.973C200.667 194.19 195.205 199.235 197.287 207.29C197.404 207.738 197.131 208.194 196.681 208.312C196.61 208.328 196.542 208.337 196.471 208.337L196.475 208.341Z" fill="white"/>
<path d="M127.649 182.356C127.397 182.356 127.145 182.242 126.981 182.029C126.699 181.665 126.766 181.141 127.132 180.857C127.456 180.606 135.285 174.807 152.011 180.283C152.452 180.426 152.692 180.899 152.549 181.338C152.406 181.778 151.927 182.016 151.489 181.874C143.215 179.165 137.307 179.4 133.805 180.074C130.033 180.798 128.175 182.176 128.158 182.188C128.007 182.301 127.826 182.36 127.649 182.36V182.356Z" fill="white"/>
</g>
<defs>
<clipPath id="clip0_520_2128">
<rect width="198" height="224" fill="white" transform="translate(34 38)"/>
</clipPath>
</defs>
</svg>
