<svg width="270" height="270" viewBox="0 0 270 270" fill="none" xmlns="http://www.w3.org/2000/svg">
<g clip-path="url(#clip0_520_2175)">
<path d="M129.53 58.3241L158.612 45.5222C160.414 44.5657 162.432 46.3928 161.645 48.2751L151.721 72.1622L129.53 58.3303V58.3241Z" fill="#FFF06C"/>
<path d="M87.5784 55.7678C76.2275 60.7034 69.54 69.0296 66.3716 80.5194C60.0902 103.297 77.6117 127.956 105.512 135.596C133.406 143.235 161.116 130.967 167.397 108.189C173.679 85.4121 156.157 60.7525 128.257 53.113C127.746 52.972 127.242 52.8555 126.731 52.7267C125.747 52.0584 124.793 51.3472 123.883 50.5808C122.745 49.6244 121.668 48.5943 120.745 47.4355C120.081 46.5956 119.502 45.6943 118.912 44.8052C117.208 42.2485 115.27 39.7102 112.587 38.1958C109.899 36.6875 106.281 36.4423 103.876 38.3614C102.202 39.698 101.353 41.8561 101.163 43.9898C100.972 46.1173 101.353 48.2571 101.735 50.3601C99.6614 47.6501 97.2128 44.7255 93.8167 44.3086C91.1959 43.9898 88.4827 45.4122 87.1539 47.6869C87.1539 47.6869 84.5884 51.8071 87.5722 55.7617L87.5784 55.7678Z" fill="#575FF1"/>
<path d="M98.1599 59.005C96.3512 58.1834 94.2902 58.3551 92.3891 59.2932C92.4937 59.33 92.6045 59.3668 92.7091 59.4158C95.3422 60.6175 96.2035 64.3637 94.6347 67.7971C93.0659 71.2245 89.6514 73.0332 87.0182 71.8315C86.7537 71.7088 86.5138 71.5617 86.2861 71.39C86.686 73.818 87.978 75.829 90.0267 76.7609C93.798 78.4777 98.6706 75.8903 100.916 70.9915C103.162 66.0865 101.931 60.7218 98.1599 59.005Z" fill="white"/>
<path d="M94.6349 67.7969C96.2037 64.3696 95.3424 60.6173 92.7093 59.4156C92.6047 59.3665 92.4939 59.3359 92.3894 59.293C90.3222 60.3107 88.4396 62.2237 87.2707 64.7743C86.2433 67.0121 85.9541 69.3481 86.2863 71.3898C86.514 71.5554 86.7539 71.7086 87.0185 71.8313C89.6516 73.033 93.0661 71.2243 94.6349 67.7969Z" fill="#27292D"/>
<path d="M107.967 65.8353C106.029 64.9524 103.82 65.1425 101.778 66.148C101.895 66.1909 102.005 66.2277 102.122 66.2767C104.946 67.5643 105.869 71.5802 104.189 75.2589C102.504 78.9315 98.8494 80.869 96.0255 79.5875C95.7425 79.4588 95.4841 79.2932 95.2441 79.1154C95.6748 81.7151 97.0591 83.8732 99.2493 84.8726C103.291 86.712 108.515 83.9407 110.926 78.6863C113.332 73.4318 112.015 67.6808 107.973 65.8414L107.967 65.8353Z" fill="white"/>
<path d="M104.183 75.2589C105.869 71.5863 104.946 67.5643 102.116 66.2767C102.005 66.2277 101.889 66.1909 101.772 66.1479C99.5569 67.2393 97.5389 69.2871 96.2839 72.0216C95.1826 74.4251 94.8689 76.9205 95.2318 79.1093C95.4779 79.2871 95.7363 79.4526 96.0132 79.5814C98.837 80.8689 102.491 78.9315 104.177 75.2528L104.183 75.2589Z" fill="#27292D"/>
<path d="M107.677 191.862L164.727 216.509C171.113 197.938 156.932 193.008 156.932 193.008C170.504 167.386 152.004 165.179 152.004 165.179C155.954 159.017 148.177 149.93 142.733 146.957C122.049 135.651 109.025 144.406 109.025 144.406C104.656 146.938 101.685 152.414 101.47 157.447C100.99 168.839 116.942 174.277 116.942 174.277C114.057 178.158 111.658 182.377 109.781 186.834L107.671 191.856L107.677 191.862Z" fill="#27292D"/>
<path d="M115.46 175.669C115.275 175.669 115.091 175.614 114.931 175.504C114.512 175.21 114.414 174.639 114.709 174.222C118.954 168.208 125.119 164.314 125.383 164.149C125.814 163.879 126.386 164.008 126.657 164.437C126.928 164.866 126.798 165.436 126.368 165.706C126.306 165.743 120.246 169.575 116.223 175.277C116.044 175.534 115.755 175.669 115.466 175.669H115.46Z" fill="white"/>
<path d="M153.536 70.4762C153.536 70.4762 138.137 69.4768 135.67 91.4326C135.67 91.4326 134.513 99.3786 143.354 99.3786C143.354 99.3786 147.125 99.0905 148.43 97.2143C148.43 97.2143 148.866 102.125 155.825 101.549C155.825 101.549 158.599 101.433 159.504 98.6429C159.504 98.6429 159.504 102.242 163.029 102.334C163.029 102.334 167.12 103.217 169.366 98.0236C169.366 98.0236 182.937 69.998 153.548 70.4823L153.536 70.4762Z" fill="#27292D"/>
<path d="M223.59 77.1654L135.699 78.9695C132.567 79.0338 130.081 81.6163 130.145 84.7377L130.145 84.7438C130.21 87.8652 132.801 90.3435 135.933 90.2792L223.824 88.475C226.956 88.4107 229.443 85.8282 229.378 82.7068L229.378 82.7007C229.314 79.5793 226.722 77.1011 223.59 77.1654Z" fill="#27292D"/>
<path d="M173.869 87.3247L182.273 87.4535L214.062 231.353L204.341 231.242L173.869 87.3247Z" fill="#27292D"/>
<path d="M88.7583 206.268C96.0994 204.105 99.3767 193.339 96.0783 182.22C92.7799 171.102 84.1548 163.842 76.8137 166.005C69.4726 168.167 66.1954 178.934 69.4938 190.053C72.7922 201.171 81.4172 208.431 88.7583 206.268Z" fill="#27292D"/>
<path d="M96.7204 173.566C96.1175 173.566 95.5331 173.272 95.1762 172.738C89.9407 164.817 81.4198 160.231 75.7721 162.291C72.5729 163.456 70.4566 164.903 68.4386 169.195C68.008 170.114 66.9067 170.513 65.9839 170.077C65.0611 169.648 64.6612 168.551 65.098 167.631C67.6388 162.242 70.5796 160.274 74.5047 158.839C81.8074 156.172 92.0263 161.279 98.2585 170.715C98.8184 171.561 98.5846 172.702 97.7294 173.266C97.4156 173.468 97.065 173.572 96.7143 173.572L96.7204 173.566Z" fill="#27292D"/>
<path d="M222.66 265.619C230.138 263.416 233.476 252.448 230.116 241.122C226.756 229.795 217.97 222.4 210.492 224.603C203.014 226.806 199.676 237.774 203.036 249.1C206.396 260.427 215.182 267.822 222.66 265.619Z" fill="#27292D"/>
<path d="M87.0615 182.383L165.853 216.847C177.733 222.052 191.643 218.594 199.672 208.428L201.881 219.084L201.198 219.955C193.064 230.317 178.853 233.744 166.862 228.238L83.5485 190.139C81.5921 189.244 80.6201 187.037 81.2722 184.989C82.0412 182.579 84.7359 181.371 87.0553 182.389L87.0615 182.383Z" fill="#27292D"/>
<path d="M236.149 242.346C235.33 242.346 234.586 241.8 234.364 240.979C229.732 223.548 216.474 220.85 215.908 220.746C214.911 220.556 214.247 219.599 214.431 218.6C214.616 217.607 215.576 216.944 216.572 217.128C217.224 217.245 232.673 220.268 237.927 240.041C238.185 241.022 237.6 242.027 236.616 242.291C236.456 242.334 236.296 242.352 236.142 242.352L236.149 242.346Z" fill="#27292D"/>
<path d="M148.332 99.0908C148.221 99.0908 148.104 99.0724 147.993 99.0295C147.52 98.8455 147.286 98.3121 147.47 97.84L150.51 90.0841C150.694 89.612 151.229 89.379 151.703 89.5629C152.177 89.7469 152.411 90.2803 152.226 90.7524L149.187 98.5083C149.045 98.8701 148.695 99.0908 148.326 99.0908H148.332Z" fill="white"/>
<path d="M159.486 101.39C159.387 101.39 159.289 101.372 159.19 101.341C158.704 101.181 158.446 100.66 158.606 100.176L161.399 91.862C161.559 91.3777 162.082 91.1201 162.568 91.2796C163.054 91.439 163.312 91.9601 163.152 92.4445L160.359 100.758C160.23 101.145 159.873 101.384 159.486 101.384V101.39Z" fill="white"/>
<path d="M135.005 90.8076C134.962 90.8076 134.913 90.8076 134.87 90.7953C134.366 90.7217 134.021 90.2496 134.095 89.753C135.338 81.4452 138.315 77.3864 138.445 77.2147C138.752 76.8101 139.33 76.7242 139.737 77.0246C140.143 77.3251 140.229 77.9014 139.927 78.3122C139.884 78.3735 137.085 82.2423 135.928 90.0228C135.861 90.4765 135.467 90.8076 135.018 90.8076H135.005Z" fill="white"/>
<path d="M204.888 70.1329C204.888 70.1329 189.489 69.1335 187.022 91.0893C187.022 91.0893 185.866 99.0354 194.707 99.0354C194.707 99.0354 198.478 98.7472 199.782 96.8711C199.782 96.8711 200.219 101.782 207.177 101.206C207.177 101.206 209.952 101.089 210.856 98.2996C210.856 98.2996 210.856 101.899 214.381 101.991C214.381 101.991 218.473 102.873 220.718 97.6804C220.718 97.6804 234.29 69.6547 204.901 70.1391L204.888 70.1329Z" fill="#27292D"/>
<path d="M199.284 99.6362C199.167 99.6362 199.05 99.6116 198.94 99.5687C198.466 99.3787 198.238 98.8391 198.435 98.3731L202.096 89.4093C202.286 88.9372 202.828 88.7104 203.295 88.9066C203.769 89.0966 203.997 89.6362 203.8 90.1022L200.139 99.066C199.992 99.4216 199.647 99.6423 199.284 99.6423V99.6362Z" fill="white"/>
<path d="M210.642 101.353C210.537 101.353 210.433 101.335 210.328 101.298C209.848 101.126 209.596 100.599 209.768 100.121L212.973 91.1876C213.146 90.7094 213.675 90.458 214.155 90.6297C214.634 90.8014 214.887 91.3287 214.714 91.8069L211.509 100.74C211.374 101.114 211.017 101.353 210.642 101.353Z" fill="white"/>
<path d="M186.198 91.0525C186.143 91.0525 186.088 91.0525 186.032 91.0403C185.528 90.9483 185.196 90.4701 185.288 89.9734C186.764 81.7576 190.142 76.4051 190.283 76.1783C190.56 75.7491 191.126 75.6264 191.557 75.8962C191.988 76.166 192.117 76.7362 191.84 77.1654C191.809 77.2144 188.512 82.4566 187.103 90.2984C187.023 90.746 186.635 91.0587 186.198 91.0587V91.0525Z" fill="white"/>
<path d="M150.158 210.396C150.023 210.396 149.881 210.366 149.752 210.304C149.297 210.077 149.106 209.532 149.334 209.072C150.915 205.865 151.093 202.904 149.863 200.268C146.787 193.664 135.965 190.905 135.854 190.881C135.553 190.807 135.307 190.58 135.202 190.286C135.097 189.992 135.159 189.667 135.35 189.421C149.77 171.218 152.97 163.198 153 163.119C153.185 162.647 153.72 162.407 154.194 162.591C154.668 162.775 154.908 163.303 154.723 163.781C154.6 164.106 151.567 171.764 137.644 189.489C140.837 190.494 148.737 193.517 151.53 199.495C153.007 202.665 152.822 206.16 150.982 209.887C150.822 210.212 150.496 210.402 150.152 210.402L150.158 210.396Z" fill="white"/>
<path d="M46.8006 168.808C46.6037 168.808 46.4007 168.759 46.2161 168.655L37.9044 164.014C37.3323 163.695 37.1231 162.971 37.4492 162.395C37.7691 161.825 38.495 161.616 39.0734 161.941L47.385 166.583C47.9572 166.901 48.1664 167.625 47.8403 168.201C47.6188 168.588 47.2189 168.808 46.8006 168.808Z" fill="#27292D"/>
<path d="M45.9764 174.449C45.8041 174.449 45.6257 174.412 45.4596 174.332L15.6766 160.041C15.086 159.759 14.8338 159.047 15.1229 158.453C15.4059 157.864 16.1196 157.613 16.7164 157.901L46.4993 172.193C47.09 172.475 47.3422 173.186 47.053 173.781C46.85 174.204 46.4194 174.455 45.9764 174.455V174.449Z" fill="#27292D"/>
<path d="M44.4265 179.366C44.2973 179.366 44.1681 179.348 44.0389 179.299L30.7932 174.744C30.1718 174.529 29.8396 173.854 30.0549 173.235C30.2702 172.616 30.947 172.285 31.5683 172.499L44.8141 177.055C45.4355 177.27 45.7677 177.944 45.5524 178.563C45.3801 179.054 44.9187 179.366 44.4265 179.366Z" fill="#27292D"/>
<path d="M112.969 94.3729C119.058 93.0022 123.163 88.2281 122.139 83.7097C121.114 79.1913 115.348 76.6396 109.26 78.0103C103.172 79.381 99.0667 84.1551 100.091 88.6735C101.115 93.1919 106.881 95.7436 112.969 94.3729Z" fill="#575FF1"/>
<path d="M112.771 102.99C118.605 102.99 123.335 98.2768 123.335 92.4628C123.335 86.6488 118.605 81.9355 112.771 81.9355C106.937 81.9355 102.208 86.6488 102.208 92.4628C102.208 98.2768 106.937 102.99 112.771 102.99Z" fill="#FF4747"/>
<path d="M98.719 95.2095H98.7129C97.6595 95.2095 96.8057 96.0604 96.8057 97.1101V98.0421C96.8057 99.0918 97.6595 99.9428 98.7129 99.9428H98.719C99.7723 99.9428 100.626 99.0918 100.626 98.0421V97.1101C100.626 96.0604 99.7723 95.2095 98.719 95.2095Z" fill="white"/>
<path d="M101.365 96.908C92.032 96.908 88.962 89.1398 88.9251 89.0478C88.6913 88.4347 89.0051 87.748 89.6203 87.515C90.2355 87.282 90.9184 87.5886 91.1522 88.2017C91.2937 88.5696 94.8066 97.2268 106.736 93.6707C107.363 93.4806 108.028 93.8424 108.219 94.4678C108.409 95.0931 108.046 95.7553 107.419 95.9454C105.155 96.6198 103.149 96.9018 101.365 96.9018V96.908Z" fill="#27292D"/>
</g>
<defs>
<clipPath id="clip0_520_2175">
<rect width="223" height="229" fill="white" transform="translate(15 37)"/>
</clipPath>
</defs>
</svg>
