<svg width="270" height="270" viewBox="0 0 270 270" fill="none" xmlns="http://www.w3.org/2000/svg">
<path d="M133.491 210.076L131.764 259.249C131.764 261.085 130.267 262.576 128.424 262.576H69.3448C66.9123 262.576 65.2996 260.079 66.3025 257.872C71.2353 246.979 83.0457 227.196 102.852 235.444L111.327 208.848C111.958 203.239 116.714 199 122.379 199C128.518 199 133.498 203.961 133.498 210.076H133.491Z" fill="#27292D"/>
<path d="M112.576 247.897C112.129 247.897 111.722 247.6 111.593 247.154C111.573 247.073 109.29 239.021 102.229 235.046C101.741 234.769 101.565 234.155 101.843 233.669C102.121 233.183 102.737 233.014 103.225 233.284C111.044 237.685 113.45 246.263 113.552 246.621C113.701 247.161 113.375 247.714 112.84 247.863C112.752 247.89 112.664 247.897 112.576 247.897Z" fill="white"/>
<path d="M142.005 210.5L143.732 259.673C143.732 261.509 145.229 263.001 147.072 263.001H206.151C208.584 263.001 210.196 260.504 209.194 258.296C204.261 247.403 192.45 227.62 172.645 235.868L164.169 209.272C163.539 203.663 158.782 199.425 153.117 199.425C146.978 199.425 141.998 204.386 141.998 210.5H142.005Z" fill="#27292D"/>
<path d="M162.92 248.321C163.367 248.321 163.774 248.024 163.903 247.579C163.923 247.498 166.207 239.445 173.267 235.47C173.755 235.193 173.931 234.579 173.653 234.093C173.375 233.607 172.759 233.438 172.271 233.708C164.452 238.109 162.046 246.688 161.945 247.045C161.795 247.585 162.121 248.139 162.656 248.287C162.744 248.314 162.832 248.321 162.92 248.321Z" fill="white"/>
<path d="M121.86 58.1638L71.9688 108.231C64.827 115.399 64.5357 126.866 71.3048 134.385L117.672 185.91C125.309 194.401 138.413 195.103 146.93 187.49L195.154 144.367C202.086 138.171 202.94 127.663 197.113 120.427L147.974 59.5272C141.422 51.4008 129.232 50.7664 121.86 58.1638Z" fill="#27292D"/>
<path d="M93.9574 145.954C98.1652 156.341 106.222 176.643 109.664 188.084C110.579 191.121 113.391 193.2 116.582 193.2H155.591C158.925 193.2 161.825 190.932 162.611 187.706C164.84 178.574 169.827 160.087 176.305 148.134C178.27 144.509 176.84 140.001 173.12 138.205C160.734 132.212 132.973 122.891 98.0161 136.559C94.2758 138.023 92.4531 142.242 93.9574 145.954Z" fill="#575FF1"/>
<path d="M105.3 147.337C107.272 148.653 107.875 151.238 106.757 153.27L114.068 153.223C116.643 153.209 118.73 155.302 118.689 157.866C118.655 160.283 116.731 162.26 114.312 162.368L107.597 162.679L114.021 162.827C116.528 162.888 118.527 164.933 118.506 167.43V168.287C118.486 170.791 116.447 172.823 113.933 172.837L107.773 172.87L114.183 173.322C116.609 173.491 118.486 175.523 118.452 177.946V178.607C118.418 180.774 116.867 182.623 114.732 183.042C106.459 184.668 84.6405 188.239 84.6473 168.922C84.6473 168.524 84.6473 168.125 84.6405 167.72C84.6067 166.587 84.7422 163.03 87.4119 159.729H87.3306L88.4825 158.157C91.1318 154.525 94.1945 151.211 97.6164 148.289C100.699 145.913 103.22 145.94 105.307 147.33L105.3 147.337Z" fill="#27292D"/>
<path d="M108.126 163.927C107.577 163.927 107.123 163.495 107.11 162.942C107.096 162.382 107.537 161.916 108.099 161.902L116.562 161.666C117.111 161.639 117.592 162.091 117.606 162.652C117.619 163.212 117.179 163.678 116.616 163.691L108.153 163.927C108.153 163.927 108.133 163.927 108.126 163.927Z" fill="white"/>
<path d="M116.385 174.173H116.371L108.044 174.058C107.482 174.051 107.034 173.592 107.041 173.032C107.048 172.479 107.502 172.033 108.057 172.033H108.071L116.399 172.148C116.961 172.155 117.408 172.614 117.401 173.174C117.395 173.727 116.941 174.173 116.385 174.173Z" fill="white"/>
<path d="M125.777 120.798C113.587 120.798 111.71 112.814 111.636 112.47C111.48 111.741 111.941 111.025 112.672 110.863C113.404 110.715 114.116 111.167 114.278 111.889C114.346 112.186 115.986 118.436 126.685 118.085C127.43 118.065 128.06 118.645 128.088 119.388C128.115 120.13 127.525 120.758 126.78 120.785C126.441 120.798 126.102 120.805 125.777 120.805V120.798Z" fill="#737C89"/>
<path d="M126.8 94.6176C126.671 95.2993 126.474 95.9742 126.17 96.6289C124.164 101.036 118.953 102.994 114.522 100.996C110.097 98.9979 108.132 93.8076 110.138 89.3935C110.429 88.7523 110.795 88.1651 111.215 87.6319C104.914 85.0604 99.3235 82.9141 99.3235 82.9141C95.6577 90.9729 99.2489 100.469 107.339 104.121C115.43 107.772 124.963 104.195 128.629 96.1362C128.758 95.8595 128.053 95.3195 126.8 94.6108V94.6176Z" fill="white"/>
<path d="M114.528 100.996C118.952 102.994 124.17 101.036 126.175 96.6289C126.473 95.9742 126.677 95.2925 126.805 94.6176C123.689 92.8627 117.143 90.0617 111.221 87.6387C110.808 88.1719 110.435 88.7591 110.144 89.4003C108.138 93.8076 110.103 99.0047 114.528 101.003V100.996Z" fill="#FF4747"/>
<path d="M128.155 93.9155C118.648 93.9155 108.972 90.4058 99.8181 83.5889C91.3483 77.2849 86.3544 70.4613 86.1444 70.171C85.5955 69.4151 85.7649 68.3622 86.5238 67.8155C87.2827 67.2688 88.3398 67.4375 88.8886 68.1935C89.0784 68.4567 108.43 94.5837 134.253 90.0009C135.175 89.8321 136.056 90.4463 136.218 91.3643C136.381 92.2822 135.771 93.1596 134.849 93.3216C132.634 93.7131 130.398 93.9088 128.155 93.9088V93.9155Z" fill="#FF4747"/>
<path d="M154.534 116.398C168.421 116.398 179.679 105.184 179.679 91.3508C179.679 77.5177 168.421 66.3037 154.534 66.3037C140.647 66.3037 129.389 77.5177 129.389 91.3508C129.389 105.184 140.647 116.398 154.534 116.398Z" fill="white"/>
<path d="M154.418 120.522C138.312 120.522 125.207 107.468 125.207 91.4249C125.207 75.3815 138.312 62.3281 154.418 62.3281C170.524 62.3281 183.629 75.3815 183.629 91.4249C183.629 107.468 170.524 120.522 154.418 120.522ZM154.418 67.235C141.029 67.235 130.14 78.088 130.14 91.4182C130.14 104.748 141.035 115.601 154.418 115.601C167.8 115.601 178.696 104.748 178.696 91.4182C178.696 78.088 167.8 67.235 154.418 67.235Z" fill="#575FF1"/>
<path d="M199.708 137.328C199.078 137.328 198.447 137.085 197.966 136.605L172.692 111.43C171.73 110.472 171.73 108.913 172.692 107.954C173.655 106.996 175.213 106.996 176.182 107.954L201.456 133.13C202.418 134.088 202.418 135.647 201.456 136.605C200.975 137.085 200.345 137.328 199.715 137.328H199.708Z" fill="#575FF1"/>
<path d="M154.756 104.627C161.792 104.627 167.495 98.9458 167.495 91.9379C167.495 84.93 161.792 79.249 154.756 79.249C147.721 79.249 142.018 84.93 142.018 91.9379C142.018 98.9458 147.721 104.627 154.756 104.627Z" fill="#FF4747"/>
<path d="M154.682 120.259C138.575 120.259 125.471 107.205 125.471 91.1617C125.471 75.1183 138.575 62.0649 154.682 62.0649C170.788 62.0649 183.892 75.1183 183.892 91.1617C183.892 107.205 170.788 120.259 154.682 120.259ZM154.682 66.9718C141.292 66.9718 130.404 77.8249 130.404 91.155C130.404 104.485 141.299 115.338 154.682 115.338C168.064 115.338 178.96 104.485 178.96 91.155C178.96 77.8249 168.064 66.9718 154.682 66.9718Z" fill="#575FF1"/>
<path opacity="0.45" d="M156.593 77.0284C154.059 82.7316 151.877 88.5496 150.102 94.5296C149.546 96.3992 151.674 97.8571 153.3 96.9797C156.593 95.1978 159.954 93.5712 163.417 92.1403L160.733 89.4675C158.186 96.2102 155.638 102.96 153.083 109.702C152.094 112.321 156.302 113.448 157.284 110.856C159.832 104.114 162.38 97.3644 164.934 90.6217C165.483 89.1706 163.749 87.3347 162.251 87.9489C158.436 89.5283 154.723 91.2629 151.091 93.227L154.289 95.677C155.963 90.0615 157.962 84.5675 160.34 79.2084C161.465 76.6774 157.711 74.4636 156.58 77.0149L156.593 77.0284Z" fill="white"/>
<path d="M181.046 111.187C180.01 113.617 181.033 116.405 183.323 117.626L176.452 122.04C174.033 123.593 173.362 126.826 174.975 129.202C176.493 131.442 179.501 132.117 181.839 130.747L188.317 126.947L182.395 130.997C180.084 132.576 179.474 135.715 181.019 138.043L181.554 138.847C183.106 141.182 186.257 141.837 188.622 140.318L194.408 136.599L188.683 140.925C186.514 142.565 186.006 145.603 187.524 147.857L187.937 148.471C189.292 150.483 191.881 151.265 194.137 150.361C202.878 146.838 225.489 136.889 213.625 118.821C213.381 118.443 213.13 118.079 212.893 117.694C212.229 116.614 209.918 113.367 205.399 111.903L205.473 111.856L203.434 111.079C198.725 109.298 193.826 108.062 188.825 107.408C184.482 107.064 182.137 108.623 181.039 111.194L181.046 111.187Z" fill="#27292D"/>
<path d="M181.311 132.32C181.047 132.266 180.803 132.104 180.647 131.847C180.356 131.368 180.518 130.747 180.999 130.457L187.45 126.61C187.931 126.32 188.554 126.475 188.846 126.961C189.137 127.447 188.975 128.061 188.494 128.351L182.043 132.198C181.812 132.333 181.555 132.374 181.311 132.32Z" fill="white"/>
<path d="M187.009 142.289C186.752 142.235 186.508 142.079 186.359 141.836C186.061 141.364 186.203 140.736 186.684 140.439L193.711 136.066C194.185 135.769 194.815 135.91 195.113 136.39C195.411 136.869 195.269 137.49 194.788 137.787L187.761 142.16C187.531 142.302 187.26 142.343 187.009 142.295V142.289Z" fill="white"/>
</svg>
