<svg width="270" height="270" viewBox="0 0 270 270" fill="none" xmlns="http://www.w3.org/2000/svg">
<g clip-path="url(#clip0_432_418)">
<path d="M128.885 78.0925C128.885 78.0925 149.878 91.54 156.325 109.912L161.367 103.917C162.705 102.328 165.39 102.921 165.81 104.904C169.189 120.879 174.251 173.478 111.956 176.996C111.956 176.996 64.59 178.233 56.8051 139.301C56.4726 137.646 57.9897 136.177 59.7436 136.475L71.1986 138.438C71.1986 138.438 48.1183 125.376 46.5223 100.361C46.4184 98.7097 48.056 97.4359 49.7393 97.884C56.643 99.7221 72.6284 102.328 80.4756 89.9716L128.889 78.0884L128.885 78.0925Z" fill="#FF4747"/>
<path d="M210.096 235.98L239.556 226.45C241.177 225.927 242.191 224.317 241.967 222.633C241.676 220.45 239.477 219.064 237.378 219.745L210.058 228.583C209.705 228.695 209.339 228.753 208.97 228.753H74.3451C73.9752 228.753 73.6095 228.695 73.2562 228.583L45.4086 219.575C43.4967 218.956 41.4559 220.052 40.9156 221.981L40.8283 222.288C40.3212 224.11 41.3395 226.006 43.1434 226.587L72.5288 236.093L72.5745 235.951V236.088H209.743H209.755H210.088V235.98H210.096Z" fill="#27292D"/>
<path d="M107.646 262.004C113.699 262.004 118.606 257.106 118.606 251.063C118.606 245.02 113.699 240.122 107.646 240.122C101.593 240.122 96.6855 245.02 96.6855 251.063C96.6855 257.106 101.593 262.004 107.646 262.004Z" fill="#27292D"/>
<path d="M177.788 262.004C183.842 262.004 188.749 257.106 188.749 251.063C188.749 245.02 183.842 240.122 177.788 240.122C171.735 240.122 166.828 245.02 166.828 251.063C166.828 257.106 171.735 262.004 177.788 262.004Z" fill="#27292D"/>
<path d="M58.0524 30.5307C57.271 30.2735 56.5977 30.7299 56.5561 31.5514C56.4231 34.3645 57.5163 35.4143 57.5163 35.4143C58.306 36.5636 59.7856 36.9204 60.8247 36.2109C61.8597 35.5014 62.0592 33.9953 61.2695 32.846C60.4756 31.5431 59.0915 30.8668 58.0524 30.5307Z" fill="#FF4747"/>
<path d="M30.5949 107.651C29.6556 107.319 28.7744 107.833 28.6248 108.821C26.9913 119.775 30.9108 124.343 30.9108 124.343C33.2508 128.384 37.8228 130.115 41.123 128.21C44.4231 126.306 45.2003 121.484 42.8603 117.447C39.8386 111.564 33.5916 108.721 30.5907 107.651H30.5949Z" fill="#FF4747"/>
<path d="M28.5044 87.6396C27.5858 87.1873 26.9125 87.6396 27.0081 88.6603C27.3406 92.1539 28.7496 93.6601 28.7496 93.6601C29.8302 95.2326 31.5468 95.9338 32.5859 95.2243C33.6208 94.5148 33.5834 92.6643 32.5028 91.0917C31.393 89.3283 29.7263 88.2454 28.5085 87.6438L28.5044 87.6396Z" fill="#FF4747"/>
<path d="M154.172 45.0234L170.997 35.194C173.108 33.9576 175.818 34.5592 177.21 36.5674C178.619 38.6005 178.2 41.3763 176.25 42.9032L168.594 48.8946L169.347 48.3967C171.254 47.1395 173.798 47.4921 175.29 49.2223C176.978 51.1808 176.649 54.052 174.617 55.6494C176.525 54.4876 179.031 55.4171 180.186 57.3257C181.3 59.1679 180.768 61.5578 178.977 62.7569L167.888 70.1632C163.594 73.0303 157.846 74.1173 153.12 72.0345C150.273 70.7814 147.039 68.0845 145.93 64.2257C144.28 58.4957 145.56 54.1018 147.397 50.9152C148.706 48.6456 151.911 46.3428 154.172 45.0234Z" fill="#27292D"/>
<path d="M172.78 57.0603L169.85 59.1556C168.117 60.4253 165.228 59.5415 163.856 57.6744L164.226 58.0768C162.855 56.2097 162.776 53.2638 164.509 51.9942L168.009 49.5669" fill="#27292D"/>
<path d="M167.9 60.3132C166.2 60.3132 164.409 59.363 163.407 58.0021C163.324 57.8901 163.291 57.7573 163.304 57.6287C162.281 55.6205 162.348 52.8945 164.18 51.5501L167.693 49.1146C167.946 48.9403 168.291 49.0025 168.466 49.2515C168.64 49.5046 168.578 49.849 168.329 50.0232L164.829 52.4505C163.328 53.55 163.507 56.1599 164.679 57.749C164.7 57.778 164.721 57.8112 164.733 57.8403C166.088 59.1929 168.262 59.6327 169.526 58.7074L172.46 56.608C172.709 56.4296 173.058 56.4876 173.237 56.7366C173.416 56.9855 173.358 57.3341 173.108 57.5125L170.178 59.6078C169.509 60.1016 168.715 60.3173 167.905 60.3173L167.9 60.3132Z" fill="white"/>
<path d="M179.879 62.873L175.378 66.1882C173.645 67.4579 170.644 66.6737 169.272 64.8107C167.9 62.9436 168.191 60.4043 169.925 59.1305L172.776 57.0601" fill="#27292D"/>
<path d="M173.299 67.3624C171.649 67.3624 169.87 66.5575 168.827 65.1384C167.277 63.0307 167.622 60.1345 169.6 58.6823L172.456 56.6119C172.705 56.4293 173.05 56.4874 173.233 56.7322C173.412 56.9812 173.358 57.3256 173.112 57.5081L170.261 59.5786C168.782 60.6656 168.54 62.8647 169.729 64.4829C170.951 66.1467 173.644 66.7815 175.062 65.7442L179.559 62.429C179.804 62.2465 180.153 62.3004 180.336 62.5452C180.519 62.79 180.465 63.1385 180.22 63.3211L175.718 66.6363C175.041 67.13 174.193 67.3665 173.308 67.3665L173.299 67.3624Z" fill="white"/>
<path d="M154.55 50.1188L161.379 49.6167C164.006 49.43 166.287 51.4009 166.474 54.0232C166.661 56.6454 164.687 58.9233 162.06 59.11L155.231 59.6121" fill="#27292D"/>
<path d="M155.232 60.2675C154.891 60.2675 154.604 60.0061 154.579 59.6617C154.554 59.3008 154.824 58.9896 155.186 58.9605L162.015 58.4585C163.112 58.3796 164.11 57.8817 164.829 57.0519C165.548 56.2221 165.901 55.164 165.822 54.0687C165.743 52.9733 165.244 51.9775 164.413 51.2597C163.582 50.5419 162.522 50.1892 161.425 50.268L154.596 50.7701C154.234 50.7991 153.922 50.5253 153.893 50.1643C153.868 49.8033 154.138 49.4921 154.5 49.4631L161.329 48.961C162.775 48.8573 164.176 49.322 165.269 50.268C166.362 51.214 167.023 52.5293 167.127 53.9732C167.231 55.4171 166.765 56.8113 165.818 57.9066C164.87 58.9979 163.553 59.6576 162.106 59.7613L155.277 60.2634C155.277 60.2634 155.244 60.2634 155.227 60.2634L155.232 60.2675Z" fill="white"/>
<path d="M107.002 28.9332C107.8 28.6718 107.925 27.5972 107.206 27.1615C102.634 24.3857 98.4731 22.6182 96.0624 21.8423C94.9527 21.4854 93.7972 22.2489 93.6933 23.4106C93.5852 24.5973 93.4772 26.1076 93.4522 27.5266C93.4522 27.5266 81.2907 18.5395 70.5382 18.0001C69.6862 17.9586 68.9297 18.5395 68.7136 19.3611C67.9945 22.0995 66.7643 29.0328 68.1608 41.1981L64.7152 40.862C63.7177 40.7666 62.8282 41.4886 62.7284 42.4844C62.504 44.7083 62.3544 49.2973 63.1524 54.8987C63.2729 55.7451 64.3453 56.0521 64.8856 55.3883C69.4493 49.7827 81.9682 37.1029 107.002 28.9332Z" fill="#FF4747"/>
<path d="M117.887 33.8787C88.4559 40.1273 70.6792 59.5745 64.6774 67.2131C64.0623 67.9931 63.9085 69.0346 64.2618 69.964C66.6849 76.3122 70.4922 82.7558 76.4025 88.1664C82.6412 94.4565 94.6447 95.0913 104.209 95.2199C118.294 95.4108 132.642 81.8015 133.257 63.2589C133.66 51.1185 127.738 41.6003 120.418 34.6089C119.745 33.9658 118.797 33.6837 117.887 33.8787Z" fill="#FF4747"/>
<path d="M116.412 31.3272C115.285 30.3356 114.845 30.0368 113.556 29.1987C112.925 28.7879 112.143 28.6717 111.42 28.8916C80.8085 38.1899 66.7226 54.4547 62.4748 60.0809C62.0509 60.6411 61.8846 61.3464 62.001 62.0393C62.2421 63.4708 62.3003 63.9604 62.7284 65.3089C62.9487 65.9935 63.8423 66.1553 64.287 65.591C70.2555 58.0769 87.2426 40.0944 116.042 32.8707C116.74 32.6964 116.952 31.8044 116.412 31.3272Z" fill="#575FF1"/>
<path d="M104.031 59.3836C103.972 58.0517 103.615 56.807 103.033 55.695L113.74 53.359C114.521 53.1889 115.278 53.7407 115.348 54.5374C115.868 60.3462 111.99 65.7733 106.134 67.0513C104.18 67.4786 102.235 67.3915 100.439 66.8853C102.73 65.1966 104.164 62.4374 104.031 59.3836Z" fill="white"/>
<path d="M93.502 57.7736L103.037 55.6948C103.614 56.8027 103.976 58.0515 104.034 59.3834C104.167 62.4372 102.733 65.1964 100.443 66.8851C96.8437 65.8727 93.8304 63.1758 92.5294 59.5038C92.2634 58.7569 92.7289 57.9437 93.502 57.7736Z" fill="#27292D"/>
<path d="M123.419 50.1975C122.833 49.2266 122.06 48.4465 121.175 47.8532L128.349 41.6502C128.785 41.2726 129.446 41.3598 129.774 41.8328C132.655 45.9695 132.002 51.6912 128.103 55.0603C126.819 56.1681 125.335 56.8942 123.789 57.2469C124.812 55.0603 124.758 52.4214 123.419 50.1975Z" fill="white"/>
<path d="M114.774 53.3841L121.175 47.8491C122.056 48.4425 122.833 49.2266 123.419 50.1934C124.762 52.4174 124.812 55.0562 123.789 57.2428C120.634 57.9606 117.226 57.1267 114.753 54.8239C114.333 54.4297 114.338 53.7617 114.774 53.3841Z" fill="#27292D"/>
<path d="M88.2773 59.5621C87.7868 59.5621 87.3546 59.2177 87.259 58.7198C87.1509 58.1555 87.5208 57.612 88.0861 57.5082L113.527 52.6537L128.877 38.8992C129.305 38.5175 129.961 38.5507 130.344 38.9781C130.726 39.4054 130.693 40.061 130.265 40.4427L114.699 54.3881C114.558 54.5125 114.388 54.5997 114.2 54.637L88.4768 59.5455C88.4103 59.5579 88.3438 59.5621 88.2815 59.5621H88.2773Z" fill="#27292D"/>
<path d="M102.122 79.6067C102.122 79.6067 102.089 79.6067 102.076 79.6067C96.1785 79.3453 94.412 74.3082 94.2998 71.6777C94.2749 71.1051 94.7196 70.6196 95.2932 70.5989C95.8585 70.5657 96.3489 71.018 96.3739 71.5905C96.3863 71.8353 96.723 77.2956 102.168 77.5363C102.741 77.5612 103.186 78.0466 103.161 78.6192C103.136 79.1752 102.675 79.6109 102.122 79.6109V79.6067Z" fill="#27292D"/>
<path d="M72.6246 94.332C72.6246 94.332 76.1409 81.2911 95.4514 87.3157L102.513 89.7969C104.853 90.6185 106.063 93.2034 105.19 95.5228C104.367 97.7094 101.981 98.8795 99.7449 98.1907L93.5561 96.2904L99.3334 98.5143C101.586 99.3815 102.729 101.892 101.898 104.157L101.611 104.937C100.78 107.211 98.2694 108.389 95.9834 107.589L90.3848 105.618L96.0499 108.111C98.1945 109.057 99.2336 111.505 98.4107 113.7L98.1862 114.298C97.4547 116.26 95.443 117.435 93.369 117.123C85.2184 115.895 66.5564 111.202 72.6205 94.3403L72.6246 94.332Z" fill="#27292D"/>
<path d="M100.526 99.7259C100.43 99.7259 100.335 99.7093 100.243 99.6761L94.1499 97.4812C93.7177 97.3235 93.4932 96.8505 93.6512 96.419C93.8091 95.9875 94.2829 95.7634 94.7152 95.9211L100.808 98.116C101.241 98.2737 101.465 98.7467 101.307 99.1782C101.187 99.5143 100.867 99.7259 100.526 99.7259Z" fill="white"/>
<path d="M96.9516 109.277C96.8519 109.277 96.748 109.261 96.6482 109.223L90.6922 107.02C90.2433 106.854 90.0105 106.352 90.1768 105.904C90.343 105.456 90.846 105.224 91.2948 105.39L97.2509 107.593C97.6998 107.759 97.9325 108.261 97.7663 108.709C97.6374 109.057 97.3049 109.277 96.9516 109.277Z" fill="white"/>
<path d="M107.267 188.676C107.267 188.676 100.455 185.958 100.962 177.444C101.174 173.872 102.687 170.507 105.069 167.831C110.418 161.81 123.311 150.329 136.794 160.711C136.794 160.711 144.911 165.075 140.423 177.677L132.567 206.244C132.567 206.244 160.34 199.244 157.534 229.209H87.6826L107.272 188.676H107.267Z" fill="#27292D"/>
<path d="M109.932 221.741C109.741 221.741 109.55 221.674 109.392 221.542C109.043 221.243 109.001 220.72 109.296 220.372C109.778 219.807 121.262 206.501 134.554 204.14C135.007 204.061 135.44 204.36 135.519 204.812C135.598 205.264 135.298 205.696 134.845 205.775C122.135 208.036 110.676 221.313 110.564 221.45C110.398 221.641 110.165 221.741 109.932 221.741Z" fill="white"/>
<path d="M105.912 190.215C105.775 190.215 105.638 190.182 105.513 190.111C105.11 189.891 104.964 189.385 105.185 188.983L114.162 172.656C114.383 172.253 114.89 172.108 115.293 172.328C115.696 172.548 115.842 173.054 115.621 173.457L106.644 189.784C106.494 190.057 106.207 190.215 105.912 190.215Z" fill="white"/>
<path d="M182.905 226.782C184.077 229.358 187.373 230.13 189.535 228.3L234.789 189.995C235.816 189.153 235.982 187.452 234.885 186.701C203.567 165.304 196.7 190.892 196.7 190.892C196.7 190.892 191.206 179.012 175.644 168.731C156.583 156.138 148.832 168.718 148.832 168.718C144.85 174.374 146.172 182.174 151.791 186.207C151.791 186.207 170.241 198.958 182.905 226.786V226.782Z" fill="#27292D"/>
<path d="M196.168 211.206C195.827 211.206 195.511 210.998 195.387 210.658C195.245 210.272 191.978 201.082 195.532 189.161C195.661 188.722 196.126 188.473 196.567 188.601C197.008 188.73 197.257 189.195 197.128 189.634C193.728 201.036 196.916 210.003 196.949 210.09C197.107 210.521 196.883 210.998 196.455 211.152C196.359 211.185 196.264 211.202 196.168 211.202V211.206Z" fill="white"/>
</g>
<defs>
<clipPath id="clip0_432_418">
<rect width="215" height="244" fill="white" transform="translate(27 18)"/>
</clipPath>
</defs>
</svg>
