<svg width="270" height="270" viewBox="0 0 270 270" fill="none" xmlns="http://www.w3.org/2000/svg">
<g clip-path="url(#clip0_520_1782)">
<path d="M162.711 116.303C176.676 116.303 187.997 104.474 187.997 89.8821C187.997 75.2904 176.676 63.4614 162.711 63.4614C148.747 63.4614 137.426 75.2904 137.426 89.8821C137.426 104.474 148.747 116.303 162.711 116.303Z" fill="#27292D"/>
<path d="M144.91 19.9473C144.636 19.8395 144.366 19.7447 144.092 19.6456C142.314 17.8569 141.238 16.6242 140.009 13.2279C139.332 11.3573 139.208 9.33589 138.732 7.40498C138.256 5.47407 137.442 3.53454 135.874 2.24583C134.306 0.957115 131.843 0.517488 130.121 1.65104C129.272 2.21134 128.69 3.07767 128.3 3.9914C127.919 4.87497 127.7 5.82318 127.644 6.7714C127.516 9.01694 128.287 11.1978 129.05 13.3141C128.3 12.3831 127.811 12.0555 126.997 11.172C126.638 10.7798 126.256 10.3832 125.772 10.1505C124.941 9.74534 123.63 9.29279 122.739 9.58587C121.329 10.047 120.01 10.9737 119.436 12.2926C119.132 12.9908 119.054 13.7623 119.119 14.5123C119.23 15.8786 119.783 17.1285 120.528 18.3008C112.281 20.5593 105.585 25.8736 102.594 33.5455C96.9693 47.9713 106.6 65.2676 124.106 72.1724C141.611 79.0771 160.359 72.9827 165.98 58.5569C171.605 44.1311 162.411 26.8563 144.91 19.9516V19.9473Z" fill="#575FF1"/>
<path d="M170.268 112.441C174.05 90.7974 156.88 69.6728 131.917 65.2582C106.954 60.8435 83.6511 74.8105 79.8692 96.4544C76.0873 118.098 93.258 139.223 118.221 143.637C143.184 148.052 166.487 134.085 170.268 112.441Z" fill="#575FF1"/>
<path d="M113.284 26.7871C110.431 26.7871 108.117 29.8257 108.117 33.5755C108.117 33.6229 108.121 33.6703 108.121 33.7177C108.486 32.2049 109.531 31.0929 110.821 31.0325C112.483 30.9549 113.914 32.666 114.017 34.8512C114.115 37.0365 112.851 38.8725 111.185 38.9501C110.692 38.9717 110.225 38.8381 109.801 38.5795C110.722 39.6828 111.939 40.3638 113.284 40.3638C116.137 40.3638 118.451 37.3252 118.451 33.5798C118.451 29.8343 116.137 26.7914 113.284 26.7914V26.7871Z" fill="white"/>
<path d="M114.016 34.8471C113.918 32.6619 112.487 30.9508 110.82 31.0284C109.531 31.0888 108.485 32.2008 108.121 33.7136C108.151 35.6402 108.789 37.3642 109.801 38.5753C110.225 38.8296 110.692 38.9676 111.184 38.946C112.847 38.8684 114.115 37.0323 114.016 34.8471Z" fill="#27292D"/>
<path d="M202.214 113.652L146.843 122.176C144.391 122.553 142.708 124.858 143.083 127.324L143.174 127.917C143.549 130.382 145.84 132.076 148.291 131.698L203.663 123.174C206.114 122.797 207.797 120.492 207.422 118.026L207.332 117.434C206.957 114.968 204.665 113.275 202.214 113.652Z" fill="#27292D"/>
<path d="M167.475 120.38L175.169 119.286L193.818 252.066L184.907 251.256L167.475 120.38Z" fill="#27292D"/>
<path d="M74.8288 214.215C82.1691 212.031 85.4462 201.164 82.1485 189.943C78.8507 178.721 70.2268 171.394 62.8865 173.577C55.5462 175.76 52.2691 186.627 55.5669 197.849C58.8646 209.071 67.4885 216.398 74.8288 214.215Z" fill="#27292D"/>
<path d="M82.7977 181.204C82.1979 181.204 81.611 180.911 81.2554 180.368C76.0243 172.373 67.4987 167.739 61.8521 169.821C58.6561 170.998 56.5397 172.459 54.5175 176.79C54.0848 177.717 52.9838 178.118 52.0626 177.683C51.1415 177.247 50.7431 176.14 51.1758 175.213C53.7121 169.774 56.6553 167.782 60.5797 166.339C67.8843 163.645 78.0979 168.8 84.3358 178.329C84.897 179.187 84.6614 180.338 83.8088 180.902C83.496 181.109 83.1447 181.208 82.7934 181.208L82.7977 181.204Z" fill="#27292D"/>
<path d="M196.943 269.642C203.821 267.596 206.891 257.413 203.8 246.896C200.71 236.38 192.629 229.513 185.752 231.558C178.874 233.604 175.804 243.787 178.895 254.304C181.985 264.82 190.066 271.687 196.943 269.642Z" fill="#27292D"/>
<path d="M72.1464 187.454L147.72 220.822C159.116 225.865 172.457 222.512 180.16 212.672L182.281 222.986L181.626 223.826C173.824 233.86 160.192 237.179 148.693 231.847L68.7832 194.962C66.911 194.091 65.9728 191.953 66.5983 189.979C67.3352 187.648 69.9186 186.475 72.1421 187.462L72.1464 187.454Z" fill="#27292D"/>
<path d="M210.171 251.062C209.319 251.062 208.586 250.419 208.488 249.545C206.62 232.903 194.915 228.636 194.418 228.464C193.536 228.154 193.06 227.184 193.364 226.296C193.669 225.404 194.624 224.93 195.511 225.231C196.089 225.43 209.739 230.287 211.859 249.161C211.967 250.096 211.294 250.945 210.364 251.049C210.3 251.057 210.236 251.062 210.171 251.062Z" fill="#27292D"/>
<path d="M203.068 108.101C203.068 108.101 189.307 107.2 187.105 127.001C187.105 127.001 186.069 134.168 193.969 134.168C193.969 134.168 197.336 133.91 198.501 132.216C198.501 132.216 198.891 136.647 205.108 136.125C205.108 136.125 207.588 136.022 208.394 133.505C208.394 133.505 208.394 136.75 211.543 136.832C211.543 136.832 215.197 137.629 217.206 132.944C217.206 132.944 229.335 107.666 203.073 108.105L203.068 108.101Z" fill="#27292D"/>
<path d="M198.108 134.427C197.996 134.427 197.885 134.405 197.778 134.362C197.341 134.177 197.135 133.672 197.315 133.233L200.537 125.47C200.721 125.031 201.222 124.824 201.659 125.005C202.096 125.19 202.302 125.695 202.122 126.134L198.9 133.897C198.763 134.228 198.446 134.427 198.108 134.427Z" fill="white"/>
<path d="M208.3 136.103C208.205 136.103 208.107 136.086 208.013 136.052C207.567 135.892 207.336 135.401 207.494 134.953L210.27 127.091C210.429 126.643 210.917 126.406 211.363 126.57C211.808 126.729 212.04 127.22 211.881 127.669L209.105 135.53C208.981 135.884 208.651 136.103 208.3 136.103Z" fill="white"/>
<path d="M186.338 127.156C186.287 127.156 186.236 127.151 186.189 127.143C185.722 127.061 185.413 126.613 185.494 126.143C186.814 118.73 189.856 113.756 189.984 113.549C190.233 113.144 190.764 113.023 191.163 113.273C191.565 113.523 191.685 114.057 191.437 114.458C191.407 114.506 188.433 119.376 187.178 126.445C187.105 126.863 186.741 127.156 186.334 127.156H186.338Z" fill="white"/>
<path d="M68.9039 58.5007L74.7733 38.683C75.1761 37.3254 76.6198 36.5754 77.9522 37.0366L93.7525 42.5018C95.1149 42.9716 95.7918 44.5059 95.2262 45.8377L87.0605 65.0305C86.5464 66.2416 85.184 66.8407 83.9502 66.3968L70.4463 61.5566C69.2038 61.1126 68.5269 59.7679 68.9039 58.4964V58.5007Z" fill="#27292D"/>
<path d="M90.7661 47.0922C91.4783 47.0922 92.0557 46.5114 92.0557 45.7949C92.0557 45.0784 91.4783 44.4976 90.7661 44.4976C90.0539 44.4976 89.4766 45.0784 89.4766 45.7949C89.4766 46.5114 90.0539 47.0922 90.7661 47.0922Z" fill="white"/>
<path d="M59.359 64.2461C62.1523 57.8025 68.7372 53.833 75.6605 54.7596C79.0193 55.2122 83.0036 56.6087 87.6178 59.5998C87.6178 59.5998 93.907 63.3884 88.8216 69.6595C88.8216 69.6595 86.4525 72.1637 84.3703 71.9999C84.3703 71.9999 87.5963 75.1592 83.1879 79.758C83.1879 79.758 81.5127 81.6588 79.015 80.6804C79.015 80.6804 81.5641 82.7708 79.602 85.3223C79.602 85.3223 77.8797 88.7359 72.9057 87.3179C72.9057 87.3179 51.7074 81.8743 59.3504 64.2375L59.359 64.2461Z" fill="#27292D"/>
<path d="M85.7545 73.4781C85.6731 73.4781 85.5874 73.4652 85.506 73.4393L77.276 70.9481C76.8219 70.8102 76.5648 70.3318 76.7019 69.8749C76.839 69.418 77.3146 69.1594 77.7687 69.2974L85.9987 71.7886C86.4528 71.9265 86.7099 72.4049 86.5728 72.8618C86.4614 73.2367 86.1229 73.4738 85.7545 73.4738V73.4781Z" fill="white"/>
<path d="M80.759 82.5424C80.6691 82.5424 80.5748 82.5295 80.4848 82.495L72.2163 79.6892C71.7664 79.5383 71.5265 79.047 71.6765 78.5987C71.8264 78.1461 72.3105 77.9048 72.7604 78.0556L81.0289 80.8615C81.4788 81.0123 81.7187 81.5037 81.5687 81.9519C81.4488 82.3097 81.1146 82.5381 80.7547 82.5381L80.759 82.5424Z" fill="white"/>
<path d="M89.9223 61.3367C89.7166 61.3367 89.511 61.2635 89.3482 61.1126C80.0728 52.6692 69.0409 55.3414 68.9296 55.3716C68.4711 55.488 68.0042 55.2078 67.8885 54.7466C67.7728 54.2855 68.0513 53.8157 68.5097 53.6993C68.9981 53.5743 80.5527 50.7771 90.4964 59.8325C90.8477 60.1515 90.8734 60.6988 90.5563 61.0523C90.385 61.2419 90.1536 61.3367 89.9223 61.3367Z" fill="white"/>
<path d="M121.548 58.4014C124.119 59.4401 130.841 60.6469 135.703 55.3024C139.379 51.2596 138.779 48.6089 137.683 47.1219C136.744 45.8548 135.211 45.1479 133.638 45.2126C132.374 45.2686 131.573 45.8634 131.098 46.4237C130.759 46.8202 130.541 47.2986 130.387 47.7986C129.303 51.2855 126.368 51.8716 124.599 51.8889C123.922 51.8932 123.258 51.7553 122.615 51.5613C122.593 51.557 122.576 51.5484 122.555 51.5441C120.246 50.8803 118.104 53.031 118.626 55.3154C118.708 55.6688 118.862 55.9964 119.05 56.3024C119.436 56.936 120.194 57.854 121.548 58.4014Z" fill="white"/>
<path d="M123.137 29.6533C119.641 29.6533 116.81 33.3729 116.81 37.9674C116.81 38.0235 116.814 38.0795 116.818 38.1398C117.264 36.2865 118.545 34.9245 120.121 34.8513C122.161 34.7564 123.913 36.8511 124.037 39.5277C124.161 42.2042 122.606 44.4541 120.571 44.5489C119.967 44.5791 119.393 44.411 118.875 44.0964C120.001 45.4497 121.497 46.2816 123.142 46.2816C126.638 46.2816 129.469 42.562 129.469 37.9674C129.469 33.3729 126.638 29.6533 123.142 29.6533H123.137Z" fill="white"/>
<path d="M124.032 39.5233C123.908 36.8467 122.156 34.752 120.117 34.8468C118.54 34.9201 117.255 36.2864 116.813 38.1354C116.852 40.493 117.636 42.605 118.87 44.0876C119.388 44.4023 119.962 44.566 120.566 44.5402C122.606 44.4454 124.157 42.1955 124.032 39.519V39.5233Z" fill="#27292D"/>
<path d="M129.702 30.0198C130.387 29.5112 131.257 29.4379 131.934 28.9854C132.812 28.3949 132.654 27.576 132.439 26.5803C132.32 26.02 132.178 25.4899 132.05 24.9641L122.83 20.96L121.836 20.529L117.5 18.6455C118.019 20.4256 118.066 22.2186 116.661 23.5633C115.667 24.5115 113.773 24.4382 113.302 25.7011C113.105 26.2355 113.268 27.2355 113.392 28.0415C116.168 27.826 118.863 26.4381 120.829 24.1581C120.079 29.5888 122.654 34.8988 127.495 37.0021C127.761 37.1185 128.027 37.2176 128.292 37.3081C127.744 34.6574 127.088 31.9593 129.71 30.0241L129.702 30.0198Z" fill="#27292D"/>
<path d="M110.911 22.7272C111.798 21.8307 113.357 21.9557 114.15 21.167C114.852 20.4687 113.799 18.2016 113.079 16.7233L104.746 13.1028C104.232 12.8787 103.619 13.1933 103.426 13.7795C101.636 19.2705 103.915 25.1538 108.837 27.2916C109.21 27.4553 109.591 27.5803 109.973 27.6924C109.943 27.1924 109.917 26.6925 109.904 26.1925C109.861 24.9081 109.96 23.6883 110.911 22.7272Z" fill="#27292D"/>
<path d="M142.378 29.4509L136.848 27.0459C136.856 27.1192 136.869 27.1881 136.873 27.2614C136.989 28.8173 136.638 30.3302 135.639 31.537C135.215 32.0499 134.693 32.4335 134.101 32.7309C133.523 33.024 132.43 33.136 132.058 33.7179C131.535 34.5282 132.233 36.4332 132.645 37.8469C136.728 37.5237 140.643 34.9592 142.803 30.8646C143.085 30.3259 142.888 29.6707 142.383 29.4509H142.378Z" fill="#27292D"/>
<path d="M132.058 33.718C132.435 33.1362 133.524 33.0198 134.102 32.731C134.693 32.4336 135.216 32.05 135.64 31.5371C136.642 30.3346 136.99 28.8175 136.874 27.2615C136.87 27.1883 136.852 27.1193 136.848 27.046L132.046 24.96C132.174 25.4858 132.315 26.0159 132.435 26.5762C132.654 27.5719 132.808 28.3951 131.93 28.9813C131.257 29.4338 130.388 29.5114 129.698 30.0157C127.08 31.9509 127.731 34.649 128.28 37.2997C129.706 37.791 131.18 37.9591 132.637 37.8471C132.225 36.4334 131.531 34.524 132.05 33.718H132.058Z" fill="#F5F9AA"/>
<path d="M116.657 23.5589C118.066 22.2185 118.015 20.4255 117.496 18.6411L113.079 16.7231C113.795 18.2015 114.853 20.4686 114.15 21.1668C113.358 21.9513 111.798 21.8306 110.911 22.7271C109.96 23.6882 109.862 24.908 109.905 26.1924C109.922 26.6923 109.947 27.1923 109.973 27.6923C111.096 28.0198 112.248 28.1276 113.383 28.0414C113.259 27.2354 113.096 26.2355 113.293 25.701C113.765 24.4382 115.658 24.5071 116.652 23.5632L116.657 23.5589Z" fill="#F5F9AA"/>
<path d="M124.029 60.0826C124.029 60.0826 123.986 60.0826 123.969 60.0826C123.558 60.0481 123.25 59.686 123.284 59.2679L123.875 51.9624C123.909 51.5486 124.265 51.234 124.685 51.2728C125.096 51.3072 125.405 51.6693 125.37 52.0874L124.779 59.3929C124.749 59.7852 124.419 60.0869 124.034 60.0869L124.029 60.0826Z" fill="#27292D"/>
<path d="M132.439 58.6859C132.191 58.6859 131.946 58.5609 131.805 58.3324L127.409 51.3243C127.187 50.9708 127.294 50.5053 127.645 50.2855C127.996 50.0614 128.459 50.1692 128.677 50.5226L133.073 57.5308C133.296 57.8842 133.189 58.3497 132.837 58.5695C132.713 58.6471 132.576 58.6859 132.439 58.6859Z" fill="#27292D"/>
<path d="M138.073 52.5829C137.965 52.5829 137.863 52.5614 137.76 52.514L130.211 49.0099C129.834 48.8375 129.671 48.3893 129.843 48.01C130.014 47.6307 130.459 47.4669 130.836 47.6393L138.385 51.1434C138.762 51.3158 138.925 51.764 138.754 52.1433C138.629 52.4192 138.355 52.5829 138.073 52.5829Z" fill="#27292D"/>
<path d="M151.199 72.7974L154.623 74.5516C154.623 74.5516 145.124 100.709 171.361 105.769L171.023 109.7C171.023 109.7 139.893 106.924 151.199 72.8017V72.7974Z" fill="#27292D"/>
<path d="M168.417 222.658C166.721 210.827 162.081 195.156 148.037 194.518L147.429 158.322C147.51 154.585 145.03 151.275 141.435 150.327C136.808 149.107 132.151 152.202 131.453 156.964L123.746 209.457C123.536 210.887 124.29 212.284 125.597 212.887L160.162 228.869C164.39 230.822 169.081 227.292 168.417 222.658Z" fill="#27292D"/>
<path d="M135.913 205.095C135.84 205.095 135.767 205.086 135.694 205.065C135.236 204.944 134.966 204.474 135.086 204.013C135.116 203.901 138.098 192.962 148.77 192.772C149.237 192.768 149.635 193.143 149.644 193.617C149.652 194.091 149.275 194.488 148.804 194.497C139.443 194.665 136.851 204.056 136.748 204.453C136.646 204.841 136.299 205.095 135.922 205.095H135.913Z" fill="white"/>
<path d="M86.1734 192.401C88.9496 187.949 95.8472 179.346 105.427 184.445L113.297 153.525C114.355 149.374 119.325 146.96 123.922 148.361C127.602 149.486 129.851 152.727 129.286 156.093L120.73 207.004C120.473 208.525 118.875 209.405 117.465 208.801L87.253 195.862C85.9121 195.289 85.3979 193.647 86.1691 192.406L86.1734 192.401Z" fill="#27292D"/>
<path d="M108.862 194.794C108.82 194.794 108.772 194.794 108.73 194.785C108.263 194.712 107.941 194.272 108.014 193.802C109.454 184.48 103.044 183.178 102.77 183.126C102.307 183.04 101.999 182.592 102.08 182.126C102.162 181.661 102.607 181.346 103.07 181.428C105.962 181.937 111.073 185.238 109.706 194.065C109.642 194.492 109.278 194.794 108.862 194.794Z" fill="white"/>
</g>
<defs>
<clipPath id="clip0_520_1782">
<rect width="169" height="269" fill="white" transform="translate(51 1)"/>
</clipPath>
</defs>
</svg>
