<svg width="270" height="270" viewBox="0 0 270 270" fill="none" xmlns="http://www.w3.org/2000/svg">
<g clip-path="url(#clip0_520_2171)">
<path d="M110.773 65.6479L117.082 75.2523C117.082 75.2523 51.6779 144.477 124.161 216.045L83.6591 233.334C83.6591 233.334 26.0774 150.436 110.773 65.6479Z" fill="#27292D"/>
<path d="M65.1827 179.58C65.0755 179.58 64.9651 179.554 64.8612 179.502C64.5202 179.324 64.3871 178.906 64.5657 178.566C64.7508 178.214 69.1637 169.936 77.9537 167.525C83.5128 166 89.5233 167.195 95.8228 171.073C96.1508 171.273 96.2514 171.701 96.0501 172.028C95.8488 172.354 95.4202 172.455 95.0922 172.254C89.1402 168.59 83.4999 167.447 78.3336 168.862C70.1313 171.105 65.8418 179.13 65.7996 179.211C65.6762 179.447 65.4327 179.583 65.1827 179.583V179.58Z" fill="white"/>
<path d="M91.2833 131.244C91.0853 131.244 90.8904 131.143 90.78 130.962C88.4323 127.103 85.5326 124.863 82.1653 124.3C76.3432 123.326 70.9691 127.709 70.9172 127.754C70.6672 127.961 70.2937 127.929 70.0859 127.676C69.8781 127.427 69.9106 127.055 70.1606 126.848C70.3944 126.654 75.9925 122.076 82.3504 123.138C86.0749 123.76 89.2506 126.184 91.7866 130.35C91.9555 130.629 91.8678 130.988 91.5886 131.156C91.4944 131.215 91.3872 131.24 91.2833 131.24V131.244Z" fill="white"/>
<path d="M99.706 103.123C99.4333 103.123 99.1897 102.932 99.1313 102.654C98.4819 99.4751 97.0693 97.3063 94.9392 96.2122C90.9939 94.1825 85.7822 96.4387 85.7303 96.4646C85.4348 96.5974 85.0873 96.4646 84.9575 96.1668C84.8276 95.869 84.9575 95.5259 85.2562 95.3964C85.49 95.2928 91.0231 92.8877 95.475 95.1731C97.9396 96.4388 99.5567 98.8763 100.284 102.424C100.349 102.741 100.144 103.049 99.8262 103.114C99.7872 103.12 99.7482 103.127 99.7093 103.127L99.706 103.123Z" fill="white"/>
<path d="M114.939 74.1191C114.939 74.1191 91.3323 8.78875 162.831 0.00983996C163.994 -0.132591 164.724 1.23021 163.958 2.11717L156.581 10.6727L146.82 10.417L152.038 16.5253L139.179 30.4156L132.721 29.8944L136.672 34.3033L125.492 52.3143L118.381 53.376L122.492 57.2573L114.939 74.1223V74.1191Z" fill="#27292D"/>
<path d="M111.666 74.1451C111.666 74.1451 141.264 10.1225 197.115 38.1846C197.115 38.1846 209.11 45.2835 216.448 55.7198C217.199 56.788 216.28 58.222 214.997 57.9695C210.087 57.0016 200.953 55.4576 195.823 56.2053L187.685 47.7404L187.331 56.911L174.417 59.5557L165.747 50.7379L166.809 59.2028L149.648 65.1979L143.102 56.9078V66.6092L111.669 74.1419L111.666 74.1451Z" fill="#27292D"/>
<path d="M111.643 69.8138C111.643 69.8138 165.585 40.5184 189.289 104.703C189.682 105.768 188.529 106.749 187.539 106.189C182.733 103.47 173.407 98.2999 172.007 98.3517L169.075 91.2593L165.805 97.2964L154.392 93.1044L151.485 84.646L149.563 92.0718L139.711 88.9578L136.133 79.8066L133.37 87.1126L108.354 77.2169L111.646 69.8138H111.643Z" fill="#27292D"/>
<path d="M106.36 65.0553C106.36 65.0553 51.7557 28.0039 44.9497 102.602C44.8133 104.107 46.6252 104.978 47.7162 103.929L57.8441 94.2309L57.8019 83.5421L62.0849 90.2007L72.8752 84.6233L72.4628 74.2226L76.8757 82.5678L87.968 77.8287L94.8487 69.7101L108.691 70.445L106.363 65.0553H106.36Z" fill="#27292D"/>
<path d="M30.5519 45.6103C35.2408 44.7428 44.3166 43.3768 48.3398 44.882C48.7198 45.0244 49.1386 45.0018 49.4861 44.7914L53.2495 42.519C54.1717 41.9622 55.3375 42.6905 55.2368 43.762L55.0517 45.7463C54.9933 46.3581 55.3732 46.9278 55.9609 47.1156L64.2639 49.7441C64.8516 49.9318 65.4913 49.6826 65.7998 49.1485L68.3618 44.704C69.0372 43.5289 70.8394 44.0274 70.8134 45.3838L70.716 50.2588C70.703 50.8576 71.1024 51.3885 71.6804 51.5471L86.7017 55.6517C87.4551 55.8589 88.2214 55.3668 88.3448 54.5997L88.5428 53.389C88.7442 52.1524 90.4002 51.8773 90.9945 52.9779L96.6348 63.4466C96.9757 64.081 97.768 64.3206 98.4045 63.9839L104.902 60.5559C105.412 60.2872 105.688 59.7175 105.577 59.1542C104.412 53.1559 96.5341 21.054 61.9227 23.3361C61.9227 23.3361 42.2839 23.6145 29.2173 43.6066C28.5841 44.5745 29.4122 45.8272 30.5519 45.6168V45.6103Z" fill="#27292D"/>
<path d="M116.335 89.6442C121.939 89.6442 126.482 85.1152 126.482 79.5284C126.482 73.9416 121.939 69.4126 116.335 69.4126C110.731 69.4126 106.188 73.9416 106.188 79.5284C106.188 85.1152 110.731 89.6442 116.335 89.6442Z" fill="#27292D"/>
<path d="M125.018 86.6598C124.862 86.6598 124.706 86.608 124.58 86.5044C124.281 86.2616 124.239 85.8246 124.482 85.5301C127.233 82.1732 125.775 77.3112 125.762 77.2626C125.648 76.8968 125.853 76.5084 126.219 76.3951C126.586 76.2818 126.976 76.4857 127.09 76.8515C127.161 77.0781 128.791 82.4646 125.56 86.4073C125.424 86.5756 125.223 86.663 125.021 86.663L125.018 86.6598Z" fill="white"/>
<path d="M105.032 79.4245C112.866 79.4245 119.216 73.094 119.216 65.285C119.216 57.476 112.866 51.1455 105.032 51.1455C97.1988 51.1455 90.8486 57.476 90.8486 65.285C90.8486 73.094 97.1988 79.4245 105.032 79.4245Z" fill="#27292D"/>
<path d="M104.912 80.0527C103.786 80.0527 103.065 79.9556 103.035 79.9523C102.656 79.8973 102.393 79.5445 102.448 79.1657C102.503 78.787 102.854 78.5248 103.237 78.5798C103.266 78.583 106.085 78.9747 109.215 78.1655C113.319 77.1069 116.011 74.582 117.222 70.6555C117.336 70.2897 117.726 70.0858 118.093 70.1958C118.459 70.3091 118.667 70.6976 118.554 71.0634C116.083 79.0751 108.474 80.0527 104.912 80.0527Z" fill="white"/>
<path d="M203.583 270C207.334 270 210.269 266.786 209.925 263.063C206.415 225.031 174.326 195.25 135.26 195.25C96.1934 195.25 64.105 225.031 60.5948 263.063C60.2506 266.786 63.1861 270 66.9365 270H203.58H203.583Z" fill="#27292D"/>
<path d="M200.911 134.241C199.056 131.998 195.754 131.616 193.436 133.377L185.574 139.346L189.023 129.755C190.052 126.89 188.51 123.74 185.607 122.788L185.451 122.737C182.701 121.837 179.729 123.245 178.694 125.938L174.641 136.465C171.371 136.866 168.442 138.43 166.585 141.097C162.711 146.652 164.932 154.868 171.547 159.455C178.161 164.038 186.662 163.255 190.536 157.7C192.328 155.13 192.812 151.987 192.163 148.899L200.31 141.735C202.505 139.806 202.771 136.491 200.911 134.238V134.241Z" fill="#27292D"/>
<path d="M176.8 148.963C175.254 148.963 173.176 148.297 170.854 145.759C170.614 145.493 170.63 145.085 170.897 144.843C171.163 144.6 171.572 144.619 171.816 144.885C175.829 149.274 178.638 147.222 178.758 147.131C180.654 145.603 181.291 143.839 180.638 141.897C180.365 141.084 179.859 140.311 179.174 139.657C177.18 137.757 175.134 136.847 173.092 136.941C170.095 137.083 168.062 139.391 168.042 139.417C167.809 139.686 167.399 139.718 167.127 139.485C166.854 139.252 166.825 138.844 167.055 138.576C167.153 138.462 169.452 135.831 173.014 135.649C175.433 135.526 177.803 136.562 180.07 138.721C180.908 139.521 181.531 140.476 181.869 141.486C182.447 143.211 182.518 145.765 179.563 148.145C179.541 148.161 178.492 148.96 176.8 148.96V148.963Z" fill="white"/>
<path d="M192.228 157.189C192.131 157.189 192.033 157.166 191.942 157.121C191.621 156.962 191.488 156.574 191.647 156.256C191.66 156.227 192.988 153.46 191.942 150.653C191.231 148.743 189.582 147.228 187.046 146.147C186.172 145.775 185.26 145.616 184.406 145.684C182.357 145.849 180.983 147.128 180.314 149.478C180.282 149.611 179.493 152.994 185.12 154.945C185.458 155.062 185.64 155.431 185.519 155.771C185.403 156.108 185.032 156.289 184.691 156.169C181.194 154.955 179.84 153.149 179.321 151.848C178.733 150.375 179.045 149.184 179.061 149.135C180.097 145.484 182.48 144.542 184.299 144.396C185.364 144.309 186.49 144.503 187.555 144.959C190.439 146.186 192.326 147.957 193.163 150.219C194.4 153.554 192.874 156.697 192.809 156.829C192.696 157.059 192.465 157.189 192.228 157.189Z" fill="white"/>
<path d="M118.765 121.658C120.226 120.218 123.015 119.92 124.957 120.399C126.899 120.882 128.513 122.112 129.854 123.513C131.89 125.64 132.571 128.524 131.873 131.46C135.27 132.24 137.816 135.086 138.692 138.345C139.569 141.605 139.011 145.888 135.487 147.778C135.487 147.778 140.745 153.213 135.487 161.167C133.468 164.226 129.73 166.094 126.074 166.346C125.662 169.907 122.395 172.969 118.758 173.782C115.118 174.594 111.309 173.393 108.585 171.134C106.224 173.591 102.237 174.096 99.1647 172.904C96.0929 171.716 93.8589 169.127 92.3847 166.278C91.2189 164.025 90.4559 161.387 91.2287 158.881C88.1114 159.914 82.9679 158.179 81.2372 154.786C79.698 151.763 78.37 147.228 78.9642 143.823C79.75 139.333 83.3381 136.141 87.0139 135.895C84.3902 133.121 84.0297 128.149 86.5755 125.025C89.1213 121.904 93.8524 120.092 97.6483 121.429C97.6483 121.429 101.396 113.634 109.78 114.378C117.82 115.094 118.758 121.649 118.758 121.649L118.765 121.658Z" fill="#9A9FF7"/>
<path d="M89.4331 148.076C89.3227 148.076 89.2123 148.047 89.1084 147.989L84.189 145.169C83.8772 144.991 83.7701 144.596 83.9487 144.286C84.1273 143.975 84.5234 143.868 84.8352 144.046L89.7546 146.866C90.0663 147.044 90.1735 147.439 89.9949 147.749C89.8747 147.956 89.6572 148.073 89.4299 148.073L89.4331 148.076Z" fill="#FF4747"/>
<path d="M85.7537 151.317C85.666 151.317 85.5783 151.3 85.4939 151.262C85.1659 151.119 85.0133 150.737 85.1562 150.41L86.9421 146.322C87.085 145.995 87.4682 145.843 87.7961 145.985C88.1241 146.128 88.2767 146.51 88.1338 146.836L86.3479 150.925C86.2407 151.168 86.0037 151.313 85.7537 151.313V151.317Z" fill="#FF4747"/>
<path d="M153.742 151.028C153.742 151.028 173.17 155.152 165.377 173.212C165.377 173.212 189.585 174.348 187.406 196.247C187.406 196.247 186.126 211.96 174.209 218.081C174.209 218.081 178.038 228.223 167.666 238.177C157.295 248.13 147.427 245.382 141.708 244.379C141.708 244.379 127.46 252.339 115.036 243.437C102.613 234.538 106.113 227.271 106.113 227.271C106.113 227.271 83.4837 227.679 84.3442 210.027C84.3442 210.027 84.1364 199.206 92.5303 195.162C92.5303 195.162 78.9085 175.662 100.476 162.384C100.476 162.384 110.406 155.745 119.962 162.384C119.962 162.384 120.638 152.967 128.489 153.246C135.149 153.482 136.857 159.218 136.857 159.218C136.857 159.218 142.312 148.112 153.742 151.032V151.028Z" fill="#9A9FF7"/>
<path d="M113.846 135.817C113.829 135.817 113.813 135.817 113.794 135.817C113.436 135.788 113.17 135.478 113.196 135.121C113.433 132.059 115.576 129.411 118.528 128.531C118.872 128.427 119.233 128.621 119.336 128.965C119.44 129.308 119.246 129.667 118.901 129.771C116.459 130.499 114.687 132.69 114.492 135.222C114.466 135.562 114.18 135.821 113.846 135.821V135.817Z" fill="#FF4747"/>
<path d="M120.69 133.105C121.314 133.966 121.713 134.999 121.801 136.135C121.996 138.634 120.616 140.893 118.495 141.945C119.206 142.127 119.96 142.198 120.732 142.14C124.515 141.848 127.344 138.556 127.048 134.785C126.973 133.807 126.691 132.895 126.256 132.082C124.389 132.425 122.499 132.772 120.69 133.105Z" fill="white"/>
<path d="M121.801 136.135C121.713 135.002 121.314 133.966 120.69 133.105C117.947 133.61 115.394 134.076 113.388 134.442C113.329 134.898 113.316 135.368 113.352 135.844C113.586 138.844 115.726 141.24 118.492 141.945C120.612 140.893 121.993 138.634 121.798 136.135H121.801Z" fill="#FF4747"/>
<path d="M100.652 138.698C100.636 138.698 100.62 138.698 100.6 138.698C100.243 138.669 99.9767 138.358 100.003 138.002C100.24 134.94 102.383 132.292 105.335 131.412C105.679 131.308 106.039 131.502 106.143 131.845C106.247 132.189 106.052 132.548 105.708 132.651C103.266 133.38 101.493 135.568 101.298 138.103C101.272 138.443 100.987 138.702 100.652 138.702V138.698Z" fill="#FF4747"/>
<path d="M107.497 135.986C108.12 136.847 108.52 137.879 108.607 139.016C108.802 141.515 107.422 143.774 105.302 144.826C106.013 145.007 106.766 145.079 107.539 145.02C111.322 144.729 114.15 141.437 113.855 137.666C113.78 136.688 113.498 135.775 113.062 134.963C111.195 135.306 109.306 135.652 107.497 135.986Z" fill="white"/>
<path d="M108.608 139.016C108.52 137.883 108.121 136.847 107.497 135.986C104.753 136.491 102.201 136.957 100.194 137.323C100.136 137.779 100.123 138.249 100.158 138.724C100.392 141.725 102.532 144.121 105.299 144.826C107.419 143.774 108.799 141.515 108.604 139.016H108.608Z" fill="#FF4747"/>
<path d="M96.856 138.711C96.5215 138.711 96.2358 138.452 96.2098 138.112C96.1838 137.763 96.4404 137.455 96.7878 137.42C97.5119 137.316 116.222 133.694 126.035 131.787C126.386 131.716 126.727 131.949 126.798 132.299C126.866 132.648 126.636 132.988 126.285 133.059C119.502 134.377 97.3333 138.676 96.9112 138.711C96.895 138.711 96.8787 138.711 96.8592 138.711H96.856Z" fill="#FF4747"/>
<path d="M110.906 154.168C108.097 154.168 106.301 152.452 105.668 151.352C105.418 150.918 105.571 150.361 106.006 150.112C106.441 149.863 106.993 150.012 107.246 150.442C107.318 150.562 108.883 153.103 112.461 152.132C112.948 151.999 113.448 152.284 113.578 152.77C113.708 153.255 113.426 153.754 112.939 153.883C112.211 154.081 111.533 154.168 110.906 154.168Z" fill="#27292D"/>
<path d="M124.216 164.957C124.1 164.957 123.983 164.932 123.869 164.88C123.463 164.689 123.291 164.206 123.483 163.802C124.541 161.571 126.106 160.112 128.136 159.461C131.055 158.525 134.13 159.542 135.614 160.18C136.37 157.959 138.777 152.453 144.644 149.895C145.057 149.717 145.534 149.902 145.713 150.313C145.891 150.721 145.706 151.2 145.294 151.378C138.76 154.227 136.923 161.435 136.906 161.507C136.845 161.753 136.676 161.957 136.442 162.057C136.211 162.157 135.945 162.144 135.721 162.021C135.685 162.002 131.899 159.95 128.623 161.002C127.041 161.51 125.804 162.685 124.947 164.491C124.807 164.783 124.515 164.954 124.213 164.954L124.216 164.957Z" fill="white"/>
<path d="M182.759 210.089L229.177 204.942C230.606 204.783 231.636 203.501 231.476 202.077L226.395 156.518C226.187 154.644 224.235 153.871 222.479 154.576C213.494 158.192 200.076 173.966 209.048 186.542L179.899 193.1C175.599 194.068 172.716 198.102 173.203 202.469C173.732 207.204 178.012 210.616 182.759 210.089Z" fill="#27292D"/>
<path d="M218.971 193.706C218.939 193.706 218.903 193.706 218.871 193.699C218.582 193.654 211.776 192.544 207.717 186.944C207.506 186.652 207.574 186.248 207.863 186.041C208.155 185.83 208.561 185.898 208.769 186.186C212.503 191.34 219.004 192.411 219.069 192.421C219.423 192.476 219.666 192.806 219.611 193.162C219.562 193.483 219.286 193.709 218.971 193.709V193.706Z" fill="white"/>
<path d="M163.095 212.872C161.468 207.379 164.306 201.53 169.661 199.451C177.752 196.311 188.939 193.628 193.803 200.134L204.908 216.504C204.908 216.504 219.784 203.676 235.003 220.068C236.315 221.48 235.873 223.762 234.136 224.6L196.089 243.003C194.647 243.699 192.913 243.093 192.225 241.65L182.253 219.24L176.012 220.567C170.352 221.751 164.731 218.401 163.092 212.872H163.095Z" fill="#27292D"/>
<path d="M198.777 230.081C198.388 230.081 198.044 229.799 197.979 229.404C197.924 229.064 196.699 220.975 204.596 214.669C204.947 214.391 205.457 214.446 205.736 214.795C206.015 215.145 205.96 215.653 205.61 215.931C198.479 221.625 199.531 228.841 199.58 229.145C199.651 229.585 199.349 230 198.907 230.071C198.865 230.077 198.82 230.081 198.777 230.081Z" fill="white"/>
<path d="M200.817 209.768C200.567 209.768 200.32 209.655 200.161 209.438L194.378 201.598C191.361 197.403 186.156 195.409 181.11 196.503L173.901 198.092C173.463 198.186 173.031 197.914 172.934 197.477C172.836 197.04 173.112 196.61 173.551 196.512L180.763 194.923C186.445 193.69 192.306 195.936 195.693 200.649L201.47 208.483C201.736 208.842 201.658 209.351 201.298 209.616C201.151 209.723 200.986 209.775 200.817 209.775V209.768Z" fill="white"/>
<path d="M91.0862 225.102C91.0862 225.102 94.4308 210.409 116.258 216.265L124.389 218.754C126.964 219.544 128.386 222.289 127.542 224.84L127.503 224.953C126.675 227.452 124.064 228.86 121.535 228.193C118.314 227.345 114.54 226.352 114.54 226.352L121.09 228.572C123.645 229.44 125.032 232.188 124.207 234.749L123.921 235.629C123.093 238.199 120.343 239.627 117.755 238.834L111.417 236.885L117.856 239.413C120.294 240.371 121.561 243.058 120.742 245.541C119.875 248.169 117.271 249.827 114.514 249.49C105.017 248.325 85.2284 243.66 91.0862 225.099V225.102Z" fill="#27292D"/>
<path d="M116.157 249.778C115.901 249.778 115.715 249.762 115.638 249.752C105.237 248.73 97.6937 245.709 93.2159 240.779C89.7934 237.011 89.5499 233.532 89.5434 233.386C89.5174 232.939 89.8584 232.557 90.3065 232.531C90.7546 232.492 91.1377 232.842 91.1637 233.289C91.1637 233.321 91.4137 236.438 94.5115 239.795C99.7622 245.483 108.984 247.474 115.797 248.147C115.81 248.147 115.826 248.15 115.839 248.153C116.232 248.208 119.729 248.561 120.479 243.851C120.486 243.819 120.492 243.787 120.499 243.757C120.499 243.757 120.55 243.557 120.573 243.243C120.687 241.572 119.612 240.032 117.959 239.494L112.322 237.662C111.897 237.523 111.663 237.066 111.803 236.642C111.942 236.218 112.4 235.985 112.825 236.124L118.463 237.957C120.826 238.724 122.359 240.944 122.194 243.353C122.168 243.744 122.106 244.026 122.077 244.143C121.242 249.273 117.576 249.782 116.157 249.782V249.778Z" fill="white"/>
<path d="M119.924 239.695C119.392 239.695 118.853 239.624 118.32 239.468L112.352 237.769C111.92 237.646 111.67 237.199 111.793 236.769C111.917 236.338 112.368 236.089 112.797 236.212L118.765 237.911C121.002 238.549 123.353 237.254 124.003 235.027C124.652 232.797 123.363 230.45 121.129 229.793L114.427 227.828C113.998 227.702 113.751 227.252 113.878 226.824C114.005 226.397 114.456 226.151 114.885 226.277L121.587 228.242C124.678 229.149 126.461 232.395 125.561 235.48C124.818 238.028 122.467 239.695 119.924 239.695Z" fill="white"/>
<path d="M195.287 244.395C194.631 244.395 193.975 244.278 193.339 244.045C191.884 243.511 190.741 242.44 190.121 241.025L181.165 220.467L175.317 221.988C174.882 222.101 174.44 221.842 174.326 221.409C174.213 220.975 174.473 220.535 174.908 220.421L181.428 218.725C181.814 218.625 182.217 218.819 182.376 219.185L191.611 240.374C192.053 241.381 192.868 242.145 193.9 242.524C194.936 242.903 196.053 242.848 197.044 242.362L204.272 238.843C204.674 238.646 205.161 238.814 205.356 239.216C205.554 239.617 205.386 240.103 204.983 240.297L197.755 243.815C196.972 244.197 196.131 244.388 195.287 244.388V244.395Z" fill="white"/>
</g>
<defs>
<clipPath id="clip0_520_2171">
<rect width="206.766" height="270" fill="white" transform="translate(29)"/>
</clipPath>
</defs>
</svg>
