<svg width="270" height="270" viewBox="0 0 270 270" fill="none" xmlns="http://www.w3.org/2000/svg">
<g clip-path="url(#clip0_520_2178)">
<path d="M215.294 150.389C215.092 149.958 214.895 149.527 214.68 149.096C213.445 146.644 207.931 133.067 230.686 122.613L239.019 118.66C241.779 117.348 245.078 118.565 246.332 121.352C247.509 123.982 246.439 127.08 243.888 128.417L236.828 132.123L243.812 129.056C246.534 127.859 249.713 129.069 250.954 131.774L251.378 132.706C252.625 135.424 251.454 138.636 248.757 139.909L242.146 143.039L249.269 140.309C251.967 139.276 255 140.524 256.19 143.16L256.513 143.876C257.577 146.232 256.836 149.007 254.753 150.534C246.674 156.445 225.02 171.252 215.294 150.389Z" fill="#27292D"/>
<path d="M237.949 132.674C237.594 132.674 237.252 132.471 237.088 132.129C236.866 131.654 237.069 131.09 237.544 130.868L246.167 126.832C246.642 126.611 247.206 126.813 247.427 127.289C247.649 127.764 247.446 128.328 246.971 128.549L238.348 132.585C238.215 132.649 238.082 132.674 237.949 132.674Z" fill="white"/>
<path d="M243.198 143.983C242.843 143.983 242.507 143.787 242.343 143.445C242.115 142.969 242.318 142.406 242.786 142.178L251.733 137.876C252.207 137.648 252.771 137.85 252.999 138.319C253.227 138.788 253.024 139.358 252.556 139.586L243.609 143.888C243.476 143.951 243.337 143.983 243.198 143.983Z" fill="white"/>
<path d="M213.166 137.927L219.276 122.126C220.827 118.451 223.638 117.342 226.608 117.944C229.577 118.546 231.509 121.397 230.92 124.318L229.407 131.914" fill="#27292D"/>
<path d="M213.166 138.877C213.052 138.877 212.938 138.858 212.824 138.813C212.337 138.623 212.09 138.072 212.28 137.584L218.39 121.783C219.992 117.988 223.05 116.259 226.798 117.013C230.274 117.716 232.541 121.08 231.851 124.508L230.338 132.104C230.236 132.617 229.736 132.959 229.223 132.852C228.71 132.75 228.375 132.25 228.476 131.737L229.989 124.14C230.477 121.739 228.875 119.376 226.425 118.882C224.43 118.476 221.727 118.78 220.156 122.499L214.059 138.269C213.913 138.642 213.553 138.877 213.173 138.877H213.166Z" fill="white"/>
<path d="M192.069 172.601C209.329 154.449 208.557 127.314 193.133 114.478C184.465 107.268 172.619 105.754 161.07 109.232C155.574 89.7373 140.049 76.2233 123.017 77.6932C103.091 79.4102 88.6807 100.977 90.8207 125.857C90.8651 126.37 90.9284 126.883 90.9854 127.39C75.7769 126.478 62.0943 133.301 57.1557 145.675C50.8874 161.374 62.4046 181.832 81.2347 190.588C81.2347 190.588 144.443 222.697 192.075 172.595L192.069 172.601Z" fill="#FF7272"/>
<path d="M72.3263 135.633C69.5214 135.43 67.0648 137.42 66.6216 140.144L59.8151 134.759C57.4154 132.864 53.9267 133.308 52.0842 135.747C50.3494 138.047 50.6976 141.303 52.882 143.179L58.935 148.374L52.8124 143.825C50.4254 142.051 47.057 142.52 45.2398 144.877L44.613 145.688C42.7895 148.057 43.2137 151.447 45.5564 153.297L51.2928 157.827L44.9612 153.569C42.5615 151.96 39.3261 152.492 37.5786 154.798L37.1037 155.425C35.5398 157.484 35.6411 160.355 37.3316 162.306C43.8848 169.877 61.6829 189.156 75.8214 170.998C76.1126 170.618 76.4039 170.244 76.7078 169.877C77.5689 168.838 80.0445 165.398 79.9685 160.348L80.0382 160.412L80.1142 158.093C80.2915 152.745 79.8546 147.392 78.7972 142.146C77.6512 137.66 75.2768 135.842 72.3073 135.633H72.3263Z" fill="#27292D"/>
<path d="M58.2699 149.166C58.0609 149.166 57.8456 149.096 57.6684 148.95L49.8552 142.589C49.45 142.26 49.3866 141.658 49.7159 141.252C50.0451 140.847 50.6466 140.784 51.0518 141.113L58.865 147.474C59.2702 147.803 59.3336 148.405 59.0043 148.811C58.8144 149.045 58.5421 149.159 58.2699 149.159V149.166Z" fill="white"/>
<path d="M50.9132 158.732C50.7106 158.732 50.508 158.669 50.337 158.536L41.6564 151.858C41.2385 151.541 41.1625 150.94 41.4791 150.528C41.7957 150.11 42.3972 150.034 42.8087 150.35L51.4894 157.028C51.9072 157.345 51.9832 157.947 51.6666 158.359C51.4767 158.599 51.1981 158.732 50.9132 158.732Z" fill="white"/>
<path d="M139.41 170.022C131.35 170.022 126.266 165.588 125.987 165.334C125.468 164.865 125.424 164.067 125.886 163.547C126.354 163.028 127.152 162.984 127.671 163.446C128.001 163.738 135.864 170.529 147.546 165.841C148.192 165.581 148.933 165.898 149.192 166.544C149.452 167.197 149.135 167.932 148.49 168.191C145.172 169.522 142.12 170.029 139.41 170.029V170.022Z" fill="#27292D"/>
<path d="M208.056 235.957C209.779 234.842 209.981 232.397 208.462 231.022C201.731 224.921 184.674 212.332 173.486 229.362L165.78 212.807C163.989 208.543 159.322 206.269 154.858 207.472C150.528 208.645 147.666 212.769 148.077 217.242L156.619 261.104C157.264 264.443 161.07 266.071 163.932 264.24L208.056 235.957Z" fill="#27292D"/>
<path d="M170.251 244.574C169.998 244.46 169.782 244.251 169.668 243.972C169.535 243.661 166.553 236.268 172.138 227.151C172.473 226.606 173.182 226.435 173.727 226.771C174.272 227.106 174.442 227.816 174.107 228.355C172.03 231.738 171.011 235.241 171.074 238.764C171.118 241.4 171.79 243.066 171.796 243.079C172.036 243.668 171.758 244.339 171.169 244.586C170.859 244.713 170.53 244.701 170.251 244.574Z" fill="white"/>
<path d="M105.403 222.253L111.292 213.504C113.482 209.455 118.351 207.688 122.632 209.392C127.614 211.375 129.805 217.223 127.349 221.994L117.699 240.734C114.78 246.411 107.892 248.749 102.117 246.031L86.5098 238.682C86.5098 238.682 88.9728 260.16 60.2781 253.418C58.4229 252.981 57.5365 250.859 58.5559 249.243L83.401 209.861C84.2558 208.511 86.0729 208.163 87.3646 209.101L105.397 222.253H105.403Z" fill="#27292D"/>
<path d="M87.6742 241.583C87.0473 241.583 86.5345 241.083 86.5218 240.456C86.4015 234.715 82.7229 230.274 82.6849 230.23C82.2733 229.742 82.3366 229.013 82.8242 228.602C83.3117 228.19 84.0398 228.253 84.4514 228.741C84.6223 228.95 88.6872 233.86 88.8328 240.405C88.8455 241.045 88.339 241.571 87.7058 241.583H87.6805H87.6742Z" fill="white"/>
<path d="M54.3386 127.903C67.7805 127.903 78.6772 116.999 78.6772 103.549C78.6772 90.0986 67.7805 79.1948 54.3386 79.1948C40.8968 79.1948 30 90.0986 30 103.549C30 116.999 40.8968 127.903 54.3386 127.903Z" fill="#27292D"/>
<path d="M226.431 110.708C239.873 110.708 250.77 99.8046 250.77 86.3542C250.77 72.9037 239.873 62 226.431 62C212.99 62 202.093 72.9037 202.093 86.3542C202.093 99.8046 212.99 110.708 226.431 110.708Z" fill="#27292D"/>
<path d="M226.419 105.969C223.645 105.969 220.967 105.399 218.46 104.271C217.979 104.056 217.77 103.492 217.985 103.017C218.2 102.541 218.764 102.326 219.239 102.541C221.505 103.555 223.918 104.075 226.425 104.075C230.351 104.075 234.061 102.808 237.157 100.413C241.501 97.0548 243.989 91.98 243.989 86.4997C243.989 85.9738 244.413 85.5493 244.939 85.5493C245.464 85.5493 245.888 85.9738 245.888 86.4997C245.888 92.5755 243.128 98.1952 238.316 101.921C234.884 104.575 230.768 105.982 226.419 105.982V105.969Z" fill="white"/>
<path d="M54.1423 122.949C51.3691 122.949 48.6908 122.378 46.1835 121.251C45.7023 121.035 45.4934 120.471 45.7086 119.996C45.9239 119.515 46.4874 119.306 46.9623 119.521C49.229 120.535 51.6413 121.054 54.1486 121.054C58.0742 121.054 61.7845 119.787 64.8807 117.392C69.2241 114.034 71.7124 108.959 71.7124 103.479C71.7124 102.953 72.1367 102.529 72.6622 102.529C73.1877 102.529 73.6119 102.953 73.6119 103.479C73.6119 109.555 70.8514 115.175 66.0393 118.9C62.6076 121.555 58.4921 122.961 54.1423 122.961V122.949Z" fill="white"/>
<path d="M69.427 93.9635C69.1231 93.9635 68.8255 93.8178 68.6419 93.5517C66.9641 91.0998 64.6847 89.1041 62.0381 87.7736C59.5751 86.5318 56.9158 85.8982 54.1363 85.8982C53.6107 85.8982 53.1865 85.4738 53.1865 84.9479C53.1865 84.422 53.6107 83.9976 54.1363 83.9976C57.2134 83.9976 60.1576 84.6945 62.8928 86.0756C65.818 87.5518 68.3507 89.7693 70.2058 92.481C70.5034 92.9118 70.3894 93.5073 69.9589 93.7988C69.7943 93.9128 69.6107 93.9635 69.4207 93.9635H69.427Z" fill="white"/>
<path d="M225.715 91.524C225.494 91.524 225.272 91.4733 225.069 91.3719C224.588 91.1312 224.278 90.637 224.278 90.0921L224.151 73.1823C224.151 72.384 224.785 71.7378 225.582 71.7314C226.367 71.7378 227.026 72.365 227.032 73.1633L227.14 87.2537L234.871 81.5897C235.517 81.1209 236.416 81.2602 236.884 81.9001C237.353 82.54 237.213 83.446 236.574 83.9149L226.576 91.2452C226.323 91.4289 226.026 91.524 225.722 91.524H225.715Z" fill="white"/>
<path d="M52.6925 100.122C52.6799 100.489 52.8761 100.799 53.275 101.047C53.6803 101.294 54.2691 101.547 55.0479 101.813C55.1935 101.851 55.3455 101.902 55.5164 101.953C55.681 102.003 55.8393 102.06 55.985 102.111C56.5421 102.307 57.0423 102.561 57.4919 102.878C57.9414 103.188 58.3276 103.549 58.6442 103.967C58.9608 104.385 59.1951 104.848 59.347 105.367C59.499 105.881 59.556 106.445 59.518 107.053C59.4547 108.149 59.0874 109.036 58.4163 109.714C57.7515 110.385 56.8334 110.835 55.6684 111.063V112.058C55.6684 112.362 55.6177 112.628 55.5228 112.863C55.4214 113.097 55.2885 113.287 55.1239 113.445C54.9592 113.604 54.7693 113.724 54.5604 113.8C54.3514 113.876 54.1235 113.921 53.8892 113.921C53.4143 113.921 52.9964 113.762 52.6419 113.452C52.2873 113.141 52.1037 112.672 52.1037 112.052V111.101C51.5465 111.038 51.0337 110.917 50.5651 110.753C50.0966 110.588 49.6914 110.366 49.3431 110.088C48.9759 109.783 48.7226 109.397 48.6023 108.934C48.4757 108.472 48.5517 108.022 48.8303 107.585C48.9759 107.376 49.1722 107.205 49.4254 107.091C49.6787 106.97 49.932 106.907 50.1979 106.894C50.5271 106.882 50.7867 106.932 50.983 107.053C51.173 107.173 51.3629 107.287 51.5465 107.389C51.7681 107.522 52.0467 107.642 52.3823 107.743C52.7115 107.851 53.2054 107.902 53.8702 107.902C54.3957 107.902 54.801 107.819 55.0795 107.655C55.3581 107.49 55.5038 107.198 55.5164 106.774C55.5164 106.59 55.4468 106.419 55.3075 106.261C55.1682 106.102 54.9782 105.95 54.7313 105.817C54.4844 105.678 54.1931 105.545 53.8512 105.412C53.5093 105.279 53.1357 105.146 52.7432 105.013C52.5976 104.975 52.4393 104.918 52.2683 104.854C52.0974 104.791 51.9517 104.734 51.8314 104.696C51.116 104.392 50.5335 104.012 50.0839 103.555C49.6344 103.099 49.2988 102.605 49.0835 102.079C48.8683 101.553 48.7543 101.009 48.748 100.451C48.7416 99.8935 48.8176 99.3676 48.9759 98.8671C49.1975 98.1258 49.5774 97.524 50.1156 97.0551C50.6538 96.5863 51.3122 96.2442 52.11 96.0351V95.0404C52.11 94.4195 52.2873 93.9507 52.6482 93.6402C53.0028 93.3298 53.4207 93.1714 53.8955 93.1714C54.1361 93.1714 54.3577 93.2094 54.5667 93.2918C54.7756 93.3678 54.9656 93.4882 55.1302 93.6466C55.2948 93.8049 55.4278 94.0014 55.5291 94.2294C55.6304 94.4639 55.6747 94.73 55.6747 95.0341V95.8704C56.1622 95.9337 56.5675 96.0288 56.884 96.1365C57.2006 96.2505 57.4855 96.3645 57.7388 96.4849C58.1757 96.7383 58.5176 97.0741 58.7709 97.505C59.0241 97.9358 59.0748 98.3793 58.9291 98.8418C58.8088 99.2283 58.5999 99.5007 58.296 99.6781C57.9921 99.8491 57.6628 99.9378 57.3019 99.9378C57.1563 99.9378 56.9917 99.9125 56.8144 99.8618C56.6371 99.8111 56.4978 99.7478 56.4092 99.6844C56.1812 99.526 55.8963 99.3866 55.5481 99.2663C55.1998 99.1459 54.7313 99.0889 54.1488 99.0889C53.6866 99.0889 53.332 99.1712 53.0851 99.3296C52.8382 99.488 52.7115 99.7604 52.6989 100.141L52.6925 100.122Z" fill="white"/>
<path d="M109.721 172.982C116.173 172.982 121.403 167.748 121.403 161.292C121.403 154.836 116.173 149.603 109.721 149.603C103.269 149.603 98.0391 154.836 98.0391 161.292C98.0391 167.748 103.269 172.982 109.721 172.982Z" fill="#FF4747"/>
<path d="M169.865 160.779C175.529 160.779 180.122 156.184 180.122 150.515C180.122 144.847 175.529 140.251 169.865 140.251C164.2 140.251 159.607 144.847 159.607 150.515C159.607 156.184 164.2 160.779 169.865 160.779Z" fill="#FF4747"/>
<path d="M104.187 133.77C107.923 142.817 114.128 155.894 125.158 157.199C129.583 157.725 134.516 155.964 136.187 151.548C138.232 146.15 135.187 139.998 133.173 135.056C132.344 133.022 128.994 133.909 129.837 135.975C131.324 139.637 133.522 143.939 133.389 147.987C133.199 153.892 126.721 154.773 122.308 152.872C118.364 151.174 115.932 147.765 113.615 144.293C111.209 140.688 109.177 136.855 107.524 132.851C106.688 130.824 103.339 131.711 104.187 133.77Z" fill="#FFF06C"/>
<path d="M140.391 135.366C141.91 139.643 143.563 144.097 147.159 147.087C149.882 149.356 154.542 151.225 158.075 150.147C167.731 147.189 164.495 135.519 160.183 129.468C158.898 127.669 155.897 129.398 157.195 131.217C160.05 135.221 164.552 146.276 156.119 146.948C149.046 147.512 145.646 139.839 143.734 134.448C142.993 132.363 139.65 133.263 140.397 135.366H140.391Z" fill="#FFF06C"/>
</g>
<defs>
<clipPath id="clip0_520_2178">
<rect width="227" height="203" fill="white" transform="translate(30 62)"/>
</clipPath>
</defs>
</svg>
