<svg width="270" height="270" viewBox="0 0 270 270" fill="none" xmlns="http://www.w3.org/2000/svg">
<g clip-path="url(#clip0_520_2172)">
<path d="M168.232 100.104C180.387 92.7645 183.344 77.3084 176.561 68.1598C172.623 62.8488 166.008 60.4493 158.926 61.0277V61.0199C160.546 48.8504 152.455 37.7204 140.85 36.165C129.245 34.6097 118.524 43.2151 116.903 55.3846C116.646 57.3229 116.634 59.2339 116.845 61.0863C109.268 60.1328 102.096 62.587 98.0559 68.2927C91.6164 77.3866 95.5705 91.299 106.887 99.3612C106.887 99.3612 134.028 120.761 168.232 100.108V100.104Z" fill="#FF7272"/>
<path d="M111.232 99.0605C111.232 99.0605 70.8646 131.915 86.4083 165.09C89.7781 172.281 95.6294 178.194 102.906 182.164C114.625 188.558 136.347 195.959 160.484 182.199C172.129 175.56 179.869 164.234 180.925 151.58C182.004 138.672 177.719 120.762 157.777 99.0605H111.228H111.232Z" fill="#FF7272"/>
<path d="M152.736 94.3786C152.241 94.3786 151.817 93.9995 151.766 93.4954C151.716 92.96 152.105 92.4832 152.639 92.4285C152.861 92.405 157.886 91.8071 157.972 86.2656C157.98 85.7263 158.432 85.312 158.961 85.3042C159.499 85.312 159.928 85.7575 159.92 86.2968C159.83 92.151 155.245 94.1402 152.83 94.3747C152.798 94.3747 152.767 94.3786 152.736 94.3786Z" fill="#27292D"/>
<path d="M119.9 67.8588C118.77 70.4068 118.061 73.0877 117.823 75.8702C117.617 78.2697 117.718 81.017 119.479 82.8616C121.24 84.7061 124.103 85.093 126.433 84.6202C128.938 84.1082 130.313 81.9236 131.045 79.6414C132.015 76.6244 132.393 73.3573 132.378 70.1997C132.37 68.9413 130.422 68.9413 130.43 70.1997C130.445 72.7477 130.157 75.2761 129.549 77.7538C129.136 79.4264 128.571 81.4899 126.951 82.3848C126.024 82.8967 124.836 82.8967 123.811 82.7834C122.899 82.6818 121.941 82.3926 121.213 81.8142C119.678 80.5949 119.631 78.3713 119.728 76.5853C119.872 73.9279 120.511 71.2822 121.587 68.8514C121.801 68.3707 121.727 67.8002 121.236 67.5149C120.819 67.2726 120.118 67.382 119.904 67.8666L119.9 67.8588Z" fill="#FFF06C"/>
<path d="M138.349 69.4456C137.477 72.1499 136.76 75.0966 136.76 77.9533C136.76 80.5717 137.664 83.1978 139.896 84.7141C141.828 86.0233 144.742 86.5782 146.939 85.6911C149.319 84.7298 150.963 82.6351 151.443 80.1261C152.058 76.8903 152.109 73.6154 151.641 70.3562C151.567 69.8325 150.905 69.5472 150.441 69.6723C149.88 69.8247 149.686 70.3483 149.76 70.8759C150.11 73.3301 150.114 75.8664 149.775 78.3246C149.623 79.4071 149.475 80.5521 148.93 81.5135C148.474 82.3185 147.792 82.9985 147.009 83.4831C145.319 84.5265 143.094 84.2647 141.396 83.3385C139.483 82.299 138.743 80.2278 138.708 78.137C138.665 75.3897 139.389 72.5603 140.227 69.9654C140.613 68.7656 138.735 68.2537 138.349 69.4456Z" fill="#FFF06C"/>
<path d="M81.4185 86.7971L73.035 68.1169C71.9832 65.7721 69.3069 64.6349 66.8955 65.5103C64.4568 66.3974 63.1283 69.0353 63.8607 71.5325L66.7513 81.3376L66.4124 80.4544C65.5514 78.2151 63.1634 76.9646 60.8377 77.5391C58.2042 78.1878 56.7394 80.853 57.503 83.4597C56.5797 81.3025 53.88 80.5717 51.7296 81.5057C49.6571 82.4084 48.6598 84.7806 49.4584 86.8987L54.4176 100.006C56.3382 105.079 60.5845 109.514 65.8826 110.609C69.077 111.269 73.4752 110.925 76.771 108.291C81.6639 104.379 83.2456 99.8303 83.6118 95.9809C83.8767 93.2375 82.5405 89.3099 81.4107 86.7971H81.4185Z" fill="#27292D"/>
<path d="M58.2158 85.7846L59.443 89.3682C60.1481 91.5137 63.1555 92.5142 65.4618 91.7521L64.9008 91.8732C67.207 91.1073 69.0653 88.6296 68.3601 86.4841L64.6437 77.2183" fill="#27292D"/>
<path d="M63.8251 92.7879C63.0655 92.7879 62.298 92.6511 61.5773 92.3815C60.1554 91.8461 59.1036 90.8378 58.7023 89.6107L57.4791 86.0388C57.3388 85.6324 57.557 85.1869 57.9621 85.0462C58.3673 84.9055 58.8114 85.1244 58.9516 85.5308L60.1788 89.1144C60.4359 89.896 61.1449 90.5526 62.1227 90.9199C62.8901 91.2091 63.7628 91.2912 64.5575 91.1661C64.5887 91.1505 64.6198 91.1388 64.651 91.127C66.482 90.5213 68.1727 88.4774 67.6195 86.7462L63.9147 77.5077C63.755 77.1091 63.9459 76.6518 64.3471 76.4916C64.7445 76.3314 65.2003 76.5229 65.36 76.9254L69.0765 86.1912C69.0765 86.1912 69.0882 86.2225 69.0921 86.2381C69.8673 88.5907 68.2389 91.045 66.0963 92.2017C66.0028 92.3346 65.8664 92.4401 65.7028 92.4948C65.1068 92.6902 64.4679 92.7879 63.8251 92.7879Z" fill="white"/>
<path d="M48.4102 86.1252L50.4437 92.034C51.1488 94.1795 54.1913 95.3363 56.4976 94.5703C58.8038 93.8044 60.1011 91.4478 59.392 89.3023L58.2156 85.7891" fill="#27292D"/>
<path d="M54.9743 95.5864C54.1718 95.5864 53.3498 95.4301 52.5784 95.1175C51.1565 94.5391 50.1086 93.5035 49.7034 92.2803L47.6738 86.3831C47.5336 85.9767 47.7478 85.5312 48.1569 85.3905C48.5659 85.2498 49.0061 85.4647 49.1464 85.8751L51.1799 91.7839C51.4448 92.5851 52.1655 93.269 53.1628 93.6754C54.1679 94.0818 55.321 94.1444 56.2521 93.8356C57.1792 93.5269 57.9389 92.9055 58.3908 92.0849C58.831 91.2837 58.9245 90.3849 58.6518 89.5564L57.4753 86.047C57.3389 85.6367 57.5571 85.1951 57.9662 85.0583C58.3752 84.9215 58.8154 85.1404 58.9518 85.5507L60.1282 89.064C60.5412 90.3145 60.4048 91.655 59.7543 92.843C59.1115 94.0115 58.0402 94.8947 56.739 95.3246C56.1819 95.5083 55.582 95.6021 54.9704 95.6021L54.9743 95.5864Z" fill="white"/>
<path d="M77.9981 90.9358L72.474 86.3439C70.347 84.5814 67.1993 84.8862 65.4423 87.02C63.6854 89.1538 63.9893 92.3114 66.1163 94.0739L71.6403 98.6658" fill="#27292D"/>
<path d="M71.6404 99.4436C71.4651 99.4436 71.2898 99.385 71.1457 99.2638L65.6216 94.6719C63.1673 92.6398 62.8167 88.9819 64.8425 86.5198C66.8682 84.0578 70.5146 83.7061 72.9688 85.7382L78.4929 90.3301C78.824 90.6037 78.8708 91.0961 78.5942 91.4322C78.3176 91.7644 77.8267 91.8113 77.4956 91.5338L71.9715 86.9419C70.1795 85.4608 67.5188 85.7148 66.0384 87.5125C64.5581 89.3102 64.8152 91.9832 66.6072 93.4643L72.1313 98.0562C72.4624 98.3298 72.5091 98.8222 72.2326 99.1583C72.0767 99.3459 71.8547 99.4397 71.6326 99.4397L71.6404 99.4436Z" fill="white"/>
<path d="M112.63 194.306C118.824 194.306 123.565 199.832 122.646 205.975L113.612 266.287C113.292 268.417 111.465 269.996 109.319 269.996H57.0156C54.0627 269.996 51.9707 267.108 52.8862 264.294C56.5287 253.086 66.7314 230.365 86.8642 243.328L103.179 200.817C104.683 196.893 108.442 194.306 112.63 194.306Z" fill="#27292D"/>
<path d="M93.3859 256.897C92.9028 256.897 92.4821 256.537 92.4197 256.045C90.6823 242.339 81.8274 240.554 81.4495 240.487C80.9236 240.389 80.5691 239.881 80.6665 239.354C80.76 238.826 81.2625 238.471 81.7924 238.564C82.2248 238.642 92.4275 240.604 94.3559 255.803C94.4221 256.338 94.0481 256.826 93.5144 256.897C93.4716 256.901 93.4326 256.905 93.3898 256.905L93.3859 256.897Z" fill="white"/>
<path d="M158.038 194.306C151.844 194.306 147.103 199.832 148.023 205.975L157.057 266.287C157.376 268.417 159.203 269.996 161.35 269.996H213.653C216.606 269.996 218.698 267.108 217.782 264.294C214.14 253.086 203.937 230.365 183.804 243.328L167.489 200.817C165.985 196.893 162.226 194.306 158.038 194.306Z" fill="#27292D"/>
<path d="M177.287 256.897C177.248 256.897 177.205 256.897 177.162 256.889C176.629 256.822 176.251 256.33 176.321 255.795C178.245 240.596 188.448 238.635 188.884 238.557C189.414 238.463 189.921 238.818 190.01 239.35C190.104 239.881 189.749 240.385 189.223 240.479C188.834 240.55 179.991 242.343 178.253 256.037C178.191 256.529 177.77 256.889 177.287 256.889V256.897Z" fill="white"/>
<path d="M183.609 141.849L184.774 148.649C186.02 155.941 188.56 160.541 194.03 165.79C195.354 167.06 197.505 167.173 199.02 166.051L199.118 165.981C200.598 164.887 201.015 162.949 200.091 161.44L198.058 158.118L200.52 160.545C201.887 161.893 204.166 161.975 205.69 160.729C207.15 159.537 207.435 157.516 206.348 156.051L203.792 152.596L207.224 155.226C208.732 156.379 210.949 156.231 212.316 154.886L212.877 154.335C214.307 152.928 214.287 150.724 212.834 149.392L207.922 146.039L205.892 137.484C204.462 131.462 197.863 127.945 191.544 129.836C186.098 131.466 182.701 136.605 183.601 141.861L183.609 141.849Z" fill="#27292D"/>
<path d="M201.276 162.741C201.054 162.741 200.836 162.648 200.684 162.468L196.095 157.071C195.814 156.743 195.853 156.25 196.18 155.969C196.508 155.687 196.998 155.726 197.279 156.055L201.868 161.452C202.149 161.78 202.11 162.272 201.782 162.554C201.634 162.679 201.455 162.741 201.276 162.741Z" fill="white"/>
<path d="M207.696 157.512C207.474 157.512 207.256 157.419 207.104 157.239L202.515 151.842C202.234 151.514 202.273 151.021 202.6 150.74C202.928 150.458 203.418 150.497 203.699 150.826L208.288 156.223C208.568 156.551 208.529 157.043 208.202 157.325C208.054 157.45 207.875 157.512 207.696 157.512Z" fill="white"/>
<path d="M64.5177 50.3893C65.581 48.3865 66.6072 46.477 67.8682 43.7564C68.4898 42.4165 69.0547 41.0054 69.2777 39.4542C70.3388 32.0736 65.004 25.2975 57.5778 25.0748C51.8486 24.9026 46.6453 29.0108 45.2712 34.7632C44.7781 36.8243 44.8002 38.8608 45.2407 40.7521C45.8581 43.4111 46.443 46.0773 46.7931 48.7887L47.4851 52.0783C47.6532 52.8803 48.2865 53.4846 49.0732 53.5977L60.649 55.2619C61.4741 55.3805 62.2896 54.9371 62.6499 54.1558C63.2384 52.8823 63.856 51.6247 64.5139 50.3888L64.5177 50.3893Z" fill="#FFF06C"/>
<path d="M59.0148 59.3186L49.2937 57.921C48.5881 57.8196 48.0964 57.1606 48.1982 56.4527C48.3 55.7448 48.9574 55.2511 49.663 55.3525L59.384 56.7501C60.0897 56.8515 60.5814 57.5105 60.4796 58.2184C60.3778 58.9262 59.7204 59.42 59.0148 59.3186Z" fill="#27292D"/>
<path d="M56.9106 63.5014L50.1395 62.5279C49.4338 62.4265 48.9421 61.7675 49.0439 61.0596C49.1457 60.3518 49.8031 59.858 50.5087 59.9594L57.2799 60.9329C57.9855 61.0343 58.4772 61.6933 58.3755 62.4012C58.2737 63.1091 57.6163 63.6028 56.9106 63.5014Z" fill="#27292D"/>
<path d="M53.299 53.6053C52.3882 50.3592 51.358 46.9578 51.589 43.5443C51.6913 42.0113 52.0301 40.3939 52.9519 39.1287C53.3394 38.5962 53.942 37.8813 54.6893 38.1033C55.2671 38.2732 55.6243 38.9365 55.8418 39.4495C56.1741 40.2316 56.3675 41.0767 56.4666 41.92C56.5658 42.7634 56.6202 43.699 56.3227 44.5091C56.2696 44.6594 56.1916 44.9008 56.0768 45.0146C56.0316 45.0555 56.0768 45.0699 56.0542 45.0627C55.8939 45.0278 56.0213 44.4973 56.0413 44.3581C56.173 43.5518 56.5811 42.8485 57.102 42.2364C57.5805 41.6735 58.1437 41.1504 58.741 40.7191C59.3382 40.2877 59.9638 40.1526 60.5112 40.7248C61.0587 41.297 61.1506 42.1907 61.208 42.9136C61.2725 43.7243 61.1871 44.5372 61.0147 45.3258C60.3234 48.5468 58.1535 51.1841 56.6301 54.0328C56.2485 54.7439 57.3938 55.2363 57.7705 54.5324C59.5087 51.2842 61.9887 48.2966 62.4114 44.5079C62.6099 42.744 62.452 40.0918 60.5677 39.2642C59.6944 38.8781 58.797 39.1518 58.0481 39.6798C57.2992 40.2078 56.5523 40.9137 55.9706 41.6474C55.1913 42.6329 53.6486 45.9171 55.8255 46.2972C56.7818 46.4623 57.3037 45.5424 57.5427 44.7555C57.8493 43.7455 57.8134 42.6269 57.6709 41.5917C57.4527 39.9614 56.8648 37.4803 55.0556 36.9241C53.0658 36.3103 51.6254 38.5274 51.025 40.1033C49.3148 44.6071 50.9015 49.6677 52.1331 54.0773C52.3486 54.8505 53.5035 54.373 53.2869 53.6075L53.299 53.6053Z" fill="#27292D"/>
<path d="M127.601 107.205H127.593C115.575 107.099 105.29 100.499 104.858 100.217C104.406 99.9242 104.277 99.3185 104.57 98.8651C104.862 98.4118 105.466 98.2829 105.918 98.576C106.019 98.6424 116.171 105.149 127.612 105.251C128.15 105.255 128.583 105.696 128.579 106.236C128.575 106.771 128.138 107.205 127.605 107.205H127.601Z" fill="white"/>
</g>
<defs>
<clipPath id="clip0_520_2172">
<rect width="174" height="245" fill="white" transform="translate(44 25)"/>
</clipPath>
</defs>
</svg>
