<svg width="270" height="270" viewBox="0 0 270 270" fill="none" xmlns="http://www.w3.org/2000/svg">
<path d="M180.379 182.341L231.611 199.993C233.183 200.533 234.905 199.696 235.445 198.124L252.832 147.705C253.548 145.633 251.887 143.845 249.7 143.717C238.482 143.055 216.545 152.968 219.684 170.647L185.854 163.056C180.865 161.936 175.83 164.743 174.163 169.581C172.354 174.824 175.142 180.532 180.379 182.341Z" fill="#27292D"/>
<path d="M226.562 183.447C226.366 183.447 226.171 183.393 225.995 183.272C225.712 183.076 219.043 178.468 217.558 170.458C217.457 169.911 217.821 169.378 218.368 169.277C218.915 169.176 219.448 169.54 219.549 170.087C220.872 177.246 227.068 181.551 227.129 181.592C227.588 181.909 227.71 182.536 227.392 182.995C227.197 183.285 226.879 183.441 226.555 183.441L226.562 183.447Z" fill="white"/>
<path d="M180.689 187.172H69.3914C50.9498 187.172 36 202.117 36 220.553C36 238.989 50.9498 253.934 69.3914 253.934H180.689C199.131 253.934 214.081 238.989 214.081 220.553C214.081 202.117 199.131 187.172 180.689 187.172Z" fill="#27292D"/>
<path d="M80.7381 248.178C80.4344 248.178 80.1374 248.043 79.9349 247.787C69.0812 233.839 69.6616 219.763 72.0578 210.404C74.643 200.31 79.7121 193.596 79.9281 193.312C80.2656 192.867 80.9001 192.786 81.3456 193.123C81.7911 193.461 81.8721 194.095 81.5346 194.54C81.4873 194.608 76.4722 201.261 73.995 210.978C70.7011 223.92 73.2323 235.884 81.5278 246.545C81.8721 246.984 81.7911 247.625 81.3523 247.962C81.1701 248.104 80.9474 248.178 80.7314 248.178H80.7381Z" fill="white"/>
<path d="M123.984 247.227C123.424 247.227 122.972 246.775 122.972 246.215V194.885C122.972 194.325 123.424 193.873 123.984 193.873C124.544 193.873 124.997 194.325 124.997 194.885V246.215C124.997 246.775 124.544 247.227 123.984 247.227Z" fill="white"/>
<path d="M87.9469 104.074C86.7589 99.4989 89.3846 93.6149 92.584 90.322C95.7834 87.0223 100.103 85.2409 104.437 84.195C111.025 82.616 117.565 84.5931 122.607 89.384C128.088 83.5405 136.694 81.7793 144.2 83.8104C151.706 85.8414 159.596 91.9077 159.299 101.098C159.299 101.098 176.194 96.9483 185.981 116.591C189.748 124.142 189.154 133.724 185.441 141.281C192.063 146.22 194.398 156.248 191.82 164.419C189.241 172.591 182.451 178.765 174.804 181.558C176.977 189.096 173.379 197.591 167.46 202.321C161.547 207.045 153.812 208.489 146.434 208.118C140.602 207.827 134.46 206.289 130.363 201.849C126.205 206.275 117.525 211.842 111.652 212.018C103.843 212.247 95.7024 211.161 89.1078 206.701C82.5065 202.24 78.1664 191.795 79.6918 183.616C71.1331 185.614 60.8058 180.58 57.5254 171.909C54.245 163.238 56.0945 151.747 63.1345 145.762C63.1345 145.762 51.9231 129.304 63.0873 113.507C73.7925 98.3653 87.9401 104.094 87.9401 104.094L87.9469 104.074Z" fill="#9A9FF7"/>
<path d="M102.93 199.662C102.93 199.662 107.25 180.64 135.424 188.225L145.92 191.45C149.247 192.469 151.083 196.025 149.99 199.332L149.942 199.48C148.869 202.712 145.501 204.541 142.241 203.677C138.083 202.577 133.21 201.288 133.21 201.288L141.66 204.163C144.961 205.283 146.75 208.846 145.683 212.159L145.319 213.299C144.246 216.626 140.702 218.475 137.361 217.449L129.18 214.926L137.489 218.198C140.634 219.44 142.275 222.915 141.215 226.127C140.094 229.528 136.733 231.68 133.176 231.242C120.911 229.737 95.3701 223.698 102.937 199.662H102.93Z" fill="#27292D"/>
<path d="M134.709 232.389C134.27 232.389 134 232.348 133.986 232.348C101.823 229.177 100.433 211.93 100.386 211.201C100.352 210.641 100.777 210.162 101.337 210.128C101.891 210.094 102.37 210.519 102.411 211.073C102.411 211.14 102.748 215.175 106.737 219.514C110.483 223.583 118.293 228.765 134.243 230.337C134.803 230.418 139.352 230.877 140.324 224.743C140.324 224.703 140.338 224.663 140.351 224.629C140.351 224.629 140.419 224.366 140.446 223.954C140.594 221.774 139.197 219.764 137.044 219.069L129.768 216.7C129.234 216.525 128.944 215.958 129.12 215.425C129.295 214.892 129.869 214.602 130.395 214.777L137.672 217.146C140.709 218.137 142.68 220.992 142.464 224.096C142.43 224.602 142.349 224.966 142.316 225.115C141.242 231.734 136.531 232.389 134.709 232.389Z" fill="white"/>
<path d="M159.575 171.551C160.682 164.871 166.71 160.114 173.466 160.654C183.665 161.477 196.915 164.378 198.717 173.798L202.045 196.916C202.045 196.916 224.434 190.924 232.115 216.188C232.777 218.36 231.13 220.56 228.855 220.56H179.015C177.125 220.56 175.599 219.022 175.619 217.132L176.612 188.178L169.308 186.376C162.693 184.723 158.461 178.272 159.582 171.551H159.575Z" fill="#27292D"/>
<path d="M188.951 208.279C188.809 208.279 188.668 208.245 188.539 208.185C188.074 207.955 187.885 207.395 188.114 206.929C188.33 206.491 193.548 196.099 204.192 194.669C204.705 194.601 205.178 194.959 205.245 195.472C205.313 195.985 204.955 196.457 204.442 196.524C194.803 197.82 189.849 207.658 189.802 207.753C189.64 208.083 189.302 208.279 188.958 208.279H188.951Z" fill="white"/>
<path d="M202.404 196.559C201.803 196.559 201.31 196.079 201.297 195.479C200.811 172.456 191.847 165.35 191.759 165.276C191.273 164.905 191.179 164.217 191.55 163.731C191.921 163.245 192.603 163.144 193.089 163.508C193.494 163.812 202.991 171.194 203.504 195.425C203.518 196.032 203.032 196.538 202.424 196.552H202.397L202.404 196.559Z" fill="white"/>
<path d="M239.845 105.444C236.747 102.88 232.17 103.217 229.484 106.22L220.392 116.389L222.558 102.448C223.206 98.2843 220.284 94.4043 216.106 93.8713L215.883 93.8443C211.921 93.3382 208.262 96.0305 207.56 99.9577L204.827 115.329C200.5 116.733 196.943 119.621 195.12 123.73C191.327 132.293 196.491 142.88 206.656 147.388C216.821 151.895 228.141 148.609 231.941 140.046C233.696 136.085 233.534 131.686 231.839 127.657L241.012 115.795C243.483 112.603 242.977 108.021 239.865 105.45L239.845 105.444Z" fill="#27292D"/>
<path d="M209.558 132.003C207.588 132.003 205.07 131.295 202.046 129.041C201.6 128.703 201.506 128.069 201.843 127.624C202.181 127.172 202.815 127.084 203.261 127.421C209.754 132.273 212.967 128.825 213.102 128.683C215.235 126.153 215.633 123.636 214.27 121.213C213.696 120.201 212.819 119.29 211.739 118.595C208.566 116.551 205.583 115.849 202.876 116.503C198.9 117.468 196.768 121.099 196.747 121.132C196.471 121.618 195.85 121.787 195.364 121.504C194.878 121.227 194.709 120.613 194.986 120.127C195.087 119.945 197.537 115.727 202.37 114.54C205.644 113.737 209.167 114.526 212.832 116.888C214.196 117.765 215.303 118.919 216.032 120.215C217.058 122.037 218.245 125.728 214.634 129.999C214.601 130.033 212.846 132.01 209.558 132.01V132.003Z" fill="white"/>
<path d="M223.732 139.615C223.685 139.615 223.638 139.615 223.584 139.601C218.481 138.859 216.146 136.733 215.093 135.073C213.911 133.224 213.999 131.564 214.013 131.382C214.485 125.802 217.941 124.027 219.952 123.467C221.39 123.069 222.99 123.035 224.569 123.379C228.828 124.304 231.879 126.234 233.628 129.115C236.199 133.366 234.951 138.09 234.89 138.285C234.741 138.825 234.181 139.142 233.648 138.994C233.108 138.845 232.791 138.292 232.939 137.752C232.953 137.712 234.012 133.643 231.886 130.147C230.435 127.765 227.829 126.153 224.144 125.357C222.882 125.087 221.62 125.1 220.499 125.417C217.819 126.166 216.314 128.224 216.031 131.544C216.024 131.726 215.855 136.43 223.881 137.597C224.434 137.678 224.819 138.191 224.738 138.744C224.664 139.25 224.232 139.608 223.739 139.608L223.732 139.615Z" fill="white"/>
<path d="M128.993 156.906L128.987 156.904C127.606 156.472 126.137 157.241 125.706 158.621L124.783 161.571C124.352 162.951 125.121 164.42 126.502 164.851L126.508 164.853C127.889 165.285 129.358 164.516 129.789 163.136L130.712 160.186C131.143 158.806 130.374 157.337 128.993 156.906Z" fill="white"/>
<path d="M124.971 155.02L124.965 155.018C123.64 154.437 122.095 155.039 121.514 156.363L120.058 159.682C119.477 161.006 120.079 162.55 121.404 163.131L121.41 163.134C122.734 163.715 124.279 163.112 124.86 161.788L126.317 158.47C126.898 157.146 126.295 155.601 124.971 155.02Z" fill="white"/>
<path d="M137.746 160.688C124.206 160.688 119.305 153.636 119.083 153.306C118.664 152.685 118.833 151.848 119.454 151.43C120.075 151.018 120.905 151.18 121.324 151.794C121.546 152.118 126.771 159.405 142.106 157.746C142.849 157.671 143.51 158.204 143.591 158.94C143.672 159.682 143.132 160.343 142.397 160.424C140.743 160.6 139.197 160.681 137.753 160.681L137.746 160.688Z" fill="#27292D"/>
<path d="M214.917 222.713H181.965C179.798 222.713 177.773 221.849 176.275 220.283C174.776 218.718 174.007 216.66 174.101 214.494L174 188.886C174 188.326 174.452 187.874 175.006 187.867C175.566 187.867 176.018 188.319 176.018 188.873L176.119 214.528C176.045 216.188 176.619 217.713 177.733 218.88C178.846 220.047 180.345 220.688 181.958 220.688H214.911C215.471 220.688 215.923 221.14 215.923 221.7C215.923 222.261 215.471 222.713 214.911 222.713H214.917Z" fill="white"/>
<path d="M140.231 219.717C139.482 219.717 138.719 219.615 137.963 219.4L129.843 217.078C129.094 216.862 128.662 216.08 128.871 215.331C129.087 214.582 129.87 214.143 130.619 214.359L138.739 216.68C141.621 217.503 144.645 215.83 145.482 212.955C146.319 210.074 144.659 207.044 141.783 206.194L132.664 203.515C131.915 203.293 131.49 202.51 131.706 201.761C131.922 201.012 132.712 200.587 133.461 200.803L142.58 203.482C146.947 204.77 149.465 209.366 148.196 213.738C147.143 217.348 143.822 219.71 140.231 219.71V219.717Z" fill="white"/>
<path opacity="0.5" d="M104.2 158.885C110.69 158.885 115.951 153.626 115.951 147.137C115.951 140.649 110.69 135.39 104.2 135.39C97.7095 135.39 92.4482 140.649 92.4482 147.137C92.4482 153.626 97.7095 158.885 104.2 158.885Z" fill="#BCBFF9"/>
<path d="M135.648 125.079C135.581 125.079 135.52 125.079 135.452 125.066C134.771 124.958 134.305 124.317 134.413 123.635C135.506 116.624 140.9 110.909 147.838 109.404C148.513 109.256 149.182 109.688 149.323 110.362C149.472 111.037 149.04 111.705 148.365 111.847C142.432 113.136 137.822 118.021 136.883 124.02C136.789 124.641 136.256 125.079 135.648 125.079Z" fill="#FF4747"/>
<path d="M151.983 120.235C153.279 122.36 154.021 124.85 154.021 127.522C154.021 133.406 150.396 138.434 145.26 140.519C146.886 141.072 148.628 141.376 150.437 141.376C159.306 141.376 166.501 134.189 166.501 125.316C166.501 123.015 166.015 120.829 165.145 118.852C160.724 119.317 156.262 119.79 151.983 120.235Z" fill="white"/>
<path d="M154.021 127.516C154.021 124.85 153.272 122.354 151.982 120.228C145.489 120.91 139.455 121.544 134.71 122.036C134.494 123.096 134.372 124.189 134.372 125.309C134.372 132.367 138.928 138.353 145.253 140.512C150.389 138.433 154.014 133.4 154.014 127.516H154.021Z" fill="#FF4747"/>
<path d="M104.355 129.425C104.288 129.425 104.227 129.425 104.16 129.412C103.478 129.304 103.012 128.663 103.12 127.981C104.214 120.97 109.607 115.255 116.545 113.757C117.22 113.608 117.889 114.04 118.03 114.715C118.179 115.39 117.747 116.058 117.072 116.199C111.139 117.482 106.529 122.374 105.59 128.366C105.496 128.986 104.963 129.425 104.355 129.425Z" fill="#FF4747"/>
<path d="M120.69 124.58C121.986 126.706 122.728 129.196 122.728 131.868C122.728 137.752 119.103 142.779 113.967 144.864C115.594 145.417 117.335 145.721 119.144 145.721C128.013 145.721 135.208 138.534 135.208 129.661C135.208 127.36 134.723 125.174 133.852 123.197C129.431 123.662 124.969 124.135 120.69 124.58Z" fill="white"/>
<path d="M122.735 131.868C122.735 129.202 121.985 126.706 120.696 124.58C114.203 125.262 108.169 125.896 103.423 126.388C103.207 127.448 103.086 128.541 103.086 129.661C103.086 136.719 107.642 142.705 113.967 144.864C119.103 142.786 122.728 137.752 122.728 131.868H122.735Z" fill="#FF4747"/>
<path d="M95.4997 128.77C94.8112 128.77 94.251 128.21 94.251 127.522C94.251 126.834 94.791 126.287 95.4659 126.274C97.0454 126.179 141.419 121.071 164.706 118.385C165.387 118.311 166.015 118.797 166.089 119.485C166.17 120.174 165.678 120.794 164.989 120.869C153.562 122.191 96.5054 128.777 95.4929 128.777L95.4997 128.77Z" fill="#FF4747"/>
</svg>
