<svg width="270" height="270" viewBox="0 0 270 270" fill="none" xmlns="http://www.w3.org/2000/svg">
<g clip-path="url(#clip0_520_2173)">
<path d="M185.822 76.6528L152.213 38.6861C150.006 36.1912 146.9 34.2577 143.768 34.1424C133.571 33.4769 128.046 31.0786 125.585 29.2641C124.757 28.6544 123.569 29.1526 123.427 30.1677C122.599 36.0239 126.907 40.2887 130.45 42.7501L102.613 71.0272C97.9948 75.7158 97.9948 83.0296 102.606 87.7071L135.449 117.921C140.658 123.197 149.36 123.424 154.882 118.423L186.151 90.1128C190.642 86.045 189.813 81.1519 185.822 76.6454V76.6528Z" fill="#27292D"/>
<path d="M105.888 195.245C112.347 195.245 117.29 200.968 116.331 207.326L105.545 266.163C105.212 268.368 103.308 270 101.068 270H46.5326C43.4562 270 41.2721 267.011 42.2278 264.096C46.0248 252.495 56.6616 228.977 77.6552 242.392L96.0315 201.979C97.5996 197.919 101.52 195.242 105.888 195.242V195.245Z" fill="#27292D"/>
<path d="M84.4542 256.358C83.9913 256.358 83.588 256.016 83.5283 255.547C81.7101 241.295 72.4174 239.444 72.0253 239.373C71.5213 239.28 71.1816 238.8 71.2712 238.295C71.3608 237.789 71.8424 237.454 72.3502 237.544C72.7982 237.622 83.379 239.641 85.3801 255.317C85.4436 255.826 85.0852 256.291 84.5737 256.358C84.5326 256.362 84.4953 256.365 84.4542 256.365V256.358Z" fill="white"/>
<path d="M164.112 195.245C157.653 195.245 152.71 200.968 153.669 207.326L164.455 266.163C164.788 268.368 166.692 270 168.932 270H223.467C226.544 270 228.728 267.011 227.772 264.096C223.975 252.495 213.338 228.977 192.345 242.392L173.968 201.979C172.4 197.919 168.48 195.242 164.112 195.242V195.245Z" fill="#27292D"/>
<path d="M185.546 256.358C185.509 256.358 185.468 256.358 185.427 256.35C184.915 256.287 184.553 255.819 184.62 255.309C186.621 239.637 197.202 237.618 197.65 237.536C198.158 237.447 198.643 237.785 198.729 238.291C198.819 238.797 198.479 239.276 197.975 239.366C197.572 239.44 188.29 241.295 186.472 255.54C186.412 256.008 186.009 256.35 185.546 256.35V256.358Z" fill="white"/>
<path d="M136.04 87.2048L89.3108 138.568C83.7479 144.279 83.789 153.14 89.4079 158.773L127.912 197.383C134.255 203.745 144.798 203.964 151.455 197.874L190.37 161.562C195.787 156.605 196.224 148.474 191.363 143.038L157.055 87.6064C151.593 81.5011 141.785 81.3152 136.043 87.2048H136.04Z" fill="#27292D"/>
<path d="M141.117 97.5418C140.867 97.5418 140.632 97.5343 140.408 97.5195C139.893 97.486 139.505 97.0435 139.538 96.5304C139.572 96.0173 140.02 95.6343 140.531 95.6641C140.554 95.6641 142.727 95.7905 144.989 94.9836C147.886 93.9537 149.6 91.9161 150.082 88.9267C150.164 88.421 150.642 88.0752 151.149 88.157C151.657 88.2388 152.004 88.7147 151.922 89.2204C150.854 95.8537 144.75 97.5418 141.114 97.5418H141.117Z" fill="#737C89"/>
<path d="M137.208 109.165L144.518 109.927C145.385 110.016 145.836 110.998 145.34 111.712L142.002 116.493L144.858 127.224C144.929 127.484 144.896 127.763 144.765 128.001L137.092 142.052C136.626 142.904 135.353 142.736 135.129 141.792L131.466 126.387C131.399 126.112 131.447 125.822 131.6 125.58L137.738 115.85L136.002 110.659C135.737 109.871 136.379 109.079 137.208 109.165Z" fill="#FF4747"/>
<path d="M126.12 48.2462C125.769 46.1454 123.589 44.7585 121.248 45.1452C120.146 45.3274 119.209 45.874 118.56 46.6177C114.326 45.3237 107.878 46.9709 98.1972 58.3152C86.5523 71.9573 91.5664 81.699 93.7281 84.7405C94.1687 85.3615 94.7101 85.9155 95.3336 86.3543C102.562 91.4408 109.599 85.8449 109.599 85.8449L112.437 68.6704L121.356 52.7973C121.733 52.8271 122.122 52.8159 122.514 52.7527C124.854 52.366 126.464 50.347 126.113 48.25L126.12 48.2462Z" fill="#27292D"/>
<path d="M122.458 52.1312C122.118 52.1312 121.808 51.8969 121.73 51.5511C120.919 47.9891 118.205 46.4832 118.179 46.4683C117.817 46.2713 117.683 45.8214 117.88 45.4607C118.078 45.1 118.53 44.9662 118.892 45.1632C119.027 45.2376 122.23 47.0149 123.186 51.2239C123.275 51.6255 123.025 52.0234 122.622 52.1126C122.566 52.1237 122.51 52.1312 122.458 52.1312Z" fill="white"/>
<path d="M100.359 89.8933C98.9776 89.8933 97.9098 89.7037 97.4618 89.5513C96.9727 89.3877 96.7077 88.8634 96.8719 88.3763C97.0325 87.8966 97.5514 87.6327 98.0331 87.7814C98.2384 87.8334 106.213 89.5959 109.891 82.6242C110.13 82.1706 110.693 81.9958 111.153 82.2338C111.608 82.4718 111.784 83.0332 111.545 83.4906C108.741 88.8076 103.656 89.8933 100.363 89.8933H100.359Z" fill="white"/>
<path d="M161.532 48.5243C161.801 46.4124 163.926 44.94 166.278 45.2374C167.386 45.375 168.342 45.8844 169.022 46.602C173.203 45.1407 179.707 46.5388 189.832 57.4927C198.565 66.9444 198.655 74.7229 197.255 79.5194C195.5 85.5355 189.224 89.0752 183.22 87.2124C180.98 86.5171 179.524 85.4499 179.524 85.4499L176.011 68.3982L166.472 52.8858C166.098 52.9304 165.71 52.9341 165.314 52.8858C162.962 52.5883 161.271 50.6363 161.54 48.5243H161.532Z" fill="#27292D"/>
<path d="M165.315 52.2611C165.315 52.2611 165.281 52.2611 165.266 52.2611C164.855 52.2351 164.542 51.8818 164.568 51.4728C164.87 46.7656 168.57 45.1779 168.727 45.1147C169.108 44.9548 169.545 45.137 169.705 45.5163C169.862 45.8955 169.687 46.3305 169.306 46.4867C169.175 46.5425 166.304 47.8178 166.061 51.5695C166.035 51.9636 165.707 52.2648 165.318 52.2648L165.315 52.2611Z" fill="white"/>
<path d="M188.294 89.1457C185.031 89.1457 180.334 88.0786 177.493 83.1706C177.236 82.7244 177.389 82.1592 177.837 81.8989C178.285 81.6424 178.852 81.7948 179.11 82.241C183.086 89.1086 190.99 86.9669 191.068 86.9408C191.55 86.7586 192.08 87.004 192.259 87.4874C192.442 87.9671 192.188 88.5062 191.707 88.6884C191.21 88.8743 189.933 89.1457 188.294 89.1457Z" fill="white"/>
<path d="M111.036 61.4155C109.987 62.9474 109.173 64.6764 108.661 66.5653C106.22 75.6117 111.603 84.9184 120.687 87.3501C129.771 89.7818 139.116 84.4201 141.557 75.3737C142.069 73.4811 142.233 71.5811 142.095 69.7332L111.036 61.4192V61.4155Z" fill="white"/>
<path d="M142.095 69.7292L127.06 65.7061C125.496 67.1153 124.369 69.0487 123.984 71.3317C123.23 75.8159 125.784 80.3038 130.04 81.9547C135.558 84.0926 141.558 80.9656 143.051 75.4292L143.548 72.0754C143.701 71.0454 143.088 70.0564 142.099 69.7292H142.095Z" fill="#FF4747"/>
<path d="M141.796 67.5913C140.549 61.4971 135.972 56.314 129.528 54.5887C122.345 52.6664 115.001 55.6224 111.032 61.4153L127.056 65.7062L142.091 69.7293C142.039 69.0079 141.935 68.294 141.793 67.5913H141.796Z" fill="#27292D"/>
<path d="M149.271 69.0529C149.159 70.9046 149.349 72.8046 149.883 74.686C152.441 83.699 161.857 88.9417 170.907 86.3947C179.957 83.8477 185.221 74.4704 182.664 65.4574C182.13 63.5723 181.29 61.8544 180.222 60.3374L149.271 69.0529Z" fill="white"/>
<path d="M180.218 60.3374L165.235 64.5576C164.619 66.5691 164.642 68.8038 165.489 70.9603C167.151 75.1954 171.653 77.7461 176.156 76.9913C181.995 76.0134 185.535 70.2613 183.97 64.7472L182.671 61.6165C182.271 60.6572 181.237 60.118 180.218 60.3411V60.3374Z" fill="#FF4747"/>
<path d="M178.863 58.653C174.655 54.0573 168.058 51.9416 161.637 53.7487C154.476 55.7639 149.693 62.0514 149.268 69.0528L165.236 64.5575L180.218 60.3373C179.8 59.7424 179.345 59.1847 178.863 58.653Z" fill="#27292D"/>
<path d="M124.768 90.7152C113.952 90.7152 105.148 81.9513 105.148 71.176C105.148 60.4006 113.948 51.6367 124.768 51.6367C135.588 51.6367 144.388 60.4006 144.388 71.176C144.388 81.9513 135.588 90.7152 124.768 90.7152ZM124.768 54.3436C115.449 54.3436 107.866 61.8953 107.866 71.176C107.866 80.4566 115.449 88.0083 124.768 88.0083C134.087 88.0083 141.67 80.4566 141.67 71.176C141.67 61.8953 134.087 54.3436 124.768 54.3436Z" fill="#575FF1"/>
<path d="M166.195 89.7186C155.379 89.7186 146.575 80.9548 146.575 70.1794C146.575 59.404 155.375 50.6401 166.195 50.6401C177.015 50.6401 185.814 59.404 185.814 70.1794C185.814 80.9548 177.015 89.7186 166.195 89.7186ZM166.195 53.347C156.876 53.347 149.293 60.8987 149.293 70.1794C149.293 79.46 156.876 87.0117 166.195 87.0117C175.514 87.0117 183.096 79.46 183.096 70.1794C183.096 60.8987 175.514 53.347 166.195 53.347Z" fill="#575FF1"/>
<path d="M151.813 58.6713C151.56 58.6713 151.306 58.6006 151.078 58.4556C143.667 53.6814 138.545 58.1284 138.328 58.3218C137.772 58.82 136.913 58.7791 136.413 58.2251C135.912 57.6748 135.946 56.8233 136.499 56.3214C136.566 56.2582 143.338 50.2421 152.556 56.1838C153.187 56.5891 153.367 57.4257 152.96 58.0541C152.698 58.4556 152.262 58.6713 151.817 58.6713H151.813Z" fill="#575FF1"/>
</g>
<defs>
<clipPath id="clip0_520_2173">
<rect width="186" height="241" fill="white" transform="translate(42 29)"/>
</clipPath>
</defs>
</svg>
