<svg width="116" height="112" viewBox="0 0 116 112" fill="none" xmlns="http://www.w3.org/2000/svg">
<g clip-path="url(#clip0_502_1938)">
<path fill-rule="evenodd" clip-rule="evenodd" d="M95.3375 92.1506C87.6036 104.097 74.1814 112 58.9185 112C43.6365 112 30.1998 104.078 22.4704 92.1056C21.9961 92.1376 21.5175 92.1539 21.0351 92.1539C9.41775 92.1539 0 82.7108 0 71.0621C0 59.8873 8.66692 50.7424 19.6284 50.0166C26.5578 35.2294 41.5457 24.9912 58.9185 24.9912C76.3771 24.9912 91.4273 35.3308 98.3107 50.236C108.336 51.8443 115.997 60.5562 115.997 71.0621C115.997 82.585 106.782 91.9497 95.3375 92.1506Z" fill="#575FF1"/>
<path fill-rule="evenodd" clip-rule="evenodd" d="M48.2516 78.5729C48.7821 78.1296 49.5705 78.2014 50.0127 78.7333L49.0522 79.536C50.0127 78.7333 50.0124 78.7329 50.0121 78.7326L50.0117 78.7321L50.0112 78.7316C50.0113 78.7316 50.0116 78.732 50.0122 78.7327L50.0211 78.7432C50.0303 78.7539 50.0456 78.7717 50.0671 78.7962C50.1101 78.8451 50.1776 78.9205 50.2688 79.0181C50.4513 79.2135 50.7279 79.4971 51.092 79.8355C51.8218 80.5135 52.8945 81.4034 54.2573 82.2426C56.9853 83.9225 60.8106 85.3632 65.3729 84.5889C66.0538 84.4733 66.6992 84.9331 66.8144 85.6158C66.9297 86.2985 66.4711 86.9457 65.7903 87.0612C60.4485 87.9679 56.0091 86.2641 52.9485 84.3793C51.4169 83.4361 50.2143 82.4385 49.3923 81.6747C48.9805 81.2921 48.6621 80.9662 48.4436 80.7323C48.3343 80.6153 48.2498 80.5211 48.1909 80.4541C48.1615 80.4206 48.1384 80.3938 48.1218 80.3744C48.1136 80.3647 48.1069 80.3569 48.1019 80.3509L48.0956 80.3434L48.0933 80.3407L48.0924 80.3397C48.0921 80.3392 48.0917 80.3388 49.0522 79.536L48.0917 80.3388C47.6495 79.8069 47.7211 79.0163 48.2516 78.5729ZM50.0112 78.7316L50.0112 78.7316L50.0112 78.7316Z" fill="#27292D"/>
<path d="M33.6747 85.4015C39.0178 85.4015 43.3493 81.0583 43.3493 75.7008C43.3493 70.3432 39.0178 66 33.6747 66C28.3315 66 24 70.3432 24 75.7008C24 81.0583 28.3315 85.4015 33.6747 85.4015Z" fill="#FF4747"/>
<path d="M86.3993 85.3492C91.0904 85.3492 94.8933 81.5361 94.8933 76.8323C94.8933 72.1286 91.0904 68.3154 86.3993 68.3154C81.7082 68.3154 77.9053 72.1286 77.9053 76.8323C77.9053 81.5361 81.7082 85.3492 86.3993 85.3492Z" fill="#FF4747"/>
<path fill-rule="evenodd" clip-rule="evenodd" d="M62.4791 10.4735C64.8279 9.9324 66.5795 7.82333 66.5795 5.30404C66.5795 2.3747 64.2112 0 61.2898 0C58.3683 0 56 2.3747 56 5.30404C56 7.78729 57.7019 9.87196 60 10.4493V30.0126C60 30.699 60.555 31.2555 61.2395 31.2555C61.9241 31.2555 62.4791 30.699 62.4791 30.0126V10.4735Z" fill="#575FF1"/>
<path d="M30.961 52.2852C30.0902 53.5653 29.4146 55.0102 28.9901 56.5887C26.9634 64.1485 31.432 71.9259 38.9716 73.9581C46.5111 75.9902 54.2676 71.5096 56.2943 63.9497C56.7188 62.3681 56.8551 60.7803 56.7405 59.236L30.961 52.2883V52.2852Z" fill="white"/>
<path d="M50.0968 55.8991L37.6176 52.5371C36.3192 53.7147 35.3834 55.3305 35.0642 57.2383C34.4382 60.9857 36.5578 64.7361 40.0905 66.1157C44.6707 67.9023 49.6506 65.2892 50.8901 60.6625L51.3023 57.8598C51.4293 56.9991 50.9211 56.1726 50.0999 55.8991H50.0968Z" fill="#27292D"/>
<path d="M56.4927 57.4465C55.4577 52.3537 51.6585 48.0222 46.3098 46.5805C40.3476 44.9741 34.2521 47.4443 30.958 52.2854L44.2584 55.8711L56.7375 59.2331C56.6941 58.6303 56.6074 58.0337 56.4896 57.4465H56.4927Z" fill="#575FF1"/>
<path d="M63.3283 59.2121C63.2354 60.7595 63.3934 62.3472 63.8366 63.9195C65.9593 71.4514 73.7746 75.8326 81.2863 73.7042C88.798 71.5757 93.1674 63.7393 91.0446 56.2074C90.6015 54.632 89.9043 53.1965 89.018 51.9287L63.3283 59.2121Z" fill="white"/>
<path d="M81.7851 51.9284L69.3494 55.4551C68.838 57.1361 68.8566 59.0036 69.5601 60.8058C70.9391 64.3449 74.6763 66.4764 78.4136 65.8457C83.2602 65.0285 86.1979 60.2216 84.8995 55.6136L83.8211 52.9973C83.4895 52.1956 82.6311 51.7451 81.7851 51.9315V51.9284Z" fill="#27292D"/>
<path d="M87.8899 50.5207C84.3975 46.6802 78.9218 44.9121 73.5917 46.4223C67.6481 48.1064 63.6785 53.3607 63.3252 59.2116L76.5791 55.455L89.0148 51.9283C88.6678 51.4311 88.2897 50.965 87.8899 50.5207Z" fill="#575FF1"/>
<path d="M42.0517 77.007C32.8388 77.007 25.3457 69.4937 25.3457 60.2559C25.3457 51.0182 32.8388 43.5049 42.0517 43.5049C51.2647 43.5049 58.7577 51.0182 58.7577 60.2559C58.7577 69.4937 51.2647 77.007 42.0517 77.007ZM42.0517 46.6121C34.5493 46.6121 28.4446 52.7333 28.4446 60.2559C28.4446 67.7785 34.5493 73.8998 42.0517 73.8998C49.5541 73.8998 55.6589 67.7785 55.6589 60.2559C55.6589 52.7333 49.5541 46.6121 42.0517 46.6121Z" fill="#9A9FF7"/>
<path d="M77.125 76.5529C67.912 76.5529 60.4189 69.0396 60.4189 59.8018C60.4189 50.5641 67.912 43.0508 77.125 43.0508C86.3379 43.0508 93.831 50.5641 93.831 59.8018C93.831 69.0396 86.3379 76.5529 77.125 76.5529ZM77.125 46.158C69.6226 46.158 63.5178 52.2792 63.5178 59.8018C63.5178 67.3244 69.6226 73.4457 77.125 73.4457C84.6273 73.4457 90.7321 67.3244 90.7321 59.8018C90.7321 52.2792 84.6273 46.158 77.125 46.158Z" fill="#9A9FF7"/>
<path d="M63.8836 50.2973C61.4014 48.6846 58.9657 48.1844 56.6478 48.8089C55.0116 49.2502 54.0199 50.114 54.0075 50.1233L51.7051 47.6033C53.7503 45.7235 59.319 43.2656 65.7337 47.4293L63.8805 50.2973H63.8836Z" fill="#9A9FF7"/>
</g>
<defs>
<clipPath id="clip0_502_1938">
<rect width="116" height="112" fill="white"/>
</clipPath>
</defs>
</svg>
