<svg width="40" height="40" viewBox="0 0 40 40" fill="none" xmlns="http://www.w3.org/2000/svg">
<path d="M36.6885 20.4917L23.5699 5.61133C22.7087 4.63349 21.4962 3.8757 20.2735 3.83052C16.2937 3.56966 14.1369 2.62971 13.1765 1.91855C12.853 1.67956 12.3896 1.87483 12.3342 2.27267C12.0107 4.56791 13.6924 6.23942 15.0754 7.20415L4.20979 18.2869C2.40712 20.1245 2.40712 22.991 4.20687 24.8243L17.0267 36.6662C19.0596 38.7341 22.4565 38.823 24.6119 36.863L36.8167 25.7671C38.5698 24.1729 38.2463 22.2551 36.6885 20.4888V20.4917Z" fill="#27292D"/>
<path d="M19.2393 28.678C19.1417 28.678 19.0498 28.6751 18.9624 28.6693C18.7613 28.6562 18.6097 28.4827 18.6229 28.2816C18.636 28.0805 18.8109 27.9304 19.0105 27.9421C19.0192 27.9421 19.8674 27.9916 20.7505 27.6754C21.8814 27.2717 22.5503 26.4731 22.7383 25.3015C22.7703 25.1033 22.9568 24.9678 23.155 24.9998C23.3532 25.0319 23.4888 25.2184 23.4567 25.4166C23.0399 28.0164 20.6572 28.678 19.2378 28.678H19.2393Z" fill="#737C89"/>
<path d="M7.49722 14.5205C7.08772 15.1209 6.77003 15.7986 6.57038 16.5389C5.61731 20.0844 7.71873 23.732 11.2643 24.6851C14.8099 25.6382 18.4575 23.5368 19.4106 19.9912C19.6102 19.2494 19.6744 18.5047 19.6204 17.7805L7.49722 14.522V14.5205Z" fill="white"/>
<path d="M19.6197 17.778L13.7511 16.2012C13.1405 16.7535 12.7004 17.5113 12.5503 18.4061C12.256 20.1635 13.2527 21.9225 14.9141 22.5695C17.0679 23.4075 19.4098 22.1819 19.9927 20.012L20.1865 18.6975C20.2463 18.2938 20.0073 17.9062 19.6211 17.778H19.6197Z" fill="#FF4747"/>
<path d="M19.5042 16.9406C19.0174 14.5521 17.2308 12.5206 14.7155 11.8444C11.9117 11.091 9.0452 12.2496 7.49609 14.52L13.7508 16.2017L19.6193 17.7785C19.5989 17.4958 19.5581 17.216 19.5027 16.9406H19.5042Z" fill="#27292D"/>
<path d="M22.4212 17.5155C22.3775 18.2412 22.4518 18.9859 22.6602 19.7233C23.6585 23.2558 27.3338 25.3106 30.8662 24.3123C34.3987 23.3141 36.4535 19.6388 35.4552 16.1063C35.2469 15.3675 34.919 14.6942 34.5022 14.0996L22.4212 17.5155Z" fill="white"/>
<path d="M34.501 14.1002L28.6529 15.7542C28.4125 16.5426 28.4212 17.4185 28.752 18.2637C29.4005 19.9235 31.158 20.9233 32.9155 20.6274C35.1947 20.2442 36.5762 17.9897 35.9656 15.8286L35.4585 14.6015C35.3025 14.2255 34.8989 14.0142 34.501 14.1017V14.1002Z" fill="#FF4747"/>
<path d="M33.9719 13.4389C32.3295 11.6377 29.7545 10.8085 27.2479 11.5167C24.4528 12.3066 22.5861 14.7709 22.4199 17.5149L28.6528 15.7531L34.5009 14.0991C34.3377 13.8659 34.1599 13.6473 33.9719 13.4389Z" fill="#27292D"/>
<path d="M12.8573 26.0046C8.63551 26.0046 5.19922 22.5698 5.19922 18.3465C5.19922 14.1233 8.63406 10.6885 12.8573 10.6885C17.0805 10.6885 20.5154 14.1233 20.5154 18.3465C20.5154 22.5698 17.0805 26.0046 12.8573 26.0046ZM12.8573 11.7494C9.21989 11.7494 6.26013 14.7091 6.26013 18.3465C6.26013 21.9839 9.21989 24.9437 12.8573 24.9437C16.4947 24.9437 19.4544 21.9839 19.4544 18.3465C19.4544 14.7091 16.4947 11.7494 12.8573 11.7494Z" fill="#575FF1"/>
<path d="M29.0282 25.614C24.8064 25.614 21.3701 22.1792 21.3701 17.9559C21.3701 13.7327 24.805 10.2979 29.0282 10.2979C33.2514 10.2979 36.6863 13.7327 36.6863 17.9559C36.6863 22.1792 33.2514 25.614 29.0282 25.614ZM29.0282 11.3588C25.3908 11.3588 22.431 14.3185 22.431 17.9559C22.431 21.5933 25.3908 24.5531 29.0282 24.5531C32.6656 24.5531 35.6253 21.5933 35.6253 17.9559C35.6253 14.3185 32.6656 11.3588 29.0282 11.3588Z" fill="#575FF1"/>
<path d="M23.4138 13.4449C23.3147 13.4449 23.2156 13.4172 23.1267 13.3604C20.234 11.4892 18.2346 13.2321 18.1501 13.3079C17.9329 13.5032 17.5978 13.4872 17.4025 13.27C17.2072 13.0543 17.2203 12.7206 17.436 12.5239C17.4622 12.4991 20.1058 10.1412 23.7038 12.47C23.9501 12.6288 24.0201 12.9567 23.8612 13.203C23.7592 13.3604 23.5887 13.4449 23.4153 13.4449H23.4138Z" fill="#575FF1"/>
</svg>
