<svg width="40" height="40" viewBox="0 0 40 40" fill="none" xmlns="http://www.w3.org/2000/svg">
<path d="M11.8396 9.1656C11.5485 8.04419 12.1919 6.6019 12.9759 5.79475C13.7599 4.98594 14.8185 4.54929 15.8803 4.29292C17.4946 3.90588 19.0974 4.3905 20.3329 5.56484C21.676 4.13248 23.7848 3.70078 25.6241 4.19864C27.4633 4.69649 29.3968 6.18344 29.3241 8.43619C29.3241 8.43619 33.464 7.41898 35.8623 12.2338C36.7852 14.0846 36.6397 16.4333 35.73 18.2858C37.3526 19.4965 37.9249 21.9543 37.293 23.9573C36.6612 25.9603 34.9973 27.4737 33.1233 28.1585C33.6559 30.006 32.7743 32.0884 31.3237 33.2478C29.8748 34.4056 27.9794 34.7596 26.1715 34.6686C24.7425 34.5975 23.2373 34.2204 22.2334 33.1321C21.2145 34.2171 19.0874 35.5816 17.6485 35.6246C15.7348 35.6809 13.7401 35.4146 12.1241 34.3213C10.5065 33.228 9.44298 30.6676 9.81678 28.663C7.71951 29.1525 5.18889 27.9186 4.38504 25.7933C3.5812 23.6679 4.03439 20.8511 5.75952 19.384C5.75952 19.384 3.01222 15.3499 5.74794 11.4779C8.37118 7.76632 11.838 9.17056 11.838 9.17056L11.8396 9.1656Z" fill="#9A9FF7"/>
<path d="M21.8993 22.1148L21.8977 22.1143C21.5594 22.0086 21.1994 22.1971 21.0937 22.5354L20.8676 23.2584C20.7619 23.5967 20.9504 23.9566 21.2887 24.0624L21.2903 24.0629C21.6285 24.1686 21.9885 23.9801 22.0943 23.6419L22.3203 22.9188C22.426 22.5805 22.2375 22.2206 21.8993 22.1148Z" fill="white"/>
<path d="M20.9115 21.654L20.9099 21.6534C20.5854 21.511 20.2068 21.6586 20.0644 21.9832L19.7076 22.7965C19.5651 23.1211 19.7128 23.4996 20.0374 23.6421L20.0389 23.6427C20.3635 23.7851 20.742 23.6375 20.8844 23.3129L21.2413 22.4995C21.3837 22.175 21.236 21.7964 20.9115 21.654Z" fill="white"/>
<path d="M24.0428 23.0418C20.7249 23.0418 19.5241 21.3134 19.4695 21.2324C19.3669 21.0802 19.4083 20.8751 19.5605 20.7726C19.7126 20.6717 19.9161 20.7114 20.0186 20.8619C20.0732 20.9413 21.3534 22.7276 25.1113 22.3207C25.2932 22.3025 25.4553 22.4332 25.4752 22.6135C25.495 22.7954 25.3627 22.9575 25.1824 22.9773C24.7772 23.0203 24.3984 23.0402 24.0445 23.0402L24.0428 23.0418Z" fill="#27292D"/>
<path opacity="0.5" d="M15.823 22.601C17.4133 22.601 18.7026 21.3118 18.7026 19.7214C18.7026 18.131 17.4133 16.8418 15.823 16.8418C14.2326 16.8418 12.9434 18.131 12.9434 19.7214C12.9434 21.3118 14.2326 22.601 15.823 22.601Z" fill="#BCBFF9"/>
<path d="M23.5282 14.3152C23.5116 14.3152 23.4967 14.3152 23.4802 14.3119C23.3132 14.2855 23.199 14.1283 23.2255 13.9613C23.4934 12.2428 24.815 10.8418 26.5153 10.473C26.6807 10.4366 26.8444 10.5425 26.8792 10.7079C26.9156 10.8733 26.8097 11.037 26.6443 11.0717C25.1904 11.3876 24.0608 12.5851 23.8309 14.0555C23.8077 14.2077 23.677 14.3152 23.5282 14.3152Z" fill="#FF4747"/>
<path d="M27.5322 13.1281C27.8497 13.6491 28.0317 14.2595 28.0317 14.9145C28.0317 16.3567 27.1435 17.589 25.8848 18.1001C26.2834 18.2357 26.7101 18.3101 27.1534 18.3101C29.3267 18.3101 31.0899 16.5486 31.0899 14.3736C31.0899 13.8096 30.9708 13.2737 30.7575 12.7891C29.6741 12.9032 28.5808 13.019 27.5322 13.1281Z" fill="white"/>
<path d="M28.0316 14.9133C28.0316 14.2599 27.848 13.648 27.5321 13.127C25.9409 13.294 24.4623 13.4495 23.2995 13.5702C23.2466 13.8299 23.2168 14.0979 23.2168 14.3724C23.2168 16.1025 24.3332 17.5696 25.883 18.0989C27.1417 17.5894 28.0299 16.3556 28.0299 14.9133H28.0316Z" fill="#FF4747"/>
<path d="M15.8602 15.379C15.8437 15.379 15.8288 15.379 15.8122 15.3757C15.6452 15.3492 15.5311 15.1921 15.5575 15.025C15.8255 13.3065 17.147 11.9056 18.8473 11.5384C19.0127 11.502 19.1765 11.6079 19.2112 11.7733C19.2476 11.9387 19.1417 12.1024 18.9763 12.1372C17.5225 12.4514 16.3928 13.6506 16.1629 15.1193C16.1397 15.2715 16.0091 15.379 15.8602 15.379Z" fill="#FF4747"/>
<path d="M19.8642 14.1926C20.1817 14.7136 20.3637 15.3239 20.3637 15.9789C20.3637 17.4212 19.4755 18.6534 18.2168 19.1645C18.6154 19.3001 19.0421 19.3746 19.4854 19.3746C21.6588 19.3746 23.4219 17.6131 23.4219 15.438C23.4219 14.874 23.3028 14.3381 23.0895 13.8535C22.0061 13.9676 20.9128 14.0834 19.8642 14.1926Z" fill="white"/>
<path d="M20.3646 15.9777C20.3646 15.3244 20.181 14.7124 19.8651 14.1914C18.2739 14.3585 16.7953 14.5139 15.6325 14.6347C15.5796 14.8944 15.5498 15.1623 15.5498 15.4369C15.5498 17.167 16.6663 18.6341 18.2161 19.1633C19.4747 18.6539 20.3629 17.42 20.3629 15.9777H20.3646Z" fill="#FF4747"/>
<path d="M13.6908 15.2192C13.522 15.2192 13.3848 15.0819 13.3848 14.9132C13.3848 14.7445 13.5171 14.6105 13.6825 14.6072C14.0695 14.5841 24.9429 13.332 30.6492 12.6737C30.8163 12.6555 30.9701 12.7746 30.9883 12.9433C31.0081 13.112 30.8874 13.2642 30.7187 13.2824C27.9185 13.6066 13.9372 15.2209 13.6891 15.2209L13.6908 15.2192Z" fill="#FF4747"/>
</svg>
