<svg width="40" height="40" viewBox="0 0 40 40" fill="none" xmlns="http://www.w3.org/2000/svg">
<path d="M35.3471 23.2698C34.6505 31.0087 28.5059 37.0828 20.7422 36.7812C16.7457 36.626 13.206 34.8147 10.7493 32.037C4.14433 25.2521 4.83216 16.8783 5.24662 14.2663C5.31893 13.8112 5.7475 13.5026 6.20253 13.5731L7.77572 13.8165C7.4512 8.18338 8.199 5.02641 8.59935 3.78479C8.71928 3.4109 9.0826 3.16398 9.47237 3.20455C14.3965 3.73188 19.7492 8.18338 19.7492 8.18338C19.7969 7.53082 19.8868 6.83946 19.9679 6.29449C20.0455 5.76363 20.5958 5.44088 21.0967 5.63488C24.5923 6.98585 36.3312 12.3562 35.3471 23.2715V23.2698Z" fill="#FF4747"/>
<path d="M14.7528 16.6478L14.7175 16.5331C14.3983 15.5173 13.5852 14.7342 12.5605 14.4538L12.6999 14.4079C13.5958 14.1134 14.3119 13.4291 14.6452 12.5455L14.7528 12.2598L14.7581 12.2809C15.042 13.2897 15.8127 14.0887 16.8092 14.4097L16.945 14.4538L16.878 14.4732C15.8798 14.7712 15.0932 15.5455 14.7845 16.5419L14.751 16.6478H14.7528Z" fill="#F7FF8A"/>
<path d="M17.4884 26.5169C19.2651 26.5169 20.7053 25.0766 20.7053 23.2999C20.7053 21.5233 19.2651 20.083 17.4884 20.083C15.7118 20.083 14.2715 21.5233 14.2715 23.2999C14.2715 25.0766 15.7118 26.5169 17.4884 26.5169Z" fill="#FF7182"/>
<path d="M21.91 28.1954C21.8959 28.1954 21.88 28.1954 21.8641 28.1936C19.3721 27.9414 18.7442 25.7598 18.7601 24.6434C18.7636 24.4 18.9646 24.1972 19.2063 24.2095C19.4497 24.213 19.6437 24.4123 19.6401 24.6557C19.6401 24.7598 19.6507 27.0843 21.9523 27.3189C22.1939 27.3436 22.3703 27.5605 22.3456 27.8021C22.3227 28.0296 22.1304 28.1989 21.9082 28.1989L21.91 28.1954Z" fill="#27292D"/>
<path d="M33.1304 20.0129C32.8923 19.5367 32.7741 19.0323 32.7618 18.5332L28.5819 19.7942C28.2768 19.8859 28.1198 20.2263 28.2503 20.5173C29.1974 22.6443 31.6013 23.7836 33.8888 23.094C34.6507 22.8648 35.312 22.4574 35.8394 21.9318C34.7142 21.7872 33.6789 21.1029 33.1322 20.0129H33.1304Z" fill="white"/>
<path d="M36.4838 17.4099L32.7607 18.5334C32.7749 19.0325 32.8913 19.5369 33.1293 20.0131C33.6761 21.103 34.7114 21.7873 35.8366 21.9319C36.893 20.8808 37.4168 19.3552 37.1576 17.8244C37.1047 17.5122 36.7854 17.32 36.4821 17.4099H36.4838Z" fill="#27292D"/>
<path d="M23.4363 20.3641C23.4574 19.7415 23.6197 19.1578 23.8842 18.6375L18.7819 17.574C18.4733 17.5087 18.177 17.7292 18.1453 18.0431C17.8701 20.8015 19.7167 23.3782 22.4892 23.9567C23.401 24.1472 24.3075 24.0978 25.1452 23.8526C24.0694 23.0749 23.3869 21.7927 23.4363 20.3641Z" fill="white"/>
<path d="M28.4395 19.5865L23.8839 18.6377C23.6194 19.158 23.4571 19.7418 23.4359 20.3643C23.3883 21.7911 24.0691 23.0733 25.1449 23.8529C26.8504 23.3555 28.2631 22.0416 28.8345 20.2726C28.9315 19.971 28.7499 19.6518 28.4395 19.5865Z" fill="#27292D"/>
<path d="M28.7674 20.1612C28.7321 20.1612 28.6968 20.1576 28.6616 20.1488L17.3141 17.3534C17.0778 17.2952 16.9332 17.0571 16.9914 16.819C17.0496 16.5827 17.2877 16.4381 17.5258 16.4963L28.7533 19.2617L37.2365 16.588C37.4693 16.5139 37.7162 16.6444 37.7903 16.8755C37.8644 17.1065 37.7339 17.3552 37.5028 17.4293L28.9014 20.14C28.8591 20.1541 28.8132 20.1612 28.7692 20.1612H28.7674Z" fill="#27292D"/>
</svg>
