<svg width="40" height="40" viewBox="0 0 40 40" fill="none" xmlns="http://www.w3.org/2000/svg">
<path d="M11.0367 9.89631C7.48406 11.4464 5.39099 14.0613 4.39934 17.6697C2.43336 24.8231 7.91731 32.5676 16.6496 34.9669C25.3801 37.3661 34.0527 33.5131 36.0187 26.3597C37.9847 19.2063 32.5007 11.4618 23.7684 9.06255C23.6086 9.01826 23.4507 8.98167 23.2908 8.94124C22.9828 8.73135 22.6843 8.50799 22.3993 8.2673C22.0431 7.96691 21.7061 7.64342 21.4173 7.27949C21.2093 7.0157 21.0283 6.73264 20.8435 6.45344C20.3101 5.65049 19.7036 4.85331 18.864 4.3777C18.0226 3.90402 16.8903 3.827 16.1374 4.42969C15.6137 4.84946 15.348 5.52725 15.2883 6.19734C15.2286 6.8655 15.348 7.53752 15.4674 8.19798C14.8185 7.34689 14.0521 6.4284 12.9892 6.29747C12.1689 6.19734 11.3197 6.64407 10.9038 7.35844C10.9038 7.35844 10.1009 8.65241 11.0348 9.89438L11.0367 9.89631Z" fill="#575FF1"/>
<path d="M14.3481 10.9136C13.782 10.6555 13.137 10.7094 12.542 11.0041C12.5747 11.0156 12.6094 11.0272 12.6421 11.0426C13.4662 11.42 13.7358 12.5965 13.2448 13.6748C12.7538 14.7512 11.6851 15.3192 10.861 14.9418C10.7782 14.9033 10.7031 14.8571 10.6318 14.8031C10.757 15.5657 11.1614 16.1972 11.8026 16.4899C12.9829 17.0291 14.508 16.2165 15.2108 14.678C15.9136 13.1376 15.5285 11.4527 14.3481 10.9136Z" fill="white"/>
<path d="M13.2448 13.6756C13.7358 12.5992 13.4662 11.4208 12.6421 11.0434C12.6094 11.028 12.5747 11.0184 12.542 11.0049C11.895 11.3245 11.3058 11.9253 10.9399 12.7263C10.6184 13.4291 10.5279 14.1628 10.6318 14.804C10.7031 14.856 10.7782 14.9041 10.861 14.9426C11.6851 15.32 12.7538 14.752 13.2448 13.6756Z" fill="#27292D"/>
<path d="M17.4176 13.0591C16.811 12.7818 16.1198 12.8415 15.4805 13.1573C15.5171 13.1707 15.5517 13.1823 15.5883 13.1977C16.4721 13.6021 16.761 14.8633 16.2353 16.0186C15.7077 17.172 14.5639 17.7805 13.6801 17.378C13.5915 17.3376 13.5106 17.2856 13.4355 17.2298C13.5703 18.0462 14.0036 18.724 14.6891 19.0379C15.9542 19.6155 17.5889 18.7452 18.3438 17.095C19.0966 15.4448 18.6846 13.6386 17.4195 13.061L17.4176 13.0591Z" fill="white"/>
<path d="M16.2334 16.0186C16.761 14.8652 16.4722 13.602 15.5865 13.1977C15.5518 13.1823 15.5152 13.1707 15.4786 13.1572C14.7854 13.5 14.1538 14.1431 13.761 15.0019C13.4164 15.7567 13.3182 16.5404 13.4318 17.2278C13.5088 17.2837 13.5897 17.3357 13.6763 17.3761C14.5601 17.7805 15.7039 17.172 16.2315 16.0167L16.2334 16.0186Z" fill="#27292D"/>
<path d="M18.9224 24.7266C20.7483 24.7266 22.2285 23.2464 22.2285 21.4204C22.2285 19.5945 20.7483 18.1143 18.9224 18.1143C17.0964 18.1143 15.6162 19.5945 15.6162 21.4204C15.6162 23.2464 17.0964 24.7266 18.9224 24.7266Z" fill="#FF4747"/>
<path d="M14.5227 22.2832H14.5207C14.1911 22.2832 13.9238 22.5505 13.9238 22.8801V23.1728C13.9238 23.5025 14.1911 23.7697 14.5207 23.7697H14.5227C14.8523 23.7697 15.1196 23.5025 15.1196 23.1728V22.8801C15.1196 22.5505 14.8523 22.2832 14.5227 22.2832Z" fill="white"/>
<path d="M15.3513 22.8162C12.4302 22.8162 11.4694 20.3766 11.4578 20.3477C11.3847 20.1551 11.4829 19.9395 11.6754 19.8663C11.868 19.7931 12.0817 19.8894 12.1549 20.0819C12.1992 20.1975 13.2987 22.9163 17.0323 21.7995C17.2287 21.7398 17.4366 21.8534 17.4963 22.0499C17.556 22.2463 17.4424 22.4542 17.246 22.5139C16.5374 22.7257 15.9097 22.8143 15.3513 22.8143V22.8162Z" fill="#27292D"/>
</svg>
