<svg width="40" height="40" viewBox="0 0 40 40" fill="none" xmlns="http://www.w3.org/2000/svg">
<path d="M34.9984 27.8759C39.0498 23.6179 38.8685 17.2525 35.2481 14.2414C33.2134 12.5501 30.4327 12.1949 27.7219 13.0109C26.4319 8.43781 22.7877 5.26774 18.7898 5.61254C14.1127 6.0153 10.7301 11.0743 11.2325 16.9107C11.2429 17.0311 11.2577 17.1514 11.2711 17.2703C7.70123 17.0563 4.48954 18.657 3.3303 21.5595C1.85896 25.2423 4.56236 30.0413 8.98234 32.0952C8.98234 32.0952 23.8191 39.6273 34.9999 27.8744L34.9984 27.8759Z" fill="#FF7272"/>
<path d="M22.6372 27.271C20.7453 27.271 19.5518 26.2306 19.4864 26.1712C19.3646 26.0612 19.3542 25.8739 19.4627 25.7521C19.5726 25.6302 19.7599 25.6198 19.8818 25.7283C19.9591 25.7967 21.8049 27.3899 24.547 26.2901C24.6986 26.2291 24.8725 26.3035 24.9334 26.455C24.9943 26.6081 24.92 26.7805 24.7684 26.8415C23.9896 27.1536 23.2733 27.2725 22.6372 27.2725V27.271Z" fill="#27292D"/>
<path d="M15.6698 27.9655C17.1842 27.9655 18.4118 26.7379 18.4118 25.2235C18.4118 23.7091 17.1842 22.4814 15.6698 22.4814C14.1554 22.4814 12.9277 23.7091 12.9277 25.2235C12.9277 26.7379 14.1554 27.9655 15.6698 27.9655Z" fill="#FF4747"/>
<path d="M29.7866 25.1024C31.1163 25.1024 32.1942 24.0245 32.1942 22.6948C32.1942 21.3651 31.1163 20.2871 29.7866 20.2871C28.4568 20.2871 27.3789 21.3651 27.3789 22.6948C27.3789 24.0245 28.4568 25.1024 29.7866 25.1024Z" fill="#FF4747"/>
<path d="M14.369 18.7675C15.2458 20.8898 16.7023 23.9573 19.2913 24.2634C20.3301 24.3868 21.4879 23.9736 21.8803 22.9378C22.3603 21.6715 21.6454 20.2284 21.1728 19.0692C20.9781 18.5921 20.1919 18.8002 20.3896 19.2847C20.7388 20.1437 21.2546 21.1528 21.2233 22.1025C21.1788 23.4876 19.6584 23.6942 18.6225 23.2484C17.6966 22.8501 17.1259 22.0505 16.5819 21.236C16.0172 20.3904 15.5401 19.4912 15.1522 18.552C14.956 18.0764 14.1698 18.2844 14.369 18.7675Z" fill="#FFF06C"/>
<path d="M22.8676 19.1419C23.2243 20.1451 23.6122 21.1899 24.4564 21.8914C25.0955 22.4234 26.1893 22.8619 27.0186 22.6092C29.2851 21.9152 28.5256 19.1776 27.5135 17.7582C27.2118 17.3362 26.5074 17.7419 26.812 18.1684C27.4823 19.1077 28.539 21.7011 26.5594 21.8587C24.8993 21.991 24.1012 20.1912 23.6524 18.9264C23.4785 18.4374 22.6938 18.6485 22.8691 19.1419H22.8676Z" fill="#FFF06C"/>
</svg>
