<svg width="40" height="40" viewBox="0 0 40 40" fill="none" xmlns="http://www.w3.org/2000/svg">
<path d="M7.72629 12.4019C9.17659 10.2718 8.84132 7.36907 6.88129 5.70042C6.86308 5.68462 6.84488 5.66882 6.82667 5.6546C6.37307 5.27378 6.51416 4.53427 7.07699 4.36677C15.1371 1.95703 21.1037 3.0505 25.6078 5.21532C32.0007 8.28715 36.1271 14.8812 35.8025 22.0519C35.7949 22.2036 35.7873 22.3553 35.7767 22.507C35.1653 31.2074 27.6741 37.7113 19.0981 36.937C10.8423 36.1896 4.57384 28.8276 5.03351 20.418C5.19735 17.4268 6.17282 14.6868 7.7278 12.4019H7.72629Z" fill="#FFF06C"/>
<path d="M21.9947 22.612C24.7219 22.612 26.9327 20.3092 26.9327 17.4686C26.9327 14.628 24.7219 12.3252 21.9947 12.3252C19.2675 12.3252 17.0566 14.628 17.0566 17.4686C17.0566 20.3092 19.2675 22.612 21.9947 22.612Z" fill="#FFEF9F"/>
<path d="M22.9778 17.2568C22.7897 16.8191 22.688 16.3656 22.6592 15.9121L19.3141 17.4749C19.0122 17.6155 18.8908 18.0027 19.0638 18.295C20.2546 20.2955 22.7138 21.1187 24.8331 20.1296C25.1866 19.9652 25.5082 19.7582 25.7995 19.5196C24.5965 19.3126 23.5133 18.502 22.9762 17.2568H22.9778Z" fill="white"/>
<path d="M22.9772 17.2576C23.5143 18.5028 24.5974 19.3134 25.8005 19.5204C26.1646 19.2201 26.4771 18.8693 26.7335 18.4806C26.8472 17.9544 26.8836 17.3998 26.829 16.8325C26.7395 15.9144 26.424 15.0785 25.9461 14.377L22.6602 15.9129C22.689 16.3648 22.7891 16.8199 22.9787 17.2576H22.9772Z" fill="#575FF1"/>
<path d="M18.7404 18.1307C18.5962 18.1307 18.4582 18.0454 18.3945 17.9C18.308 17.7009 18.3914 17.467 18.5826 17.377L25.4321 14.1234C25.6217 14.0334 25.8478 14.1203 25.9342 14.3194C26.0207 14.5185 25.9373 14.7523 25.7461 14.8424L18.8966 18.0959C18.845 18.1196 18.7919 18.1323 18.7388 18.1323L18.7404 18.1307Z" fill="#575FF1"/>
<path d="M17.6788 9.76311C18.7316 11.5108 20.6082 12.6422 22.6153 12.2929C24.4555 11.9722 25.9452 10.1629 25.9816 8.21455C25.9968 7.37706 25.6995 6.46373 24.9591 6.03551C24.4964 5.76846 23.9639 5.77478 23.5346 6.1082C23.1523 6.40527 22.8975 6.86667 22.8095 7.35336C22.6487 8.24141 22.9445 9.17529 23.5407 9.82631C24.1961 10.5421 25.1973 10.8392 26.1273 10.7855C28.1556 10.6685 30.1899 8.88928 29.8789 6.62965C29.8501 6.41791 29.5922 6.30256 29.4117 6.35312C29.1932 6.41475 29.1174 6.62649 29.1462 6.83981C29.351 8.32674 27.9963 9.58139 26.728 9.90058C26.015 10.0807 25.2125 10.0396 24.5647 9.65881C23.9988 9.32698 23.5938 8.72178 23.5285 8.04231C23.4982 7.72312 23.5407 7.39287 23.6894 7.10844C23.838 6.82401 24.1126 6.538 24.4479 6.65809C25.0062 6.85877 25.2094 7.51928 25.2231 8.08498C25.2565 9.59087 24.1627 11.0604 22.7776 11.4507C21.0102 11.9485 19.2641 10.9103 18.3341 9.36649C18.0747 8.93668 17.4194 9.3333 17.6788 9.76469V9.76311Z" fill="#575FF1"/>
<path d="M30.9304 18.5682C33.4096 18.5682 35.4193 16.4748 35.4193 13.8925C35.4193 11.3102 33.4096 9.2168 30.9304 9.2168C28.4512 9.2168 26.4414 11.3102 26.4414 13.8925C26.4414 16.4748 28.4512 18.5682 30.9304 18.5682Z" fill="#FFEF9F"/>
<path d="M31.861 13.3212C31.6653 12.9104 31.5515 12.4806 31.5075 12.0508L28.3717 13.6768C28.0896 13.8237 27.9864 14.1966 28.1639 14.4684C29.3745 16.3314 31.7517 17.0204 33.7391 15.9901C34.0698 15.8179 34.3702 15.6093 34.6387 15.3691C33.4827 15.219 32.4192 14.489 31.861 13.3212Z" fill="white"/>
<path d="M31.8617 13.3211C32.42 14.4888 33.4835 15.2189 34.6395 15.369C34.9762 15.0687 35.2614 14.7195 35.492 14.3387C35.5815 13.8315 35.5967 13.3005 35.5239 12.7617C35.4056 11.8895 34.8427 11.2116 34.3603 10.5605L31.5098 12.0491C31.5538 12.4789 31.666 12.9087 31.8632 13.3195L31.8617 13.3211Z" fill="#575FF1"/>
<path d="M27.8325 14.3209C27.7005 14.3209 27.5731 14.245 27.5093 14.1155C27.4183 13.9306 27.4896 13.703 27.6671 13.6082L33.8112 10.342C33.9902 10.2472 34.2071 10.3215 34.2982 10.5064C34.3892 10.6913 34.3179 10.9188 34.1404 11.0136L27.9963 14.2798C27.9432 14.3082 27.8871 14.3209 27.8325 14.3209Z" fill="#575FF1"/>
<path d="M30.9029 19.0365C29.1446 19.0365 27.4425 18.0521 26.5626 16.325C25.2928 13.8362 26.2031 10.736 28.5924 9.41337C29.7499 8.77182 31.0774 8.63909 32.3305 9.03887C33.5836 9.43865 34.6121 10.322 35.228 11.5276C35.844 12.7333 35.9714 14.1159 35.5876 15.4211C35.2038 16.7263 34.3557 17.7977 33.1982 18.4392C32.467 18.8438 31.6796 19.0365 30.9029 19.0365ZM27.2999 15.9173C28.3543 17.9826 30.824 18.7679 32.8053 17.6713C33.7656 17.1403 34.4695 16.2507 34.7881 15.1667C35.1067 14.0843 35.0005 12.9355 34.4892 11.9369C33.978 10.9382 33.1254 10.2034 32.0847 9.87161C31.044 9.53978 29.9426 9.65039 28.9838 10.1829C27.0026 11.2811 26.2471 13.8536 27.2999 15.9173Z" fill="#27292D"/>
<path d="M22.0107 22.9269C20.0036 22.9269 18.0739 21.7576 17.1425 19.7524C16.5144 18.3998 16.431 16.8749 16.9043 15.4575C17.3776 14.0401 18.3546 12.8992 19.6517 12.245C20.9503 11.5909 22.4142 11.504 23.775 11.997C25.1358 12.4916 26.2312 13.5076 26.8592 14.8586C28.1548 17.6492 27.0291 21.0181 24.3485 22.366C23.593 22.7452 22.795 22.9253 22.0077 22.9253L22.0107 22.9269ZM17.9708 19.3352C19.0449 21.6502 21.7285 22.6235 23.951 21.5048C26.1735 20.386 27.108 17.5907 26.0339 15.2758C25.5136 14.1539 24.6049 13.3101 23.4747 12.9008C22.346 12.4916 21.1293 12.5642 20.0537 13.1062C18.9766 13.6482 18.1665 14.5947 17.7736 15.772C17.3806 16.9492 17.4504 18.2149 17.9708 19.3352Z" fill="#27292D"/>
<path d="M16.9262 18.2905H16.9201L8.87063 18.1989C8.57784 18.1957 8.3427 17.9445 8.34573 17.6395C8.34877 17.3345 8.59301 17.0944 8.88277 17.0928L16.9323 17.1844C17.2251 17.1876 17.4602 17.4388 17.4572 17.7438C17.4541 18.0472 17.2175 18.2905 16.9262 18.2905Z" fill="#27292D"/>
<path d="M38.5658 21.4505L36.952 20.2735L34.9465 18.8302C34.9465 18.8302 34.9424 18.8267 34.9388 18.8247C34.4605 18.4846 33.925 18.1396 33.2497 17.9633C31.6215 17.5375 30.0143 17.9221 29.4014 18.9153C29.3321 19.0273 29.278 19.1396 29.2326 19.2509C29.1336 19.1807 29.0271 19.1159 28.9085 19.0609C27.8547 18.5616 26.2961 19.1105 25.1606 20.3527C24.6898 20.8691 24.4259 21.4486 24.2106 21.9936C24.21 21.9968 24.2091 21.9987 24.2071 22.0023L23.3077 24.3037L22.5925 26.1687C22.5042 26.3998 22.6849 26.5529 22.9208 26.4444L24.8877 25.5296L27.2251 24.3454C27.6723 24.1263 28.1 23.8416 28.4844 23.4967C29.2143 22.8432 29.6838 22.1191 29.8784 21.4374C30.4136 21.9036 31.1998 22.2567 32.1676 22.4088C32.6777 22.4894 33.1929 22.4957 33.6859 22.437L36.2917 22.1611L38.4399 21.8604C38.696 21.8251 38.7655 21.5965 38.5658 21.4505Z" fill="#27292D"/>
</svg>
