<svg width="40" height="40" viewBox="0 0 40 40" fill="none" xmlns="http://www.w3.org/2000/svg">
<path d="M33.0696 31.8116C38.168 28.7428 39.4083 22.2799 36.5633 18.4544C34.9112 16.2337 32.1365 15.2303 29.1657 15.4722V15.4689C29.8455 10.3803 26.4514 5.72633 21.5834 5.07595C16.7154 4.42558 12.2183 8.02389 11.5385 13.1125C11.4307 13.923 11.4258 14.7221 11.514 15.4967C8.33567 15.098 5.32727 16.1242 3.6327 18.51C0.931513 22.3126 2.59014 28.13 7.33723 31.5012C7.33723 31.5012 18.7221 40.4496 33.0696 31.8133V31.8116Z" fill="#FF7272"/>
<path d="M26.5689 29.4175C26.3614 29.4175 26.1833 29.2589 26.162 29.0481C26.1408 28.8243 26.3042 28.6249 26.5281 28.602C26.6212 28.5922 28.7292 28.3422 28.7652 26.025C28.7684 25.7995 28.958 25.6263 29.1802 25.623C29.4057 25.6263 29.5855 25.8126 29.5822 26.0381C29.5446 28.486 27.6213 29.3178 26.6081 29.4158C26.595 29.4158 26.582 29.4175 26.5689 29.4175Z" fill="#27292D"/>
<path d="M12.795 18.3286C12.3211 19.394 12.0237 20.515 11.924 21.6785C11.8374 22.6818 11.8799 23.8306 12.6185 24.6019C13.3571 25.3732 14.5582 25.535 15.5354 25.3373C16.5861 25.1232 17.163 24.2097 17.4702 23.2554C17.8771 21.9939 18.0356 20.6278 18.029 19.3074C18.0258 18.7812 17.2087 18.7812 17.212 19.3074C17.2185 20.3728 17.0976 21.4301 16.8427 22.4661C16.6695 23.1655 16.4325 24.0283 15.7527 24.4026C15.3638 24.6166 14.8654 24.6166 14.4356 24.5692C14.0532 24.5268 13.6513 24.4058 13.3457 24.164C12.7018 23.6541 12.6822 22.7243 12.7231 21.9775C12.7835 20.8663 13.0515 19.76 13.5025 18.7436C13.5924 18.5426 13.5614 18.3041 13.3555 18.1848C13.1806 18.0834 12.8865 18.1292 12.7966 18.3318L12.795 18.3286Z" fill="#FFF06C"/>
<path d="M20.5339 18.9913C20.1679 20.1221 19.8672 21.3542 19.8672 22.5488C19.8672 23.6436 20.2463 24.7418 21.1826 25.3758C21.9932 25.9232 23.2155 26.1553 24.1371 25.7843C25.1356 25.3823 25.8252 24.5064 26.0262 23.4573C26.2843 22.1043 26.3056 20.7349 26.1095 19.3721C26.0784 19.1531 25.8006 19.0338 25.6062 19.0861C25.3709 19.1498 25.2892 19.3688 25.3202 19.5894C25.4673 20.6156 25.4689 21.6762 25.3268 22.704C25.263 23.1567 25.2009 23.6355 24.9722 24.0375C24.781 24.3741 24.495 24.6584 24.1665 24.861C23.4573 25.2973 22.5243 25.1879 21.8118 24.8006C21.0094 24.3659 20.699 23.4998 20.6842 22.6256C20.6663 21.4768 20.9702 20.2937 21.3215 19.2087C21.4833 18.707 20.6957 18.4929 20.5339 18.9913Z" fill="#FFF06C"/>
</svg>
