<svg width="40" height="40" viewBox="0 0 40 40" fill="none" xmlns="http://www.w3.org/2000/svg">
<path d="M24.2918 7.22576C24.6474 7.10909 24.703 6.62941 24.3826 6.43495C22.3453 5.19594 20.4915 4.40697 19.4173 4.06064C18.9228 3.90137 18.4079 4.24214 18.3616 4.76071C18.3135 5.29039 18.2653 5.96453 18.2542 6.59793C18.2542 6.59793 12.8352 2.58642 8.04394 2.34566C7.66428 2.32714 7.32721 2.58642 7.2309 2.95313C6.9105 4.17547 6.3623 7.27021 6.98458 12.7004L5.44925 12.5504C5.00476 12.5078 4.60842 12.83 4.56397 13.2745C4.46396 14.2672 4.39729 16.3155 4.75288 18.8158C4.80659 19.1936 5.28442 19.3306 5.52518 19.0343C7.55871 16.5322 13.137 10.8724 24.2918 7.22576Z" fill="#FF4747"/>
<path d="M29.1421 9.43339C16.0279 12.2226 8.10674 20.903 5.43241 24.3126C5.15831 24.6608 5.08978 25.1257 5.2472 25.5405C6.32694 28.3741 8.0234 31.2503 10.657 33.6654C14.4371 36.6987 19.0796 37.5601 23.2578 37.1629C29.3528 36.5835 35.7168 30.8244 35.9909 22.5476C36.1706 17.1286 33.5314 12.88 30.27 9.75935C29.97 9.47228 29.5477 9.34635 29.1421 9.43339Z" fill="#FF4747"/>
<path d="M28.4857 8.29516C27.9838 7.85253 27.7875 7.71918 27.2133 7.34507C26.9318 7.16172 26.5836 7.10986 26.2614 7.20802C12.6212 11.3584 6.34463 18.6184 4.45185 21.1297C4.26295 21.3798 4.18887 21.6946 4.24072 22.0039C4.34814 22.6429 4.37407 22.8614 4.56483 23.4633C4.66299 23.7689 5.06117 23.8411 5.25934 23.5892C7.91886 20.2352 15.4881 12.2085 28.3208 8.98412C28.632 8.90633 28.7264 8.50815 28.4857 8.29516Z" fill="#575FF1"/>
<path d="M22.9712 20.8182C22.9453 20.2237 22.786 19.6681 22.5268 19.1717L27.2976 18.129C27.6458 18.0531 27.9828 18.2994 28.0143 18.655C28.2458 21.2478 26.5179 23.6703 23.9084 24.2407C23.0379 24.4315 22.1712 24.3926 21.3711 24.1666C22.3916 23.4129 23.0305 22.1813 22.9712 20.8182Z" fill="white"/>
<path d="M18.2794 20.0997L22.528 19.1719C22.7854 19.6664 22.9466 20.2238 22.9725 20.8183C23.0318 22.1814 22.3928 23.413 21.3723 24.1668C19.7685 23.7149 18.4257 22.5111 17.8461 20.872C17.7275 20.5387 17.935 20.1757 18.2794 20.0997Z" fill="#27292D"/>
<path d="M31.6104 16.7173C31.3493 16.2839 31.0048 15.9357 30.6104 15.6709L33.807 12.9021C34.0014 12.7335 34.2959 12.7724 34.4422 12.9836C35.7257 14.83 35.4349 17.384 33.6977 18.8878C33.1254 19.3823 32.4642 19.7064 31.7753 19.8639C32.2309 18.8878 32.2068 17.7099 31.6104 16.7173Z" fill="white"/>
<path d="M27.7571 18.1405L30.6092 15.6699C31.0019 15.9348 31.3482 16.2848 31.6093 16.7163C32.2075 17.709 32.2298 18.8869 31.7742 19.8629C30.3685 20.1833 28.8498 19.8111 27.7478 18.7832C27.5608 18.6072 27.5626 18.3091 27.7571 18.1405Z" fill="#27292D"/>
<path d="M15.9504 20.8973C15.7318 20.8973 15.5392 20.7436 15.4966 20.5213C15.4485 20.2694 15.6133 20.0268 15.8652 19.9805L27.2015 17.8136L34.041 11.6741C34.2318 11.5038 34.5244 11.5186 34.6948 11.7093C34.8652 11.9001 34.8504 12.1927 34.6596 12.3631L27.7238 18.5878C27.6608 18.6433 27.5849 18.6822 27.5015 18.6989L16.0393 20.8899C16.0097 20.8954 15.98 20.8973 15.9522 20.8973H15.9504Z" fill="#27292D"/>
<path d="M22.1188 29.8448C22.1188 29.8448 22.104 29.8448 22.0984 29.8448C19.4704 29.7281 18.6833 27.4797 18.6333 26.3055C18.6221 26.05 18.8203 25.8333 19.0759 25.824C19.3278 25.8092 19.5463 26.0111 19.5574 26.2666C19.563 26.3759 19.713 28.8132 22.1392 28.9206C22.3947 28.9317 22.5929 29.1484 22.5818 29.404C22.5707 29.6522 22.3651 29.8466 22.1188 29.8466V29.8448Z" fill="#27292D"/>
</svg>
