<svg width="40" height="40" viewBox="0 0 40 40" fill="none" xmlns="http://www.w3.org/2000/svg">
<path d="M32.14 12.9636C30.7313 10.9304 31.0492 8.16088 32.9482 6.57488C32.9658 6.5605 32.9833 6.54613 33.0009 6.53175C33.4401 6.17079 33.3012 5.46483 32.7565 5.30352C24.9367 2.9892 19.1517 4.02258 14.7898 6.07815C8.59434 8.99621 4.60298 15.2763 4.932 22.1155C4.93839 22.2608 4.94797 22.4046 4.95755 22.5499C5.56448 30.8473 12.8397 37.0635 21.1546 36.34C29.1581 35.642 35.2242 28.6336 34.7658 20.6125C34.6029 17.76 33.6526 15.1454 32.14 12.9636Z" fill="#FFF06C"/>
<path d="M13.3805 25.7492C16.2517 25.7492 18.5793 23.4216 18.5793 20.5504C18.5793 17.6792 16.2517 15.3516 13.3805 15.3516C10.5092 15.3516 8.18164 17.6792 8.18164 20.5504C8.18164 23.4216 10.5092 25.7492 13.3805 25.7492Z" fill="#FFEF9F"/>
<path d="M14.5323 20.4223C14.4126 19.9527 14.3854 19.4816 14.4333 19.0264L10.6943 19.9831C10.3573 20.0693 10.164 20.4319 10.2934 20.7545C11.1846 22.9618 13.5932 24.222 15.9634 23.6151C16.3579 23.5145 16.7285 23.3659 17.0703 23.1806C15.858 22.759 14.8741 21.7576 14.5307 20.4207L14.5323 20.4223Z" fill="white"/>
<path d="M14.5323 20.4226C14.874 21.7595 15.8595 22.7593 17.0718 23.1826C17.5014 22.9494 17.8863 22.6555 18.2186 22.3137C18.4278 21.809 18.5619 21.2643 18.6019 20.6893C18.6674 19.7598 18.4837 18.8702 18.1083 18.0859L14.4348 19.0267C14.3869 19.4819 14.4125 19.953 14.5338 20.4226H14.5323Z" fill="#575FF1"/>
<path d="M10.0539 20.537C9.87666 20.537 9.71534 20.4188 9.66743 20.2383C9.61153 20.0243 9.7393 19.8071 9.95173 19.7512L17.6182 17.7387C17.8322 17.6828 18.0495 17.8106 18.1054 18.023C18.1613 18.237 18.0335 18.4543 17.8211 18.5102L10.1546 20.5226C10.121 20.5322 10.0859 20.5354 10.0524 20.5354L10.0539 20.537Z" fill="#575FF1"/>
<path d="M24.0934 24.8264C26.9646 24.8264 29.2922 22.4988 29.2922 19.6275C29.2922 16.7563 26.9646 14.4287 24.0934 14.4287C21.2221 14.4287 18.8945 16.7563 18.8945 19.6275C18.8945 22.4988 21.2221 24.8264 24.0934 24.8264Z" fill="#FFEF9F"/>
<path d="M25.2462 19.4995C25.1264 19.0299 25.0993 18.5587 25.1472 18.1035L21.4082 19.0602C21.0712 19.1465 20.8779 19.509 21.0073 19.8317C21.8985 22.039 24.3071 23.2992 26.6773 22.6922C27.0718 22.5916 27.4423 22.4431 27.7841 22.2578C26.5719 21.8361 25.588 20.8347 25.2446 19.4979L25.2462 19.4995Z" fill="white"/>
<path d="M25.2461 19.4998C25.5879 20.8366 26.5734 21.8364 27.7856 22.2597C28.2153 22.0265 28.6002 21.7326 28.9324 21.3908C29.1417 20.8861 29.2758 20.3415 29.3157 19.7665C29.3812 18.8369 29.1976 17.9473 28.8222 17.1631L25.1487 18.1038C25.1008 18.559 25.1263 19.0302 25.2477 19.4998H25.2461Z" fill="#575FF1"/>
<path d="M20.7659 19.6141C20.5886 19.6141 20.4273 19.4959 20.3793 19.3155C20.3234 19.1014 20.4512 18.8842 20.6636 18.8283L28.3301 16.8159C28.5441 16.76 28.7614 16.8877 28.8173 17.1002C28.8732 17.3142 28.7454 17.5314 28.533 17.5873L20.8665 19.5998C20.8329 19.6093 20.7978 19.6125 20.7643 19.6125L20.7659 19.6141Z" fill="#575FF1"/>
<path d="M11.7065 12.4972C12.454 14.3052 14.0991 15.7379 16.1355 15.7075C17.9706 15.6804 19.7419 14.2429 20.0374 12.3998C20.1715 11.5597 19.9863 10.6365 19.234 10.1414C18.306 9.52964 17.3126 10.3442 17.0091 11.2354C16.7248 12.0724 16.9516 13.0403 17.4899 13.7222C18.0728 14.4617 19.004 14.8323 19.924 14.9042C21.8278 15.0559 23.9872 13.7175 24.0431 11.6635C24.0575 11.1492 23.2589 11.1492 23.2445 11.6635C23.2078 12.9875 21.8853 13.949 20.6603 14.0944C19.3394 14.2509 17.7326 13.5833 17.6895 12.0676C17.6815 11.7625 17.7406 11.4622 17.8988 11.1971C18.0393 10.9623 18.314 10.6748 18.6159 10.7291C18.8762 10.7754 19.0839 11.0502 19.1749 11.2642C19.2899 11.5389 19.3043 11.836 19.2739 12.1315C19.127 13.5114 17.8301 14.7381 16.4693 14.8882C14.6948 15.083 13.1344 13.874 12.4763 12.2832C12.3933 12.0835 12.2112 11.9414 11.9844 12.0037C11.7959 12.0548 11.6218 12.2944 11.7049 12.4956L11.7065 12.4972Z" fill="#575FF1"/>
<path d="M13.2629 26.2054C10.1292 26.2054 7.58008 23.6563 7.58008 20.5226C7.58008 17.3889 10.1292 14.8398 13.2629 14.8398C16.3965 14.8398 18.9456 17.3889 18.9456 20.5226C18.9456 23.6563 16.3965 26.2054 13.2629 26.2054ZM13.2629 15.8093C10.6626 15.8093 8.54797 17.924 8.54797 20.5242C8.54797 23.1244 10.6626 25.2391 13.2629 25.2391C15.8631 25.2391 17.9777 23.1244 17.9777 20.5242C17.9777 17.924 15.8631 15.8093 13.2629 15.8093Z" fill="#27292D"/>
<path d="M24.0851 25.2943C20.9514 25.2943 18.4023 22.7452 18.4023 19.6115C18.4023 16.4778 20.9514 13.9287 24.0851 13.9287C27.2188 13.9287 29.7679 16.4778 29.7679 19.6115C29.7679 22.7452 27.2188 25.2943 24.0851 25.2943ZM24.0851 14.8982C21.4849 14.8982 19.3702 17.0129 19.3702 19.6131C19.3702 22.2133 21.4849 24.328 24.0851 24.328C26.6853 24.328 28.8 22.2133 28.8 19.6131C28.8 17.0129 26.6853 14.8982 24.0851 14.8982Z" fill="#27292D"/>
<path d="M29.5352 19.0663C29.2909 19.0663 29.0673 18.905 28.997 18.6591C28.9123 18.362 29.0864 18.0537 29.3835 17.9691L34.2885 16.5843C34.5855 16.5013 34.8938 16.6738 34.9784 16.9708C35.0631 17.2679 34.889 17.5762 34.5919 17.6608L29.687 19.0456C29.6359 19.06 29.5848 19.0663 29.5352 19.0663Z" fill="#27292D"/>
<path d="M21.9538 28.3709L21.9523 28.372C21.6922 28.5619 21.6354 28.9266 21.8252 29.1866L21.9938 29.4175C22.1836 29.6775 22.5483 29.7344 22.8084 29.5445L22.8099 29.5434C23.0699 29.3535 23.1268 28.9888 22.9369 28.7288L22.7683 28.498C22.5785 28.238 22.2138 28.1811 21.9538 28.3709Z" fill="white"/>
<path d="M22.9143 28.3153C20.6104 29.9976 18.4475 28.6267 18.4218 28.6106C18.2532 28.5009 18.2064 28.2742 18.3162 28.1056C18.4259 27.937 18.6499 27.8899 18.8185 27.9996C18.92 28.0652 21.353 29.5764 23.6546 26.5453C23.7752 26.3851 24.0046 26.355 24.1648 26.4755C24.325 26.5961 24.3552 26.8255 24.2346 26.9857C23.7977 27.5608 23.3536 27.9922 22.9132 28.3138L22.9143 28.3153Z" fill="#27292D"/>
</svg>
