<svg width="40" height="40" viewBox="0 0 40 40" fill="none" xmlns="http://www.w3.org/2000/svg">
<path d="M16.6969 6.36913L4.46705 18.2517C2.58086 20.1522 2.5039 23.1926 4.29167 25.1862L14.6088 35.5036C16.6256 37.7548 20.0866 37.9409 22.3361 35.9223L34.2827 25.9916C36.1134 24.3488 36.3389 21.5624 34.7999 19.644L23.5939 6.73062C21.8634 4.576 18.644 4.40778 16.6969 6.36913Z" fill="#27292D"/>
<path d="M17.7321 22.9757C14.5126 22.9757 14.0169 20.8586 13.9973 20.7674C13.9561 20.5741 14.0778 20.3844 14.2711 20.3415C14.4643 20.3021 14.6522 20.422 14.6952 20.6135C14.7131 20.6922 15.1461 22.3493 17.9719 22.2563C18.1687 22.2509 18.3351 22.4048 18.3423 22.6017C18.3495 22.7985 18.1938 22.9649 17.9969 22.9721C17.9074 22.9757 17.818 22.9775 17.7321 22.9775V22.9757Z" fill="#737C89"/>
<path d="M18.0023 16.0347C17.9683 16.2155 17.9164 16.3944 17.8359 16.568C17.3062 17.7366 15.93 18.2556 14.7596 17.7259C13.5911 17.1961 13.0721 15.82 13.6018 14.6496C13.6787 14.4796 13.7754 14.3239 13.8863 14.1825C12.222 13.5007 10.7457 12.9316 10.7457 12.9316C9.77752 15.0684 10.726 17.5863 12.8627 18.5544C14.9994 19.5226 17.5173 18.5741 18.4855 16.4374C18.5195 16.364 18.3334 16.2208 18.0023 16.0329V16.0347Z" fill="white"/>
<path d="M14.761 17.7251C15.9295 18.2548 17.3075 17.7359 17.8372 16.5673C17.9159 16.3937 17.9696 16.2129 18.0036 16.034C17.1804 15.5687 15.4517 14.826 13.8877 14.1836C13.7785 14.325 13.6801 14.4807 13.6031 14.6507C13.0734 15.8192 13.5924 17.1972 14.761 17.7269V17.7251Z" fill="#FF4747"/>
<path d="M18.359 15.8481C15.8483 15.8481 13.2928 14.9175 10.8751 13.11C8.63816 11.4386 7.31926 9.62935 7.26379 9.5524C7.11883 9.35197 7.16357 9.0728 7.364 8.92785C7.56443 8.7829 7.8436 8.82763 7.98856 9.02806C8.03866 9.09786 13.1496 16.0252 19.9696 14.8101C20.213 14.7654 20.4456 14.9282 20.4886 15.1716C20.5315 15.415 20.3705 15.6476 20.1271 15.6906C19.5419 15.7944 18.9514 15.8463 18.359 15.8463V15.8481Z" fill="#FF4747"/>
<path d="M25.3266 21.8084C28.9943 21.8084 31.9676 18.8351 31.9676 15.1674C31.9676 11.4997 28.9943 8.52637 25.3266 8.52637C21.6588 8.52637 18.6855 11.4997 18.6855 15.1674C18.6855 18.8351 21.6588 21.8084 25.3266 21.8084Z" fill="white"/>
<path d="M25.2958 22.9022C21.0421 22.9022 17.5811 19.4412 17.5811 15.1874C17.5811 10.9337 21.0421 7.47266 25.2958 7.47266C29.5496 7.47266 33.0106 10.9337 33.0106 15.1874C33.0106 19.4412 29.5496 22.9022 25.2958 22.9022ZM25.2958 8.77366C21.7597 8.77366 18.8838 11.6513 18.8838 15.1856C18.8838 18.72 21.7615 21.5976 25.2958 21.5976C28.8302 21.5976 31.7078 18.72 31.7078 15.1856C31.7078 11.6513 28.8302 8.77366 25.2958 8.77366Z" fill="#575FF1"/>
<path d="M37.2572 27.3576C37.0908 27.3576 36.9243 27.2932 36.7973 27.1662L30.1222 20.4911C29.8681 20.237 29.8681 19.8236 30.1222 19.5695C30.3763 19.3154 30.7879 19.3154 31.0439 19.5695L37.7189 26.2445C37.973 26.4986 37.973 26.912 37.7189 27.1662C37.5918 27.2932 37.4254 27.3576 37.259 27.3576H37.2572Z" fill="#575FF1"/>
<path d="M25.3839 18.6877C27.242 18.6877 28.7483 17.1814 28.7483 15.3233C28.7483 13.4653 27.242 11.959 25.3839 11.959C23.5258 11.959 22.0195 13.4653 22.0195 15.3233C22.0195 17.1814 23.5258 18.6877 25.3839 18.6877Z" fill="#FF4747"/>
<path d="M25.3652 22.8319C21.1114 22.8319 17.6504 19.3709 17.6504 15.1171C17.6504 10.8633 21.1114 7.40234 25.3652 7.40234C29.6189 7.40234 33.0799 10.8633 33.0799 15.1171C33.0799 19.3709 29.6189 22.8319 25.3652 22.8319ZM25.3652 8.70335C21.829 8.70335 18.9532 11.581 18.9532 15.1153C18.9532 18.6497 21.8308 21.5273 25.3652 21.5273C28.8995 21.5273 31.7771 18.6497 31.7771 15.1153C31.7771 11.581 28.8995 8.70335 25.3652 8.70335Z" fill="#575FF1"/>
<path opacity="0.45" d="M25.8701 11.37C25.2008 12.8822 24.6245 14.4248 24.1557 16.0103C24.0089 16.506 24.5708 16.8926 25.0003 16.6599C25.8701 16.1875 26.7577 15.7562 27.6721 15.3768L26.9635 14.6682C26.2906 16.4559 25.6177 18.2455 24.9431 20.0332C24.6818 20.7276 25.7931 21.0264 26.0526 20.3393C26.7255 18.5515 27.3983 16.7619 28.073 14.9742C28.2179 14.5894 27.7598 14.1027 27.3643 14.2655C26.3568 14.6843 25.3761 15.1442 24.4169 15.6649L25.2616 16.3145C25.7036 14.8256 26.2315 13.3689 26.8597 11.948C27.1567 11.277 26.1653 10.69 25.8665 11.3664L25.8701 11.37Z" fill="white"/>
</svg>
