<svg width="244" height="244" viewBox="0 0 244 244" fill="none" xmlns="http://www.w3.org/2000/svg">
<g clip-path="url(#clip0_432_418)">
<path d="M116.726 64.1772C116.726 64.1772 136.443 76.8292 142.498 94.1148L147.233 88.4739C148.49 86.9788 151.012 87.537 151.406 89.403C154.58 104.432 159.335 153.92 100.826 157.23C100.826 157.23 56.3391 158.393 49.0274 121.765C48.7151 120.207 50.14 118.825 51.7873 119.106L62.546 120.953C62.546 120.953 40.8687 108.664 39.3696 85.1284C39.2721 83.5748 40.8101 82.3763 42.3911 82.7979C48.8752 84.5273 63.8888 86.9788 71.259 75.3536L116.729 64.1733L116.726 64.1772Z" fill="#FF4747"/>
<path d="M192.999 212.723L220.669 203.756C222.191 203.264 223.144 201.75 222.933 200.165C222.659 198.111 220.594 196.807 218.623 197.448L192.964 205.763C192.632 205.868 192.289 205.923 191.941 205.923H65.5001C65.1526 205.923 64.8091 205.868 64.4773 205.763L38.3225 197.288C36.5268 196.706 34.61 197.737 34.1026 199.552L34.0206 199.841C33.5443 201.554 34.5007 203.338 36.1949 203.885L63.7942 212.828L63.8371 212.696V212.824H192.667H192.679H192.991V212.723H192.999Z" fill="#27292D"/>
<path d="M96.7765 237.206C102.462 237.206 107.071 232.597 107.071 226.912C107.071 221.226 102.462 216.618 96.7765 216.618C91.0912 216.618 86.4824 221.226 86.4824 226.912C86.4824 232.597 91.0912 237.206 96.7765 237.206Z" fill="#27292D"/>
<path d="M162.656 237.206C168.342 237.206 172.95 232.598 172.95 226.912C172.95 221.227 168.342 216.618 162.656 216.618C156.971 216.618 152.362 221.227 152.362 226.912C152.362 232.598 156.971 237.206 162.656 237.206Z" fill="#27292D"/>
<path d="M50.2001 19.4278C49.4662 19.1858 48.8338 19.6152 48.7947 20.3882C48.6698 23.0349 49.6965 24.0225 49.6965 24.0225C50.4382 25.1038 51.8279 25.4396 52.8038 24.772C53.7798 24.1045 53.9632 22.6874 53.2215 21.6061C52.4759 20.3803 51.176 19.744 50.2001 19.4278Z" fill="#FF4747"/>
<path d="M24.4109 91.9858C23.5287 91.6735 22.7011 92.1576 22.5605 93.0866C21.0264 103.392 24.7076 107.69 24.7076 107.69C26.9054 111.493 31.1995 113.12 34.299 111.329C37.3985 109.537 38.1285 105.001 35.9307 101.202C33.0928 95.667 27.2255 92.993 24.407 91.9858H24.4109Z" fill="#FF4747"/>
<path d="M22.447 73.1605C21.5843 72.735 20.9519 73.1605 21.0417 74.1208C21.354 77.4077 22.6774 78.8248 22.6774 78.8248C23.6923 80.3043 25.3045 80.964 26.2805 80.2965C27.2564 79.6289 27.2174 77.8879 26.2024 76.4084C25.1601 74.7493 23.5947 73.7304 22.4509 73.1644L22.447 73.1605Z" fill="#FF4747"/>
<path d="M140.478 33.0641L156.28 23.8162C158.263 22.6529 160.809 23.219 162.116 25.1084C163.44 27.0212 163.045 29.6328 161.215 31.0693L154.024 36.7063L154.73 36.2378C156.522 35.055 158.911 35.3868 160.313 37.0147C161.898 38.8572 161.589 41.5586 159.68 43.0615C161.472 41.9685 163.826 42.8429 164.911 44.6386C165.958 46.3719 165.458 48.6204 163.775 49.7486L153.36 56.7167C149.328 59.4142 143.929 60.4369 139.49 58.4773C136.816 57.2983 133.779 54.7609 132.737 51.1305C131.187 45.7395 132.39 41.6054 134.115 38.6074C135.345 36.4721 138.354 34.3055 140.478 33.0641Z" fill="#27292D"/>
<path d="M157.954 44.388L155.202 46.3594C153.574 47.5539 150.861 46.7224 149.573 44.9657L149.92 45.3444C148.632 43.5877 148.558 40.8161 150.185 39.6216L153.472 37.3379" fill="#27292D"/>
<path d="M157.954 44.388L155.202 46.3594C153.574 47.5539 150.861 46.7224 149.573 44.9657L149.92 45.3444C148.632 43.5877 148.558 40.8161 150.185 39.6216L153.472 37.3379" stroke="white" stroke-width="1.04229" stroke-linecap="round" stroke-linejoin="round"/>
<path d="M164.622 49.8578L160.394 52.9768C158.767 54.1714 155.948 53.4336 154.66 51.6808C153.372 49.9241 153.645 47.5351 155.273 46.3366L157.951 44.3887" fill="#27292D"/>
<path d="M164.622 49.8578L160.394 52.9768C158.767 54.1714 155.948 53.4336 154.66 51.6808C153.372 49.9241 153.645 47.5351 155.273 46.3366L157.951 44.3887" stroke="white" stroke-width="1.04229" stroke-linecap="round" stroke-linejoin="round"/>
<path d="M140.832 37.8564L147.246 37.3841C149.713 37.2084 151.856 39.0627 152.032 41.5298C152.207 43.997 150.353 46.1401 147.886 46.3158L141.472 46.7881" fill="#27292D"/>
<path d="M140.832 37.8564L147.246 37.3841C149.713 37.2084 151.856 39.0627 152.032 41.5298C152.207 43.997 150.353 46.1401 147.886 46.3158L141.472 46.7881" stroke="white" stroke-width="1.22967" stroke-linecap="round" stroke-linejoin="round"/>
<path d="M96.1739 17.924C96.9234 17.678 97.0405 16.667 96.3652 16.2571C92.0711 13.6455 88.1635 11.9825 85.8993 11.2525C84.8571 10.9168 83.7718 11.6351 83.6742 12.7281C83.5727 13.8446 83.4712 15.2656 83.4478 16.6006C83.4478 16.6006 72.0256 8.14519 61.9267 7.63771C61.1264 7.59867 60.4159 8.14519 60.2129 8.91812C59.5376 11.4946 58.3821 18.0177 59.6938 29.4633L56.4576 29.1471C55.5207 29.0574 54.6853 29.7366 54.5916 30.6735C54.3808 32.7659 54.2403 37.0834 54.9898 42.3534C55.103 43.1497 56.1102 43.4386 56.6176 42.814C60.9039 37.5401 72.6619 25.6104 96.1739 17.924Z" fill="#FF4747"/>
<path d="M106.398 22.5772C78.7562 28.4562 62.06 46.7529 56.423 53.9396C55.8453 54.6735 55.7009 55.6533 56.0327 56.5278C58.3085 62.5005 61.8843 68.5629 67.4354 73.6533C73.2949 79.5714 84.5688 80.1686 93.5512 80.2896C106.781 80.4692 120.256 67.6651 120.834 50.2194C121.213 38.7971 115.65 29.842 108.776 23.2643C108.143 22.6592 107.253 22.3938 106.398 22.5772Z" fill="#FF4747"/>
<path d="M105.01 20.1781C103.953 19.2451 103.539 18.9641 102.329 18.1755C101.735 17.789 101.001 17.6797 100.322 17.8866C71.5713 26.6348 58.3416 41.9374 54.352 47.2308C53.9539 47.7578 53.7977 48.4214 53.907 49.0734C54.1334 50.4201 54.1881 50.8808 54.5902 52.1495C54.7971 52.7936 55.6364 52.9458 56.054 52.4149C61.6598 45.3453 77.6142 28.4266 104.663 21.6303C105.319 21.4663 105.518 20.627 105.01 20.1781Z" fill="#575FF1"/>
<path d="M93.3855 46.5737C93.3308 45.3206 92.9951 44.1495 92.4486 43.1033L102.505 40.9055C103.238 40.7455 103.949 41.2647 104.015 42.0142C104.503 47.4794 100.861 52.5854 95.3608 53.7878C93.526 54.1898 91.6991 54.1079 90.0127 53.6316C92.1636 52.0428 93.5104 49.4468 93.3855 46.5737Z" fill="white"/>
<path d="M83.4979 45.0588L92.453 43.103C92.9956 44.1453 93.3352 45.3203 93.3899 46.5734C93.5148 49.4466 92.168 52.0425 90.0171 53.6313C86.6365 52.6788 83.8063 50.1414 82.5844 46.6866C82.3346 45.984 82.7718 45.2188 83.4979 45.0588Z" fill="#27292D"/>
<path d="M111.592 37.9328C111.042 37.0193 110.316 36.2854 109.484 35.7272L116.222 29.8912C116.632 29.5359 117.253 29.6179 117.561 30.0629C120.266 33.9549 119.654 39.3381 115.992 42.5079C114.786 43.5502 113.392 44.2334 111.94 44.5652C112.9 42.5079 112.849 40.0252 111.592 37.9328Z" fill="white"/>
<path d="M103.472 40.9312L109.483 35.7236C110.311 36.2819 111.041 37.0197 111.591 37.9292C112.852 40.0216 112.899 42.5044 111.939 44.5616C108.976 45.237 105.775 44.4523 103.452 42.2858C103.058 41.9149 103.062 41.2864 103.472 40.9312Z" fill="#27292D"/>
<path d="M117.367 28.0249L102.748 41.1453L78.5879 45.7673" stroke="#27292D" stroke-width="1.95185" stroke-linecap="round" stroke-linejoin="round"/>
<path d="M85.2197 58.0986C85.2197 58.0986 85.4852 64.3524 91.5945 64.6256" stroke="#27292D" stroke-width="1.95185" stroke-linecap="round" stroke-linejoin="round"/>
<path d="M63.885 79.4562C63.885 79.4562 67.1876 67.1868 85.3242 72.855L91.9566 75.1894C94.1544 75.9623 95.2903 78.3944 94.4706 80.5765C93.6976 82.6338 91.4569 83.7346 89.3567 83.0866L83.5441 81.2987L88.9702 83.3911C91.086 84.207 92.1596 86.5687 91.3788 88.7001L91.1095 89.434C90.3287 91.5733 87.9709 92.6819 85.8239 91.9285L80.5656 90.0743L85.8863 92.4204C87.9006 93.3104 88.8765 95.6136 88.1036 97.6787L87.8928 98.2408C87.2058 100.087 85.3164 101.192 83.3684 100.899C75.7132 99.7437 58.1856 95.3286 63.8811 79.464L63.885 79.4562Z" fill="#27292D"/>
<path d="M84.3662 81.6807L90.089 83.7496" stroke="white" stroke-width="1.63565" stroke-linecap="round" stroke-linejoin="round"/>
<path d="M81.1387 90.624L86.7327 92.6969" stroke="white" stroke-width="1.63565" stroke-linecap="round" stroke-linejoin="round"/>
<path d="M96.4216 168.218C96.4216 168.218 90.0234 165.661 90.4997 157.65C90.6988 154.289 92.1197 151.123 94.3566 148.605C99.3806 142.941 111.49 132.139 124.154 141.907C124.154 141.907 131.778 146.013 127.562 157.869L120.183 184.746C120.183 184.746 146.268 178.16 143.633 206.353H78.0273L96.4255 168.218H96.4216Z" fill="#27292D"/>
<path d="M98.9238 198.545C98.9238 198.545 108.656 186.162 121.007 183.96" stroke="white" stroke-width="1.56148" stroke-linecap="round" stroke-linejoin="round"/>
<path d="M95.1523 168.884L103.584 153.522" stroke="white" stroke-width="1.56148" stroke-linecap="round" stroke-linejoin="round"/>
<path d="M167.463 204.069C168.564 206.493 171.66 207.219 173.689 205.497L216.193 169.458C217.157 168.666 217.313 167.065 216.283 166.359C186.868 146.227 180.419 170.302 180.419 170.302C180.419 170.302 175.259 159.125 160.643 149.452C142.741 137.604 135.46 149.44 135.46 149.44C131.721 154.761 132.962 162.1 138.24 165.894C138.24 165.894 155.568 177.89 167.463 204.073V204.069Z" fill="#27292D"/>
<path d="M179.92 188.632C179.92 188.632 176.769 179.993 180.072 168.895" stroke="white" stroke-width="1.56148" stroke-linecap="round" stroke-linejoin="round"/>
</g>
<defs>
<clipPath id="clip0_432_418">
<rect width="201.931" height="229.565" fill="white" transform="translate(21.0342 7.63867)"/>
</clipPath>
</defs>
</svg>
