<svg width="350" height="132" viewBox="0 0 350 132" fill="none" xmlns="http://www.w3.org/2000/svg">
<mask id="mask0_538_1699" style="mask-type:alpha" maskUnits="userSpaceOnUse" x="0" y="0" width="350" height="132">
<rect width="350" height="132" rx="12" fill="#EAEBFF"/>
</mask>
<g mask="url(#mask0_538_1699)">
<g style="mix-blend-mode:multiply" opacity="0.5">
<path d="M277.177 60.3433L272.731 72.6662C272.731 72.6662 324.754 103.563 344.688 255.934L383.569 232.815C383.569 232.815 344.689 90.2526 277.177 60.3433Z" fill="#EAEBFF"/>
<path d="M314.392 136.263C314.652 136.168 314.859 135.943 314.916 135.648C316.139 129.451 318.861 125.111 323.002 122.761C330.161 118.694 339.307 121.89 339.397 121.924C339.825 122.078 340.296 121.855 340.45 121.426C340.603 120.998 340.379 120.526 339.951 120.372C339.548 120.23 330.022 116.883 322.198 121.322C317.616 123.921 314.622 128.634 313.302 135.327C313.212 135.774 313.503 136.205 313.95 136.295C314.101 136.328 314.255 136.313 314.392 136.263Z" fill="#EAEBFF"/>
<path d="M296.052 98.8907C296.407 98.8065 296.671 98.479 296.657 98.097C296.517 93.7142 297.69 90.4262 300.134 88.3246C304.67 84.4318 312.194 85.7822 312.269 85.7934C312.697 85.8748 313.111 85.5936 313.187 85.1615C313.262 84.7295 312.987 84.3181 312.56 84.2412C312.222 84.1767 304.228 82.7307 299.112 87.1175C296.279 89.5473 294.922 93.2546 295.081 98.1433C295.093 98.5787 295.458 98.9208 295.893 98.9092C295.945 98.9064 296.001 98.898 296.051 98.8861L296.052 98.8907Z" fill="#EAEBFF"/>
<path d="M276.894 61.6557C276.894 61.6557 260.736 -8.7064 193.018 26.188L207.064 30.383L215.177 24.8632L214.099 32.8869L232.552 37.7L237.73 33.7495L236.794 39.6393L256.074 48.864L262.668 45.9013L261.31 51.4333L276.897 61.6538L276.894 61.6557Z" fill="#EAEBFF"/>
<path d="M279.975 68.5233C279.975 68.5233 229.576 18.3038 186.829 64.4114C186.829 64.4114 176.335 77.4277 174.04 91.232C174.04 91.232 187.179 82.5509 194.386 81.0112L199.077 70.1518L202.637 78.7065L215.734 76.6882L220.799 65.3089L222.776 73.69L241.052 73.3544L244.303 63.2168L247.716 72.3978L279.978 68.5221L279.975 68.5233Z" fill="#EAEBFF"/>
<path d="M279.47 68.1325C279.47 68.1325 222.511 59.8978 224.54 125.514C224.54 125.514 235.536 112.152 237.174 111.611L237.416 104.623L242.116 108.749L250.497 101.556L250.285 93.4086L254.28 99.1481L261.675 93.3708L261.814 84.4185L266.487 89.788L284.628 73.4198L279.474 68.1344L279.47 68.1325Z" fill="#EAEBFF"/>
<path d="M273.91 64.6762C273.91 64.6762 313.771 8.45288 346.793 82.653L329.881 75.3001L326.164 65.168L324.473 72.9706L312.346 71.4688L309.078 61.4833L307.855 70.9269L295.739 70.3251L286.401 65.0493L273.617 70.5888L273.914 64.6749L273.91 64.6762Z" fill="#EAEBFF"/>
<path d="M333.152 18.8738C333.152 18.8738 319.384 22.0551 316.539 25.8558L310.08 25.2251L312.55 29.3336L305.887 35.6117L297.989 30.1848L302.205 38.5244L290.685 48.544L287.508 43.9815L286.865 58.4377L278.742 58.1169C278.742 58.1169 268.606 25.9729 298.61 13.9259C298.61 13.9259 314.952 6.35887 333.151 18.8711L333.152 18.8738Z" fill="#EAEBFF"/>
<path d="M273.163 91.4348C267.883 93.3975 262.008 90.7018 260.043 85.4137C258.078 80.1257 260.765 74.2479 266.046 72.2852C271.327 70.3225 277.201 73.0182 279.167 78.3062C281.132 83.5942 278.444 89.4721 273.163 91.4348Z" fill="#EAEBFF"/>
<path d="M273.204 92.7792C274.325 92.6167 275.027 92.4159 275.055 92.4084C275.424 92.2983 275.636 91.9103 275.525 91.5373C275.415 91.1677 275.028 90.955 274.655 91.0656C274.628 91.0731 271.879 91.8713 268.648 91.5155C264.413 91.0506 261.369 88.9167 259.593 85.1666C259.425 84.816 259.012 84.6707 258.662 84.8347C258.311 85.0022 258.163 85.4163 258.33 85.767C261.95 93.4131 269.655 93.2972 273.201 92.7832L273.204 92.7792Z" fill="#EAEBFF"/>
<path d="M280.216 77.8087C272.835 80.5516 264.626 76.7843 261.879 69.3941C259.133 62.004 262.889 53.7895 270.269 51.0466C277.649 48.3037 285.858 52.071 288.605 59.4612C291.352 66.8513 287.596 75.0658 280.216 77.8087Z" fill="#EAEBFF"/>
<path d="M280.55 78.3568C281.611 77.9622 282.255 77.6182 282.28 77.6052C282.618 77.4199 282.744 76.996 282.557 76.6545C282.372 76.3163 281.948 76.19 281.607 76.3764C281.582 76.3895 279.063 77.7479 275.829 78.0795C271.591 78.5158 268.167 77.0697 265.641 73.777C265.404 73.4694 264.97 73.4142 264.661 73.6483C264.354 73.8857 264.296 74.3218 264.534 74.6294C269.681 81.3433 277.189 79.6096 280.548 78.3613L280.55 78.3568Z" fill="#EAEBFF"/>
</g>
</g>
</svg>
