<svg width="60" height="60" viewBox="0 0 60 60" fill="none" xmlns="http://www.w3.org/2000/svg">
<rect x="0.5" y="0.5" width="51" height="51" rx="25.5" fill="#DDDFFC" stroke="#797FF4"/>
<path d="M30.5777 14.767C30.9246 14.653 30.9788 14.1846 30.6662 13.9947C28.6787 12.7846 26.8701 12.0141 25.8221 11.6758C25.3397 11.5203 24.8374 11.8531 24.7923 12.3595C24.7453 12.8768 24.6983 13.5352 24.6875 14.1538C24.6875 14.1538 19.4008 10.236 14.7265 10.0009C14.3562 9.98282 14.0273 10.236 13.9334 10.5942C13.6208 11.788 13.086 14.8104 13.6931 20.1137L12.1952 19.9672C11.7616 19.9256 11.3749 20.2403 11.3316 20.6744C11.234 21.6439 11.169 23.6444 11.5159 26.0862C11.5683 26.4552 12.0344 26.5891 12.2693 26.2997C14.2532 23.856 19.6953 18.3284 30.5777 14.767Z" fill="#FF4747"/>
<path d="M35.31 16.923C22.516 19.647 14.7883 28.1247 12.1793 31.4546C11.9119 31.7946 11.845 32.2486 11.9986 32.6538C13.052 35.4212 14.707 38.2302 17.2763 40.5888C20.2843 43.3502 25.511 44.3272 29.6789 43.8257C35.6251 43.1101 41.7241 37.8142 41.9916 29.7308C42.1668 24.4384 39.5921 20.2891 36.4103 17.2413C36.1176 16.961 35.7057 16.838 35.31 16.923Z" fill="#FF4747"/>
<path fill-rule="evenodd" clip-rule="evenodd" d="M24.7774 33.0306C25.0073 32.9919 25.221 33.1739 25.2548 33.4373C25.3169 33.921 25.5234 34.686 25.9337 35.356C26.339 36.0177 26.9251 36.5615 27.7563 36.6928C27.9864 36.7292 28.1472 36.9724 28.1155 37.2361C28.0837 37.4998 27.8714 37.684 27.6413 37.6477C26.5209 37.4706 25.747 36.7292 25.2451 35.9097C24.7483 35.0984 24.5006 34.1863 24.4225 33.5775C24.3887 33.3142 24.5476 33.0693 24.7774 33.0306Z" fill="#27292D"/>
<path d="M34.6686 15.8106C34.179 15.3783 33.9874 15.2481 33.4273 14.8827C33.1527 14.7037 32.813 14.653 32.4986 14.7489C19.1915 18.8023 13.0683 25.8926 11.2217 28.3453C11.0374 28.5895 10.9651 28.897 11.0157 29.1991C11.1205 29.8231 11.1458 30.0365 11.3319 30.6244C11.4277 30.9228 11.8161 30.9934 12.0095 30.7474C14.604 27.4717 21.9884 19.6325 34.5078 16.4835C34.8113 16.4075 34.9035 16.0186 34.6686 15.8106Z" fill="#575FF1"/>
<path d="M29.2881 28.0412C29.2628 27.4605 29.1074 26.9179 28.8545 26.4332L33.5088 25.4148C33.8485 25.3407 34.1773 25.5812 34.2081 25.9285C34.4339 28.4608 32.7482 30.8266 30.2024 31.3837C29.3532 31.57 28.5076 31.5321 27.7271 31.3114C28.7226 30.5752 29.3459 29.3724 29.2881 28.0412Z" fill="white"/>
<path d="M24.7114 27.3398L28.8562 26.4336C29.1074 26.9165 29.2645 27.461 29.2898 28.0416C29.3477 29.3728 28.7243 30.5757 27.7288 31.3118C26.1641 30.8705 24.8541 29.6948 24.2886 28.094C24.173 27.7685 24.3753 27.4139 24.7114 27.3398Z" fill="#27292D"/>
<path d="M37.7144 24.0378C37.4597 23.6145 37.1236 23.2745 36.7388 23.0158L39.8573 20.3117C40.047 20.1471 40.3343 20.1851 40.477 20.3913C41.7292 22.1946 41.4455 24.6889 39.7507 26.1576C39.1924 26.6406 38.5474 26.9571 37.8752 27.1109C38.3197 26.1576 38.2962 25.0073 37.7144 24.0378Z" fill="white"/>
<path d="M33.9566 25.4266L36.7391 23.0137C37.1221 23.2723 37.46 23.6142 37.7148 24.0356C38.2984 25.0051 38.3201 26.1555 37.8756 27.1087C36.5042 27.4216 35.0226 27.0581 33.9476 26.0542C33.7651 25.8824 33.7669 25.5912 33.9566 25.4266Z" fill="#27292D"/>
<path fill-rule="evenodd" clip-rule="evenodd" d="M40.7241 19.1443C40.8907 19.3302 40.8753 19.6161 40.6896 19.7829L33.9231 25.8621C33.862 25.9171 33.787 25.9543 33.7063 25.9697L22.524 28.1113C22.2789 28.1582 22.0423 27.9974 21.9954 27.7521C21.9486 27.5068 22.1092 27.2699 22.3542 27.223L33.4132 25.1051L40.0862 19.1098C40.2719 18.943 40.5574 18.9584 40.7241 19.1443Z" fill="#27292D"/>
<rect x="39" width="16" height="16" rx="8" fill="#575FF1"/>
<path d="M48.929 11.8646H45.1007C44.9297 11.8646 44.7383 11.7312 44.6813 11.5694L42.9952 7.39534C42.7549 6.72412 43.0359 6.51791 43.6143 6.93034L45.2026 8.05847C45.4673 8.24042 45.7687 8.14742 45.8827 7.85225L46.5995 5.95587C46.8275 5.34935 47.2063 5.34935 47.4344 5.95587L48.1511 7.85225C48.2652 8.14742 48.5665 8.24042 48.8272 8.05847L50.3178 7.00312C50.9531 6.55025 51.2585 6.78073 50.9979 7.5126L49.3525 11.5775C49.2915 11.7312 49.1 11.8646 48.929 11.8646Z" fill="white"/>
<circle cx="51.5454" cy="6.2729" r="0.454545" fill="white"/>
<circle cx="42.4545" cy="6.2729" r="0.454545" fill="white"/>
<circle cx="47" cy="4.45455" r="0.454545" fill="white"/>
</svg>
