<svg width="390" height="812" viewBox="0 0 390 812" fill="none" xmlns="http://www.w3.org/2000/svg">
<g clip-path="url(#clip0_1075_919)">
<rect width="390" height="812" fill="#797FF4"/>
<g style="mix-blend-mode:multiply">
<path d="M302.131 150.306L295.784 167.896C295.784 167.896 370.044 211.999 398.5 429.499L454 396.499C454 396.499 398.5 193 302.131 150.306Z" fill="#EAEBFF"/>
<path d="M429.567 302.401C429.734 302.303 429.884 302.165 429.99 301.987C430.357 301.402 430.179 300.63 429.595 300.262C428.99 299.884 414.607 290.999 398.789 295.214C388.787 297.88 380.56 305.188 374.329 316.944C374.005 317.553 374.238 318.308 374.847 318.633C375.457 318.957 376.211 318.726 376.535 318.116C382.417 307.014 390.115 300.125 399.409 297.634C414.162 293.687 428.122 302.283 428.263 302.374C428.672 302.628 429.167 302.621 429.555 302.394L429.567 302.401Z" fill="white"/>
<path d="M355.254 258.677C355.624 258.541 355.92 258.219 356.002 257.798C357.747 248.953 361.633 242.758 367.544 239.403C377.763 233.597 390.818 238.16 390.947 238.209C391.558 238.429 392.23 238.11 392.449 237.498C392.668 236.887 392.348 236.214 391.737 235.994C391.162 235.791 377.564 231.013 366.396 237.35C359.855 241.059 355.582 247.787 353.697 257.341C353.569 257.978 353.985 258.594 354.622 258.723C354.838 258.769 355.059 258.748 355.254 258.677Z" fill="white"/>
<path d="M329.073 205.33C329.58 205.21 329.957 204.742 329.937 204.197C329.737 197.941 331.411 193.247 334.901 190.247C341.375 184.691 352.115 186.618 352.222 186.634C352.833 186.75 353.424 186.349 353.532 185.732C353.64 185.116 353.247 184.528 352.637 184.418C352.155 184.327 340.744 182.262 333.442 188.524C329.398 191.993 327.461 197.285 327.688 204.263C327.705 204.884 328.226 205.373 328.846 205.356C328.921 205.352 329 205.34 329.072 205.323L329.073 205.33Z" fill="white"/>
<path d="M301.728 152.179C301.728 152.179 278.664 51.741 182.001 101.551L202.051 107.539L213.632 99.6595L212.093 111.113L238.434 117.983L245.825 112.344L244.488 120.751L272.01 133.919L281.422 129.69L279.484 137.587L301.733 152.176L301.728 152.179Z" fill="#EAEBFF"/>
<path d="M306.126 161.981C306.126 161.981 234.185 90.2964 173.166 156.112C173.166 156.112 158.186 174.692 154.911 194.397C154.911 194.397 173.665 182.005 183.953 179.807L190.649 164.306L195.73 176.517L214.426 173.636L221.655 157.393L224.478 169.357L250.566 168.877L255.207 154.407L260.078 167.512L306.13 161.98L306.126 161.981Z" fill="#EAEBFF"/>
<path d="M305.405 161.425C305.405 161.425 224.1 149.67 226.996 243.333C226.996 243.333 242.692 224.26 245.03 223.487L245.376 213.513L252.084 219.402L264.048 209.135L263.745 197.505L269.449 205.697L280.005 197.451L280.202 184.672L286.873 192.337L312.768 168.972L305.411 161.427L305.405 161.425Z" fill="#EAEBFF"/>
<path d="M297.469 156.491C297.469 156.491 354.367 76.2358 401.505 182.152L377.364 171.656L372.057 157.193L369.644 168.331L352.333 166.187L347.669 151.933L345.924 165.413L328.628 164.555L315.299 157.024L297.05 164.931L297.474 156.489L297.469 156.491Z" fill="#EAEBFF"/>
<path d="M382.032 91.1108C382.032 91.1108 362.38 95.652 358.318 101.077L349.099 100.177L352.624 106.042L343.114 115.003L331.839 107.257L337.857 119.161L321.413 133.463L316.878 126.95L315.961 147.586L304.365 147.128C304.365 147.128 289.897 101.244 332.726 84.0481C332.726 84.0481 356.053 73.2466 382.03 91.107L382.032 91.1108Z" fill="#EAEBFF"/>
<path d="M296.403 194.687C288.865 197.488 280.48 193.641 277.675 186.092C274.869 178.544 278.706 170.154 286.244 167.352C293.782 164.55 302.167 168.398 304.972 175.947C307.778 183.495 303.941 191.885 296.403 194.687Z" fill="#EAEBFF"/>
<path d="M296.462 196.606C298.063 196.374 299.065 196.087 299.104 196.077C299.63 195.92 299.933 195.366 299.775 194.833C299.618 194.306 299.065 194.002 298.533 194.16C298.494 194.171 294.57 195.31 289.959 194.802C283.913 194.139 279.569 191.093 277.033 185.74C276.794 185.239 276.204 185.032 275.704 185.266C275.204 185.505 274.992 186.096 275.231 186.597C280.398 197.511 291.396 197.345 296.458 196.612L296.462 196.606Z" fill="white"/>
<path d="M306.469 175.236C295.935 179.151 284.216 173.774 280.296 163.225C276.375 152.676 281.737 140.95 292.271 137.035C302.806 133.119 314.524 138.497 318.445 149.046C322.365 159.595 317.004 171.321 306.469 175.236Z" fill="#EAEBFF"/>
<path d="M306.946 176.019C308.461 175.455 309.381 174.964 309.416 174.946C309.898 174.681 310.078 174.076 309.812 173.589C309.547 173.106 308.942 172.926 308.456 173.192C308.42 173.211 304.823 175.15 300.208 175.623C294.158 176.246 289.27 174.181 285.665 169.481C285.327 169.042 284.706 168.964 284.266 169.298C283.828 169.637 283.745 170.259 284.084 170.698C291.431 180.282 302.148 177.807 306.943 176.025L306.946 176.019Z" fill="white"/>
</g>
</g>
<defs>
<clipPath id="clip0_1075_919">
<rect width="390" height="812" fill="white"/>
</clipPath>
</defs>
</svg>
