<svg width="350" height="132" viewBox="0 0 350 132" fill="none" xmlns="http://www.w3.org/2000/svg">
<rect width="350" height="132" rx="12" fill="white"/>
<mask id="mask0_1075_1103" style="mask-type:alpha" maskUnits="userSpaceOnUse" x="0" y="0" width="350" height="132">
<rect width="350" height="132" rx="12" fill="#EAEBFF"/>
</mask>
<g mask="url(#mask0_1075_1103)">
<g style="mix-blend-mode:multiply" opacity="0.5">
<path d="M277.177 60.3433L272.73 72.6662C272.73 72.6662 324.753 103.563 344.688 255.934L383.569 232.815C383.569 232.815 344.688 90.2526 277.177 60.3433Z" fill="#EAEBFF"/>
<path d="M314.392 136.263C314.651 136.168 314.858 135.943 314.916 135.648C316.139 129.451 318.861 125.111 323.001 122.761C330.161 118.694 339.307 121.89 339.397 121.924C339.825 122.078 340.296 121.855 340.449 121.426C340.602 120.998 340.379 120.526 339.951 120.372C339.547 120.23 330.021 116.883 322.197 121.322C317.615 123.921 314.622 128.634 313.301 135.327C313.211 135.774 313.503 136.205 313.949 136.295C314.1 136.328 314.255 136.313 314.392 136.263Z" fill="#EAEBFF"/>
<path d="M296.051 98.8907C296.407 98.8065 296.67 98.479 296.657 98.097C296.517 93.7142 297.689 90.4262 300.134 88.3246C304.669 84.4318 312.194 85.7822 312.268 85.7934C312.696 85.8748 313.111 85.5936 313.186 85.1615C313.262 84.7295 312.986 84.3181 312.559 84.2412C312.222 84.1767 304.227 82.7307 299.112 87.1175C296.278 89.5473 294.921 93.2546 295.081 98.1433C295.093 98.5788 295.457 98.9208 295.892 98.9092C295.945 98.9064 296 98.898 296.05 98.8861L296.051 98.8907Z" fill="#EAEBFF"/>
<path d="M276.893 61.6557C276.893 61.6557 260.735 -8.7064 193.017 26.188L207.063 30.383L215.176 24.8632L214.098 32.8869L232.552 37.7L237.73 33.7495L236.793 39.6393L256.073 48.864L262.667 45.9013L261.31 51.4333L276.896 61.6538L276.893 61.6557Z" fill="#EAEBFF"/>
<path d="M279.974 68.5233C279.974 68.5233 229.575 18.3038 186.828 64.4114C186.828 64.4114 176.334 77.4277 174.039 91.232C174.039 91.232 187.178 82.5509 194.385 81.0112L199.076 70.1518L202.636 78.7065L215.733 76.6882L220.798 65.3089L222.775 73.69L241.051 73.3544L244.302 63.2168L247.715 72.3978L279.977 68.5221L279.974 68.5233Z" fill="#EAEBFF"/>
<path d="M279.469 68.1325C279.469 68.1325 222.51 59.8978 224.539 125.514C224.539 125.514 235.535 112.152 237.173 111.611L237.415 104.623L242.115 108.749L250.496 101.556L250.284 93.4086L254.279 99.1481L261.674 93.3708L261.813 84.4185L266.486 89.788L284.627 73.4198L279.473 68.1344L279.469 68.1325Z" fill="#EAEBFF"/>
<path d="M273.909 64.6762C273.909 64.6762 313.77 8.45288 346.792 82.653L329.88 75.3001L326.163 65.168L324.472 72.9706L312.345 71.4688L309.077 61.4833L307.854 70.9269L295.738 70.3251L286.4 65.0493L273.616 70.5888L273.913 64.6749L273.909 64.6762Z" fill="#EAEBFF"/>
<path d="M333.151 18.8738C333.151 18.8738 319.383 22.0551 316.538 25.8558L310.079 25.2251L312.549 29.3336L305.887 35.6117L297.988 30.1848L302.204 38.5244L290.684 48.544L287.507 43.9815L286.864 58.4377L278.741 58.1169C278.741 58.1169 268.605 25.9729 298.609 13.9259C298.609 13.9259 314.951 6.35887 333.15 18.8711L333.151 18.8738Z" fill="#EAEBFF"/>
<path d="M273.163 91.4348C267.882 93.3975 262.008 90.7018 260.043 85.4137C258.077 80.1257 260.765 74.2479 266.046 72.2852C271.326 70.3225 277.201 73.0182 279.166 78.3062C281.131 83.5942 278.444 89.4721 273.163 91.4348Z" fill="#EAEBFF"/>
<path d="M273.204 92.7792C274.325 92.6167 275.027 92.4159 275.055 92.4084C275.424 92.2983 275.636 91.9103 275.525 91.5373C275.415 91.1677 275.028 90.955 274.655 91.0656C274.628 91.0731 271.879 91.8713 268.648 91.5155C264.413 91.0506 261.369 88.9167 259.593 85.1666C259.425 84.816 259.012 84.6707 258.662 84.8347C258.311 85.0022 258.163 85.4163 258.33 85.767C261.95 93.4131 269.655 93.2972 273.201 92.7832L273.204 92.7792Z" fill="#EAEBFF"/>
<path d="M280.215 77.8087C272.834 80.5516 264.625 76.7843 261.878 69.3941C259.132 62.004 262.888 53.7895 270.268 51.0466C277.648 48.3037 285.857 52.071 288.604 59.4612C291.351 66.8513 287.595 75.0658 280.215 77.8087Z" fill="#EAEBFF"/>
<path d="M280.549 78.3568C281.611 77.9622 282.255 77.6182 282.28 77.6052C282.618 77.4199 282.743 76.996 282.557 76.6545C282.372 76.3163 281.948 76.19 281.607 76.3764C281.582 76.3895 279.062 77.7479 275.829 78.0795C271.59 78.5158 268.166 77.0697 265.641 73.777C265.404 73.4694 264.969 73.4142 264.661 73.6483C264.354 73.8857 264.296 74.3218 264.533 74.6294C269.68 81.3433 277.188 79.6096 280.547 78.3613L280.549 78.3568Z" fill="#EAEBFF"/>
</g>
</g>
</svg>
