<svg width="14" height="14" viewBox="0 0 14 14" fill="none" xmlns="http://www.w3.org/2000/svg">
<path d="M10.1123 11.1295C10.4775 11.0534 10.8225 10.9063 11.1065 10.6882C11.8978 10.0947 11.8978 9.11566 11.1065 8.52218C10.8275 8.30913 10.4877 8.1671 10.1275 8.08594" stroke="#C3CAD5" stroke-width="0.760883" stroke-linecap="round" stroke-linejoin="round"/>
<path d="M2.92067 8.37199C1.69311 9.19374 1.69311 10.5329 2.92067 11.3496C4.31562 12.2829 6.60334 12.2829 7.99829 11.3496C9.22585 10.5278 9.22585 9.18867 7.99829 8.37199C6.60841 7.44371 4.32069 7.44371 2.92067 8.37199Z" stroke="#C3CAD5" stroke-width="0.760883" stroke-linecap="round" stroke-linejoin="round"/>
<path d="M9.13528 3.01562C10.1194 3.01562 10.9107 3.81202 10.9107 4.79102C10.9107 5.74973 10.1498 6.5309 9.20122 6.56641C9.16064 6.56134 9.11499 6.56134 9.06934 6.56641" stroke="#C3CAD5" stroke-width="0.760883" stroke-linecap="round" stroke-linejoin="round"/>
<path d="M5.4574 6.49935C5.40667 6.49428 5.3458 6.49428 5.29 6.49935C4.08274 6.45877 3.12402 5.46962 3.12402 4.25221C3.12402 3.00944 4.12839 2 5.37624 2C6.61901 2 7.62845 3.00944 7.62845 4.25221C7.62338 5.46962 6.66466 6.45877 5.4574 6.49935Z" stroke="#C3CAD5" stroke-width="0.760883" stroke-linecap="round" stroke-linejoin="round"/>
</svg>
