<svg width="32" height="32" viewBox="0 0 32 32" fill="none" xmlns="http://www.w3.org/2000/svg">
<g clip-path="url(#clip0_587_2837)">
<rect width="32" height="32" fill="#575FF1"/>
<rect width="32" height="32" rx="16" fill="#575FF1"/>
<path d="M13.3759 6.27726C12.5958 5.91299 11.7024 5.9794 10.8753 6.37954C10.9204 6.39595 10.9682 6.41238 11.0133 6.43411C12.149 6.96687 12.5071 8.59844 11.8139 10.0844C11.1207 11.5678 9.63459 12.3403 8.49889 11.8075C8.3848 11.7532 8.28146 11.6883 8.18355 11.6127C8.34706 12.6696 8.89862 13.5487 9.78225 13.9619C11.4089 14.723 13.5297 13.6179 14.5218 11.4978C15.514 9.37491 15.0025 7.03839 13.3759 6.27726Z" fill="white"/>
<path d="M11.8133 10.0852C12.5065 8.60184 12.1484 6.9676 11.0127 6.43484C10.9676 6.41311 10.9197 6.39934 10.8746 6.38028C9.9752 6.81439 9.15216 7.63829 8.63568 8.74216C8.18173 9.7107 8.04716 10.7248 8.18291 11.6135C8.28084 11.6863 8.38415 11.7539 8.49824 11.8082C9.63394 12.341 11.1201 11.5685 11.8133 10.0852Z" fill="#27292D"/>
<path d="M17.596 9.28513C16.7602 8.8937 15.8028 8.96752 14.9141 9.3964C14.9645 9.41552 15.0124 9.43195 15.0628 9.45373C16.2807 10.0246 16.6644 11.7736 15.9223 13.3658C15.1775 14.9552 13.5869 15.7827 12.3689 15.2146C12.2468 15.1575 12.1356 15.0845 12.0324 15.0063C12.2085 16.1378 12.7995 17.0813 13.7441 17.5244C15.4875 18.3399 17.7609 17.1562 18.8264 14.8822C19.8893 12.6081 19.342 10.1033 17.5987 9.28782L17.596 9.28513Z" fill="white"/>
<path d="M15.9194 13.3651C16.6642 11.7756 16.2805 10.0239 15.0599 9.45307C15.0121 9.43131 14.9616 9.41485 14.9112 9.39574C13.9475 9.86124 13.0653 10.7432 12.5108 11.9267C12.0242 12.9669 11.8784 14.0502 12.0268 15.0029C12.1327 15.0812 12.244 15.1542 12.3634 15.2112C13.5813 15.782 15.1719 14.9545 15.9167 13.3624L15.9194 13.3651Z" fill="#27292D"/>
<path d="M19.5295 25.4515C22.0563 25.4747 24.1236 23.4451 24.1468 20.9182C24.17 18.3913 22.1404 16.324 19.6135 16.3008C17.0866 16.2776 15.0194 18.3072 14.9962 20.8341C14.973 23.361 17.0026 25.4282 19.5295 25.4515Z" fill="#FF4747"/>
<path d="M13.473 22.0125L13.4704 22.0125C13.0141 22.0083 12.6409 22.3747 12.6367 22.8309L12.633 23.236C12.6288 23.6922 12.9952 24.0654 13.4515 24.0696L13.4541 24.0697C13.9103 24.0738 14.2836 23.7074 14.2878 23.2512L14.2915 22.8461C14.2957 22.3899 13.9292 22.0167 13.473 22.0125Z" fill="white"/>
<path d="M14.6123 22.7608C10.5699 22.7236 9.27125 19.3352 9.25563 19.2951C9.15682 19.0277 9.29546 18.7305 9.56286 18.6317C9.83026 18.5329 10.1248 18.6688 10.2236 18.9362C10.2835 19.0967 11.7704 22.8732 16.9515 21.3752C17.2241 21.2951 17.5104 21.4549 17.5905 21.7275C17.6707 22 17.5108 22.2864 17.2382 22.3665C16.2549 22.6506 15.3851 22.7652 14.6123 22.7581L14.6123 22.7608Z" fill="#27292D"/>
</g>
<defs>
<clipPath id="clip0_587_2837">
<rect width="32" height="32" fill="white"/>
</clipPath>
</defs>
</svg>
